# Tiled2Unity generated file. Do not modify by hand.
# Wavefront file for 'T1_mesh_0002.obj'

# Vertices (Count = 1032)
v -304 -16 0
v -320 -16 0
v -320 0 0
v -304 0 0
v -288 -16 0
v -304 -16 0
v -304 0 0
v -288 0 0
v -272 -16 0
v -288 -16 0
v -288 0 0
v -272 0 0
v -256 -16 0
v -272 -16 0
v -272 0 0
v -256 0 0
v -240 -16 0
v -256 -16 0
v -256 0 0
v -240 0 0
v -224 -16 0
v -240 -16 0
v -240 0 0
v -224 0 0
v -80 -16 0
v -96 -16 0
v -96 0 0
v -80 0 0
v -64 -16 0
v -80 -16 0
v -80 0 0
v -64 0 0
v -48 -16 0
v -64 -16 0
v -64 0 0
v -48 0 0
v -32 -16 0
v -48 -16 0
v -48 0 0
v -32 0 0
v -16 -16 0
v -32 -16 0
v -32 0 0
v -16 0 0
v 0 -16 0
v -16 -16 0
v -16 0 0
v 0 0 0
v -304 -32 0
v -320 -32 0
v -320 -16 0
v -304 -16 0
v -288 -32 0
v -304 -32 0
v -304 -16 0
v -288 -16 0
v -272 -32 0
v -288 -32 0
v -288 -16 0
v -272 -16 0
v -256 -32 0
v -272 -32 0
v -272 -16 0
v -256 -16 0
v -240 -32 0
v -256 -32 0
v -256 -16 0
v -240 -16 0
v -224 -32 0
v -240 -32 0
v -240 -16 0
v -224 -16 0
v -80 -32 0
v -96 -32 0
v -96 -16 0
v -80 -16 0
v -64 -32 0
v -80 -32 0
v -80 -16 0
v -64 -16 0
v -48 -32 0
v -64 -32 0
v -64 -16 0
v -48 -16 0
v -32 -32 0
v -48 -32 0
v -48 -16 0
v -32 -16 0
v -16 -32 0
v -32 -32 0
v -32 -16 0
v -16 -16 0
v 0 -32 0
v -16 -32 0
v -16 -16 0
v 0 -16 0
v -304 -48 0
v -320 -48 0
v -320 -32 0
v -304 -32 0
v -288 -48 0
v -304 -48 0
v -304 -32 0
v -288 -32 0
v -272 -48 0
v -288 -48 0
v -288 -32 0
v -272 -32 0
v -256 -48 0
v -272 -48 0
v -272 -32 0
v -256 -32 0
v -80 -48 0
v -96 -48 0
v -96 -32 0
v -80 -32 0
v -64 -48 0
v -80 -48 0
v -80 -32 0
v -64 -32 0
v -48 -48 0
v -64 -48 0
v -64 -32 0
v -48 -32 0
v -32 -48 0
v -48 -48 0
v -48 -32 0
v -32 -32 0
v -16 -48 0
v -32 -48 0
v -32 -32 0
v -16 -32 0
v 0 -48 0
v -16 -48 0
v -16 -32 0
v 0 -32 0
v -304 -64 0
v -320 -64 0
v -320 -48 0
v -304 -48 0
v -288 -64 0
v -304 -64 0
v -304 -48 0
v -288 -48 0
v -272 -64 0
v -288 -64 0
v -288 -48 0
v -272 -48 0
v -256 -64 0
v -272 -64 0
v -272 -48 0
v -256 -48 0
v -240 -64 0
v -256 -64 0
v -256 -48 0
v -240 -48 0
v -208 -64 0
v -224 -64 0
v -224 -48 0
v -208 -48 0
v -192 -64 0
v -208 -64 0
v -208 -48 0
v -192 -48 0
v -176 -64 0
v -192 -64 0
v -192 -48 0
v -176 -48 0
v -64 -64 0
v -80 -64 0
v -80 -48 0
v -64 -48 0
v -48 -64 0
v -64 -64 0
v -64 -48 0
v -48 -48 0
v -32 -64 0
v -48 -64 0
v -48 -48 0
v -32 -48 0
v -16 -64 0
v -32 -64 0
v -32 -48 0
v -16 -48 0
v 0 -64 0
v -16 -64 0
v -16 -48 0
v 0 -48 0
v -304 -80 0
v -320 -80 0
v -320 -64 0
v -304 -64 0
v -288 -80 0
v -304 -80 0
v -304 -64 0
v -288 -64 0
v -272 -80 0
v -288 -80 0
v -288 -64 0
v -272 -64 0
v -256 -80 0
v -272 -80 0
v -272 -64 0
v -256 -64 0
v -224 -80 0
v -240 -80 0
v -240 -64 0
v -224 -64 0
v -208 -80 0
v -224 -80 0
v -224 -64 0
v -208 -64 0
v -192 -80 0
v -208 -80 0
v -208 -64 0
v -192 -64 0
v -176 -80 0
v -192 -80 0
v -192 -64 0
v -176 -64 0
v -48 -80 0
v -64 -80 0
v -64 -64 0
v -48 -64 0
v -32 -80 0
v -48 -80 0
v -48 -64 0
v -32 -64 0
v -16 -80 0
v -32 -80 0
v -32 -64 0
v -16 -64 0
v 0 -80 0
v -16 -80 0
v -16 -64 0
v 0 -64 0
v -304 -96 0
v -320 -96 0
v -320 -80 0
v -304 -80 0
v -288 -96 0
v -304 -96 0
v -304 -80 0
v -288 -80 0
v -272 -96 0
v -288 -96 0
v -288 -80 0
v -272 -80 0
v -240 -96 0
v -256 -96 0
v -256 -80 0
v -240 -80 0
v -224 -96 0
v -240 -96 0
v -240 -80 0
v -224 -80 0
v -208 -96 0
v -224 -96 0
v -224 -80 0
v -208 -80 0
v -192 -96 0
v -208 -96 0
v -208 -80 0
v -192 -80 0
v -176 -96 0
v -192 -96 0
v -192 -80 0
v -176 -80 0
v -48 -96 0
v -64 -96 0
v -64 -80 0
v -48 -80 0
v -32 -96 0
v -48 -96 0
v -48 -80 0
v -32 -80 0
v -16 -96 0
v -32 -96 0
v -32 -80 0
v -16 -80 0
v 0 -96 0
v -16 -96 0
v -16 -80 0
v 0 -80 0
v -304 -112 0
v -320 -112 0
v -320 -96 0
v -304 -96 0
v -288 -112 0
v -304 -112 0
v -304 -96 0
v -288 -96 0
v -272 -112 0
v -288 -112 0
v -288 -96 0
v -272 -96 0
v -240 -112 0
v -256 -112 0
v -256 -96 0
v -240 -96 0
v -224 -112 0
v -240 -112 0
v -240 -96 0
v -224 -96 0
v -208 -112 0
v -224 -112 0
v -224 -96 0
v -208 -96 0
v -192 -112 0
v -208 -112 0
v -208 -96 0
v -192 -96 0
v -32 -112 0
v -48 -112 0
v -48 -96 0
v -32 -96 0
v -16 -112 0
v -32 -112 0
v -32 -96 0
v -16 -96 0
v 0 -112 0
v -16 -112 0
v -16 -96 0
v 0 -96 0
v -304 -128 0
v -320 -128 0
v -320 -112 0
v -304 -112 0
v -288 -128 0
v -304 -128 0
v -304 -112 0
v -288 -112 0
v -272 -128 0
v -288 -128 0
v -288 -112 0
v -272 -112 0
v -240 -128 0
v -256 -128 0
v -256 -112 0
v -240 -112 0
v -224 -128 0
v -240 -128 0
v -240 -112 0
v -224 -112 0
v -208 -128 0
v -224 -128 0
v -224 -112 0
v -208 -112 0
v -96 -128 0
v -112 -128 0
v -112 -112 0
v -96 -112 0
v -80 -128 0
v -96 -128 0
v -96 -112 0
v -80 -112 0
v -64 -128 0
v -80 -128 0
v -80 -112 0
v -64 -112 0
v -32 -128 0
v -48 -128 0
v -48 -112 0
v -32 -112 0
v -16 -128 0
v -32 -128 0
v -32 -112 0
v -16 -112 0
v 0 -128 0
v -16 -128 0
v -16 -112 0
v 0 -112 0
v -304 -144 0
v -320 -144 0
v -320 -128 0
v -304 -128 0
v -288 -144 0
v -304 -144 0
v -304 -128 0
v -288 -128 0
v -272 -144 0
v -288 -144 0
v -288 -128 0
v -272 -128 0
v -240 -144 0
v -256 -144 0
v -256 -128 0
v -240 -128 0
v -224 -144 0
v -240 -144 0
v -240 -128 0
v -224 -128 0
v -208 -144 0
v -224 -144 0
v -224 -128 0
v -208 -128 0
v -96 -144 0
v -112 -144 0
v -112 -128 0
v -96 -128 0
v -80 -144 0
v -96 -144 0
v -96 -128 0
v -80 -128 0
v -64 -144 0
v -80 -144 0
v -80 -128 0
v -64 -128 0
v -32 -144 0
v -48 -144 0
v -48 -128 0
v -32 -128 0
v -16 -144 0
v -32 -144 0
v -32 -128 0
v -16 -128 0
v 0 -144 0
v -16 -144 0
v -16 -128 0
v 0 -128 0
v -304 -160 0
v -320 -160 0
v -320 -144 0
v -304 -144 0
v -288 -160 0
v -304 -160 0
v -304 -144 0
v -288 -144 0
v -272 -160 0
v -288 -160 0
v -288 -144 0
v -272 -144 0
v -96 -160 0
v -112 -160 0
v -112 -144 0
v -96 -144 0
v -80 -160 0
v -96 -160 0
v -96 -144 0
v -80 -144 0
v -64 -160 0
v -80 -160 0
v -80 -144 0
v -64 -144 0
v -32 -160 0
v -48 -160 0
v -48 -144 0
v -32 -144 0
v -16 -160 0
v -32 -160 0
v -32 -144 0
v -16 -144 0
v 0 -160 0
v -16 -160 0
v -16 -144 0
v 0 -144 0
v -304 -176 0
v -320 -176 0
v -320 -160 0
v -304 -160 0
v -288 -176 0
v -304 -176 0
v -304 -160 0
v -288 -160 0
v -272 -176 0
v -288 -176 0
v -288 -160 0
v -272 -160 0
v -96 -176 0
v -112 -176 0
v -112 -160 0
v -96 -160 0
v -80 -176 0
v -96 -176 0
v -96 -160 0
v -80 -160 0
v -64 -176 0
v -80 -176 0
v -80 -160 0
v -64 -160 0
v -32 -176 0
v -48 -176 0
v -48 -160 0
v -32 -160 0
v -16 -176 0
v -32 -176 0
v -32 -160 0
v -16 -160 0
v 0 -176 0
v -16 -176 0
v -16 -160 0
v 0 -160 0
v -304 -192 0
v -320 -192 0
v -320 -176 0
v -304 -176 0
v -288 -192 0
v -304 -192 0
v -304 -176 0
v -288 -176 0
v -272 -192 0
v -288 -192 0
v -288 -176 0
v -272 -176 0
v -112 -192 0
v -128 -192 0
v -128 -176 0
v -112 -176 0
v -96 -192 0
v -112 -192 0
v -112 -176 0
v -96 -176 0
v -80 -192 0
v -96 -192 0
v -96 -176 0
v -80 -176 0
v -64 -192 0
v -80 -192 0
v -80 -176 0
v -64 -176 0
v -32 -192 0
v -48 -192 0
v -48 -176 0
v -32 -176 0
v -16 -192 0
v -32 -192 0
v -32 -176 0
v -16 -176 0
v 0 -192 0
v -16 -192 0
v -16 -176 0
v 0 -176 0
v -304 -208 0
v -320 -208 0
v -320 -192 0
v -304 -192 0
v -288 -208 0
v -304 -208 0
v -304 -192 0
v -288 -192 0
v -272 -208 0
v -288 -208 0
v -288 -192 0
v -272 -192 0
v -224 -208 0
v -240 -208 0
v -240 -192 0
v -224 -192 0
v -208 -208 0
v -224 -208 0
v -224 -192 0
v -208 -192 0
v -192 -208 0
v -208 -208 0
v -208 -192 0
v -192 -192 0
v -176 -208 0
v -192 -208 0
v -192 -192 0
v -176 -192 0
v -160 -208 0
v -176 -208 0
v -176 -192 0
v -160 -192 0
v -144 -208 0
v -160 -208 0
v -160 -192 0
v -144 -192 0
v -112 -208 0
v -128 -208 0
v -128 -192 0
v -112 -192 0
v -96 -208 0
v -112 -208 0
v -112 -192 0
v -96 -192 0
v -80 -208 0
v -96 -208 0
v -96 -192 0
v -80 -192 0
v -64 -208 0
v -80 -208 0
v -80 -192 0
v -64 -192 0
v -32 -208 0
v -48 -208 0
v -48 -192 0
v -32 -192 0
v -16 -208 0
v -32 -208 0
v -32 -192 0
v -16 -192 0
v 0 -208 0
v -16 -208 0
v -16 -192 0
v 0 -192 0
v -304 -224 0
v -320 -224 0
v -320 -208 0
v -304 -208 0
v -288 -224 0
v -304 -224 0
v -304 -208 0
v -288 -208 0
v -272 -224 0
v -288 -224 0
v -288 -208 0
v -272 -208 0
v -256 -224 0
v -272 -224 0
v -272 -208 0
v -256 -208 0
v -224 -224 0
v -240 -224 0
v -240 -208 0
v -224 -208 0
v -208 -224 0
v -224 -224 0
v -224 -208 0
v -208 -208 0
v -192 -224 0
v -208 -224 0
v -208 -208 0
v -192 -208 0
v -176 -224 0
v -192 -224 0
v -192 -208 0
v -176 -208 0
v -160 -224 0
v -176 -224 0
v -176 -208 0
v -160 -208 0
v -144 -224 0
v -160 -224 0
v -160 -208 0
v -144 -208 0
v -128 -224 0
v -144 -224 0
v -144 -208 0
v -128 -208 0
v -112 -224 0
v -128 -224 0
v -128 -208 0
v -112 -208 0
v -96 -224 0
v -112 -224 0
v -112 -208 0
v -96 -208 0
v -80 -224 0
v -96 -224 0
v -96 -208 0
v -80 -208 0
v -64 -224 0
v -80 -224 0
v -80 -208 0
v -64 -208 0
v -32 -224 0
v -48 -224 0
v -48 -208 0
v -32 -208 0
v -16 -224 0
v -32 -224 0
v -32 -208 0
v -16 -208 0
v 0 -224 0
v -16 -224 0
v -16 -208 0
v 0 -208 0
v -304 -240 0
v -320 -240 0
v -320 -224 0
v -304 -224 0
v -288 -240 0
v -304 -240 0
v -304 -224 0
v -288 -224 0
v -272 -240 0
v -288 -240 0
v -288 -224 0
v -272 -224 0
v -256 -240 0
v -272 -240 0
v -272 -224 0
v -256 -224 0
v -176 -240 0
v -192 -240 0
v -192 -224 0
v -176 -224 0
v -160 -240 0
v -176 -240 0
v -176 -224 0
v -160 -224 0
v -144 -240 0
v -160 -240 0
v -160 -224 0
v -144 -224 0
v -128 -240 0
v -144 -240 0
v -144 -224 0
v -128 -224 0
v -112 -240 0
v -128 -240 0
v -128 -224 0
v -112 -224 0
v -96 -240 0
v -112 -240 0
v -112 -224 0
v -96 -224 0
v -80 -240 0
v -96 -240 0
v -96 -224 0
v -80 -224 0
v -32 -240 0
v -48 -240 0
v -48 -224 0
v -32 -224 0
v -16 -240 0
v -32 -240 0
v -32 -224 0
v -16 -224 0
v 0 -240 0
v -16 -240 0
v -16 -224 0
v 0 -224 0
v -304 -256 0
v -320 -256 0
v -320 -240 0
v -304 -240 0
v -288 -256 0
v -304 -256 0
v -304 -240 0
v -288 -240 0
v -272 -256 0
v -288 -256 0
v -288 -240 0
v -272 -240 0
v -256 -256 0
v -272 -256 0
v -272 -240 0
v -256 -240 0
v -48 -256 0
v -64 -256 0
v -64 -240 0
v -48 -240 0
v -32 -256 0
v -48 -256 0
v -48 -240 0
v -32 -240 0
v -16 -256 0
v -32 -256 0
v -32 -240 0
v -16 -240 0
v 0 -256 0
v -16 -256 0
v -16 -240 0
v 0 -240 0
v -304 -272 0
v -320 -272 0
v -320 -256 0
v -304 -256 0
v -288 -272 0
v -304 -272 0
v -304 -256 0
v -288 -256 0
v -272 -272 0
v -288 -272 0
v -288 -256 0
v -272 -256 0
v -256 -272 0
v -272 -272 0
v -272 -256 0
v -256 -256 0
v -240 -272 0
v -256 -272 0
v -256 -256 0
v -240 -256 0
v -64 -272 0
v -80 -272 0
v -80 -256 0
v -64 -256 0
v -48 -272 0
v -64 -272 0
v -64 -256 0
v -48 -256 0
v -32 -272 0
v -48 -272 0
v -48 -256 0
v -32 -256 0
v -16 -272 0
v -32 -272 0
v -32 -256 0
v -16 -256 0
v 0 -272 0
v -16 -272 0
v -16 -256 0
v 0 -256 0
v -304 -288 0
v -320 -288 0
v -320 -272 0
v -304 -272 0
v -288 -288 0
v -304 -288 0
v -304 -272 0
v -288 -272 0
v -272 -288 0
v -288 -288 0
v -288 -272 0
v -272 -272 0
v -256 -288 0
v -272 -288 0
v -272 -272 0
v -256 -272 0
v -240 -288 0
v -256 -288 0
v -256 -272 0
v -240 -272 0
v -224 -288 0
v -240 -288 0
v -240 -272 0
v -224 -272 0
v -208 -288 0
v -224 -288 0
v -224 -272 0
v -208 -272 0
v -192 -288 0
v -208 -288 0
v -208 -272 0
v -192 -272 0
v -176 -288 0
v -192 -288 0
v -192 -272 0
v -176 -272 0
v -160 -288 0
v -176 -288 0
v -176 -272 0
v -160 -272 0
v -144 -288 0
v -160 -288 0
v -160 -272 0
v -144 -272 0
v -128 -288 0
v -144 -288 0
v -144 -272 0
v -128 -272 0
v -112 -288 0
v -128 -288 0
v -128 -272 0
v -112 -272 0
v -80 -288 0
v -96 -288 0
v -96 -272 0
v -80 -272 0
v -64 -288 0
v -80 -288 0
v -80 -272 0
v -64 -272 0
v -48 -288 0
v -64 -288 0
v -64 -272 0
v -48 -272 0
v -32 -288 0
v -48 -288 0
v -48 -272 0
v -32 -272 0
v -16 -288 0
v -32 -288 0
v -32 -272 0
v -16 -272 0
v 0 -288 0
v -16 -288 0
v -16 -272 0
v 0 -272 0
v -304 -304 0
v -320 -304 0
v -320 -288 0
v -304 -288 0
v -288 -304 0
v -304 -304 0
v -304 -288 0
v -288 -288 0
v -272 -304 0
v -288 -304 0
v -288 -288 0
v -272 -288 0
v -256 -304 0
v -272 -304 0
v -272 -288 0
v -256 -288 0
v -240 -304 0
v -256 -304 0
v -256 -288 0
v -240 -288 0
v -224 -304 0
v -240 -304 0
v -240 -288 0
v -224 -288 0
v -208 -304 0
v -224 -304 0
v -224 -288 0
v -208 -288 0
v -192 -304 0
v -208 -304 0
v -208 -288 0
v -192 -288 0
v -176 -304 0
v -192 -304 0
v -192 -288 0
v -176 -288 0
v -160 -304 0
v -176 -304 0
v -176 -288 0
v -160 -288 0
v -144 -304 0
v -160 -304 0
v -160 -288 0
v -144 -288 0
v -128 -304 0
v -144 -304 0
v -144 -288 0
v -128 -288 0
v -112 -304 0
v -128 -304 0
v -128 -288 0
v -112 -288 0
v -96 -304 0
v -112 -304 0
v -112 -288 0
v -96 -288 0
v -80 -304 0
v -96 -304 0
v -96 -288 0
v -80 -288 0
v -64 -304 0
v -80 -304 0
v -80 -288 0
v -64 -288 0
v -48 -304 0
v -64 -304 0
v -64 -288 0
v -48 -288 0
v -32 -304 0
v -48 -304 0
v -48 -288 0
v -32 -288 0
v -16 -304 0
v -32 -304 0
v -32 -288 0
v -16 -288 0
v 0 -304 0
v -16 -304 0
v -16 -288 0
v 0 -288 0
v -304 -320 0
v -320 -320 0
v -320 -304 0
v -304 -304 0
v -288 -320 0
v -304 -320 0
v -304 -304 0
v -288 -304 0
v -272 -320 0
v -288 -320 0
v -288 -304 0
v -272 -304 0
v -256 -320 0
v -272 -320 0
v -272 -304 0
v -256 -304 0
v -240 -320 0
v -256 -320 0
v -256 -304 0
v -240 -304 0
v -224 -320 0
v -240 -320 0
v -240 -304 0
v -224 -304 0
v -208 -320 0
v -224 -320 0
v -224 -304 0
v -208 -304 0
v -192 -320 0
v -208 -320 0
v -208 -304 0
v -192 -304 0
v -176 -320 0
v -192 -320 0
v -192 -304 0
v -176 -304 0
v -160 -320 0
v -176 -320 0
v -176 -304 0
v -160 -304 0
v -144 -320 0
v -160 -320 0
v -160 -304 0
v -144 -304 0
v -128 -320 0
v -144 -320 0
v -144 -304 0
v -128 -304 0
v -112 -320 0
v -128 -320 0
v -128 -304 0
v -112 -304 0
v -96 -320 0
v -112 -320 0
v -112 -304 0
v -96 -304 0
v -80 -320 0
v -96 -320 0
v -96 -304 0
v -80 -304 0
v -64 -320 0
v -80 -320 0
v -80 -304 0
v -64 -304 0
v -48 -320 0
v -64 -320 0
v -64 -304 0
v -48 -304 0
v -32 -320 0
v -48 -320 0
v -48 -304 0
v -32 -304 0
v -16 -320 0
v -32 -320 0
v -32 -304 0
v -16 -304 0
v 0 -320 0
v -16 -320 0
v -16 -304 0
v 0 -304 0

# Texture cooridinates (Count = 48)
vt 0.6310044 0.5016394
vt 0.6659389 0.5016394
vt 0.6659389 0.5540984
vt 0.6310044 0.5540984
vt 0.7052402 0.5016394
vt 0.7401747 0.5016394
vt 0.7401747 0.5540984
vt 0.7052402 0.5540984
vt 0.6681223 0.5016394
vt 0.7030568 0.5016394
vt 0.7030568 0.5540984
vt 0.6681223 0.5540984
vt 0.7423581 0.5016394
vt 0.7772925 0.5016394
vt 0.7772925 0.5540984
vt 0.7423581 0.5540984
vt 0.779476 0.5016394
vt 0.8144105 0.5016394
vt 0.8144105 0.5540984
vt 0.779476 0.5540984
vt 0.7052402 0.4459016
vt 0.7401747 0.4459016
vt 0.7401747 0.4983606
vt 0.7052402 0.4983606
vt 0.7052402 0.390164
vt 0.7401747 0.390164
vt 0.7401747 0.442623
vt 0.7052402 0.442623
vt 0.6681223 0.390164
vt 0.7030568 0.390164
vt 0.7030568 0.442623
vt 0.6681223 0.442623
vt 0.7423581 0.4459016
vt 0.7772925 0.4459016
vt 0.7772925 0.4983606
vt 0.7423581 0.4983606
vt 0.7423581 0.390164
vt 0.7772925 0.390164
vt 0.7772925 0.442623
vt 0.7423581 0.442623
vt 0.6681223 0.4459016
vt 0.7030568 0.4459016
vt 0.7030568 0.4983606
vt 0.6681223 0.4983606
vt 0.6310044 0.4459016
vt 0.6659389 0.4459016
vt 0.6659389 0.4983606
vt 0.6310044 0.4983606

# Normal
vn 0 0 -1

# Mesh description
g T1_mesh_0002

# Faces
f 1/1/1 2/2/1 3/3/1 4/4/1
f 5/5/1 6/6/1 7/7/1 8/8/1
f 9/5/1 10/6/1 11/7/1 12/8/1
f 13/5/1 14/6/1 15/7/1 16/8/1
f 17/5/1 18/6/1 19/7/1 20/8/1
f 21/9/1 22/10/1 23/11/1 24/12/1
f 25/13/1 26/14/1 27/15/1 28/16/1
f 29/5/1 30/6/1 31/7/1 32/8/1
f 33/5/1 34/6/1 35/7/1 36/8/1
f 37/5/1 38/6/1 39/7/1 40/8/1
f 41/5/1 42/6/1 43/7/1 44/8/1
f 45/1/1 46/2/1 47/3/1 48/4/1
f 49/17/1 50/18/1 51/19/1 52/20/1
f 53/21/1 54/22/1 55/23/1 56/24/1
f 57/21/1 58/22/1 59/23/1 60/24/1
f 61/21/1 62/22/1 63/23/1 64/24/1
f 65/25/1 66/26/1 67/27/1 68/28/1
f 69/29/1 70/30/1 71/31/1 72/32/1
f 73/33/1 74/34/1 75/35/1 76/36/1
f 77/21/1 78/22/1 79/23/1 80/24/1
f 81/21/1 82/22/1 83/23/1 84/24/1
f 85/21/1 86/22/1 87/23/1 88/24/1
f 89/21/1 90/22/1 91/23/1 92/24/1
f 93/17/1 94/18/1 95/19/1 96/20/1
f 97/17/1 98/18/1 99/19/1 100/20/1
f 101/21/1 102/22/1 103/23/1 104/24/1
f 105/21/1 106/22/1 107/23/1 108/24/1
f 109/21/1 110/22/1 111/23/1 112/24/1
f 113/37/1 114/38/1 115/39/1 116/40/1
f 117/25/1 118/26/1 119/27/1 120/28/1
f 121/21/1 122/22/1 123/23/1 124/24/1
f 125/21/1 126/22/1 127/23/1 128/24/1
f 129/21/1 130/22/1 131/23/1 132/24/1
f 133/17/1 134/18/1 135/19/1 136/20/1
f 137/17/1 138/18/1 139/19/1 140/20/1
f 141/21/1 142/22/1 143/23/1 144/24/1
f 145/21/1 146/22/1 147/23/1 148/24/1
f 149/25/1 150/26/1 151/27/1 152/28/1
f 153/29/1 154/30/1 155/31/1 156/32/1
f 157/13/1 158/14/1 159/15/1 160/16/1
f 161/5/1 162/6/1 163/7/1 164/8/1
f 165/9/1 166/10/1 167/11/1 168/12/1
f 169/37/1 170/38/1 171/39/1 172/40/1
f 173/25/1 174/26/1 175/27/1 176/28/1
f 177/21/1 178/22/1 179/23/1 180/24/1
f 181/21/1 182/22/1 183/23/1 184/24/1
f 185/17/1 186/18/1 187/19/1 188/20/1
f 189/17/1 190/18/1 191/19/1 192/20/1
f 193/21/1 194/22/1 195/23/1 196/24/1
f 197/25/1 198/26/1 199/27/1 200/28/1
f 201/29/1 202/30/1 203/31/1 204/32/1
f 205/13/1 206/14/1 207/15/1 208/16/1
f 209/5/1 210/6/1 211/7/1 212/8/1
f 213/21/1 214/22/1 215/23/1 216/24/1
f 217/41/1 218/42/1 219/43/1 220/44/1
f 221/33/1 222/34/1 223/35/1 224/36/1
f 225/21/1 226/22/1 227/23/1 228/24/1
f 229/21/1 230/22/1 231/23/1 232/24/1
f 233/17/1 234/18/1 235/19/1 236/20/1
f 237/17/1 238/18/1 239/19/1 240/20/1
f 241/21/1 242/22/1 243/23/1 244/24/1
f 245/41/1 246/42/1 247/43/1 248/44/1
f 249/13/1 250/14/1 251/15/1 252/16/1
f 253/5/1 254/6/1 255/7/1 256/8/1
f 257/21/1 258/22/1 259/23/1 260/24/1
f 261/25/1 262/26/1 263/27/1 264/28/1
f 265/29/1 266/30/1 267/31/1 268/32/1
f 269/37/1 270/38/1 271/39/1 272/40/1
f 273/25/1 274/26/1 275/27/1 276/28/1
f 277/21/1 278/22/1 279/23/1 280/24/1
f 281/17/1 282/18/1 283/19/1 284/20/1
f 285/17/1 286/18/1 287/19/1 288/20/1
f 289/21/1 290/22/1 291/23/1 292/24/1
f 293/41/1 294/42/1 295/43/1 296/44/1
f 297/33/1 298/34/1 299/35/1 300/36/1
f 301/21/1 302/22/1 303/23/1 304/24/1
f 305/25/1 306/26/1 307/27/1 308/28/1
f 309/29/1 310/30/1 311/31/1 312/32/1
f 313/33/1 314/34/1 315/35/1 316/36/1
f 317/21/1 318/22/1 319/23/1 320/24/1
f 321/17/1 322/18/1 323/19/1 324/20/1
f 325/17/1 326/18/1 327/19/1 328/20/1
f 329/21/1 330/22/1 331/23/1 332/24/1
f 333/41/1 334/42/1 335/43/1 336/44/1
f 337/33/1 338/34/1 339/35/1 340/36/1
f 341/21/1 342/22/1 343/23/1 344/24/1
f 345/41/1 346/42/1 347/43/1 348/44/1
f 349/13/1 350/14/1 351/15/1 352/16/1
f 353/5/1 354/6/1 355/7/1 356/8/1
f 357/9/1 358/10/1 359/11/1 360/12/1
f 361/33/1 362/34/1 363/35/1 364/36/1
f 365/21/1 366/22/1 367/23/1 368/24/1
f 369/17/1 370/18/1 371/19/1 372/20/1
f 373/17/1 374/18/1 375/19/1 376/20/1
f 377/21/1 378/22/1 379/23/1 380/24/1
f 381/41/1 382/42/1 383/43/1 384/44/1
f 385/37/1 386/38/1 387/39/1 388/40/1
f 389/25/1 390/26/1 391/27/1 392/28/1
f 393/29/1 394/30/1 395/31/1 396/32/1
f 397/33/1 398/34/1 399/35/1 400/36/1
f 401/21/1 402/22/1 403/23/1 404/24/1
f 405/41/1 406/42/1 407/43/1 408/44/1
f 409/33/1 410/34/1 411/35/1 412/36/1
f 413/21/1 414/22/1 415/23/1 416/24/1
f 417/17/1 418/18/1 419/19/1 420/20/1
f 421/17/1 422/18/1 423/19/1 424/20/1
f 425/21/1 426/22/1 427/23/1 428/24/1
f 429/41/1 430/42/1 431/43/1 432/44/1
f 433/33/1 434/34/1 435/35/1 436/36/1
f 437/21/1 438/22/1 439/23/1 440/24/1
f 441/41/1 442/42/1 443/43/1 444/44/1
f 445/33/1 446/34/1 447/35/1 448/36/1
f 449/21/1 450/22/1 451/23/1 452/24/1
f 453/17/1 454/18/1 455/19/1 456/20/1
f 457/17/1 458/18/1 459/19/1 460/20/1
f 461/21/1 462/22/1 463/23/1 464/24/1
f 465/41/1 466/42/1 467/43/1 468/44/1
f 469/33/1 470/34/1 471/35/1 472/36/1
f 473/21/1 474/22/1 475/23/1 476/24/1
f 477/41/1 478/42/1 479/43/1 480/44/1
f 481/33/1 482/34/1 483/35/1 484/36/1
f 485/21/1 486/22/1 487/23/1 488/24/1
f 489/17/1 490/18/1 491/19/1 492/20/1
f 493/17/1 494/18/1 495/19/1 496/20/1
f 497/21/1 498/22/1 499/23/1 500/24/1
f 501/41/1 502/42/1 503/43/1 504/44/1
f 505/13/1 506/14/1 507/15/1 508/16/1
f 509/5/1 510/6/1 511/7/1 512/8/1
f 513/21/1 514/22/1 515/23/1 516/24/1
f 517/41/1 518/42/1 519/43/1 520/44/1
f 521/33/1 522/34/1 523/35/1 524/36/1
f 525/21/1 526/22/1 527/23/1 528/24/1
f 529/17/1 530/18/1 531/19/1 532/20/1
f 533/17/1 534/18/1 535/19/1 536/20/1
f 537/21/1 538/22/1 539/23/1 540/24/1
f 541/41/1 542/42/1 543/43/1 544/44/1
f 545/13/1 546/14/1 547/15/1 548/16/1
f 549/5/1 550/6/1 551/7/1 552/8/1
f 553/5/1 554/6/1 555/7/1 556/8/1
f 557/5/1 558/6/1 559/7/1 560/8/1
f 561/5/1 562/6/1 563/7/1 564/8/1
f 565/9/1 566/10/1 567/11/1 568/12/1
f 569/33/1 570/34/1 571/35/1 572/36/1
f 573/21/1 574/22/1 575/23/1 576/24/1
f 577/21/1 578/22/1 579/23/1 580/24/1
f 581/41/1 582/42/1 583/43/1 584/44/1
f 585/33/1 586/34/1 587/35/1 588/36/1
f 589/21/1 590/22/1 591/23/1 592/24/1
f 593/17/1 594/18/1 595/19/1 596/20/1
f 597/17/1 598/18/1 599/19/1 600/20/1
f 601/21/1 602/22/1 603/23/1 604/24/1
f 605/5/1 606/6/1 607/7/1 608/8/1
f 609/9/1 610/10/1 611/11/1 612/12/1
f 613/37/1 614/38/1 615/39/1 616/40/1
f 617/25/1 618/26/1 619/27/1 620/28/1
f 621/25/1 622/26/1 623/27/1 624/28/1
f 625/25/1 626/26/1 627/27/1 628/28/1
f 629/21/1 630/22/1 631/23/1 632/24/1
f 633/5/1 634/6/1 635/7/1 636/8/1
f 637/5/1 638/6/1 639/7/1 640/8/1
f 641/5/1 642/6/1 643/7/1 644/8/1
f 645/21/1 646/22/1 647/23/1 648/24/1
f 649/25/1 650/26/1 651/27/1 652/28/1
f 653/29/1 654/30/1 655/31/1 656/32/1
f 657/33/1 658/34/1 659/35/1 660/36/1
f 661/21/1 662/22/1 663/23/1 664/24/1
f 665/17/1 666/18/1 667/19/1 668/20/1
f 669/17/1 670/18/1 671/19/1 672/20/1
f 673/21/1 674/22/1 675/23/1 676/24/1
f 677/21/1 678/22/1 679/23/1 680/24/1
f 681/41/1 682/42/1 683/43/1 684/44/1
f 685/37/1 686/38/1 687/39/1 688/40/1
f 689/25/1 690/26/1 691/27/1 692/28/1
f 693/25/1 694/26/1 695/27/1 696/28/1
f 697/25/1 698/26/1 699/27/1 700/28/1
f 701/25/1 702/26/1 703/27/1 704/28/1
f 705/25/1 706/26/1 707/27/1 708/28/1
f 709/29/1 710/30/1 711/31/1 712/32/1
f 713/33/1 714/34/1 715/35/1 716/36/1
f 717/21/1 718/22/1 719/23/1 720/24/1
f 721/17/1 722/18/1 723/19/1 724/20/1
f 725/17/1 726/18/1 727/19/1 728/20/1
f 729/21/1 730/22/1 731/23/1 732/24/1
f 733/21/1 734/22/1 735/23/1 736/24/1
f 737/41/1 738/42/1 739/43/1 740/44/1
f 741/13/1 742/14/1 743/15/1 744/16/1
f 745/5/1 746/6/1 747/7/1 748/8/1
f 749/21/1 750/22/1 751/23/1 752/24/1
f 753/17/1 754/18/1 755/19/1 756/20/1
f 757/17/1 758/18/1 759/19/1 760/20/1
f 761/21/1 762/22/1 763/23/1 764/24/1
f 765/21/1 766/22/1 767/23/1 768/24/1
f 769/5/1 770/6/1 771/7/1 772/8/1
f 773/9/1 774/10/1 775/11/1 776/12/1
f 777/13/1 778/14/1 779/15/1 780/16/1
f 781/5/1 782/6/1 783/7/1 784/8/1
f 785/21/1 786/22/1 787/23/1 788/24/1
f 789/21/1 790/22/1 791/23/1 792/24/1
f 793/17/1 794/18/1 795/19/1 796/20/1
f 797/17/1 798/18/1 799/19/1 800/20/1
f 801/21/1 802/22/1 803/23/1 804/24/1
f 805/21/1 806/22/1 807/23/1 808/24/1
f 809/21/1 810/22/1 811/23/1 812/24/1
f 813/5/1 814/6/1 815/7/1 816/8/1
f 817/5/1 818/6/1 819/7/1 820/8/1
f 821/5/1 822/6/1 823/7/1 824/8/1
f 825/5/1 826/6/1 827/7/1 828/8/1
f 829/5/1 830/6/1 831/7/1 832/8/1
f 833/5/1 834/6/1 835/7/1 836/8/1
f 837/5/1 838/6/1 839/7/1 840/8/1
f 841/5/1 842/6/1 843/7/1 844/8/1
f 845/9/1 846/10/1 847/11/1 848/12/1
f 849/13/1 850/14/1 851/15/1 852/16/1
f 853/5/1 854/6/1 855/7/1 856/8/1
f 857/21/1 858/22/1 859/23/1 860/24/1
f 861/21/1 862/22/1 863/23/1 864/24/1
f 865/21/1 866/22/1 867/23/1 868/24/1
f 869/17/1 870/18/1 871/19/1 872/20/1
f 873/17/1 874/18/1 875/19/1 876/20/1
f 877/21/1 878/22/1 879/23/1 880/24/1
f 881/21/1 882/22/1 883/23/1 884/24/1
f 885/21/1 886/22/1 887/23/1 888/24/1
f 889/21/1 890/22/1 891/23/1 892/24/1
f 893/21/1 894/22/1 895/23/1 896/24/1
f 897/21/1 898/22/1 899/23/1 900/24/1
f 901/21/1 902/22/1 903/23/1 904/24/1
f 905/21/1 906/22/1 907/23/1 908/24/1
f 909/21/1 910/22/1 911/23/1 912/24/1
f 913/21/1 914/22/1 915/23/1 916/24/1
f 917/21/1 918/22/1 919/23/1 920/24/1
f 921/5/1 922/6/1 923/7/1 924/8/1
f 925/5/1 926/6/1 927/7/1 928/8/1
f 929/5/1 930/6/1 931/7/1 932/8/1
f 933/21/1 934/22/1 935/23/1 936/24/1
f 937/21/1 938/22/1 939/23/1 940/24/1
f 941/21/1 942/22/1 943/23/1 944/24/1
f 945/21/1 946/22/1 947/23/1 948/24/1
f 949/17/1 950/18/1 951/19/1 952/20/1
f 953/45/1 954/46/1 955/47/1 956/48/1
f 957/25/1 958/26/1 959/27/1 960/28/1
f 961/25/1 962/26/1 963/27/1 964/28/1
f 965/25/1 966/26/1 967/27/1 968/28/1
f 969/25/1 970/26/1 971/27/1 972/28/1
f 973/25/1 974/26/1 975/27/1 976/28/1
f 977/25/1 978/26/1 979/27/1 980/28/1
f 981/25/1 982/26/1 983/27/1 984/28/1
f 985/25/1 986/26/1 987/27/1 988/28/1
f 989/25/1 990/26/1 991/27/1 992/28/1
f 993/25/1 994/26/1 995/27/1 996/28/1
f 997/25/1 998/26/1 999/27/1 1000/28/1
f 1001/25/1 1002/26/1 1003/27/1 1004/28/1
f 1005/25/1 1006/26/1 1007/27/1 1008/28/1
f 1009/25/1 1010/26/1 1011/27/1 1012/28/1
f 1013/25/1 1014/26/1 1015/27/1 1016/28/1
f 1017/25/1 1018/26/1 1019/27/1 1020/28/1
f 1021/25/1 1022/26/1 1023/27/1 1024/28/1
f 1025/25/1 1026/26/1 1027/27/1 1028/28/1
f 1029/45/1 1030/46/1 1031/47/1 1032/48/1

