# Tiled2Unity generated file. Do not modify by hand.
# Wavefront file for 'house_mesh_0004.obj'

# Vertices (Count = 24)
v -96 -160 0
v -112 -160 0
v -112 -144 0
v -96 -144 0
v -80 -160 0
v -96 -160 0
v -96 -144 0
v -80 -144 0
v -64 -160 0
v -80 -160 0
v -80 -144 0
v -64 -144 0
v -96 -176 0
v -112 -176 0
v -112 -160 0
v -96 -160 0
v -80 -176 0
v -96 -176 0
v -96 -160 0
v -80 -160 0
v -64 -176 0
v -80 -176 0
v -80 -160 0
v -64 -160 0

# Texture cooridinates (Count = 8)
vt 0.1053719 0.8079848
vt 0.1219008 0.8079848
vt 0.1219008 0.838403
vt 0.1053719 0.838403
vt 0.08780992 0.8079848
vt 0.1043388 0.8079848
vt 0.1043388 0.838403
vt 0.08780992 0.838403

# Normal
vn 0 0 -1

# Mesh description
g house_mesh_0004

# Faces
f 1/1/1 2/2/1 3/3/1 4/4/1
f 5/5/1 6/6/1 7/7/1 8/8/1
f 9/1/1 10/2/1 11/3/1 12/4/1
f 13/5/1 14/6/1 15/7/1 16/8/1
f 17/5/1 18/6/1 19/7/1 20/8/1
f 21/5/1 22/6/1 23/7/1 24/8/1

