# Tiled2Unity generated file. Do not modify by hand.
# Wavefront file for 'house_mesh_0006.obj'

# Vertices (Count = 188)
v -208 -80 0
v -224 -80 0
v -224 -64 0
v -208 -64 0
v -192 -80 0
v -208 -80 0
v -208 -64 0
v -192 -64 0
v -176 -80 0
v -192 -80 0
v -192 -64 0
v -176 -64 0
v -160 -80 0
v -176 -80 0
v -176 -64 0
v -160 -64 0
v -144 -80 0
v -160 -80 0
v -160 -64 0
v -144 -64 0
v -128 -80 0
v -144 -80 0
v -144 -64 0
v -128 -64 0
v -288 -96 0
v -304 -96 0
v -304 -80 0
v -288 -80 0
v -304 -112 0
v -320 -112 0
v -320 -96 0
v -304 -96 0
v -288 -112 0
v -304 -112 0
v -304 -96 0
v -288 -96 0
v -208 -112 0
v -224 -112 0
v -224 -96 0
v -208 -96 0
v -192 -112 0
v -208 -112 0
v -208 -96 0
v -192 -96 0
v -176 -112 0
v -192 -112 0
v -192 -96 0
v -176 -96 0
v -288 -128 0
v -304 -128 0
v -304 -112 0
v -288 -112 0
v -272 -208 0
v -288 -208 0
v -288 -192 0
v -272 -192 0
v -256 -208 0
v -272 -208 0
v -272 -192 0
v -256 -192 0
v -240 -208 0
v -256 -208 0
v -256 -192 0
v -240 -192 0
v -288 -224 0
v -304 -224 0
v -304 -208 0
v -288 -208 0
v -192 -224 0
v -208 -224 0
v -208 -208 0
v -192 -208 0
v -144 -224 0
v -160 -224 0
v -160 -208 0
v -144 -208 0
v -304 -240 0
v -320 -240 0
v -320 -224 0
v -304 -224 0
v -288 -240 0
v -304 -240 0
v -304 -224 0
v -288 -224 0
v -304 -256 0
v -320 -256 0
v -320 -240 0
v -304 -240 0
v -288 -256 0
v -304 -256 0
v -304 -240 0
v -288 -240 0
v -272 -256 0
v -288 -256 0
v -288 -240 0
v -272 -240 0
v -240 -256 0
v -256 -256 0
v -256 -240 0
v -240 -240 0
v -48 -256 0
v -64 -256 0
v -64 -240 0
v -48 -240 0
v -288 -272 0
v -304 -272 0
v -304 -256 0
v -288 -256 0
v -256 -272 0
v -272 -272 0
v -272 -256 0
v -256 -256 0
v -240 -272 0
v -256 -272 0
v -256 -256 0
v -240 -256 0
v -224 -272 0
v -240 -272 0
v -240 -256 0
v -224 -256 0
v -208 -272 0
v -224 -272 0
v -224 -256 0
v -208 -256 0
v -128 -272 0
v -144 -272 0
v -144 -256 0
v -128 -256 0
v -112 -272 0
v -128 -272 0
v -128 -256 0
v -112 -256 0
v -80 -272 0
v -96 -272 0
v -96 -256 0
v -80 -256 0
v -64 -272 0
v -80 -272 0
v -80 -256 0
v -64 -256 0
v -48 -272 0
v -64 -272 0
v -64 -256 0
v -48 -256 0
v -32 -272 0
v -48 -272 0
v -48 -256 0
v -32 -256 0
v -320 -288 0
v -336 -288 0
v -336 -272 0
v -320 -272 0
v -304 -288 0
v -320 -288 0
v -320 -272 0
v -304 -272 0
v -224 -288 0
v -240 -288 0
v -240 -272 0
v -224 -272 0
v -144 -288 0
v -160 -288 0
v -160 -272 0
v -144 -272 0
v -128 -288 0
v -144 -288 0
v -144 -272 0
v -128 -272 0
v -112 -288 0
v -128 -288 0
v -128 -272 0
v -112 -272 0
v -96 -288 0
v -112 -288 0
v -112 -272 0
v -96 -272 0
v -64 -288 0
v -80 -288 0
v -80 -272 0
v -64 -272 0
v -48 -288 0
v -64 -288 0
v -64 -272 0
v -48 -272 0
v -128 -304 0
v -144 -304 0
v -144 -288 0
v -128 -288 0

# Texture cooridinates (Count = 100)
vt 0.5567685 0.1672131
vt 0.5917031 0.1672131
vt 0.5917031 0.2196721
vt 0.5567685 0.2196721
vt 0.5196506 0.1672131
vt 0.5545852 0.1672131
vt 0.5545852 0.2196721
vt 0.5196506 0.2196721
vt 0.2969432 0.1672131
vt 0.3318777 0.1672131
vt 0.3318777 0.2196721
vt 0.2969432 0.2196721
vt 0.2598253 0.1672131
vt 0.2947598 0.1672131
vt 0.2947598 0.2196721
vt 0.2598253 0.2196721
vt 0.2227074 0.1672131
vt 0.2576419 0.1672131
vt 0.2576419 0.2196721
vt 0.2227074 0.2196721
vt 0.1855895 0.1672131
vt 0.220524 0.1672131
vt 0.220524 0.2196721
vt 0.1855895 0.2196721
vt 0.1855895 0.4459016
vt 0.220524 0.4459016
vt 0.220524 0.4983606
vt 0.1855895 0.4983606
vt 0.1113537 0.5016394
vt 0.1462882 0.5016394
vt 0.1462882 0.5540984
vt 0.1113537 0.5540984
vt 0.1855895 0.390164
vt 0.220524 0.390164
vt 0.220524 0.442623
vt 0.1855895 0.442623
vt 0.371179 0.1114754
vt 0.4061135 0.1114754
vt 0.4061135 0.1639344
vt 0.371179 0.1639344
vt 0.3340611 0.1114754
vt 0.3689956 0.1114754
vt 0.3689956 0.1639344
vt 0.3340611 0.1639344
vt 0.2969432 0.1114754
vt 0.3318777 0.1114754
vt 0.3318777 0.1639344
vt 0.2969432 0.1639344
vt 0.1855895 0.3344262
vt 0.220524 0.3344262
vt 0.220524 0.3868852
vt 0.1855895 0.3868852
vt 0.1113537 0.7803279
vt 0.1462882 0.7803279
vt 0.1462882 0.8327869
vt 0.1113537 0.8327869
vt 0.2598253 0.3344262
vt 0.2947598 0.3344262
vt 0.2947598 0.3868852
vt 0.2598253 0.3868852
vt 0.0742358 0.8360656
vt 0.1091703 0.8360656
vt 0.1091703 0.8885246
vt 0.0742358 0.8885246
vt 0 0.8360656
vt 0.0349345 0.8360656
vt 0.0349345 0.8885246
vt 0 0.8885246
vt 0.4454148 0.4459016
vt 0.4803493 0.4459016
vt 0.4803493 0.4983606
vt 0.4454148 0.4983606
vt 0.4082969 0.3344262
vt 0.4432314 0.3344262
vt 0.4432314 0.3868852
vt 0.4082969 0.3868852
vt 0.0371179 0.7803279
vt 0.0720524 0.7803279
vt 0.0720524 0.8327869
vt 0.0371179 0.8327869
vt 0.3340611 0.4459016
vt 0.3689956 0.4459016
vt 0.3689956 0.4983606
vt 0.3340611 0.4983606
vt 0.2598253 0.4459016
vt 0.2947598 0.4459016
vt 0.2947598 0.4983606
vt 0.2598253 0.4983606
vt 0.1113537 0.8360656
vt 0.1462882 0.8360656
vt 0.1462882 0.8885246
vt 0.1113537 0.8885246
vt 0.3340611 0.390164
vt 0.3689956 0.390164
vt 0.3689956 0.442623
vt 0.3340611 0.442623
vt 0.2598253 0.390164
vt 0.2947598 0.390164
vt 0.2947598 0.442623
vt 0.2598253 0.442623

# Normal
vn 0 0 -1

# Mesh description
g house_mesh_0006

# Faces
f 1/1/1 2/2/1 3/3/1 4/4/1
f 5/5/1 6/6/1 7/7/1 8/8/1
f 9/9/1 10/10/1 11/11/1 12/12/1
f 13/13/1 14/14/1 15/15/1 16/16/1
f 17/17/1 18/18/1 19/19/1 20/20/1
f 21/21/1 22/22/1 23/23/1 24/24/1
f 25/25/1 26/26/1 27/27/1 28/28/1
f 29/29/1 30/30/1 31/31/1 32/32/1
f 33/33/1 34/34/1 35/35/1 36/36/1
f 37/37/1 38/38/1 39/39/1 40/40/1
f 41/41/1 42/42/1 43/43/1 44/44/1
f 45/45/1 46/46/1 47/47/1 48/48/1
f 49/49/1 50/50/1 51/51/1 52/52/1
f 53/53/1 54/54/1 55/55/1 56/56/1
f 57/57/1 58/58/1 59/59/1 60/60/1
f 61/61/1 62/62/1 63/63/1 64/64/1
f 65/65/1 66/66/1 67/67/1 68/68/1
f 69/65/1 70/66/1 71/67/1 72/68/1
f 73/65/1 74/66/1 75/67/1 76/68/1
f 77/53/1 78/54/1 79/55/1 80/56/1
f 81/69/1 82/70/1 83/71/1 84/72/1
f 85/53/1 86/54/1 87/55/1 88/56/1
f 89/73/1 90/74/1 91/75/1 92/76/1
f 93/61/1 94/62/1 95/63/1 96/64/1
f 97/65/1 98/66/1 99/67/1 100/68/1
f 101/65/1 102/66/1 103/67/1 104/68/1
f 105/77/1 106/78/1 107/79/1 108/80/1
f 109/53/1 110/54/1 111/55/1 112/56/1
f 113/81/1 114/82/1 115/83/1 116/84/1
f 117/85/1 118/86/1 119/87/1 120/88/1
f 121/61/1 122/62/1 123/63/1 124/64/1
f 125/65/1 126/66/1 127/67/1 128/68/1
f 129/65/1 130/66/1 131/67/1 132/68/1
f 133/89/1 134/90/1 135/91/1 136/92/1
f 137/81/1 138/82/1 139/83/1 140/84/1
f 141/85/1 142/86/1 143/87/1 144/88/1
f 145/61/1 146/62/1 147/63/1 148/64/1
f 149/53/1 150/54/1 151/55/1 152/56/1
f 153/57/1 154/58/1 155/59/1 156/60/1
f 157/77/1 158/78/1 159/79/1 160/80/1
f 161/89/1 162/90/1 163/91/1 164/92/1
f 165/93/1 166/94/1 167/95/1 168/96/1
f 169/97/1 170/98/1 171/99/1 172/100/1
f 173/61/1 174/62/1 175/63/1 176/64/1
f 177/77/1 178/78/1 179/79/1 180/80/1
f 181/77/1 182/78/1 183/79/1 184/80/1
f 185/77/1 186/78/1 187/79/1 188/80/1

