# Tiled2Unity generated file. Do not modify by hand.
# Wavefront file for 'house_mesh_0008.obj'

# Vertices (Count = 160)
v -320 -32 0
v -336 -32 0
v -336 -16 0
v -320 -16 0
v -240 -32 0
v -256 -32 0
v -256 -16 0
v -240 -16 0
v -320 -48 0
v -336 -48 0
v -336 -32 0
v -320 -32 0
v -304 -48 0
v -320 -48 0
v -320 -32 0
v -304 -32 0
v -288 -48 0
v -304 -48 0
v -304 -32 0
v -288 -32 0
v -272 -48 0
v -288 -48 0
v -288 -32 0
v -272 -32 0
v -256 -48 0
v -272 -48 0
v -272 -32 0
v -256 -32 0
v -240 -48 0
v -256 -48 0
v -256 -32 0
v -240 -32 0
v -96 -64 0
v -112 -64 0
v -112 -48 0
v -96 -48 0
v -80 -64 0
v -96 -64 0
v -96 -48 0
v -80 -48 0
v -64 -64 0
v -80 -64 0
v -80 -48 0
v -64 -48 0
v -96 -80 0
v -112 -80 0
v -112 -64 0
v -96 -64 0
v -80 -80 0
v -96 -80 0
v -96 -64 0
v -80 -64 0
v -64 -80 0
v -80 -80 0
v -80 -64 0
v -64 -64 0
v -288 -96 0
v -304 -96 0
v -304 -80 0
v -288 -80 0
v -304 -160 0
v -320 -160 0
v -320 -144 0
v -304 -144 0
v -224 -160 0
v -240 -160 0
v -240 -144 0
v -224 -144 0
v -144 -160 0
v -160 -160 0
v -160 -144 0
v -144 -144 0
v -112 -160 0
v -128 -160 0
v -128 -144 0
v -112 -144 0
v -304 -176 0
v -320 -176 0
v -320 -160 0
v -304 -160 0
v -288 -176 0
v -304 -176 0
v -304 -160 0
v -288 -160 0
v -272 -176 0
v -288 -176 0
v -288 -160 0
v -272 -160 0
v -256 -176 0
v -272 -176 0
v -272 -160 0
v -256 -160 0
v -240 -176 0
v -256 -176 0
v -256 -160 0
v -240 -160 0
v -224 -176 0
v -240 -176 0
v -240 -160 0
v -224 -160 0
v -144 -176 0
v -160 -176 0
v -160 -160 0
v -144 -160 0
v -112 -176 0
v -128 -176 0
v -128 -160 0
v -112 -160 0
v -320 -208 0
v -336 -208 0
v -336 -192 0
v -320 -192 0
v -224 -208 0
v -240 -208 0
v -240 -192 0
v -224 -192 0
v -224 -224 0
v -240 -224 0
v -240 -208 0
v -224 -208 0
v -224 -240 0
v -240 -240 0
v -240 -224 0
v -224 -224 0
v -208 -240 0
v -224 -240 0
v -224 -224 0
v -208 -224 0
v -192 -240 0
v -208 -240 0
v -208 -224 0
v -192 -224 0
v -176 -240 0
v -192 -240 0
v -192 -224 0
v -176 -224 0
v -160 -240 0
v -176 -240 0
v -176 -224 0
v -160 -224 0
v -144 -240 0
v -160 -240 0
v -160 -224 0
v -144 -224 0
v -128 -240 0
v -144 -240 0
v -144 -224 0
v -128 -224 0
v -112 -240 0
v -128 -240 0
v -128 -224 0
v -112 -224 0
v -320 -256 0
v -336 -256 0
v -336 -240 0
v -320 -240 0
v -16 -256 0
v -32 -256 0
v -32 -240 0
v -16 -240 0

# Texture cooridinates (Count = 68)
vt 0.7052402 0.1114754
vt 0.7401747 0.1114754
vt 0.7401747 0.1639344
vt 0.7052402 0.1639344
vt 0.7052402 0.05573773
vt 0.7401747 0.05573773
vt 0.7401747 0.1081967
vt 0.7052402 0.1081967
vt 0.8165939 0.390164
vt 0.8515284 0.390164
vt 0.8515284 0.442623
vt 0.8165939 0.442623
vt 0.779476 0.1672131
vt 0.8144105 0.1672131
vt 0.8144105 0.2196721
vt 0.779476 0.2196721
vt 0.7423581 0.1672131
vt 0.7772925 0.1672131
vt 0.7772925 0.2196721
vt 0.7423581 0.2196721
vt 0.8165939 0.3344262
vt 0.8515284 0.3344262
vt 0.8515284 0.3868852
vt 0.8165939 0.3868852
vt 0.7423581 0
vt 0.7772925 0
vt 0.7772925 0.052459
vt 0.7423581 0.052459
vt 0.6310044 0.6131147
vt 0.6659389 0.6131147
vt 0.6659389 0.6655738
vt 0.6310044 0.6655738
vt 0.6681223 0.1672131
vt 0.7030568 0.1672131
vt 0.7030568 0.2196721
vt 0.6681223 0.2196721
vt 0.6310044 0.1672131
vt 0.6659389 0.1672131
vt 0.6659389 0.2196721
vt 0.6310044 0.2196721
vt 0.5938864 0.1672131
vt 0.628821 0.1672131
vt 0.628821 0.2196721
vt 0.5938864 0.2196721
vt 0.7423581 0.6131147
vt 0.7772925 0.6131147
vt 0.7772925 0.6655738
vt 0.7423581 0.6655738
vt 0.4082969 0.2229508
vt 0.4432314 0.2229508
vt 0.4432314 0.2754098
vt 0.4082969 0.2754098
vt 0.371179 0.05573773
vt 0.4061135 0.05573773
vt 0.4061135 0.1081967
vt 0.371179 0.1081967
vt 0.3340611 0.05573773
vt 0.3689956 0.05573773
vt 0.3689956 0.1081967
vt 0.3340611 0.1081967
vt 0.2969432 0.05573773
vt 0.3318777 0.05573773
vt 0.3318777 0.1081967
vt 0.2969432 0.1081967
vt 0.7423581 0.557377
vt 0.7772925 0.557377
vt 0.7772925 0.6098361
vt 0.7423581 0.6098361

# Normal
vn 0 0 -1

# Mesh description
g house_mesh_0008

# Faces
f 1/1/1 2/2/1 3/3/1 4/4/1
f 5/1/1 6/2/1 7/3/1 8/4/1
f 9/5/1 10/6/1 11/7/1 12/8/1
f 13/9/1 14/10/1 15/11/1 16/12/1
f 17/13/1 18/14/1 19/15/1 20/16/1
f 21/17/1 22/18/1 23/19/1 24/20/1
f 25/21/1 26/22/1 27/23/1 28/24/1
f 29/5/1 30/6/1 31/7/1 32/8/1
f 33/25/1 34/26/1 35/27/1 36/28/1
f 37/25/1 38/26/1 39/27/1 40/28/1
f 41/25/1 42/26/1 43/27/1 44/28/1
f 45/25/1 46/26/1 47/27/1 48/28/1
f 49/25/1 50/26/1 51/27/1 52/28/1
f 53/25/1 54/26/1 55/27/1 56/28/1
f 57/29/1 58/30/1 59/31/1 60/32/1
f 61/1/1 62/2/1 63/3/1 64/4/1
f 65/1/1 66/2/1 67/3/1 68/4/1
f 69/1/1 70/2/1 71/3/1 72/4/1
f 73/1/1 74/2/1 75/3/1 76/4/1
f 77/5/1 78/6/1 79/7/1 80/8/1
f 81/33/1 82/34/1 83/35/1 84/36/1
f 85/37/1 86/38/1 87/39/1 88/40/1
f 89/37/1 90/38/1 91/39/1 92/40/1
f 93/41/1 94/42/1 95/43/1 96/44/1
f 97/5/1 98/6/1 99/7/1 100/8/1
f 101/5/1 102/6/1 103/7/1 104/8/1
f 105/5/1 106/6/1 107/7/1 108/8/1
f 109/45/1 110/46/1 111/47/1 112/48/1
f 113/49/1 114/50/1 115/51/1 116/52/1
f 117/49/1 118/50/1 119/51/1 120/52/1
f 121/53/1 122/54/1 123/55/1 124/56/1
f 125/57/1 126/58/1 127/59/1 128/60/1
f 129/57/1 130/58/1 131/59/1 132/60/1
f 133/57/1 134/58/1 135/59/1 136/60/1
f 137/57/1 138/58/1 139/59/1 140/60/1
f 141/57/1 142/58/1 143/59/1 144/60/1
f 145/57/1 146/58/1 147/59/1 148/60/1
f 149/61/1 150/62/1 151/63/1 152/64/1
f 153/45/1 154/46/1 155/47/1 156/48/1
f 157/65/1 158/66/1 159/67/1 160/68/1

