# Tiled2Unity generated file. Do not modify by hand.
# Wavefront file for 'house_mesh_0009.obj'

# Vertices (Count = 208)
v -272 -32 0
v -288 -32 0
v -288 -16 0
v -272 -16 0
v -192 -48 0
v -208 -48 0
v -208 -32 0
v -192 -32 0
v -144 -48 0
v -160 -48 0
v -160 -32 0
v -144 -32 0
v -80 -48 0
v -96 -48 0
v -96 -32 0
v -80 -32 0
v -32 -48 0
v -48 -48 0
v -48 -32 0
v -32 -32 0
v -320 -64 0
v -336 -64 0
v -336 -48 0
v -320 -48 0
v -304 -64 0
v -320 -64 0
v -320 -48 0
v -304 -48 0
v -256 -64 0
v -272 -64 0
v -272 -48 0
v -256 -48 0
v -240 -64 0
v -256 -64 0
v -256 -48 0
v -240 -48 0
v -208 -64 0
v -224 -64 0
v -224 -48 0
v -208 -48 0
v -192 -64 0
v -208 -64 0
v -208 -48 0
v -192 -48 0
v -176 -64 0
v -192 -64 0
v -192 -48 0
v -176 -48 0
v -160 -64 0
v -176 -64 0
v -176 -48 0
v -160 -48 0
v -48 -64 0
v -64 -64 0
v -64 -48 0
v -48 -48 0
v -32 -64 0
v -48 -64 0
v -48 -48 0
v -32 -48 0
v -16 -64 0
v -32 -64 0
v -32 -48 0
v -16 -48 0
v -320 -80 0
v -336 -80 0
v -336 -64 0
v -320 -64 0
v -304 -80 0
v -320 -80 0
v -320 -64 0
v -304 -64 0
v -256 -80 0
v -272 -80 0
v -272 -64 0
v -256 -64 0
v -240 -80 0
v -256 -80 0
v -256 -64 0
v -240 -64 0
v -48 -80 0
v -64 -80 0
v -64 -64 0
v -48 -64 0
v -32 -80 0
v -48 -80 0
v -48 -64 0
v -32 -64 0
v -16 -80 0
v -32 -80 0
v -32 -64 0
v -16 -64 0
v -16 -96 0
v -32 -96 0
v -32 -80 0
v -16 -80 0
v -160 -112 0
v -176 -112 0
v -176 -96 0
v -160 -96 0
v -16 -112 0
v -32 -112 0
v -32 -96 0
v -16 -96 0
v -96 -128 0
v -112 -128 0
v -112 -112 0
v -96 -112 0
v -80 -128 0
v -96 -128 0
v -96 -112 0
v -80 -112 0
v -64 -128 0
v -80 -128 0
v -80 -112 0
v -64 -112 0
v -48 -128 0
v -64 -128 0
v -64 -112 0
v -48 -112 0
v -32 -128 0
v -48 -128 0
v -48 -112 0
v -32 -112 0
v -16 -128 0
v -32 -128 0
v -32 -112 0
v -16 -112 0
v -96 -160 0
v -112 -160 0
v -112 -144 0
v -96 -144 0
v -80 -160 0
v -96 -160 0
v -96 -144 0
v -80 -144 0
v -64 -160 0
v -80 -160 0
v -80 -144 0
v -64 -144 0
v -176 -176 0
v -192 -176 0
v -192 -160 0
v -176 -160 0
v -96 -176 0
v -112 -176 0
v -112 -160 0
v -96 -160 0
v -80 -176 0
v -96 -176 0
v -96 -160 0
v -80 -160 0
v -64 -176 0
v -80 -176 0
v -80 -160 0
v -64 -160 0
v -208 -192 0
v -224 -192 0
v -224 -176 0
v -208 -176 0
v -192 -192 0
v -208 -192 0
v -208 -176 0
v -192 -176 0
v -176 -192 0
v -192 -192 0
v -192 -176 0
v -176 -176 0
v -160 -192 0
v -176 -192 0
v -176 -176 0
v -160 -176 0
v -96 -192 0
v -112 -192 0
v -112 -176 0
v -96 -176 0
v -64 -192 0
v -80 -192 0
v -80 -176 0
v -64 -176 0
v -208 -208 0
v -224 -208 0
v -224 -192 0
v -208 -192 0
v -192 -208 0
v -208 -208 0
v -208 -192 0
v -192 -192 0
v -176 -208 0
v -192 -208 0
v -192 -192 0
v -176 -192 0
v -160 -208 0
v -176 -208 0
v -176 -192 0
v -160 -192 0
v -288 -240 0
v -304 -240 0
v -304 -224 0
v -288 -224 0
v -304 -336 0
v -320 -336 0
v -320 -320 0
v -304 -320 0
v -32 -336 0
v -48 -336 0
v -48 -320 0
v -32 -320 0

# Texture cooridinates (Count = 108)
vt 0.4566116 0.7110266
vt 0.4731405 0.7110266
vt 0.4731405 0.7414448
vt 0.4566116 0.7414448
vt 0.8254132 0.8079848
vt 0.8419421 0.8079848
vt 0.8419421 0.838403
vt 0.8254132 0.838403
vt 0.8254132 0.743346
vt 0.8419421 0.743346
vt 0.8419421 0.7737643
vt 0.8254132 0.7737643
vt 0.8605372 0.5817491
vt 0.8770661 0.5817491
vt 0.8770661 0.6121673
vt 0.8605372 0.6121673
vt 0.8078513 0.5817491
vt 0.8243802 0.5817491
vt 0.8243802 0.6121673
vt 0.8078513 0.6121673
vt 0.4917355 0.8726236
vt 0.5082645 0.8726236
vt 0.5082645 0.9030418
vt 0.4917355 0.9030418
vt 0.5444215 0.8726236
vt 0.5609504 0.8726236
vt 0.5609504 0.9030418
vt 0.5444215 0.9030418
vt 0.5444215 0.8403042
vt 0.5609504 0.8403042
vt 0.5609504 0.8707224
vt 0.5444215 0.8707224
vt 0.5444215 0.904943
vt 0.5609504 0.904943
vt 0.5609504 0.9353612
vt 0.5444215 0.9353612
vt 0.5268595 0.904943
vt 0.5433884 0.904943
vt 0.5433884 0.9353612
vt 0.5268595 0.9353612
vt 0.4566116 0.8079848
vt 0.4731405 0.8079848
vt 0.4731405 0.838403
vt 0.4566116 0.838403
vt 0.8605372 0.5171102
vt 0.8770661 0.5171102
vt 0.8770661 0.5475285
vt 0.8605372 0.5475285
vt 0.4917355 0.8403042
vt 0.5082645 0.8403042
vt 0.5082645 0.8707224
vt 0.4917355 0.8707224
vt 0.4566116 0.7756654
vt 0.4731405 0.7756654
vt 0.4731405 0.8060837
vt 0.4566116 0.8060837
vt 0.2458678 0.743346
vt 0.2623967 0.743346
vt 0.2623967 0.7737643
vt 0.2458678 0.7737643
vt 0.4741735 0.9695817
vt 0.4907025 0.9695817
vt 0.4907025 1
vt 0.4741735 1
vt 0.4741735 0.904943
vt 0.4907025 0.904943
vt 0.4907025 0.9353612
vt 0.4741735 0.9353612
vt 0.4741735 0.9372624
vt 0.4907025 0.9372624
vt 0.4907025 0.9676806
vt 0.4741735 0.9676806
vt 0.4390496 0.904943
vt 0.4555785 0.904943
vt 0.4555785 0.9353612
vt 0.4390496 0.9353612
vt 0.9834711 0.161597
vt 1 0.161597
vt 1 0.1920152
vt 0.9834711 0.1920152
vt 0.9834711 0.09695816
vt 1 0.09695816
vt 1 0.1273764
vt 0.9834711 0.1273764
vt 0.9834711 0.1292776
vt 1 0.1292776
vt 1 0.1596958
vt 0.9834711 0.1596958
vt 0.8429752 0.5171102
vt 0.8595041 0.5171102
vt 0.8595041 0.5475285
vt 0.8429752 0.5475285
vt 0.8078513 0.5171102
vt 0.8243802 0.5171102
vt 0.8243802 0.5475285
vt 0.8078513 0.5475285
vt 0.1931818 0.8726236
vt 0.2097107 0.8726236
vt 0.2097107 0.9030418
vt 0.1931818 0.9030418
vt 0.1756198 0.8726236
vt 0.1921488 0.8726236
vt 0.1921488 0.9030418
vt 0.1756198 0.9030418
vt 0.9483471 0.6140684
vt 0.9648761 0.6140684
vt 0.9648761 0.6444867
vt 0.9483471 0.6444867

# Normal
vn 0 0 -1

# Mesh description
g house_mesh_0009

# Faces
f 1/1/1 2/2/1 3/3/1 4/4/1
f 5/5/1 6/6/1 7/7/1 8/8/1
f 9/5/1 10/6/1 11/7/1 12/8/1
f 13/9/1 14/10/1 15/11/1 16/12/1
f 17/9/1 18/10/1 19/11/1 20/12/1
f 21/13/1 22/14/1 23/15/1 24/16/1
f 25/17/1 26/18/1 27/19/1 28/20/1
f 29/21/1 30/22/1 31/23/1 32/24/1
f 33/21/1 34/22/1 35/23/1 36/24/1
f 37/25/1 38/26/1 39/27/1 40/28/1
f 41/29/1 42/30/1 43/31/1 44/32/1
f 45/33/1 46/34/1 47/35/1 48/36/1
f 49/37/1 50/38/1 51/39/1 52/40/1
f 53/41/1 54/42/1 55/43/1 56/44/1
f 57/41/1 58/42/1 59/43/1 60/44/1
f 61/41/1 62/42/1 63/43/1 64/44/1
f 65/45/1 66/46/1 67/47/1 68/48/1
f 69/17/1 70/18/1 71/19/1 72/20/1
f 73/49/1 74/50/1 75/51/1 76/52/1
f 77/49/1 78/50/1 79/51/1 80/52/1
f 81/53/1 82/54/1 83/55/1 84/56/1
f 85/53/1 86/54/1 87/55/1 88/56/1
f 89/53/1 90/54/1 91/55/1 92/56/1
f 93/57/1 94/58/1 95/59/1 96/60/1
f 97/61/1 98/62/1 99/63/1 100/64/1
f 101/65/1 102/66/1 103/67/1 104/68/1
f 105/69/1 106/70/1 107/71/1 108/72/1
f 109/69/1 110/70/1 111/71/1 112/72/1
f 113/69/1 114/70/1 115/71/1 116/72/1
f 117/69/1 118/70/1 119/71/1 120/72/1
f 121/69/1 122/70/1 123/71/1 124/72/1
f 125/73/1 126/74/1 127/75/1 128/76/1
f 129/77/1 130/78/1 131/79/1 132/80/1
f 133/81/1 134/82/1 135/83/1 136/84/1
f 137/85/1 138/86/1 139/87/1 140/88/1
f 141/1/1 142/2/1 143/3/1 144/4/1
f 145/81/1 146/82/1 147/83/1 148/84/1
f 149/85/1 150/86/1 151/87/1 152/88/1
f 153/81/1 154/82/1 155/83/1 156/84/1
f 157/45/1 158/46/1 159/47/1 160/48/1
f 161/89/1 162/90/1 163/91/1 164/92/1
f 165/89/1 166/90/1 167/91/1 168/92/1
f 169/93/1 170/94/1 171/95/1 172/96/1
f 173/97/1 174/98/1 175/99/1 176/100/1
f 177/101/1 178/102/1 179/103/1 180/104/1
f 181/45/1 182/46/1 183/47/1 184/48/1
f 185/89/1 186/90/1 187/91/1 188/92/1
f 189/89/1 190/90/1 191/91/1 192/92/1
f 193/93/1 194/94/1 195/95/1 196/96/1
f 197/105/1 198/106/1 199/107/1 200/108/1
f 201/5/1 202/6/1 203/7/1 204/8/1
f 205/5/1 206/6/1 207/7/1 208/8/1

