# Tiled2Unity generated file. Do not modify by hand.
# Wavefront file for 'village_house6_mesh_0003.obj'

# Vertices (Count = 64)
v -64 -48 0
v -80 -48 0
v -80 -32 0
v -64 -32 0
v -64 -64 0
v -80 -64 0
v -80 -48 0
v -64 -48 0
v -16 -64 0
v -32 -64 0
v -32 -48 0
v -16 -48 0
v -144 -96 0
v -160 -96 0
v -160 -80 0
v -144 -80 0
v -144 -112 0
v -160 -112 0
v -160 -96 0
v -144 -96 0
v -48 -112 0
v -64 -112 0
v -64 -96 0
v -48 -96 0
v -32 -112 0
v -48 -112 0
v -48 -96 0
v -32 -96 0
v -144 -128 0
v -160 -128 0
v -160 -112 0
v -144 -112 0
v -64 -128 0
v -80 -128 0
v -80 -112 0
v -64 -112 0
v -48 -128 0
v -64 -128 0
v -64 -112 0
v -48 -112 0
v -32 -128 0
v -48 -128 0
v -48 -112 0
v -32 -112 0
v -16 -128 0
v -32 -128 0
v -32 -112 0
v -16 -112 0
v -128 -144 0
v -144 -144 0
v -144 -128 0
v -128 -128 0
v -112 -144 0
v -128 -144 0
v -128 -128 0
v -112 -128 0
v -48 -144 0
v -64 -144 0
v -64 -128 0
v -48 -128 0
v -32 -144 0
v -48 -144 0
v -48 -128 0
v -32 -128 0

# Texture cooridinates (Count = 48)
vt 0.7423581 0
vt 0.7772925 0
vt 0.7772925 0.052459
vt 0.7423581 0.052459
vt 0.5196506 0.1114754
vt 0.5545852 0.1114754
vt 0.5545852 0.1639344
vt 0.5196506 0.1639344
vt 0 0.8360656
vt 0.0349345 0.8360656
vt 0.0349345 0.8885246
vt 0 0.8885246
vt 0.1855895 0.7803279
vt 0.220524 0.7803279
vt 0.220524 0.8327869
vt 0.1855895 0.8327869
vt 0.0371179 0.6688524
vt 0.0720524 0.6688524
vt 0.0720524 0.7213115
vt 0.0371179 0.7213115
vt 0.1113537 0.7245902
vt 0.1462882 0.7245902
vt 0.1462882 0.7770492
vt 0.1113537 0.7770492
vt 0.1484716 0.4459016
vt 0.1834061 0.4459016
vt 0.1834061 0.4983606
vt 0.1484716 0.4983606
vt 0.1113537 0.4459016
vt 0.1462882 0.4459016
vt 0.1462882 0.4983606
vt 0.1113537 0.4983606
vt 0.0742358 0.7245902
vt 0.1091703 0.7245902
vt 0.1091703 0.7770492
vt 0.0742358 0.7770492
vt 0.371179 0.8918033
vt 0.4061135 0.8918033
vt 0.4061135 0.9442623
vt 0.371179 0.9442623
vt 0.3340611 0.8918033
vt 0.3689956 0.8918033
vt 0.3689956 0.9442623
vt 0.3340611 0.9442623
vt 0.0371179 0.7803279
vt 0.0720524 0.7803279
vt 0.0720524 0.8327869
vt 0.0371179 0.8327869

# Normal
vn 0 0 -1

# Mesh description
g village_house6_mesh_0003

# Faces
f 1/1/1 2/2/1 3/3/1 4/4/1
f 5/1/1 6/2/1 7/3/1 8/4/1
f 9/5/1 10/6/1 11/7/1 12/8/1
f 13/9/1 14/10/1 15/11/1 16/12/1
f 17/13/1 18/14/1 19/15/1 20/16/1
f 21/9/1 22/10/1 23/11/1 24/12/1
f 25/9/1 26/10/1 27/11/1 28/12/1
f 29/17/1 30/18/1 31/19/1 32/20/1
f 33/21/1 34/22/1 35/23/1 36/24/1
f 37/25/1 38/26/1 39/27/1 40/28/1
f 41/29/1 42/30/1 43/31/1 44/32/1
f 45/33/1 46/34/1 47/35/1 48/36/1
f 49/37/1 50/38/1 51/39/1 52/40/1
f 53/41/1 54/42/1 55/43/1 56/44/1
f 57/45/1 58/46/1 59/47/1 60/48/1
f 61/45/1 62/46/1 63/47/1 64/48/1

