# Tiled2Unity generated file. Do not modify by hand.
# Wavefront file for 'village_house4_mesh_0003.obj'

# Vertices (Count = 32)
v -16 -48 0
v -32 -48 0
v -32 -32 0
v -16 -32 0
v -64 -64 0
v -80 -64 0
v -80 -48 0
v -64 -48 0
v -48 -64 0
v -64 -64 0
v -64 -48 0
v -48 -48 0
v -32 -64 0
v -48 -64 0
v -48 -48 0
v -32 -48 0
v -16 -64 0
v -32 -64 0
v -32 -48 0
v -16 -48 0
v -128 -80 0
v -144 -80 0
v -144 -64 0
v -128 -64 0
v -112 -96 0
v -128 -96 0
v -128 -80 0
v -112 -80 0
v -96 -96 0
v -112 -96 0
v -112 -80 0
v -96 -80 0

# Texture cooridinates (Count = 32)
vt 0.7423581 0
vt 0.7772925 0
vt 0.7772925 0.052459
vt 0.7423581 0.052459
vt 0.1113537 0.7245902
vt 0.1462882 0.7245902
vt 0.1462882 0.7770492
vt 0.1113537 0.7770492
vt 0.2598253 0.3344262
vt 0.2947598 0.3344262
vt 0.2947598 0.3868852
vt 0.2598253 0.3868852
vt 0.0742358 0.7245902
vt 0.1091703 0.7245902
vt 0.1091703 0.7770492
vt 0.0742358 0.7770492
vt 0.779476 0
vt 0.8144105 0
vt 0.8144105 0.052459
vt 0.779476 0.052459
vt 0.0371179 0.7245902
vt 0.0720524 0.7245902
vt 0.0720524 0.7770492
vt 0.0371179 0.7770492
vt 0.371179 0.8918033
vt 0.4061135 0.8918033
vt 0.4061135 0.9442623
vt 0.371179 0.9442623
vt 0.3340611 0.7803279
vt 0.3689956 0.7803279
vt 0.3689956 0.8327869
vt 0.3340611 0.8327869

# Normal
vn 0 0 -1

# Mesh description
g village_house4_mesh_0003

# Faces
f 1/1/1 2/2/1 3/3/1 4/4/1
f 5/5/1 6/6/1 7/7/1 8/8/1
f 9/9/1 10/10/1 11/11/1 12/12/1
f 13/13/1 14/14/1 15/15/1 16/16/1
f 17/17/1 18/18/1 19/19/1 20/20/1
f 21/21/1 22/22/1 23/23/1 24/24/1
f 25/25/1 26/26/1 27/27/1 28/28/1
f 29/29/1 30/30/1 31/31/1 32/32/1

