# Tiled2Unity generated file. Do not modify by hand.
# Wavefront file for 'village_house4_mesh_0006.obj'

# Vertices (Count = 8)
v -16 -112 0
v -32 -112 0
v -32 -96 0
v -16 -96 0
v -16 -128 0
v -32 -128 0
v -32 -112 0
v -16 -112 0

# Texture cooridinates (Count = 8)
vt 0.5567685 0.05573773
vt 0.5917031 0.05573773
vt 0.5917031 0.1081967
vt 0.5567685 0.1081967
vt 0.5567685 0
vt 0.5917031 0
vt 0.5917031 0.052459
vt 0.5567685 0.052459

# Normal
vn 0 0 -1

# Mesh description
g village_house4_mesh_0006

# Faces
f 1/1/1 2/2/1 3/3/1 4/4/1
f 5/5/1 6/6/1 7/7/1 8/8/1

