# Tiled2Unity generated file. Do not modify by hand.
# Wavefront file for 'test_area_mesh_0005.obj'

# Vertices (Count = 796)
v -1008 -256 0
v -1024 -256 0
v -1024 -240 0
v -1008 -240 0
v -992 -256 0
v -1008 -256 0
v -1008 -240 0
v -992 -240 0
v -976 -256 0
v -992 -256 0
v -992 -240 0
v -976 -240 0
v -960 -256 0
v -976 -256 0
v -976 -240 0
v -960 -240 0
v -944 -256 0
v -960 -256 0
v -960 -240 0
v -944 -240 0
v -928 -256 0
v -944 -256 0
v -944 -240 0
v -928 -240 0
v -912 -256 0
v -928 -256 0
v -928 -240 0
v -912 -240 0
v -896 -256 0
v -912 -256 0
v -912 -240 0
v -896 -240 0
v -880 -256 0
v -896 -256 0
v -896 -240 0
v -880 -240 0
v -864 -256 0
v -880 -256 0
v -880 -240 0
v -864 -240 0
v -848 -256 0
v -864 -256 0
v -864 -240 0
v -848 -240 0
v -832 -256 0
v -848 -256 0
v -848 -240 0
v -832 -240 0
v -816 -256 0
v -832 -256 0
v -832 -240 0
v -816 -240 0
v -800 -256 0
v -816 -256 0
v -816 -240 0
v -800 -240 0
v -784 -256 0
v -800 -256 0
v -800 -240 0
v -784 -240 0
v -768 -256 0
v -784 -256 0
v -784 -240 0
v -768 -240 0
v -752 -256 0
v -768 -256 0
v -768 -240 0
v -752 -240 0
v -736 -256 0
v -752 -256 0
v -752 -240 0
v -736 -240 0
v -720 -256 0
v -736 -256 0
v -736 -240 0
v -720 -240 0
v -704 -256 0
v -720 -256 0
v -720 -240 0
v -704 -240 0
v -688 -256 0
v -704 -256 0
v -704 -240 0
v -688 -240 0
v -672 -256 0
v -688 -256 0
v -688 -240 0
v -672 -240 0
v -656 -256 0
v -672 -256 0
v -672 -240 0
v -656 -240 0
v -640 -256 0
v -656 -256 0
v -656 -240 0
v -640 -240 0
v -624 -256 0
v -640 -256 0
v -640 -240 0
v -624 -240 0
v -608 -256 0
v -624 -256 0
v -624 -240 0
v -608 -240 0
v -592 -256 0
v -608 -256 0
v -608 -240 0
v -592 -240 0
v -576 -256 0
v -592 -256 0
v -592 -240 0
v -576 -240 0
v -560 -256 0
v -576 -256 0
v -576 -240 0
v -560 -240 0
v -544 -256 0
v -560 -256 0
v -560 -240 0
v -544 -240 0
v -528 -256 0
v -544 -256 0
v -544 -240 0
v -528 -240 0
v -512 -256 0
v -528 -256 0
v -528 -240 0
v -512 -240 0
v -496 -256 0
v -512 -256 0
v -512 -240 0
v -496 -240 0
v -480 -256 0
v -496 -256 0
v -496 -240 0
v -480 -240 0
v -464 -256 0
v -480 -256 0
v -480 -240 0
v -464 -240 0
v -448 -256 0
v -464 -256 0
v -464 -240 0
v -448 -240 0
v -432 -256 0
v -448 -256 0
v -448 -240 0
v -432 -240 0
v -416 -256 0
v -432 -256 0
v -432 -240 0
v -416 -240 0
v -400 -256 0
v -416 -256 0
v -416 -240 0
v -400 -240 0
v -384 -256 0
v -400 -256 0
v -400 -240 0
v -384 -240 0
v -368 -256 0
v -384 -256 0
v -384 -240 0
v -368 -240 0
v -352 -256 0
v -368 -256 0
v -368 -240 0
v -352 -240 0
v -336 -256 0
v -352 -256 0
v -352 -240 0
v -336 -240 0
v -320 -256 0
v -336 -256 0
v -336 -240 0
v -320 -240 0
v -304 -256 0
v -320 -256 0
v -320 -240 0
v -304 -240 0
v -288 -256 0
v -304 -256 0
v -304 -240 0
v -288 -240 0
v -272 -256 0
v -288 -256 0
v -288 -240 0
v -272 -240 0
v -256 -256 0
v -272 -256 0
v -272 -240 0
v -256 -240 0
v -1008 -272 0
v -1024 -272 0
v -1024 -256 0
v -1008 -256 0
v -256 -272 0
v -272 -272 0
v -272 -256 0
v -256 -256 0
v -1008 -288 0
v -1024 -288 0
v -1024 -272 0
v -1008 -272 0
v -256 -288 0
v -272 -288 0
v -272 -272 0
v -256 -272 0
v -1008 -304 0
v -1024 -304 0
v -1024 -288 0
v -1008 -288 0
v -256 -304 0
v -272 -304 0
v -272 -288 0
v -256 -288 0
v -1008 -320 0
v -1024 -320 0
v -1024 -304 0
v -1008 -304 0
v -496 -320 0
v -512 -320 0
v -512 -304 0
v -496 -304 0
v -480 -320 0
v -496 -320 0
v -496 -304 0
v -480 -304 0
v -464 -320 0
v -480 -320 0
v -480 -304 0
v -464 -304 0
v -256 -320 0
v -272 -320 0
v -272 -304 0
v -256 -304 0
v -1008 -336 0
v -1024 -336 0
v -1024 -320 0
v -1008 -320 0
v -496 -336 0
v -512 -336 0
v -512 -320 0
v -496 -320 0
v -464 -336 0
v -480 -336 0
v -480 -320 0
v -464 -320 0
v -256 -336 0
v -272 -336 0
v -272 -320 0
v -256 -320 0
v -1008 -352 0
v -1024 -352 0
v -1024 -336 0
v -1008 -336 0
v -480 -352 0
v -496 -352 0
v -496 -336 0
v -480 -336 0
v -256 -352 0
v -272 -352 0
v -272 -336 0
v -256 -336 0
v -1008 -368 0
v -1024 -368 0
v -1024 -352 0
v -1008 -352 0
v -848 -368 0
v -864 -368 0
v -864 -352 0
v -848 -352 0
v -768 -368 0
v -784 -368 0
v -784 -352 0
v -768 -352 0
v -592 -368 0
v -608 -368 0
v -608 -352 0
v -592 -352 0
v -256 -368 0
v -272 -368 0
v -272 -352 0
v -256 -352 0
v -1008 -384 0
v -1024 -384 0
v -1024 -368 0
v -1008 -368 0
v -704 -384 0
v -720 -384 0
v -720 -368 0
v -704 -368 0
v -256 -384 0
v -272 -384 0
v -272 -368 0
v -256 -368 0
v -1008 -400 0
v -1024 -400 0
v -1024 -384 0
v -1008 -384 0
v -256 -400 0
v -272 -400 0
v -272 -384 0
v -256 -384 0
v -1008 -416 0
v -1024 -416 0
v -1024 -400 0
v -1008 -400 0
v -256 -416 0
v -272 -416 0
v -272 -400 0
v -256 -400 0
v -1008 -432 0
v -1024 -432 0
v -1024 -416 0
v -1008 -416 0
v -256 -432 0
v -272 -432 0
v -272 -416 0
v -256 -416 0
v -1008 -448 0
v -1024 -448 0
v -1024 -432 0
v -1008 -432 0
v -832 -448 0
v -848 -448 0
v -848 -432 0
v -832 -432 0
v -816 -448 0
v -832 -448 0
v -832 -432 0
v -816 -432 0
v -800 -448 0
v -816 -448 0
v -816 -432 0
v -800 -432 0
v -784 -448 0
v -800 -448 0
v -800 -432 0
v -784 -432 0
v -256 -448 0
v -272 -448 0
v -272 -432 0
v -256 -432 0
v -1008 -464 0
v -1024 -464 0
v -1024 -448 0
v -1008 -448 0
v -848 -464 0
v -864 -464 0
v -864 -448 0
v -848 -448 0
v -832 -464 0
v -848 -464 0
v -848 -448 0
v -832 -448 0
v -816 -464 0
v -832 -464 0
v -832 -448 0
v -816 -448 0
v -800 -464 0
v -816 -464 0
v -816 -448 0
v -800 -448 0
v -784 -464 0
v -800 -464 0
v -800 -448 0
v -784 -448 0
v -768 -464 0
v -784 -464 0
v -784 -448 0
v -768 -448 0
v -640 -464 0
v -656 -464 0
v -656 -448 0
v -640 -448 0
v -256 -464 0
v -272 -464 0
v -272 -448 0
v -256 -448 0
v -1008 -480 0
v -1024 -480 0
v -1024 -464 0
v -1008 -464 0
v -848 -480 0
v -864 -480 0
v -864 -464 0
v -848 -464 0
v -832 -480 0
v -848 -480 0
v -848 -464 0
v -832 -464 0
v -816 -480 0
v -832 -480 0
v -832 -464 0
v -816 -464 0
v -800 -480 0
v -816 -480 0
v -816 -464 0
v -800 -464 0
v -784 -480 0
v -800 -480 0
v -800 -464 0
v -784 -464 0
v -768 -480 0
v -784 -480 0
v -784 -464 0
v -768 -464 0
v -256 -480 0
v -272 -480 0
v -272 -464 0
v -256 -464 0
v -1008 -496 0
v -1024 -496 0
v -1024 -480 0
v -1008 -480 0
v -848 -496 0
v -864 -496 0
v -864 -480 0
v -848 -480 0
v -832 -496 0
v -848 -496 0
v -848 -480 0
v -832 -480 0
v -816 -496 0
v -832 -496 0
v -832 -480 0
v -816 -480 0
v -800 -496 0
v -816 -496 0
v -816 -480 0
v -800 -480 0
v -784 -496 0
v -800 -496 0
v -800 -480 0
v -784 -480 0
v -768 -496 0
v -784 -496 0
v -784 -480 0
v -768 -480 0
v -256 -496 0
v -272 -496 0
v -272 -480 0
v -256 -480 0
v -1008 -512 0
v -1024 -512 0
v -1024 -496 0
v -1008 -496 0
v -848 -512 0
v -864 -512 0
v -864 -496 0
v -848 -496 0
v -768 -512 0
v -784 -512 0
v -784 -496 0
v -768 -496 0
v -256 -512 0
v -272 -512 0
v -272 -496 0
v -256 -496 0
v -1008 -528 0
v -1024 -528 0
v -1024 -512 0
v -1008 -512 0
v -832 -528 0
v -848 -528 0
v -848 -512 0
v -832 -512 0
v -800 -528 0
v -816 -528 0
v -816 -512 0
v -800 -512 0
v -688 -528 0
v -704 -528 0
v -704 -512 0
v -688 -512 0
v -256 -528 0
v -272 -528 0
v -272 -512 0
v -256 -512 0
v -1008 -544 0
v -1024 -544 0
v -1024 -528 0
v -1008 -528 0
v -256 -544 0
v -272 -544 0
v -272 -528 0
v -256 -528 0
v -1008 -560 0
v -1024 -560 0
v -1024 -544 0
v -1008 -544 0
v -784 -560 0
v -800 -560 0
v -800 -544 0
v -784 -544 0
v -256 -560 0
v -272 -560 0
v -272 -544 0
v -256 -544 0
v -1008 -576 0
v -1024 -576 0
v -1024 -560 0
v -1008 -560 0
v -608 -576 0
v -624 -576 0
v -624 -560 0
v -608 -560 0
v -256 -576 0
v -272 -576 0
v -272 -560 0
v -256 -560 0
v -1008 -592 0
v -1024 -592 0
v -1024 -576 0
v -1008 -576 0
v -256 -592 0
v -272 -592 0
v -272 -576 0
v -256 -576 0
v -1008 -608 0
v -1024 -608 0
v -1024 -592 0
v -1008 -592 0
v -256 -608 0
v -272 -608 0
v -272 -592 0
v -256 -592 0
v -1008 -624 0
v -1024 -624 0
v -1024 -608 0
v -1008 -608 0
v -256 -624 0
v -272 -624 0
v -272 -608 0
v -256 -608 0
v -1008 -640 0
v -1024 -640 0
v -1024 -624 0
v -1008 -624 0
v -704 -640 0
v -720 -640 0
v -720 -624 0
v -704 -624 0
v -256 -640 0
v -272 -640 0
v -272 -624 0
v -256 -624 0
v -1008 -656 0
v -1024 -656 0
v -1024 -640 0
v -1008 -640 0
v -496 -656 0
v -512 -656 0
v -512 -640 0
v -496 -640 0
v -480 -656 0
v -496 -656 0
v -496 -640 0
v -480 -640 0
v -464 -656 0
v -480 -656 0
v -480 -640 0
v -464 -640 0
v -448 -656 0
v -464 -656 0
v -464 -640 0
v -448 -640 0
v -256 -656 0
v -272 -656 0
v -272 -640 0
v -256 -640 0
v -1008 -672 0
v -1024 -672 0
v -1024 -656 0
v -1008 -656 0
v -624 -672 0
v -640 -672 0
v -640 -656 0
v -624 -656 0
v -512 -672 0
v -528 -672 0
v -528 -656 0
v -512 -656 0
v -256 -672 0
v -272 -672 0
v -272 -656 0
v -256 -656 0
v -1008 -688 0
v -1024 -688 0
v -1024 -672 0
v -1008 -672 0
v -256 -688 0
v -272 -688 0
v -272 -672 0
v -256 -672 0
v -1008 -704 0
v -1024 -704 0
v -1024 -688 0
v -1008 -688 0
v -256 -704 0
v -272 -704 0
v -272 -688 0
v -256 -688 0
v -1008 -720 0
v -1024 -720 0
v -1024 -704 0
v -1008 -704 0
v -992 -720 0
v -1008 -720 0
v -1008 -704 0
v -992 -704 0
v -976 -720 0
v -992 -720 0
v -992 -704 0
v -976 -704 0
v -960 -720 0
v -976 -720 0
v -976 -704 0
v -960 -704 0
v -944 -720 0
v -960 -720 0
v -960 -704 0
v -944 -704 0
v -928 -720 0
v -944 -720 0
v -944 -704 0
v -928 -704 0
v -912 -720 0
v -928 -720 0
v -928 -704 0
v -912 -704 0
v -896 -720 0
v -912 -720 0
v -912 -704 0
v -896 -704 0
v -880 -720 0
v -896 -720 0
v -896 -704 0
v -880 -704 0
v -864 -720 0
v -880 -720 0
v -880 -704 0
v -864 -704 0
v -848 -720 0
v -864 -720 0
v -864 -704 0
v -848 -704 0
v -832 -720 0
v -848 -720 0
v -848 -704 0
v -832 -704 0
v -816 -720 0
v -832 -720 0
v -832 -704 0
v -816 -704 0
v -800 -720 0
v -816 -720 0
v -816 -704 0
v -800 -704 0
v -784 -720 0
v -800 -720 0
v -800 -704 0
v -784 -704 0
v -768 -720 0
v -784 -720 0
v -784 -704 0
v -768 -704 0
v -752 -720 0
v -768 -720 0
v -768 -704 0
v -752 -704 0
v -736 -720 0
v -752 -720 0
v -752 -704 0
v -736 -704 0
v -720 -720 0
v -736 -720 0
v -736 -704 0
v -720 -704 0
v -704 -720 0
v -720 -720 0
v -720 -704 0
v -704 -704 0
v -688 -720 0
v -704 -720 0
v -704 -704 0
v -688 -704 0
v -672 -720 0
v -688 -720 0
v -688 -704 0
v -672 -704 0
v -656 -720 0
v -672 -720 0
v -672 -704 0
v -656 -704 0
v -640 -720 0
v -656 -720 0
v -656 -704 0
v -640 -704 0
v -624 -720 0
v -640 -720 0
v -640 -704 0
v -624 -704 0
v -608 -720 0
v -624 -720 0
v -624 -704 0
v -608 -704 0
v -592 -720 0
v -608 -720 0
v -608 -704 0
v -592 -704 0
v -576 -720 0
v -592 -720 0
v -592 -704 0
v -576 -704 0
v -560 -720 0
v -576 -720 0
v -576 -704 0
v -560 -704 0
v -544 -720 0
v -560 -720 0
v -560 -704 0
v -544 -704 0
v -528 -720 0
v -544 -720 0
v -544 -704 0
v -528 -704 0
v -512 -720 0
v -528 -720 0
v -528 -704 0
v -512 -704 0
v -496 -720 0
v -512 -720 0
v -512 -704 0
v -496 -704 0
v -480 -720 0
v -496 -720 0
v -496 -704 0
v -480 -704 0
v -464 -720 0
v -480 -720 0
v -480 -704 0
v -464 -704 0
v -448 -720 0
v -464 -720 0
v -464 -704 0
v -448 -704 0
v -432 -720 0
v -448 -720 0
v -448 -704 0
v -432 -704 0
v -416 -720 0
v -432 -720 0
v -432 -704 0
v -416 -704 0
v -400 -720 0
v -416 -720 0
v -416 -704 0
v -400 -704 0
v -384 -720 0
v -400 -720 0
v -400 -704 0
v -384 -704 0
v -368 -720 0
v -384 -720 0
v -384 -704 0
v -368 -704 0
v -352 -720 0
v -368 -720 0
v -368 -704 0
v -352 -704 0
v -336 -720 0
v -352 -720 0
v -352 -704 0
v -336 -704 0
v -320 -720 0
v -336 -720 0
v -336 -704 0
v -320 -704 0
v -304 -720 0
v -320 -720 0
v -320 -704 0
v -304 -704 0
v -288 -720 0
v -304 -720 0
v -304 -704 0
v -288 -704 0
v -272 -720 0
v -288 -720 0
v -288 -704 0
v -272 -704 0
v -256 -720 0
v -272 -720 0
v -272 -704 0
v -256 -704 0

# Texture cooridinates (Count = 60)
vt 0.2809917 0.6463878
vt 0.2975207 0.6463878
vt 0.2975207 0.6768061
vt 0.2809917 0.6768061
vt 0.9659091 0
vt 0.982438 0
vt 0.982438 0.03041828
vt 0.9659091 0.03041828
vt 0.6146694 0.2908745
vt 0.6311983 0.2908745
vt 0.6311983 0.3212928
vt 0.6146694 0.3212928
vt 0.7024794 0.2908745
vt 0.7190083 0.2908745
vt 0.7190083 0.3212928
vt 0.7024794 0.3212928
vt 0.6673554 0.2908745
vt 0.6838843 0.2908745
vt 0.6838843 0.3212928
vt 0.6673554 0.3212928
vt 0.5971074 0.2908745
vt 0.6136364 0.2908745
vt 0.6136364 0.3212928
vt 0.5971074 0.3212928
vt 0.7024794 0.2585551
vt 0.7190083 0.2585551
vt 0.7190083 0.2889734
vt 0.7024794 0.2889734
vt 0.6673554 0.2585551
vt 0.6838843 0.2585551
vt 0.6838843 0.2889734
vt 0.6673554 0.2889734
vt 0.5971074 0.2585551
vt 0.6136364 0.2585551
vt 0.6136364 0.2889734
vt 0.5971074 0.2889734
vt 0.6146694 0.2585551
vt 0.6311983 0.2585551
vt 0.6311983 0.2889734
vt 0.6146694 0.2889734
vt 0.6146694 0.2262357
vt 0.6311983 0.2262357
vt 0.6311983 0.256654
vt 0.6146694 0.256654
vt 0.6322314 0.2585551
vt 0.6487603 0.2585551
vt 0.6487603 0.2889734
vt 0.6322314 0.2889734
vt 0.5971074 0.2262357
vt 0.6136364 0.2262357
vt 0.6136364 0.256654
vt 0.5971074 0.256654
vt 0.7376033 0.904943
vt 0.7541322 0.904943
vt 0.7541322 0.9353612
vt 0.7376033 0.9353612
vt 0.6497934 0.9372624
vt 0.6663223 0.9372624
vt 0.6663223 0.9676806
vt 0.6497934 0.9676806

# Normal
vn 0 0 -1

# Mesh description
g test_area_mesh_0005

# Faces
f 1/1/1 2/2/1 3/3/1 4/4/1
f 5/1/1 6/2/1 7/3/1 8/4/1
f 9/1/1 10/2/1 11/3/1 12/4/1
f 13/1/1 14/2/1 15/3/1 16/4/1
f 17/1/1 18/2/1 19/3/1 20/4/1
f 21/1/1 22/2/1 23/3/1 24/4/1
f 25/1/1 26/2/1 27/3/1 28/4/1
f 29/1/1 30/2/1 31/3/1 32/4/1
f 33/1/1 34/2/1 35/3/1 36/4/1
f 37/1/1 38/2/1 39/3/1 40/4/1
f 41/1/1 42/2/1 43/3/1 44/4/1
f 45/1/1 46/2/1 47/3/1 48/4/1
f 49/1/1 50/2/1 51/3/1 52/4/1
f 53/1/1 54/2/1 55/3/1 56/4/1
f 57/1/1 58/2/1 59/3/1 60/4/1
f 61/1/1 62/2/1 63/3/1 64/4/1
f 65/1/1 66/2/1 67/3/1 68/4/1
f 69/1/1 70/2/1 71/3/1 72/4/1
f 73/1/1 74/2/1 75/3/1 76/4/1
f 77/1/1 78/2/1 79/3/1 80/4/1
f 81/1/1 82/2/1 83/3/1 84/4/1
f 85/1/1 86/2/1 87/3/1 88/4/1
f 89/1/1 90/2/1 91/3/1 92/4/1
f 93/1/1 94/2/1 95/3/1 96/4/1
f 97/1/1 98/2/1 99/3/1 100/4/1
f 101/1/1 102/2/1 103/3/1 104/4/1
f 105/1/1 106/2/1 107/3/1 108/4/1
f 109/1/1 110/2/1 111/3/1 112/4/1
f 113/1/1 114/2/1 115/3/1 116/4/1
f 117/1/1 118/2/1 119/3/1 120/4/1
f 121/1/1 122/2/1 123/3/1 124/4/1
f 125/1/1 126/2/1 127/3/1 128/4/1
f 129/1/1 130/2/1 131/3/1 132/4/1
f 133/1/1 134/2/1 135/3/1 136/4/1
f 137/1/1 138/2/1 139/3/1 140/4/1
f 141/1/1 142/2/1 143/3/1 144/4/1
f 145/1/1 146/2/1 147/3/1 148/4/1
f 149/1/1 150/2/1 151/3/1 152/4/1
f 153/1/1 154/2/1 155/3/1 156/4/1
f 157/1/1 158/2/1 159/3/1 160/4/1
f 161/1/1 162/2/1 163/3/1 164/4/1
f 165/1/1 166/2/1 167/3/1 168/4/1
f 169/1/1 170/2/1 171/3/1 172/4/1
f 173/1/1 174/2/1 175/3/1 176/4/1
f 177/1/1 178/2/1 179/3/1 180/4/1
f 181/1/1 182/2/1 183/3/1 184/4/1
f 185/1/1 186/2/1 187/3/1 188/4/1
f 189/1/1 190/2/1 191/3/1 192/4/1
f 193/1/1 194/2/1 195/3/1 196/4/1
f 197/1/1 198/2/1 199/3/1 200/4/1
f 201/1/1 202/2/1 203/3/1 204/4/1
f 205/1/1 206/2/1 207/3/1 208/4/1
f 209/1/1 210/2/1 211/3/1 212/4/1
f 213/1/1 214/2/1 215/3/1 216/4/1
f 217/1/1 218/2/1 219/3/1 220/4/1
f 221/1/1 222/2/1 223/3/1 224/4/1
f 225/1/1 226/2/1 227/3/1 228/4/1
f 229/1/1 230/2/1 231/3/1 232/4/1
f 233/1/1 234/2/1 235/3/1 236/4/1
f 237/1/1 238/2/1 239/3/1 240/4/1
f 241/1/1 242/2/1 243/3/1 244/4/1
f 245/1/1 246/2/1 247/3/1 248/4/1
f 249/1/1 250/2/1 251/3/1 252/4/1
f 253/1/1 254/2/1 255/3/1 256/4/1
f 257/5/1 258/6/1 259/7/1 260/8/1
f 261/1/1 262/2/1 263/3/1 264/4/1
f 265/1/1 266/2/1 267/3/1 268/4/1
f 269/1/1 270/2/1 271/3/1 272/4/1
f 273/1/1 274/2/1 275/3/1 276/4/1
f 277/1/1 278/2/1 279/3/1 280/4/1
f 281/1/1 282/2/1 283/3/1 284/4/1
f 285/1/1 286/2/1 287/3/1 288/4/1
f 289/1/1 290/2/1 291/3/1 292/4/1
f 293/1/1 294/2/1 295/3/1 296/4/1
f 297/1/1 298/2/1 299/3/1 300/4/1
f 301/1/1 302/2/1 303/3/1 304/4/1
f 305/1/1 306/2/1 307/3/1 308/4/1
f 309/1/1 310/2/1 311/3/1 312/4/1
f 313/1/1 314/2/1 315/3/1 316/4/1
f 317/1/1 318/2/1 319/3/1 320/4/1
f 321/1/1 322/2/1 323/3/1 324/4/1
f 325/9/1 326/10/1 327/11/1 328/12/1
f 329/13/1 330/14/1 331/15/1 332/16/1
f 333/17/1 334/18/1 335/19/1 336/20/1
f 337/21/1 338/22/1 339/23/1 340/24/1
f 341/1/1 342/2/1 343/3/1 344/4/1
f 345/1/1 346/2/1 347/3/1 348/4/1
f 349/9/1 350/10/1 351/11/1 352/12/1
f 353/25/1 354/26/1 355/27/1 356/28/1
f 357/25/1 358/26/1 359/27/1 360/28/1
f 361/29/1 362/30/1 363/31/1 364/32/1
f 365/33/1 366/34/1 367/35/1 368/36/1
f 369/21/1 370/22/1 371/23/1 372/24/1
f 373/1/1 374/2/1 375/3/1 376/4/1
f 377/1/1 378/2/1 379/3/1 380/4/1
f 381/1/1 382/2/1 383/3/1 384/4/1
f 385/37/1 386/38/1 387/39/1 388/40/1
f 389/25/1 390/26/1 391/27/1 392/28/1
f 393/25/1 394/26/1 395/27/1 396/28/1
f 397/29/1 398/30/1 399/31/1 400/32/1
f 401/33/1 402/34/1 403/35/1 404/36/1
f 405/33/1 406/34/1 407/35/1 408/36/1
f 409/1/1 410/2/1 411/3/1 412/4/1
f 413/1/1 414/2/1 415/3/1 416/4/1
f 417/37/1 418/38/1 419/39/1 420/40/1
f 421/41/1 422/42/1 423/43/1 424/44/1
f 425/45/1 426/46/1 427/47/1 428/48/1
f 429/45/1 430/46/1 431/47/1 432/48/1
f 433/49/1 434/50/1 435/51/1 436/52/1
f 437/33/1 438/34/1 439/35/1 440/36/1
f 441/1/1 442/2/1 443/3/1 444/4/1
f 445/1/1 446/2/1 447/3/1 448/4/1
f 449/41/1 450/42/1 451/43/1 452/44/1
f 453/49/1 454/50/1 455/51/1 456/52/1
f 457/1/1 458/2/1 459/3/1 460/4/1
f 461/1/1 462/2/1 463/3/1 464/4/1
f 465/53/1 466/54/1 467/55/1 468/56/1
f 469/53/1 470/54/1 471/55/1 472/56/1
f 473/1/1 474/2/1 475/3/1 476/4/1
f 477/1/1 478/2/1 479/3/1 480/4/1
f 481/1/1 482/2/1 483/3/1 484/4/1
f 485/1/1 486/2/1 487/3/1 488/4/1
f 489/1/1 490/2/1 491/3/1 492/4/1
f 493/57/1 494/58/1 495/59/1 496/60/1
f 497/1/1 498/2/1 499/3/1 500/4/1
f 501/1/1 502/2/1 503/3/1 504/4/1
f 505/1/1 506/2/1 507/3/1 508/4/1
f 509/1/1 510/2/1 511/3/1 512/4/1
f 513/1/1 514/2/1 515/3/1 516/4/1
f 517/1/1 518/2/1 519/3/1 520/4/1
f 521/1/1 522/2/1 523/3/1 524/4/1
f 525/1/1 526/2/1 527/3/1 528/4/1
f 529/1/1 530/2/1 531/3/1 532/4/1
f 533/1/1 534/2/1 535/3/1 536/4/1
f 537/1/1 538/2/1 539/3/1 540/4/1
f 541/1/1 542/2/1 543/3/1 544/4/1
f 545/1/1 546/2/1 547/3/1 548/4/1
f 549/1/1 550/2/1 551/3/1 552/4/1
f 553/1/1 554/2/1 555/3/1 556/4/1
f 557/1/1 558/2/1 559/3/1 560/4/1
f 561/1/1 562/2/1 563/3/1 564/4/1
f 565/1/1 566/2/1 567/3/1 568/4/1
f 569/1/1 570/2/1 571/3/1 572/4/1
f 573/1/1 574/2/1 575/3/1 576/4/1
f 577/1/1 578/2/1 579/3/1 580/4/1
f 581/1/1 582/2/1 583/3/1 584/4/1
f 585/1/1 586/2/1 587/3/1 588/4/1
f 589/1/1 590/2/1 591/3/1 592/4/1
f 593/1/1 594/2/1 595/3/1 596/4/1
f 597/1/1 598/2/1 599/3/1 600/4/1
f 601/1/1 602/2/1 603/3/1 604/4/1
f 605/1/1 606/2/1 607/3/1 608/4/1
f 609/1/1 610/2/1 611/3/1 612/4/1
f 613/1/1 614/2/1 615/3/1 616/4/1
f 617/1/1 618/2/1 619/3/1 620/4/1
f 621/1/1 622/2/1 623/3/1 624/4/1
f 625/1/1 626/2/1 627/3/1 628/4/1
f 629/1/1 630/2/1 631/3/1 632/4/1
f 633/1/1 634/2/1 635/3/1 636/4/1
f 637/1/1 638/2/1 639/3/1 640/4/1
f 641/1/1 642/2/1 643/3/1 644/4/1
f 645/1/1 646/2/1 647/3/1 648/4/1
f 649/1/1 650/2/1 651/3/1 652/4/1
f 653/1/1 654/2/1 655/3/1 656/4/1
f 657/1/1 658/2/1 659/3/1 660/4/1
f 661/1/1 662/2/1 663/3/1 664/4/1
f 665/1/1 666/2/1 667/3/1 668/4/1
f 669/1/1 670/2/1 671/3/1 672/4/1
f 673/1/1 674/2/1 675/3/1 676/4/1
f 677/1/1 678/2/1 679/3/1 680/4/1
f 681/1/1 682/2/1 683/3/1 684/4/1
f 685/1/1 686/2/1 687/3/1 688/4/1
f 689/1/1 690/2/1 691/3/1 692/4/1
f 693/1/1 694/2/1 695/3/1 696/4/1
f 697/1/1 698/2/1 699/3/1 700/4/1
f 701/1/1 702/2/1 703/3/1 704/4/1
f 705/1/1 706/2/1 707/3/1 708/4/1
f 709/1/1 710/2/1 711/3/1 712/4/1
f 713/1/1 714/2/1 715/3/1 716/4/1
f 717/1/1 718/2/1 719/3/1 720/4/1
f 721/1/1 722/2/1 723/3/1 724/4/1
f 725/1/1 726/2/1 727/3/1 728/4/1
f 729/1/1 730/2/1 731/3/1 732/4/1
f 733/1/1 734/2/1 735/3/1 736/4/1
f 737/1/1 738/2/1 739/3/1 740/4/1
f 741/1/1 742/2/1 743/3/1 744/4/1
f 745/1/1 746/2/1 747/3/1 748/4/1
f 749/1/1 750/2/1 751/3/1 752/4/1
f 753/1/1 754/2/1 755/3/1 756/4/1
f 757/1/1 758/2/1 759/3/1 760/4/1
f 761/1/1 762/2/1 763/3/1 764/4/1
f 765/1/1 766/2/1 767/3/1 768/4/1
f 769/1/1 770/2/1 771/3/1 772/4/1
f 773/1/1 774/2/1 775/3/1 776/4/1
f 777/1/1 778/2/1 779/3/1 780/4/1
f 781/1/1 782/2/1 783/3/1 784/4/1
f 785/1/1 786/2/1 787/3/1 788/4/1
f 789/1/1 790/2/1 791/3/1 792/4/1
f 793/1/1 794/2/1 795/3/1 796/4/1

