# Tiled2Unity generated file. Do not modify by hand.
# Wavefront file for 'L1_mesh_0003.obj'

# Vertices (Count = 200)
v -304 -16 0
v -320 -16 0
v -320 0 0
v -304 0 0
v 0 -16 0
v -16 -16 0
v -16 0 0
v 0 0 0
v -304 -32 0
v -320 -32 0
v -320 -16 0
v -304 -16 0
v -160 -32 0
v -176 -32 0
v -176 -16 0
v -160 -16 0
v -96 -32 0
v -112 -32 0
v -112 -16 0
v -96 -16 0
v 0 -32 0
v -16 -32 0
v -16 -16 0
v 0 -16 0
v -304 -48 0
v -320 -48 0
v -320 -32 0
v -304 -32 0
v -240 -48 0
v -256 -48 0
v -256 -32 0
v -240 -32 0
v -32 -48 0
v -48 -48 0
v -48 -32 0
v -32 -32 0
v 0 -48 0
v -16 -48 0
v -16 -32 0
v 0 -32 0
v -304 -64 0
v -320 -64 0
v -320 -48 0
v -304 -48 0
v -256 -64 0
v -272 -64 0
v -272 -48 0
v -256 -48 0
v 0 -64 0
v -16 -64 0
v -16 -48 0
v 0 -48 0
v -304 -80 0
v -320 -80 0
v -320 -64 0
v -304 -64 0
v 0 -80 0
v -16 -80 0
v -16 -64 0
v 0 -64 0
v -304 -96 0
v -320 -96 0
v -320 -80 0
v -304 -80 0
v -304 -112 0
v -320 -112 0
v -320 -96 0
v -304 -96 0
v -272 -112 0
v -288 -112 0
v -288 -96 0
v -272 -96 0
v -48 -112 0
v -64 -112 0
v -64 -96 0
v -48 -96 0
v -304 -128 0
v -320 -128 0
v -320 -112 0
v -304 -112 0
v -96 -128 0
v -112 -128 0
v -112 -112 0
v -96 -112 0
v -32 -128 0
v -48 -128 0
v -48 -112 0
v -32 -112 0
v -304 -144 0
v -320 -144 0
v -320 -128 0
v -304 -128 0
v -80 -144 0
v -96 -144 0
v -96 -128 0
v -80 -128 0
v -304 -160 0
v -320 -160 0
v -320 -144 0
v -304 -144 0
v -304 -176 0
v -320 -176 0
v -320 -160 0
v -304 -160 0
v -80 -176 0
v -96 -176 0
v -96 -160 0
v -80 -160 0
v -304 -192 0
v -320 -192 0
v -320 -176 0
v -304 -176 0
v -272 -192 0
v -288 -192 0
v -288 -176 0
v -272 -176 0
v -32 -192 0
v -48 -192 0
v -48 -176 0
v -32 -176 0
v -304 -208 0
v -320 -208 0
v -320 -192 0
v -304 -192 0
v -96 -208 0
v -112 -208 0
v -112 -192 0
v -96 -192 0
v -48 -208 0
v -64 -208 0
v -64 -192 0
v -48 -192 0
v -304 -224 0
v -320 -224 0
v -320 -208 0
v -304 -208 0
v -64 -224 0
v -80 -224 0
v -80 -208 0
v -64 -208 0
v -304 -240 0
v -320 -240 0
v -320 -224 0
v -304 -224 0
v -304 -256 0
v -320 -256 0
v -320 -240 0
v -304 -240 0
v -304 -272 0
v -320 -272 0
v -320 -256 0
v -304 -256 0
v -256 -272 0
v -272 -272 0
v -272 -256 0
v -256 -256 0
v 0 -272 0
v -16 -272 0
v -16 -256 0
v 0 -256 0
v -304 -288 0
v -320 -288 0
v -320 -272 0
v -304 -272 0
v -208 -288 0
v -224 -288 0
v -224 -272 0
v -208 -272 0
v -32 -288 0
v -48 -288 0
v -48 -272 0
v -32 -272 0
v 0 -288 0
v -16 -288 0
v -16 -272 0
v 0 -272 0
v -304 -304 0
v -320 -304 0
v -320 -288 0
v -304 -288 0
v -144 -304 0
v -160 -304 0
v -160 -288 0
v -144 -288 0
v -80 -304 0
v -96 -304 0
v -96 -288 0
v -80 -288 0
v 0 -304 0
v -16 -304 0
v -16 -288 0
v 0 -288 0
v -304 -320 0
v -320 -320 0
v -320 -304 0
v -304 -304 0
v 0 -320 0
v -16 -320 0
v -16 -304 0
v 0 -304 0

# Texture cooridinates (Count = 24)
vt 0.7423581 0.5016394
vt 0.7772925 0.5016394
vt 0.7772925 0.5540984
vt 0.7423581 0.5540984
vt 0.6681223 0.5016394
vt 0.7030568 0.5016394
vt 0.7030568 0.5540984
vt 0.6681223 0.5540984
vt 0.7423581 0.4459016
vt 0.7772925 0.4459016
vt 0.7772925 0.4983606
vt 0.7423581 0.4983606
vt 0.6681223 0.4459016
vt 0.7030568 0.4459016
vt 0.7030568 0.4983606
vt 0.6681223 0.4983606
vt 0.6681223 0.390164
vt 0.7030568 0.390164
vt 0.7030568 0.442623
vt 0.6681223 0.442623
vt 0.7423581 0.390164
vt 0.7772925 0.390164
vt 0.7772925 0.442623
vt 0.7423581 0.442623

# Normal
vn 0 0 -1

# Mesh description
g L1_mesh_0003

# Faces
f 1/1/1 2/2/1 3/3/1 4/4/1
f 5/5/1 6/6/1 7/7/1 8/8/1
f 9/9/1 10/10/1 11/11/1 12/12/1
f 13/13/1 14/14/1 15/15/1 16/16/1
f 17/9/1 18/10/1 19/11/1 20/12/1
f 21/13/1 22/14/1 23/15/1 24/16/1
f 25/9/1 26/10/1 27/11/1 28/12/1
f 29/13/1 30/14/1 31/15/1 32/16/1
f 33/9/1 34/10/1 35/11/1 36/12/1
f 37/13/1 38/14/1 39/15/1 40/16/1
f 41/9/1 42/10/1 43/11/1 44/12/1
f 45/13/1 46/14/1 47/15/1 48/16/1
f 49/13/1 50/14/1 51/15/1 52/16/1
f 53/9/1 54/10/1 55/11/1 56/12/1
f 57/17/1 58/18/1 59/19/1 60/20/1
f 61/9/1 62/10/1 63/11/1 64/12/1
f 65/9/1 66/10/1 67/11/1 68/12/1
f 69/13/1 70/14/1 71/15/1 72/16/1
f 73/13/1 74/14/1 75/15/1 76/16/1
f 77/9/1 78/10/1 79/11/1 80/12/1
f 81/9/1 82/10/1 83/11/1 84/12/1
f 85/5/1 86/6/1 87/7/1 88/8/1
f 89/9/1 90/10/1 91/11/1 92/12/1
f 93/9/1 94/10/1 95/11/1 96/12/1
f 97/9/1 98/10/1 99/11/1 100/12/1
f 101/9/1 102/10/1 103/11/1 104/12/1
f 105/9/1 106/10/1 107/11/1 108/12/1
f 109/9/1 110/10/1 111/11/1 112/12/1
f 113/13/1 114/14/1 115/15/1 116/16/1
f 117/13/1 118/14/1 119/15/1 120/16/1
f 121/9/1 122/10/1 123/11/1 124/12/1
f 125/9/1 126/10/1 127/11/1 128/12/1
f 129/13/1 130/14/1 131/15/1 132/16/1
f 133/9/1 134/10/1 135/11/1 136/12/1
f 137/13/1 138/14/1 139/15/1 140/16/1
f 141/9/1 142/10/1 143/11/1 144/12/1
f 145/9/1 146/10/1 147/11/1 148/12/1
f 149/9/1 150/10/1 151/11/1 152/12/1
f 153/13/1 154/14/1 155/15/1 156/16/1
f 157/5/1 158/6/1 159/7/1 160/8/1
f 161/9/1 162/10/1 163/11/1 164/12/1
f 165/13/1 166/14/1 167/15/1 168/16/1
f 169/9/1 170/10/1 171/11/1 172/12/1
f 173/13/1 174/14/1 175/15/1 176/16/1
f 177/9/1 178/10/1 179/11/1 180/12/1
f 181/13/1 182/14/1 183/15/1 184/16/1
f 185/9/1 186/10/1 187/11/1 188/12/1
f 189/13/1 190/14/1 191/15/1 192/16/1
f 193/21/1 194/22/1 195/23/1 196/24/1
f 197/17/1 198/18/1 199/19/1 200/20/1

