# Tiled2Unity generated file. Do not modify by hand.
# Wavefront file for 'R_mesh_0002.obj'

# Vertices (Count = 820)
v -304 -16 0
v -320 -16 0
v -320 0 0
v -304 0 0
v -288 -16 0
v -304 -16 0
v -304 0 0
v -288 0 0
v -272 -16 0
v -288 -16 0
v -288 0 0
v -272 0 0
v -256 -16 0
v -272 -16 0
v -272 0 0
v -256 0 0
v -240 -16 0
v -256 -16 0
v -256 0 0
v -240 0 0
v -224 -16 0
v -240 -16 0
v -240 0 0
v -224 0 0
v -208 -16 0
v -224 -16 0
v -224 0 0
v -208 0 0
v -192 -16 0
v -208 -16 0
v -208 0 0
v -192 0 0
v -176 -16 0
v -192 -16 0
v -192 0 0
v -176 0 0
v -160 -16 0
v -176 -16 0
v -176 0 0
v -160 0 0
v -144 -16 0
v -160 -16 0
v -160 0 0
v -144 0 0
v -128 -16 0
v -144 -16 0
v -144 0 0
v -128 0 0
v -112 -16 0
v -128 -16 0
v -128 0 0
v -112 0 0
v -96 -16 0
v -112 -16 0
v -112 0 0
v -96 0 0
v -80 -16 0
v -96 -16 0
v -96 0 0
v -80 0 0
v -64 -16 0
v -80 -16 0
v -80 0 0
v -64 0 0
v -48 -16 0
v -64 -16 0
v -64 0 0
v -48 0 0
v -32 -16 0
v -48 -16 0
v -48 0 0
v -32 0 0
v -16 -16 0
v -32 -16 0
v -32 0 0
v -16 0 0
v 0 -16 0
v -16 -16 0
v -16 0 0
v 0 0 0
v -304 -32 0
v -320 -32 0
v -320 -16 0
v -304 -16 0
v -288 -32 0
v -304 -32 0
v -304 -16 0
v -288 -16 0
v -272 -32 0
v -288 -32 0
v -288 -16 0
v -272 -16 0
v -256 -32 0
v -272 -32 0
v -272 -16 0
v -256 -16 0
v -240 -32 0
v -256 -32 0
v -256 -16 0
v -240 -16 0
v -224 -32 0
v -240 -32 0
v -240 -16 0
v -224 -16 0
v -208 -32 0
v -224 -32 0
v -224 -16 0
v -208 -16 0
v -192 -32 0
v -208 -32 0
v -208 -16 0
v -192 -16 0
v -176 -32 0
v -192 -32 0
v -192 -16 0
v -176 -16 0
v -160 -32 0
v -176 -32 0
v -176 -16 0
v -160 -16 0
v -144 -32 0
v -160 -32 0
v -160 -16 0
v -144 -16 0
v -128 -32 0
v -144 -32 0
v -144 -16 0
v -128 -16 0
v -112 -32 0
v -128 -32 0
v -128 -16 0
v -112 -16 0
v -96 -32 0
v -112 -32 0
v -112 -16 0
v -96 -16 0
v -80 -32 0
v -96 -32 0
v -96 -16 0
v -80 -16 0
v -64 -32 0
v -80 -32 0
v -80 -16 0
v -64 -16 0
v -48 -32 0
v -64 -32 0
v -64 -16 0
v -48 -16 0
v -32 -32 0
v -48 -32 0
v -48 -16 0
v -32 -16 0
v -16 -32 0
v -32 -32 0
v -32 -16 0
v -16 -16 0
v 0 -32 0
v -16 -32 0
v -16 -16 0
v 0 -16 0
v -304 -48 0
v -320 -48 0
v -320 -32 0
v -304 -32 0
v -288 -48 0
v -304 -48 0
v -304 -32 0
v -288 -32 0
v -272 -48 0
v -288 -48 0
v -288 -32 0
v -272 -32 0
v -256 -48 0
v -272 -48 0
v -272 -32 0
v -256 -32 0
v -240 -48 0
v -256 -48 0
v -256 -32 0
v -240 -32 0
v -224 -48 0
v -240 -48 0
v -240 -32 0
v -224 -32 0
v -208 -48 0
v -224 -48 0
v -224 -32 0
v -208 -32 0
v -192 -48 0
v -208 -48 0
v -208 -32 0
v -192 -32 0
v -176 -48 0
v -192 -48 0
v -192 -32 0
v -176 -32 0
v -160 -48 0
v -176 -48 0
v -176 -32 0
v -160 -32 0
v -144 -48 0
v -160 -48 0
v -160 -32 0
v -144 -32 0
v -128 -48 0
v -144 -48 0
v -144 -32 0
v -128 -32 0
v -112 -48 0
v -128 -48 0
v -128 -32 0
v -112 -32 0
v -96 -48 0
v -112 -48 0
v -112 -32 0
v -96 -32 0
v -80 -48 0
v -96 -48 0
v -96 -32 0
v -80 -32 0
v -64 -48 0
v -80 -48 0
v -80 -32 0
v -64 -32 0
v -48 -48 0
v -64 -48 0
v -64 -32 0
v -48 -32 0
v -32 -48 0
v -48 -48 0
v -48 -32 0
v -32 -32 0
v -16 -48 0
v -32 -48 0
v -32 -32 0
v -16 -32 0
v 0 -48 0
v -16 -48 0
v -16 -32 0
v 0 -32 0
v -304 -64 0
v -320 -64 0
v -320 -48 0
v -304 -48 0
v -288 -64 0
v -304 -64 0
v -304 -48 0
v -288 -48 0
v -272 -64 0
v -288 -64 0
v -288 -48 0
v -272 -48 0
v -256 -64 0
v -272 -64 0
v -272 -48 0
v -256 -48 0
v -240 -64 0
v -256 -64 0
v -256 -48 0
v -240 -48 0
v -224 -64 0
v -240 -64 0
v -240 -48 0
v -224 -48 0
v -96 -64 0
v -112 -64 0
v -112 -48 0
v -96 -48 0
v -80 -64 0
v -96 -64 0
v -96 -48 0
v -80 -48 0
v -64 -64 0
v -80 -64 0
v -80 -48 0
v -64 -48 0
v -48 -64 0
v -64 -64 0
v -64 -48 0
v -48 -48 0
v -32 -64 0
v -48 -64 0
v -48 -48 0
v -32 -48 0
v -16 -64 0
v -32 -64 0
v -32 -48 0
v -16 -48 0
v 0 -64 0
v -16 -64 0
v -16 -48 0
v 0 -48 0
v -304 -80 0
v -320 -80 0
v -320 -64 0
v -304 -64 0
v -288 -80 0
v -304 -80 0
v -304 -64 0
v -288 -64 0
v -272 -80 0
v -288 -80 0
v -288 -64 0
v -272 -64 0
v -256 -80 0
v -272 -80 0
v -272 -64 0
v -256 -64 0
v -64 -80 0
v -80 -80 0
v -80 -64 0
v -64 -64 0
v -48 -80 0
v -64 -80 0
v -64 -64 0
v -48 -64 0
v -32 -80 0
v -48 -80 0
v -48 -64 0
v -32 -64 0
v -16 -80 0
v -32 -80 0
v -32 -64 0
v -16 -64 0
v 0 -80 0
v -16 -80 0
v -16 -64 0
v 0 -64 0
v -64 -96 0
v -80 -96 0
v -80 -80 0
v -64 -80 0
v -48 -96 0
v -64 -96 0
v -64 -80 0
v -48 -80 0
v -32 -96 0
v -48 -96 0
v -48 -80 0
v -32 -80 0
v -16 -96 0
v -32 -96 0
v -32 -80 0
v -16 -80 0
v 0 -96 0
v -16 -96 0
v -16 -80 0
v 0 -80 0
v -48 -112 0
v -64 -112 0
v -64 -96 0
v -48 -96 0
v -32 -112 0
v -48 -112 0
v -48 -96 0
v -32 -96 0
v -16 -112 0
v -32 -112 0
v -32 -96 0
v -16 -96 0
v 0 -112 0
v -16 -112 0
v -16 -96 0
v 0 -96 0
v -32 -128 0
v -48 -128 0
v -48 -112 0
v -32 -112 0
v -16 -128 0
v -32 -128 0
v -32 -112 0
v -16 -112 0
v 0 -128 0
v -16 -128 0
v -16 -112 0
v 0 -112 0
v -32 -144 0
v -48 -144 0
v -48 -128 0
v -32 -128 0
v -16 -144 0
v -32 -144 0
v -32 -128 0
v -16 -128 0
v 0 -144 0
v -16 -144 0
v -16 -128 0
v 0 -128 0
v -32 -160 0
v -48 -160 0
v -48 -144 0
v -32 -144 0
v -16 -160 0
v -32 -160 0
v -32 -144 0
v -16 -144 0
v 0 -160 0
v -16 -160 0
v -16 -144 0
v 0 -144 0
v -32 -176 0
v -48 -176 0
v -48 -160 0
v -32 -160 0
v -16 -176 0
v -32 -176 0
v -32 -160 0
v -16 -160 0
v 0 -176 0
v -16 -176 0
v -16 -160 0
v 0 -160 0
v -32 -192 0
v -48 -192 0
v -48 -176 0
v -32 -176 0
v -16 -192 0
v -32 -192 0
v -32 -176 0
v -16 -176 0
v 0 -192 0
v -16 -192 0
v -16 -176 0
v 0 -176 0
v -32 -208 0
v -48 -208 0
v -48 -192 0
v -32 -192 0
v -16 -208 0
v -32 -208 0
v -32 -192 0
v -16 -192 0
v 0 -208 0
v -16 -208 0
v -16 -192 0
v 0 -192 0
v -32 -224 0
v -48 -224 0
v -48 -208 0
v -32 -208 0
v -16 -224 0
v -32 -224 0
v -32 -208 0
v -16 -208 0
v 0 -224 0
v -16 -224 0
v -16 -208 0
v 0 -208 0
v -48 -240 0
v -64 -240 0
v -64 -224 0
v -48 -224 0
v -32 -240 0
v -48 -240 0
v -48 -224 0
v -32 -224 0
v -16 -240 0
v -32 -240 0
v -32 -224 0
v -16 -224 0
v 0 -240 0
v -16 -240 0
v -16 -224 0
v 0 -224 0
v -304 -256 0
v -320 -256 0
v -320 -240 0
v -304 -240 0
v -288 -256 0
v -304 -256 0
v -304 -240 0
v -288 -240 0
v -272 -256 0
v -288 -256 0
v -288 -240 0
v -272 -240 0
v -256 -256 0
v -272 -256 0
v -272 -240 0
v -256 -240 0
v -240 -256 0
v -256 -256 0
v -256 -240 0
v -240 -240 0
v -64 -256 0
v -80 -256 0
v -80 -240 0
v -64 -240 0
v -48 -256 0
v -64 -256 0
v -64 -240 0
v -48 -240 0
v -32 -256 0
v -48 -256 0
v -48 -240 0
v -32 -240 0
v -16 -256 0
v -32 -256 0
v -32 -240 0
v -16 -240 0
v 0 -256 0
v -16 -256 0
v -16 -240 0
v 0 -240 0
v -304 -272 0
v -320 -272 0
v -320 -256 0
v -304 -256 0
v -288 -272 0
v -304 -272 0
v -304 -256 0
v -288 -256 0
v -272 -272 0
v -288 -272 0
v -288 -256 0
v -272 -256 0
v -256 -272 0
v -272 -272 0
v -272 -256 0
v -256 -256 0
v -240 -272 0
v -256 -272 0
v -256 -256 0
v -240 -256 0
v -224 -272 0
v -240 -272 0
v -240 -256 0
v -224 -256 0
v -208 -272 0
v -224 -272 0
v -224 -256 0
v -208 -256 0
v -192 -272 0
v -208 -272 0
v -208 -256 0
v -192 -256 0
v -176 -272 0
v -192 -272 0
v -192 -256 0
v -176 -256 0
v -144 -272 0
v -160 -272 0
v -160 -256 0
v -144 -256 0
v -128 -272 0
v -144 -272 0
v -144 -256 0
v -128 -256 0
v -112 -272 0
v -128 -272 0
v -128 -256 0
v -112 -256 0
v -96 -272 0
v -112 -272 0
v -112 -256 0
v -96 -256 0
v -80 -272 0
v -96 -272 0
v -96 -256 0
v -80 -256 0
v -64 -272 0
v -80 -272 0
v -80 -256 0
v -64 -256 0
v -48 -272 0
v -64 -272 0
v -64 -256 0
v -48 -256 0
v -32 -272 0
v -48 -272 0
v -48 -256 0
v -32 -256 0
v -16 -272 0
v -32 -272 0
v -32 -256 0
v -16 -256 0
v 0 -272 0
v -16 -272 0
v -16 -256 0
v 0 -256 0
v -304 -288 0
v -320 -288 0
v -320 -272 0
v -304 -272 0
v -288 -288 0
v -304 -288 0
v -304 -272 0
v -288 -272 0
v -272 -288 0
v -288 -288 0
v -288 -272 0
v -272 -272 0
v -256 -288 0
v -272 -288 0
v -272 -272 0
v -256 -272 0
v -240 -288 0
v -256 -288 0
v -256 -272 0
v -240 -272 0
v -224 -288 0
v -240 -288 0
v -240 -272 0
v -224 -272 0
v -208 -288 0
v -224 -288 0
v -224 -272 0
v -208 -272 0
v -192 -288 0
v -208 -288 0
v -208 -272 0
v -192 -272 0
v -176 -288 0
v -192 -288 0
v -192 -272 0
v -176 -272 0
v -160 -288 0
v -176 -288 0
v -176 -272 0
v -160 -272 0
v -144 -288 0
v -160 -288 0
v -160 -272 0
v -144 -272 0
v -128 -288 0
v -144 -288 0
v -144 -272 0
v -128 -272 0
v -112 -288 0
v -128 -288 0
v -128 -272 0
v -112 -272 0
v -96 -288 0
v -112 -288 0
v -112 -272 0
v -96 -272 0
v -80 -288 0
v -96 -288 0
v -96 -272 0
v -80 -272 0
v -64 -288 0
v -80 -288 0
v -80 -272 0
v -64 -272 0
v -48 -288 0
v -64 -288 0
v -64 -272 0
v -48 -272 0
v -32 -288 0
v -48 -288 0
v -48 -272 0
v -32 -272 0
v -16 -288 0
v -32 -288 0
v -32 -272 0
v -16 -272 0
v 0 -288 0
v -16 -288 0
v -16 -272 0
v 0 -272 0
v -304 -304 0
v -320 -304 0
v -320 -288 0
v -304 -288 0
v -288 -304 0
v -304 -304 0
v -304 -288 0
v -288 -288 0
v -272 -304 0
v -288 -304 0
v -288 -288 0
v -272 -288 0
v -256 -304 0
v -272 -304 0
v -272 -288 0
v -256 -288 0
v -240 -304 0
v -256 -304 0
v -256 -288 0
v -240 -288 0
v -224 -304 0
v -240 -304 0
v -240 -288 0
v -224 -288 0
v -208 -304 0
v -224 -304 0
v -224 -288 0
v -208 -288 0
v -192 -304 0
v -208 -304 0
v -208 -288 0
v -192 -288 0
v -176 -304 0
v -192 -304 0
v -192 -288 0
v -176 -288 0
v -160 -304 0
v -176 -304 0
v -176 -288 0
v -160 -288 0
v -144 -304 0
v -160 -304 0
v -160 -288 0
v -144 -288 0
v -128 -304 0
v -144 -304 0
v -144 -288 0
v -128 -288 0
v -112 -304 0
v -128 -304 0
v -128 -288 0
v -112 -288 0
v -96 -304 0
v -112 -304 0
v -112 -288 0
v -96 -288 0
v -80 -304 0
v -96 -304 0
v -96 -288 0
v -80 -288 0
v -64 -304 0
v -80 -304 0
v -80 -288 0
v -64 -288 0
v -48 -304 0
v -64 -304 0
v -64 -288 0
v -48 -288 0
v -32 -304 0
v -48 -304 0
v -48 -288 0
v -32 -288 0
v -16 -304 0
v -32 -304 0
v -32 -288 0
v -16 -288 0
v 0 -304 0
v -16 -304 0
v -16 -288 0
v 0 -288 0
v -304 -320 0
v -320 -320 0
v -320 -304 0
v -304 -304 0
v -288 -320 0
v -304 -320 0
v -304 -304 0
v -288 -304 0
v -272 -320 0
v -288 -320 0
v -288 -304 0
v -272 -304 0
v -256 -320 0
v -272 -320 0
v -272 -304 0
v -256 -304 0
v -240 -320 0
v -256 -320 0
v -256 -304 0
v -240 -304 0
v -224 -320 0
v -240 -320 0
v -240 -304 0
v -224 -304 0
v -208 -320 0
v -224 -320 0
v -224 -304 0
v -208 -304 0
v -192 -320 0
v -208 -320 0
v -208 -304 0
v -192 -304 0
v -176 -320 0
v -192 -320 0
v -192 -304 0
v -176 -304 0
v -160 -320 0
v -176 -320 0
v -176 -304 0
v -160 -304 0
v -144 -320 0
v -160 -320 0
v -160 -304 0
v -144 -304 0
v -128 -320 0
v -144 -320 0
v -144 -304 0
v -128 -304 0
v -112 -320 0
v -128 -320 0
v -128 -304 0
v -112 -304 0
v -96 -320 0
v -112 -320 0
v -112 -304 0
v -96 -304 0
v -80 -320 0
v -96 -320 0
v -96 -304 0
v -80 -304 0
v -64 -320 0
v -80 -320 0
v -80 -304 0
v -64 -304 0
v -48 -320 0
v -64 -320 0
v -64 -304 0
v -48 -304 0
v -32 -320 0
v -48 -320 0
v -48 -304 0
v -32 -304 0
v -16 -320 0
v -32 -320 0
v -32 -304 0
v -16 -304 0
v 0 -320 0
v -16 -320 0
v -16 -304 0
v 0 -304 0

# Texture cooridinates (Count = 44)
vt 0.6310044 0.5016394
vt 0.6659389 0.5016394
vt 0.6659389 0.5540984
vt 0.6310044 0.5540984
vt 0.7052402 0.5016394
vt 0.7401747 0.5016394
vt 0.7401747 0.5540984
vt 0.7052402 0.5540984
vt 0.779476 0.5016394
vt 0.8144105 0.5016394
vt 0.8144105 0.5540984
vt 0.779476 0.5540984
vt 0.7052402 0.4459016
vt 0.7401747 0.4459016
vt 0.7401747 0.4983606
vt 0.7052402 0.4983606
vt 0.7052402 0.390164
vt 0.7401747 0.390164
vt 0.7401747 0.442623
vt 0.7052402 0.442623
vt 0.6681223 0.390164
vt 0.7030568 0.390164
vt 0.7030568 0.442623
vt 0.6681223 0.442623
vt 0.7423581 0.390164
vt 0.7772925 0.390164
vt 0.7772925 0.442623
vt 0.7423581 0.442623
vt 0.6310044 0.4459016
vt 0.6659389 0.4459016
vt 0.6659389 0.4983606
vt 0.6310044 0.4983606
vt 0.7423581 0.4459016
vt 0.7772925 0.4459016
vt 0.7772925 0.4983606
vt 0.7423581 0.4983606
vt 0.7423581 0.5016394
vt 0.7772925 0.5016394
vt 0.7772925 0.5540984
vt 0.7423581 0.5540984
vt 0.6681223 0.5016394
vt 0.7030568 0.5016394
vt 0.7030568 0.5540984
vt 0.6681223 0.5540984

# Normal
vn 0 0 -1

# Mesh description
g R_mesh_0002

# Faces
f 1/1/1 2/2/1 3/3/1 4/4/1
f 5/5/1 6/6/1 7/7/1 8/8/1
f 9/5/1 10/6/1 11/7/1 12/8/1
f 13/5/1 14/6/1 15/7/1 16/8/1
f 17/5/1 18/6/1 19/7/1 20/8/1
f 21/5/1 22/6/1 23/7/1 24/8/1
f 25/5/1 26/6/1 27/7/1 28/8/1
f 29/5/1 30/6/1 31/7/1 32/8/1
f 33/5/1 34/6/1 35/7/1 36/8/1
f 37/5/1 38/6/1 39/7/1 40/8/1
f 41/5/1 42/6/1 43/7/1 44/8/1
f 45/5/1 46/6/1 47/7/1 48/8/1
f 49/5/1 50/6/1 51/7/1 52/8/1
f 53/5/1 54/6/1 55/7/1 56/8/1
f 57/5/1 58/6/1 59/7/1 60/8/1
f 61/5/1 62/6/1 63/7/1 64/8/1
f 65/5/1 66/6/1 67/7/1 68/8/1
f 69/5/1 70/6/1 71/7/1 72/8/1
f 73/5/1 74/6/1 75/7/1 76/8/1
f 77/1/1 78/2/1 79/3/1 80/4/1
f 81/9/1 82/10/1 83/11/1 84/12/1
f 85/13/1 86/14/1 87/15/1 88/16/1
f 89/13/1 90/14/1 91/15/1 92/16/1
f 93/13/1 94/14/1 95/15/1 96/16/1
f 97/13/1 98/14/1 99/15/1 100/16/1
f 101/13/1 102/14/1 103/15/1 104/16/1
f 105/13/1 106/14/1 107/15/1 108/16/1
f 109/13/1 110/14/1 111/15/1 112/16/1
f 113/13/1 114/14/1 115/15/1 116/16/1
f 117/13/1 118/14/1 119/15/1 120/16/1
f 121/13/1 122/14/1 123/15/1 124/16/1
f 125/13/1 126/14/1 127/15/1 128/16/1
f 129/13/1 130/14/1 131/15/1 132/16/1
f 133/13/1 134/14/1 135/15/1 136/16/1
f 137/13/1 138/14/1 139/15/1 140/16/1
f 141/13/1 142/14/1 143/15/1 144/16/1
f 145/13/1 146/14/1 147/15/1 148/16/1
f 149/13/1 150/14/1 151/15/1 152/16/1
f 153/13/1 154/14/1 155/15/1 156/16/1
f 157/9/1 158/10/1 159/11/1 160/12/1
f 161/9/1 162/10/1 163/11/1 164/12/1
f 165/13/1 166/14/1 167/15/1 168/16/1
f 169/13/1 170/14/1 171/15/1 172/16/1
f 173/13/1 174/14/1 175/15/1 176/16/1
f 177/13/1 178/14/1 179/15/1 180/16/1
f 181/17/1 182/18/1 183/19/1 184/20/1
f 185/17/1 186/18/1 187/19/1 188/20/1
f 189/17/1 190/18/1 191/19/1 192/20/1
f 193/17/1 194/18/1 195/19/1 196/20/1
f 197/17/1 198/18/1 199/19/1 200/20/1
f 201/17/1 202/18/1 203/19/1 204/20/1
f 205/17/1 206/18/1 207/19/1 208/20/1
f 209/17/1 210/18/1 211/19/1 212/20/1
f 213/17/1 214/18/1 215/19/1 216/20/1
f 217/13/1 218/14/1 219/15/1 220/16/1
f 221/13/1 222/14/1 223/15/1 224/16/1
f 225/13/1 226/14/1 227/15/1 228/16/1
f 229/13/1 230/14/1 231/15/1 232/16/1
f 233/13/1 234/14/1 235/15/1 236/16/1
f 237/9/1 238/10/1 239/11/1 240/12/1
f 241/9/1 242/10/1 243/11/1 244/12/1
f 245/13/1 246/14/1 247/15/1 248/16/1
f 249/13/1 250/14/1 251/15/1 252/16/1
f 253/17/1 254/18/1 255/19/1 256/20/1
f 257/17/1 258/18/1 259/19/1 260/20/1
f 261/21/1 262/22/1 263/23/1 264/24/1
f 265/25/1 266/26/1 267/27/1 268/28/1
f 269/17/1 270/18/1 271/19/1 272/20/1
f 273/17/1 274/18/1 275/19/1 276/20/1
f 277/13/1 278/14/1 279/15/1 280/16/1
f 281/13/1 282/14/1 283/15/1 284/16/1
f 285/13/1 286/14/1 287/15/1 288/16/1
f 289/9/1 290/10/1 291/11/1 292/12/1
f 293/29/1 294/30/1 295/31/1 296/32/1
f 297/17/1 298/18/1 299/19/1 300/20/1
f 301/17/1 302/18/1 303/19/1 304/20/1
f 305/21/1 306/22/1 307/23/1 308/24/1
f 309/33/1 310/34/1 311/35/1 312/36/1
f 313/13/1 314/14/1 315/15/1 316/16/1
f 317/13/1 318/14/1 319/15/1 320/16/1
f 321/13/1 322/14/1 323/15/1 324/16/1
f 325/9/1 326/10/1 327/11/1 328/12/1
f 329/25/1 330/26/1 331/27/1 332/28/1
f 333/17/1 334/18/1 335/19/1 336/20/1
f 337/13/1 338/14/1 339/15/1 340/16/1
f 341/13/1 342/14/1 343/15/1 344/16/1
f 345/9/1 346/10/1 347/11/1 348/12/1
f 349/25/1 350/26/1 351/27/1 352/28/1
f 353/17/1 354/18/1 355/19/1 356/20/1
f 357/13/1 358/14/1 359/15/1 360/16/1
f 361/9/1 362/10/1 363/11/1 364/12/1
f 365/33/1 366/34/1 367/35/1 368/36/1
f 369/13/1 370/14/1 371/15/1 372/16/1
f 373/9/1 374/10/1 375/11/1 376/12/1
f 377/33/1 378/34/1 379/35/1 380/36/1
f 381/13/1 382/14/1 383/15/1 384/16/1
f 385/9/1 386/10/1 387/11/1 388/12/1
f 389/33/1 390/34/1 391/35/1 392/36/1
f 393/13/1 394/14/1 395/15/1 396/16/1
f 397/9/1 398/10/1 399/11/1 400/12/1
f 401/33/1 402/34/1 403/35/1 404/36/1
f 405/13/1 406/14/1 407/15/1 408/16/1
f 409/9/1 410/10/1 411/11/1 412/12/1
f 413/33/1 414/34/1 415/35/1 416/36/1
f 417/13/1 418/14/1 419/15/1 420/16/1
f 421/9/1 422/10/1 423/11/1 424/12/1
f 425/33/1 426/34/1 427/35/1 428/36/1
f 429/13/1 430/14/1 431/15/1 432/16/1
f 433/9/1 434/10/1 435/11/1 436/12/1
f 437/33/1 438/34/1 439/35/1 440/36/1
f 441/13/1 442/14/1 443/15/1 444/16/1
f 445/9/1 446/10/1 447/11/1 448/12/1
f 449/37/1 450/38/1 451/39/1 452/40/1
f 453/5/1 454/6/1 455/7/1 456/8/1
f 457/13/1 458/14/1 459/15/1 460/16/1
f 461/9/1 462/10/1 463/11/1 464/12/1
f 465/1/1 466/2/1 467/3/1 468/4/1
f 469/5/1 470/6/1 471/7/1 472/8/1
f 473/5/1 474/6/1 475/7/1 476/8/1
f 477/5/1 478/6/1 479/7/1 480/8/1
f 481/41/1 482/42/1 483/43/1 484/44/1
f 485/37/1 486/38/1 487/39/1 488/40/1
f 489/5/1 490/6/1 491/7/1 492/8/1
f 493/13/1 494/14/1 495/15/1 496/16/1
f 497/13/1 498/14/1 499/15/1 500/16/1
f 501/9/1 502/10/1 503/11/1 504/12/1
f 505/9/1 506/10/1 507/11/1 508/12/1
f 509/13/1 510/14/1 511/15/1 512/16/1
f 513/13/1 514/14/1 515/15/1 516/16/1
f 517/13/1 518/14/1 519/15/1 520/16/1
f 521/5/1 522/6/1 523/7/1 524/8/1
f 525/5/1 526/6/1 527/7/1 528/8/1
f 529/5/1 530/6/1 531/7/1 532/8/1
f 533/5/1 534/6/1 535/7/1 536/8/1
f 537/41/1 538/42/1 539/43/1 540/44/1
f 541/37/1 542/38/1 543/39/1 544/40/1
f 545/5/1 546/6/1 547/7/1 548/8/1
f 549/5/1 550/6/1 551/7/1 552/8/1
f 553/5/1 554/6/1 555/7/1 556/8/1
f 557/5/1 558/6/1 559/7/1 560/8/1
f 561/5/1 562/6/1 563/7/1 564/8/1
f 565/13/1 566/14/1 567/15/1 568/16/1
f 569/13/1 570/14/1 571/15/1 572/16/1
f 573/13/1 574/14/1 575/15/1 576/16/1
f 577/9/1 578/10/1 579/11/1 580/12/1
f 581/9/1 582/10/1 583/11/1 584/12/1
f 585/13/1 586/14/1 587/15/1 588/16/1
f 589/13/1 590/14/1 591/15/1 592/16/1
f 593/13/1 594/14/1 595/15/1 596/16/1
f 597/13/1 598/14/1 599/15/1 600/16/1
f 601/13/1 602/14/1 603/15/1 604/16/1
f 605/13/1 606/14/1 607/15/1 608/16/1
f 609/13/1 610/14/1 611/15/1 612/16/1
f 613/5/1 614/6/1 615/7/1 616/8/1
f 617/5/1 618/6/1 619/7/1 620/8/1
f 621/5/1 622/6/1 623/7/1 624/8/1
f 625/13/1 626/14/1 627/15/1 628/16/1
f 629/13/1 630/14/1 631/15/1 632/16/1
f 633/13/1 634/14/1 635/15/1 636/16/1
f 637/13/1 638/14/1 639/15/1 640/16/1
f 641/13/1 642/14/1 643/15/1 644/16/1
f 645/13/1 646/14/1 647/15/1 648/16/1
f 649/13/1 650/14/1 651/15/1 652/16/1
f 653/13/1 654/14/1 655/15/1 656/16/1
f 657/9/1 658/10/1 659/11/1 660/12/1
f 661/9/1 662/10/1 663/11/1 664/12/1
f 665/13/1 666/14/1 667/15/1 668/16/1
f 669/13/1 670/14/1 671/15/1 672/16/1
f 673/13/1 674/14/1 675/15/1 676/16/1
f 677/13/1 678/14/1 679/15/1 680/16/1
f 681/13/1 682/14/1 683/15/1 684/16/1
f 685/13/1 686/14/1 687/15/1 688/16/1
f 689/13/1 690/14/1 691/15/1 692/16/1
f 693/13/1 694/14/1 695/15/1 696/16/1
f 697/13/1 698/14/1 699/15/1 700/16/1
f 701/13/1 702/14/1 703/15/1 704/16/1
f 705/13/1 706/14/1 707/15/1 708/16/1
f 709/13/1 710/14/1 711/15/1 712/16/1
f 713/13/1 714/14/1 715/15/1 716/16/1
f 717/13/1 718/14/1 719/15/1 720/16/1
f 721/13/1 722/14/1 723/15/1 724/16/1
f 725/13/1 726/14/1 727/15/1 728/16/1
f 729/13/1 730/14/1 731/15/1 732/16/1
f 733/13/1 734/14/1 735/15/1 736/16/1
f 737/9/1 738/10/1 739/11/1 740/12/1
f 741/29/1 742/30/1 743/31/1 744/32/1
f 745/17/1 746/18/1 747/19/1 748/20/1
f 749/17/1 750/18/1 751/19/1 752/20/1
f 753/17/1 754/18/1 755/19/1 756/20/1
f 757/17/1 758/18/1 759/19/1 760/20/1
f 761/17/1 762/18/1 763/19/1 764/20/1
f 765/17/1 766/18/1 767/19/1 768/20/1
f 769/17/1 770/18/1 771/19/1 772/20/1
f 773/17/1 774/18/1 775/19/1 776/20/1
f 777/17/1 778/18/1 779/19/1 780/20/1
f 781/17/1 782/18/1 783/19/1 784/20/1
f 785/17/1 786/18/1 787/19/1 788/20/1
f 789/17/1 790/18/1 791/19/1 792/20/1
f 793/17/1 794/18/1 795/19/1 796/20/1
f 797/17/1 798/18/1 799/19/1 800/20/1
f 801/17/1 802/18/1 803/19/1 804/20/1
f 805/17/1 806/18/1 807/19/1 808/20/1
f 809/17/1 810/18/1 811/19/1 812/20/1
f 813/17/1 814/18/1 815/19/1 816/20/1
f 817/29/1 818/30/1 819/31/1 820/32/1

