# Tiled2Unity generated file. Do not modify by hand.
# Wavefront file for 'L_mesh_0003.obj'

# Vertices (Count = 196)
v -304 -16 0
v -320 -16 0
v -320 0 0
v -304 0 0
v 0 -16 0
v -16 -16 0
v -16 0 0
v 0 0 0
v -304 -32 0
v -320 -32 0
v -320 -16 0
v -304 -16 0
v 0 -32 0
v -16 -32 0
v -16 -16 0
v 0 -16 0
v -304 -48 0
v -320 -48 0
v -320 -32 0
v -304 -32 0
v -192 -48 0
v -208 -48 0
v -208 -32 0
v -192 -32 0
v -112 -48 0
v -128 -48 0
v -128 -32 0
v -112 -32 0
v 0 -48 0
v -16 -48 0
v -16 -32 0
v 0 -32 0
v -304 -64 0
v -320 -64 0
v -320 -48 0
v -304 -48 0
v -288 -64 0
v -304 -64 0
v -304 -48 0
v -288 -48 0
v -224 -64 0
v -240 -64 0
v -240 -48 0
v -224 -48 0
v -64 -64 0
v -80 -64 0
v -80 -48 0
v -64 -48 0
v 0 -64 0
v -16 -64 0
v -16 -48 0
v 0 -48 0
v -304 -80 0
v -320 -80 0
v -320 -64 0
v -304 -64 0
v -288 -80 0
v -304 -80 0
v -304 -64 0
v -288 -64 0
v -256 -80 0
v -272 -80 0
v -272 -64 0
v -256 -64 0
v 0 -80 0
v -16 -80 0
v -16 -64 0
v 0 -64 0
v -304 -96 0
v -320 -96 0
v -320 -80 0
v -304 -80 0
v -288 -96 0
v -304 -96 0
v -304 -80 0
v -288 -80 0
v -304 -112 0
v -320 -112 0
v -320 -96 0
v -304 -96 0
v -304 -128 0
v -320 -128 0
v -320 -112 0
v -304 -112 0
v -304 -144 0
v -320 -144 0
v -320 -128 0
v -304 -128 0
v -272 -144 0
v -288 -144 0
v -288 -128 0
v -272 -128 0
v -304 -160 0
v -320 -160 0
v -320 -144 0
v -304 -144 0
v -304 -176 0
v -320 -176 0
v -320 -160 0
v -304 -160 0
v -304 -192 0
v -320 -192 0
v -320 -176 0
v -304 -176 0
v -304 -208 0
v -320 -208 0
v -320 -192 0
v -304 -192 0
v -288 -208 0
v -304 -208 0
v -304 -192 0
v -288 -192 0
v -304 -224 0
v -320 -224 0
v -320 -208 0
v -304 -208 0
v -288 -224 0
v -304 -224 0
v -304 -208 0
v -288 -208 0
v -272 -224 0
v -288 -224 0
v -288 -208 0
v -272 -208 0
v -304 -240 0
v -320 -240 0
v -320 -224 0
v -304 -224 0
v -256 -240 0
v -272 -240 0
v -272 -224 0
v -256 -224 0
v -304 -256 0
v -320 -256 0
v -320 -240 0
v -304 -240 0
v 0 -256 0
v -16 -256 0
v -16 -240 0
v 0 -240 0
v -304 -272 0
v -320 -272 0
v -320 -256 0
v -304 -256 0
v -224 -272 0
v -240 -272 0
v -240 -256 0
v -224 -256 0
v -80 -272 0
v -96 -272 0
v -96 -256 0
v -80 -256 0
v -64 -272 0
v -80 -272 0
v -80 -256 0
v -64 -256 0
v -32 -272 0
v -48 -272 0
v -48 -256 0
v -32 -256 0
v 0 -272 0
v -16 -272 0
v -16 -256 0
v 0 -256 0
v -304 -288 0
v -320 -288 0
v -320 -272 0
v -304 -272 0
v -192 -288 0
v -208 -288 0
v -208 -272 0
v -192 -272 0
v -128 -288 0
v -144 -288 0
v -144 -272 0
v -128 -272 0
v 0 -288 0
v -16 -288 0
v -16 -272 0
v 0 -272 0
v -304 -304 0
v -320 -304 0
v -320 -288 0
v -304 -288 0
v 0 -304 0
v -16 -304 0
v -16 -288 0
v 0 -288 0
v -304 -320 0
v -320 -320 0
v -320 -304 0
v -304 -304 0
v 0 -320 0
v -16 -320 0
v -16 -304 0
v 0 -304 0

# Texture cooridinates (Count = 24)
vt 0.7423581 0.5016394
vt 0.7772925 0.5016394
vt 0.7772925 0.5540984
vt 0.7423581 0.5540984
vt 0.6681223 0.5016394
vt 0.7030568 0.5016394
vt 0.7030568 0.5540984
vt 0.6681223 0.5540984
vt 0.7423581 0.4459016
vt 0.7772925 0.4459016
vt 0.7772925 0.4983606
vt 0.7423581 0.4983606
vt 0.6681223 0.4459016
vt 0.7030568 0.4459016
vt 0.7030568 0.4983606
vt 0.6681223 0.4983606
vt 0.6681223 0.390164
vt 0.7030568 0.390164
vt 0.7030568 0.442623
vt 0.6681223 0.442623
vt 0.7423581 0.390164
vt 0.7772925 0.390164
vt 0.7772925 0.442623
vt 0.7423581 0.442623

# Normal
vn 0 0 -1

# Mesh description
g L_mesh_0003

# Faces
f 1/1/1 2/2/1 3/3/1 4/4/1
f 5/5/1 6/6/1 7/7/1 8/8/1
f 9/9/1 10/10/1 11/11/1 12/12/1
f 13/13/1 14/14/1 15/15/1 16/16/1
f 17/9/1 18/10/1 19/11/1 20/12/1
f 21/13/1 22/14/1 23/15/1 24/16/1
f 25/9/1 26/10/1 27/11/1 28/12/1
f 29/13/1 30/14/1 31/15/1 32/16/1
f 33/9/1 34/10/1 35/11/1 36/12/1
f 37/9/1 38/10/1 39/11/1 40/12/1
f 41/13/1 42/14/1 43/15/1 44/16/1
f 45/9/1 46/10/1 47/11/1 48/12/1
f 49/13/1 50/14/1 51/15/1 52/16/1
f 53/9/1 54/10/1 55/11/1 56/12/1
f 57/9/1 58/10/1 59/11/1 60/12/1
f 61/13/1 62/14/1 63/15/1 64/16/1
f 65/17/1 66/18/1 67/19/1 68/20/1
f 69/9/1 70/10/1 71/11/1 72/12/1
f 73/9/1 74/10/1 75/11/1 76/12/1
f 77/9/1 78/10/1 79/11/1 80/12/1
f 81/9/1 82/10/1 83/11/1 84/12/1
f 85/9/1 86/10/1 87/11/1 88/12/1
f 89/13/1 90/14/1 91/15/1 92/16/1
f 93/9/1 94/10/1 95/11/1 96/12/1
f 97/9/1 98/10/1 99/11/1 100/12/1
f 101/9/1 102/10/1 103/11/1 104/12/1
f 105/9/1 106/10/1 107/11/1 108/12/1
f 109/9/1 110/10/1 111/11/1 112/12/1
f 113/9/1 114/10/1 115/11/1 116/12/1
f 117/9/1 118/10/1 119/11/1 120/12/1
f 121/13/1 122/14/1 123/15/1 124/16/1
f 125/9/1 126/10/1 127/11/1 128/12/1
f 129/13/1 130/14/1 131/15/1 132/16/1
f 133/9/1 134/10/1 135/11/1 136/12/1
f 137/5/1 138/6/1 139/7/1 140/8/1
f 141/9/1 142/10/1 143/11/1 144/12/1
f 145/13/1 146/14/1 147/15/1 148/16/1
f 149/5/1 150/6/1 151/7/1 152/8/1
f 153/1/1 154/2/1 155/3/1 156/4/1
f 157/9/1 158/10/1 159/11/1 160/12/1
f 161/13/1 162/14/1 163/15/1 164/16/1
f 165/9/1 166/10/1 167/11/1 168/12/1
f 169/13/1 170/14/1 171/15/1 172/16/1
f 173/9/1 174/10/1 175/11/1 176/12/1
f 177/13/1 178/14/1 179/15/1 180/16/1
f 181/9/1 182/10/1 183/11/1 184/12/1
f 185/13/1 186/14/1 187/15/1 188/16/1
f 189/21/1 190/22/1 191/23/1 192/24/1
f 193/17/1 194/18/1 195/19/1 196/20/1

