# Tiled2Unity generated file. Do not modify by hand.
# Wavefront file for 'TB_mesh_0002.obj'

# Vertices (Count = 828)
v -304 -16 0
v -320 -16 0
v -320 0 0
v -304 0 0
v -288 -16 0
v -304 -16 0
v -304 0 0
v -288 0 0
v -272 -16 0
v -288 -16 0
v -288 0 0
v -272 0 0
v -256 -16 0
v -272 -16 0
v -272 0 0
v -256 0 0
v -240 -16 0
v -256 -16 0
v -256 0 0
v -240 0 0
v -224 -16 0
v -240 -16 0
v -240 0 0
v -224 0 0
v -80 -16 0
v -96 -16 0
v -96 0 0
v -80 0 0
v -64 -16 0
v -80 -16 0
v -80 0 0
v -64 0 0
v -48 -16 0
v -64 -16 0
v -64 0 0
v -48 0 0
v -32 -16 0
v -48 -16 0
v -48 0 0
v -32 0 0
v -16 -16 0
v -32 -16 0
v -32 0 0
v -16 0 0
v 0 -16 0
v -16 -16 0
v -16 0 0
v 0 0 0
v -304 -32 0
v -320 -32 0
v -320 -16 0
v -304 -16 0
v -288 -32 0
v -304 -32 0
v -304 -16 0
v -288 -16 0
v -272 -32 0
v -288 -32 0
v -288 -16 0
v -272 -16 0
v -256 -32 0
v -272 -32 0
v -272 -16 0
v -256 -16 0
v -240 -32 0
v -256 -32 0
v -256 -16 0
v -240 -16 0
v -224 -32 0
v -240 -32 0
v -240 -16 0
v -224 -16 0
v -80 -32 0
v -96 -32 0
v -96 -16 0
v -80 -16 0
v -64 -32 0
v -80 -32 0
v -80 -16 0
v -64 -16 0
v -48 -32 0
v -64 -32 0
v -64 -16 0
v -48 -16 0
v -32 -32 0
v -48 -32 0
v -48 -16 0
v -32 -16 0
v -16 -32 0
v -32 -32 0
v -32 -16 0
v -16 -16 0
v 0 -32 0
v -16 -32 0
v -16 -16 0
v 0 -16 0
v -304 -48 0
v -320 -48 0
v -320 -32 0
v -304 -32 0
v -288 -48 0
v -304 -48 0
v -304 -32 0
v -288 -32 0
v -272 -48 0
v -288 -48 0
v -288 -32 0
v -272 -32 0
v -256 -48 0
v -272 -48 0
v -272 -32 0
v -256 -32 0
v -240 -48 0
v -256 -48 0
v -256 -32 0
v -240 -32 0
v -224 -48 0
v -240 -48 0
v -240 -32 0
v -224 -32 0
v -80 -48 0
v -96 -48 0
v -96 -32 0
v -80 -32 0
v -64 -48 0
v -80 -48 0
v -80 -32 0
v -64 -32 0
v -48 -48 0
v -64 -48 0
v -64 -32 0
v -48 -32 0
v -32 -48 0
v -48 -48 0
v -48 -32 0
v -32 -32 0
v -16 -48 0
v -32 -48 0
v -32 -32 0
v -16 -32 0
v 0 -48 0
v -16 -48 0
v -16 -32 0
v 0 -32 0
v -304 -64 0
v -320 -64 0
v -320 -48 0
v -304 -48 0
v -288 -64 0
v -304 -64 0
v -304 -48 0
v -288 -48 0
v -272 -64 0
v -288 -64 0
v -288 -48 0
v -272 -48 0
v -256 -64 0
v -272 -64 0
v -272 -48 0
v -256 -48 0
v -240 -64 0
v -256 -64 0
v -256 -48 0
v -240 -48 0
v -224 -64 0
v -240 -64 0
v -240 -48 0
v -224 -48 0
v -80 -64 0
v -96 -64 0
v -96 -48 0
v -80 -48 0
v -64 -64 0
v -80 -64 0
v -80 -48 0
v -64 -48 0
v -48 -64 0
v -64 -64 0
v -64 -48 0
v -48 -48 0
v -32 -64 0
v -48 -64 0
v -48 -48 0
v -32 -48 0
v -16 -64 0
v -32 -64 0
v -32 -48 0
v -16 -48 0
v 0 -64 0
v -16 -64 0
v -16 -48 0
v 0 -48 0
v -304 -80 0
v -320 -80 0
v -320 -64 0
v -304 -64 0
v -288 -80 0
v -304 -80 0
v -304 -64 0
v -288 -64 0
v -272 -80 0
v -288 -80 0
v -288 -64 0
v -272 -64 0
v -256 -80 0
v -272 -80 0
v -272 -64 0
v -256 -64 0
v -240 -80 0
v -256 -80 0
v -256 -64 0
v -240 -64 0
v -224 -80 0
v -240 -80 0
v -240 -64 0
v -224 -64 0
v -80 -80 0
v -96 -80 0
v -96 -64 0
v -80 -64 0
v -64 -80 0
v -80 -80 0
v -80 -64 0
v -64 -64 0
v -48 -80 0
v -64 -80 0
v -64 -64 0
v -48 -64 0
v -32 -80 0
v -48 -80 0
v -48 -64 0
v -32 -64 0
v -16 -80 0
v -32 -80 0
v -32 -64 0
v -16 -64 0
v 0 -80 0
v -16 -80 0
v -16 -64 0
v 0 -64 0
v -304 -96 0
v -320 -96 0
v -320 -80 0
v -304 -80 0
v -288 -96 0
v -304 -96 0
v -304 -80 0
v -288 -80 0
v -272 -96 0
v -288 -96 0
v -288 -80 0
v -272 -80 0
v -256 -96 0
v -272 -96 0
v -272 -80 0
v -256 -80 0
v -240 -96 0
v -256 -96 0
v -256 -80 0
v -240 -80 0
v -224 -96 0
v -240 -96 0
v -240 -80 0
v -224 -80 0
v -80 -96 0
v -96 -96 0
v -96 -80 0
v -80 -80 0
v -64 -96 0
v -80 -96 0
v -80 -80 0
v -64 -80 0
v -48 -96 0
v -64 -96 0
v -64 -80 0
v -48 -80 0
v -32 -96 0
v -48 -96 0
v -48 -80 0
v -32 -80 0
v -16 -96 0
v -32 -96 0
v -32 -80 0
v -16 -80 0
v 0 -96 0
v -16 -96 0
v -16 -80 0
v 0 -80 0
v -304 -112 0
v -320 -112 0
v -320 -96 0
v -304 -96 0
v -288 -112 0
v -304 -112 0
v -304 -96 0
v -288 -96 0
v -272 -112 0
v -288 -112 0
v -288 -96 0
v -272 -96 0
v -256 -112 0
v -272 -112 0
v -272 -96 0
v -256 -96 0
v -240 -112 0
v -256 -112 0
v -256 -96 0
v -240 -96 0
v -80 -112 0
v -96 -112 0
v -96 -96 0
v -80 -96 0
v -64 -112 0
v -80 -112 0
v -80 -96 0
v -64 -96 0
v -48 -112 0
v -64 -112 0
v -64 -96 0
v -48 -96 0
v -32 -112 0
v -48 -112 0
v -48 -96 0
v -32 -96 0
v -16 -112 0
v -32 -112 0
v -32 -96 0
v -16 -96 0
v 0 -112 0
v -16 -112 0
v -16 -96 0
v 0 -96 0
v -304 -128 0
v -320 -128 0
v -320 -112 0
v -304 -112 0
v -288 -128 0
v -304 -128 0
v -304 -112 0
v -288 -112 0
v -272 -128 0
v -288 -128 0
v -288 -112 0
v -272 -112 0
v -256 -128 0
v -272 -128 0
v -272 -112 0
v -256 -112 0
v -80 -128 0
v -96 -128 0
v -96 -112 0
v -80 -112 0
v -64 -128 0
v -80 -128 0
v -80 -112 0
v -64 -112 0
v -48 -128 0
v -64 -128 0
v -64 -112 0
v -48 -112 0
v -32 -128 0
v -48 -128 0
v -48 -112 0
v -32 -112 0
v -16 -128 0
v -32 -128 0
v -32 -112 0
v -16 -112 0
v 0 -128 0
v -16 -128 0
v -16 -112 0
v 0 -112 0
v -304 -144 0
v -320 -144 0
v -320 -128 0
v -304 -128 0
v -288 -144 0
v -304 -144 0
v -304 -128 0
v -288 -128 0
v -272 -144 0
v -288 -144 0
v -288 -128 0
v -272 -128 0
v -80 -144 0
v -96 -144 0
v -96 -128 0
v -80 -128 0
v -64 -144 0
v -80 -144 0
v -80 -128 0
v -64 -128 0
v -48 -144 0
v -64 -144 0
v -64 -128 0
v -48 -128 0
v -32 -144 0
v -48 -144 0
v -48 -128 0
v -32 -128 0
v -16 -144 0
v -32 -144 0
v -32 -128 0
v -16 -128 0
v 0 -144 0
v -16 -144 0
v -16 -128 0
v 0 -128 0
v -304 -160 0
v -320 -160 0
v -320 -144 0
v -304 -144 0
v -288 -160 0
v -304 -160 0
v -304 -144 0
v -288 -144 0
v -272 -160 0
v -288 -160 0
v -288 -144 0
v -272 -144 0
v -64 -160 0
v -80 -160 0
v -80 -144 0
v -64 -144 0
v -48 -160 0
v -64 -160 0
v -64 -144 0
v -48 -144 0
v -32 -160 0
v -48 -160 0
v -48 -144 0
v -32 -144 0
v -16 -160 0
v -32 -160 0
v -32 -144 0
v -16 -144 0
v 0 -160 0
v -16 -160 0
v -16 -144 0
v 0 -144 0
v -304 -176 0
v -320 -176 0
v -320 -160 0
v -304 -160 0
v -288 -176 0
v -304 -176 0
v -304 -160 0
v -288 -160 0
v -272 -176 0
v -288 -176 0
v -288 -160 0
v -272 -160 0
v -48 -176 0
v -64 -176 0
v -64 -160 0
v -48 -160 0
v -32 -176 0
v -48 -176 0
v -48 -160 0
v -32 -160 0
v -16 -176 0
v -32 -176 0
v -32 -160 0
v -16 -160 0
v 0 -176 0
v -16 -176 0
v -16 -160 0
v 0 -160 0
v -304 -192 0
v -320 -192 0
v -320 -176 0
v -304 -176 0
v -288 -192 0
v -304 -192 0
v -304 -176 0
v -288 -176 0
v -272 -192 0
v -288 -192 0
v -288 -176 0
v -272 -176 0
v -256 -192 0
v -272 -192 0
v -272 -176 0
v -256 -176 0
v -48 -192 0
v -64 -192 0
v -64 -176 0
v -48 -176 0
v -32 -192 0
v -48 -192 0
v -48 -176 0
v -32 -176 0
v -16 -192 0
v -32 -192 0
v -32 -176 0
v -16 -176 0
v 0 -192 0
v -16 -192 0
v -16 -176 0
v 0 -176 0
v -304 -208 0
v -320 -208 0
v -320 -192 0
v -304 -192 0
v -288 -208 0
v -304 -208 0
v -304 -192 0
v -288 -192 0
v -272 -208 0
v -288 -208 0
v -288 -192 0
v -272 -192 0
v -256 -208 0
v -272 -208 0
v -272 -192 0
v -256 -192 0
v -32 -208 0
v -48 -208 0
v -48 -192 0
v -32 -192 0
v -16 -208 0
v -32 -208 0
v -32 -192 0
v -16 -192 0
v 0 -208 0
v -16 -208 0
v -16 -192 0
v 0 -192 0
v -304 -224 0
v -320 -224 0
v -320 -208 0
v -304 -208 0
v -288 -224 0
v -304 -224 0
v -304 -208 0
v -288 -208 0
v -272 -224 0
v -288 -224 0
v -288 -208 0
v -272 -208 0
v -256 -224 0
v -272 -224 0
v -272 -208 0
v -256 -208 0
v -48 -224 0
v -64 -224 0
v -64 -208 0
v -48 -208 0
v -32 -224 0
v -48 -224 0
v -48 -208 0
v -32 -208 0
v -16 -224 0
v -32 -224 0
v -32 -208 0
v -16 -208 0
v 0 -224 0
v -16 -224 0
v -16 -208 0
v 0 -208 0
v -304 -240 0
v -320 -240 0
v -320 -224 0
v -304 -224 0
v -288 -240 0
v -304 -240 0
v -304 -224 0
v -288 -224 0
v -272 -240 0
v -288 -240 0
v -288 -224 0
v -272 -224 0
v -256 -240 0
v -272 -240 0
v -272 -224 0
v -256 -224 0
v -240 -240 0
v -256 -240 0
v -256 -224 0
v -240 -224 0
v -64 -240 0
v -80 -240 0
v -80 -224 0
v -64 -224 0
v -48 -240 0
v -64 -240 0
v -64 -224 0
v -48 -224 0
v -32 -240 0
v -48 -240 0
v -48 -224 0
v -32 -224 0
v -16 -240 0
v -32 -240 0
v -32 -224 0
v -16 -224 0
v 0 -240 0
v -16 -240 0
v -16 -224 0
v 0 -224 0
v -304 -256 0
v -320 -256 0
v -320 -240 0
v -304 -240 0
v -288 -256 0
v -304 -256 0
v -304 -240 0
v -288 -240 0
v -272 -256 0
v -288 -256 0
v -288 -240 0
v -272 -240 0
v -256 -256 0
v -272 -256 0
v -272 -240 0
v -256 -240 0
v -240 -256 0
v -256 -256 0
v -256 -240 0
v -240 -240 0
v -64 -256 0
v -80 -256 0
v -80 -240 0
v -64 -240 0
v -48 -256 0
v -64 -256 0
v -64 -240 0
v -48 -240 0
v -32 -256 0
v -48 -256 0
v -48 -240 0
v -32 -240 0
v -16 -256 0
v -32 -256 0
v -32 -240 0
v -16 -240 0
v 0 -256 0
v -16 -256 0
v -16 -240 0
v 0 -240 0
v -304 -272 0
v -320 -272 0
v -320 -256 0
v -304 -256 0
v -288 -272 0
v -304 -272 0
v -304 -256 0
v -288 -256 0
v -272 -272 0
v -288 -272 0
v -288 -256 0
v -272 -256 0
v -256 -272 0
v -272 -272 0
v -272 -256 0
v -256 -256 0
v -240 -272 0
v -256 -272 0
v -256 -256 0
v -240 -256 0
v -80 -272 0
v -96 -272 0
v -96 -256 0
v -80 -256 0
v -64 -272 0
v -80 -272 0
v -80 -256 0
v -64 -256 0
v -48 -272 0
v -64 -272 0
v -64 -256 0
v -48 -256 0
v -32 -272 0
v -48 -272 0
v -48 -256 0
v -32 -256 0
v -16 -272 0
v -32 -272 0
v -32 -256 0
v -16 -256 0
v 0 -272 0
v -16 -272 0
v -16 -256 0
v 0 -256 0
v -304 -288 0
v -320 -288 0
v -320 -272 0
v -304 -272 0
v -288 -288 0
v -304 -288 0
v -304 -272 0
v -288 -272 0
v -272 -288 0
v -288 -288 0
v -288 -272 0
v -272 -272 0
v -256 -288 0
v -272 -288 0
v -272 -272 0
v -256 -272 0
v -240 -288 0
v -256 -288 0
v -256 -272 0
v -240 -272 0
v -224 -288 0
v -240 -288 0
v -240 -272 0
v -224 -272 0
v -80 -288 0
v -96 -288 0
v -96 -272 0
v -80 -272 0
v -64 -288 0
v -80 -288 0
v -80 -272 0
v -64 -272 0
v -48 -288 0
v -64 -288 0
v -64 -272 0
v -48 -272 0
v -32 -288 0
v -48 -288 0
v -48 -272 0
v -32 -272 0
v -16 -288 0
v -32 -288 0
v -32 -272 0
v -16 -272 0
v 0 -288 0
v -16 -288 0
v -16 -272 0
v 0 -272 0
v -304 -304 0
v -320 -304 0
v -320 -288 0
v -304 -288 0
v -288 -304 0
v -304 -304 0
v -304 -288 0
v -288 -288 0
v -272 -304 0
v -288 -304 0
v -288 -288 0
v -272 -288 0
v -256 -304 0
v -272 -304 0
v -272 -288 0
v -256 -288 0
v -240 -304 0
v -256 -304 0
v -256 -288 0
v -240 -288 0
v -224 -304 0
v -240 -304 0
v -240 -288 0
v -224 -288 0
v -80 -304 0
v -96 -304 0
v -96 -288 0
v -80 -288 0
v -64 -304 0
v -80 -304 0
v -80 -288 0
v -64 -288 0
v -48 -304 0
v -64 -304 0
v -64 -288 0
v -48 -288 0
v -32 -304 0
v -48 -304 0
v -48 -288 0
v -32 -288 0
v -16 -304 0
v -32 -304 0
v -32 -288 0
v -16 -288 0
v 0 -304 0
v -16 -304 0
v -16 -288 0
v 0 -288 0
v -304 -320 0
v -320 -320 0
v -320 -304 0
v -304 -304 0
v -288 -320 0
v -304 -320 0
v -304 -304 0
v -288 -304 0
v -272 -320 0
v -288 -320 0
v -288 -304 0
v -272 -304 0
v -256 -320 0
v -272 -320 0
v -272 -304 0
v -256 -304 0
v -240 -320 0
v -256 -320 0
v -256 -304 0
v -240 -304 0
v -224 -320 0
v -240 -320 0
v -240 -304 0
v -224 -304 0
v -80 -320 0
v -96 -320 0
v -96 -304 0
v -80 -304 0
v -64 -320 0
v -80 -320 0
v -80 -304 0
v -64 -304 0
v -48 -320 0
v -64 -320 0
v -64 -304 0
v -48 -304 0
v -32 -320 0
v -48 -320 0
v -48 -304 0
v -32 -304 0
v -16 -320 0
v -32 -320 0
v -32 -304 0
v -16 -304 0
v 0 -320 0
v -16 -320 0
v -16 -304 0
v 0 -304 0

# Texture cooridinates (Count = 48)
vt 0.6310044 0.5016394
vt 0.6659389 0.5016394
vt 0.6659389 0.5540984
vt 0.6310044 0.5540984
vt 0.7052402 0.5016394
vt 0.7401747 0.5016394
vt 0.7401747 0.5540984
vt 0.7052402 0.5540984
vt 0.6681223 0.5016394
vt 0.7030568 0.5016394
vt 0.7030568 0.5540984
vt 0.6681223 0.5540984
vt 0.7423581 0.5016394
vt 0.7772925 0.5016394
vt 0.7772925 0.5540984
vt 0.7423581 0.5540984
vt 0.779476 0.5016394
vt 0.8144105 0.5016394
vt 0.8144105 0.5540984
vt 0.779476 0.5540984
vt 0.7052402 0.4459016
vt 0.7401747 0.4459016
vt 0.7401747 0.4983606
vt 0.7052402 0.4983606
vt 0.6681223 0.4459016
vt 0.7030568 0.4459016
vt 0.7030568 0.4983606
vt 0.6681223 0.4983606
vt 0.7423581 0.4459016
vt 0.7772925 0.4459016
vt 0.7772925 0.4983606
vt 0.7423581 0.4983606
vt 0.7052402 0.390164
vt 0.7401747 0.390164
vt 0.7401747 0.442623
vt 0.7052402 0.442623
vt 0.6681223 0.390164
vt 0.7030568 0.390164
vt 0.7030568 0.442623
vt 0.6681223 0.442623
vt 0.7423581 0.390164
vt 0.7772925 0.390164
vt 0.7772925 0.442623
vt 0.7423581 0.442623
vt 0.6310044 0.4459016
vt 0.6659389 0.4459016
vt 0.6659389 0.4983606
vt 0.6310044 0.4983606

# Normal
vn 0 0 -1

# Mesh description
g TB_mesh_0002

# Faces
f 1/1/1 2/2/1 3/3/1 4/4/1
f 5/5/1 6/6/1 7/7/1 8/8/1
f 9/5/1 10/6/1 11/7/1 12/8/1
f 13/5/1 14/6/1 15/7/1 16/8/1
f 17/5/1 18/6/1 19/7/1 20/8/1
f 21/9/1 22/10/1 23/11/1 24/12/1
f 25/13/1 26/14/1 27/15/1 28/16/1
f 29/5/1 30/6/1 31/7/1 32/8/1
f 33/5/1 34/6/1 35/7/1 36/8/1
f 37/5/1 38/6/1 39/7/1 40/8/1
f 41/5/1 42/6/1 43/7/1 44/8/1
f 45/1/1 46/2/1 47/3/1 48/4/1
f 49/17/1 50/18/1 51/19/1 52/20/1
f 53/21/1 54/22/1 55/23/1 56/24/1
f 57/21/1 58/22/1 59/23/1 60/24/1
f 61/21/1 62/22/1 63/23/1 64/24/1
f 65/21/1 66/22/1 67/23/1 68/24/1
f 69/25/1 70/26/1 71/27/1 72/28/1
f 73/29/1 74/30/1 75/31/1 76/32/1
f 77/21/1 78/22/1 79/23/1 80/24/1
f 81/21/1 82/22/1 83/23/1 84/24/1
f 85/21/1 86/22/1 87/23/1 88/24/1
f 89/21/1 90/22/1 91/23/1 92/24/1
f 93/17/1 94/18/1 95/19/1 96/20/1
f 97/17/1 98/18/1 99/19/1 100/20/1
f 101/21/1 102/22/1 103/23/1 104/24/1
f 105/21/1 106/22/1 107/23/1 108/24/1
f 109/21/1 110/22/1 111/23/1 112/24/1
f 113/21/1 114/22/1 115/23/1 116/24/1
f 117/25/1 118/26/1 119/27/1 120/28/1
f 121/29/1 122/30/1 123/31/1 124/32/1
f 125/21/1 126/22/1 127/23/1 128/24/1
f 129/21/1 130/22/1 131/23/1 132/24/1
f 133/21/1 134/22/1 135/23/1 136/24/1
f 137/21/1 138/22/1 139/23/1 140/24/1
f 141/17/1 142/18/1 143/19/1 144/20/1
f 145/17/1 146/18/1 147/19/1 148/20/1
f 149/21/1 150/22/1 151/23/1 152/24/1
f 153/21/1 154/22/1 155/23/1 156/24/1
f 157/21/1 158/22/1 159/23/1 160/24/1
f 161/21/1 162/22/1 163/23/1 164/24/1
f 165/25/1 166/26/1 167/27/1 168/28/1
f 169/29/1 170/30/1 171/31/1 172/32/1
f 173/21/1 174/22/1 175/23/1 176/24/1
f 177/21/1 178/22/1 179/23/1 180/24/1
f 181/21/1 182/22/1 183/23/1 184/24/1
f 185/21/1 186/22/1 187/23/1 188/24/1
f 189/17/1 190/18/1 191/19/1 192/20/1
f 193/17/1 194/18/1 195/19/1 196/20/1
f 197/21/1 198/22/1 199/23/1 200/24/1
f 201/21/1 202/22/1 203/23/1 204/24/1
f 205/21/1 206/22/1 207/23/1 208/24/1
f 209/21/1 210/22/1 211/23/1 212/24/1
f 213/25/1 214/26/1 215/27/1 216/28/1
f 217/29/1 218/30/1 219/31/1 220/32/1
f 221/21/1 222/22/1 223/23/1 224/24/1
f 225/21/1 226/22/1 227/23/1 228/24/1
f 229/21/1 230/22/1 231/23/1 232/24/1
f 233/21/1 234/22/1 235/23/1 236/24/1
f 237/17/1 238/18/1 239/19/1 240/20/1
f 241/17/1 242/18/1 243/19/1 244/20/1
f 245/21/1 246/22/1 247/23/1 248/24/1
f 249/21/1 250/22/1 251/23/1 252/24/1
f 253/21/1 254/22/1 255/23/1 256/24/1
f 257/33/1 258/34/1 259/35/1 260/36/1
f 261/37/1 262/38/1 263/39/1 264/40/1
f 265/29/1 266/30/1 267/31/1 268/32/1
f 269/21/1 270/22/1 271/23/1 272/24/1
f 273/21/1 274/22/1 275/23/1 276/24/1
f 277/21/1 278/22/1 279/23/1 280/24/1
f 281/21/1 282/22/1 283/23/1 284/24/1
f 285/17/1 286/18/1 287/19/1 288/20/1
f 289/17/1 290/18/1 291/19/1 292/20/1
f 293/21/1 294/22/1 295/23/1 296/24/1
f 297/21/1 298/22/1 299/23/1 300/24/1
f 301/33/1 302/34/1 303/35/1 304/36/1
f 305/37/1 306/38/1 307/39/1 308/40/1
f 309/29/1 310/30/1 311/31/1 312/32/1
f 313/21/1 314/22/1 315/23/1 316/24/1
f 317/21/1 318/22/1 319/23/1 320/24/1
f 321/21/1 322/22/1 323/23/1 324/24/1
f 325/21/1 326/22/1 327/23/1 328/24/1
f 329/17/1 330/18/1 331/19/1 332/20/1
f 333/17/1 334/18/1 335/19/1 336/20/1
f 337/21/1 338/22/1 339/23/1 340/24/1
f 341/33/1 342/34/1 343/35/1 344/36/1
f 345/37/1 346/38/1 347/39/1 348/40/1
f 349/29/1 350/30/1 351/31/1 352/32/1
f 353/21/1 354/22/1 355/23/1 356/24/1
f 357/21/1 358/22/1 359/23/1 360/24/1
f 361/21/1 362/22/1 363/23/1 364/24/1
f 365/21/1 366/22/1 367/23/1 368/24/1
f 369/17/1 370/18/1 371/19/1 372/20/1
f 373/17/1 374/18/1 375/19/1 376/20/1
f 377/21/1 378/22/1 379/23/1 380/24/1
f 381/25/1 382/26/1 383/27/1 384/28/1
f 385/41/1 386/42/1 387/43/1 388/44/1
f 389/33/1 390/34/1 391/35/1 392/36/1
f 393/21/1 394/22/1 395/23/1 396/24/1
f 397/21/1 398/22/1 399/23/1 400/24/1
f 401/21/1 402/22/1 403/23/1 404/24/1
f 405/17/1 406/18/1 407/19/1 408/20/1
f 409/17/1 410/18/1 411/19/1 412/20/1
f 413/21/1 414/22/1 415/23/1 416/24/1
f 417/25/1 418/26/1 419/27/1 420/28/1
f 421/41/1 422/42/1 423/43/1 424/44/1
f 425/33/1 426/34/1 427/35/1 428/36/1
f 429/21/1 430/22/1 431/23/1 432/24/1
f 433/21/1 434/22/1 435/23/1 436/24/1
f 437/17/1 438/18/1 439/19/1 440/20/1
f 441/17/1 442/18/1 443/19/1 444/20/1
f 445/21/1 446/22/1 447/23/1 448/24/1
f 449/25/1 450/26/1 451/27/1 452/28/1
f 453/29/1 454/30/1 455/31/1 456/32/1
f 457/21/1 458/22/1 459/23/1 460/24/1
f 461/21/1 462/22/1 463/23/1 464/24/1
f 465/17/1 466/18/1 467/19/1 468/20/1
f 469/17/1 470/18/1 471/19/1 472/20/1
f 473/21/1 474/22/1 475/23/1 476/24/1
f 477/5/1 478/6/1 479/7/1 480/8/1
f 481/9/1 482/10/1 483/11/1 484/12/1
f 485/41/1 486/42/1 487/43/1 488/44/1
f 489/33/1 490/34/1 491/35/1 492/36/1
f 493/21/1 494/22/1 495/23/1 496/24/1
f 497/17/1 498/18/1 499/19/1 500/20/1
f 501/17/1 502/18/1 503/19/1 504/20/1
f 505/21/1 506/22/1 507/23/1 508/24/1
f 509/21/1 510/22/1 511/23/1 512/24/1
f 513/25/1 514/26/1 515/27/1 516/28/1
f 517/29/1 518/30/1 519/31/1 520/32/1
f 521/21/1 522/22/1 523/23/1 524/24/1
f 525/17/1 526/18/1 527/19/1 528/20/1
f 529/17/1 530/18/1 531/19/1 532/20/1
f 533/21/1 534/22/1 535/23/1 536/24/1
f 537/21/1 538/22/1 539/23/1 540/24/1
f 541/25/1 542/26/1 543/27/1 544/28/1
f 545/13/1 546/14/1 547/15/1 548/16/1
f 549/5/1 550/6/1 551/7/1 552/8/1
f 553/21/1 554/22/1 555/23/1 556/24/1
f 557/17/1 558/18/1 559/19/1 560/20/1
f 561/17/1 562/18/1 563/19/1 564/20/1
f 565/21/1 566/22/1 567/23/1 568/24/1
f 569/21/1 570/22/1 571/23/1 572/24/1
f 573/5/1 574/6/1 575/7/1 576/8/1
f 577/9/1 578/10/1 579/11/1 580/12/1
f 581/13/1 582/14/1 583/15/1 584/16/1
f 585/5/1 586/6/1 587/7/1 588/8/1
f 589/21/1 590/22/1 591/23/1 592/24/1
f 593/21/1 594/22/1 595/23/1 596/24/1
f 597/17/1 598/18/1 599/19/1 600/20/1
f 601/17/1 602/18/1 603/19/1 604/20/1
f 605/21/1 606/22/1 607/23/1 608/24/1
f 609/21/1 610/22/1 611/23/1 612/24/1
f 613/21/1 614/22/1 615/23/1 616/24/1
f 617/25/1 618/26/1 619/27/1 620/28/1
f 621/29/1 622/30/1 623/31/1 624/32/1
f 625/21/1 626/22/1 627/23/1 628/24/1
f 629/21/1 630/22/1 631/23/1 632/24/1
f 633/21/1 634/22/1 635/23/1 636/24/1
f 637/17/1 638/18/1 639/19/1 640/20/1
f 641/17/1 642/18/1 643/19/1 644/20/1
f 645/21/1 646/22/1 647/23/1 648/24/1
f 649/21/1 650/22/1 651/23/1 652/24/1
f 653/21/1 654/22/1 655/23/1 656/24/1
f 657/25/1 658/26/1 659/27/1 660/28/1
f 661/13/1 662/14/1 663/15/1 664/16/1
f 665/5/1 666/6/1 667/7/1 668/8/1
f 669/21/1 670/22/1 671/23/1 672/24/1
f 673/21/1 674/22/1 675/23/1 676/24/1
f 677/21/1 678/22/1 679/23/1 680/24/1
f 681/17/1 682/18/1 683/19/1 684/20/1
f 685/17/1 686/18/1 687/19/1 688/20/1
f 689/21/1 690/22/1 691/23/1 692/24/1
f 693/21/1 694/22/1 695/23/1 696/24/1
f 697/21/1 698/22/1 699/23/1 700/24/1
f 701/5/1 702/6/1 703/7/1 704/8/1
f 705/9/1 706/10/1 707/11/1 708/12/1
f 709/29/1 710/30/1 711/31/1 712/32/1
f 713/21/1 714/22/1 715/23/1 716/24/1
f 717/21/1 718/22/1 719/23/1 720/24/1
f 721/21/1 722/22/1 723/23/1 724/24/1
f 725/21/1 726/22/1 727/23/1 728/24/1
f 729/17/1 730/18/1 731/19/1 732/20/1
f 733/17/1 734/18/1 735/19/1 736/20/1
f 737/21/1 738/22/1 739/23/1 740/24/1
f 741/21/1 742/22/1 743/23/1 744/24/1
f 745/21/1 746/22/1 747/23/1 748/24/1
f 749/21/1 750/22/1 751/23/1 752/24/1
f 753/25/1 754/26/1 755/27/1 756/28/1
f 757/29/1 758/30/1 759/31/1 760/32/1
f 761/21/1 762/22/1 763/23/1 764/24/1
f 765/21/1 766/22/1 767/23/1 768/24/1
f 769/21/1 770/22/1 771/23/1 772/24/1
f 773/21/1 774/22/1 775/23/1 776/24/1
f 777/17/1 778/18/1 779/19/1 780/20/1
f 781/45/1 782/46/1 783/47/1 784/48/1
f 785/33/1 786/34/1 787/35/1 788/36/1
f 789/33/1 790/34/1 791/35/1 792/36/1
f 793/33/1 794/34/1 795/35/1 796/36/1
f 797/33/1 798/34/1 799/35/1 800/36/1
f 801/37/1 802/38/1 803/39/1 804/40/1
f 805/41/1 806/42/1 807/43/1 808/44/1
f 809/33/1 810/34/1 811/35/1 812/36/1
f 813/33/1 814/34/1 815/35/1 816/36/1
f 817/33/1 818/34/1 819/35/1 820/36/1
f 821/33/1 822/34/1 823/35/1 824/36/1
f 825/45/1 826/46/1 827/47/1 828/48/1

