# Tiled2Unity generated file. Do not modify by hand.
# Wavefront file for 'testhomeInside_mesh_0003.obj'

# Vertices (Count = 8)
v -32 -112 0
v -48 -112 0
v -48 -96 0
v -32 -96 0
v -32 -128 0
v -48 -128 0
v -48 -112 0
v -32 -112 0

# Texture cooridinates (Count = 8)
vt 0.3688017 0.8403042
vt 0.3853306 0.8403042
vt 0.3853306 0.8707224
vt 0.3688017 0.8707224
vt 0.3688017 0.8079848
vt 0.3853306 0.8079848
vt 0.3853306 0.838403
vt 0.3688017 0.838403

# Normal
vn 0 0 -1

# Mesh description
g testhomeInside_mesh_0003

# Faces
f 1/1/1 2/2/1 3/3/1 4/4/1
f 5/5/1 6/6/1 7/7/1 8/8/1

