# Tiled2Unity generated file. Do not modify by hand.
# Wavefront file for 'R1_mesh_0002.obj'

# Vertices (Count = 940)
v -304 -16 0
v -320 -16 0
v -320 0 0
v -304 0 0
v -288 -16 0
v -304 -16 0
v -304 0 0
v -288 0 0
v -272 -16 0
v -288 -16 0
v -288 0 0
v -272 0 0
v -256 -16 0
v -272 -16 0
v -272 0 0
v -256 0 0
v -240 -16 0
v -256 -16 0
v -256 0 0
v -240 0 0
v -224 -16 0
v -240 -16 0
v -240 0 0
v -224 0 0
v -208 -16 0
v -224 -16 0
v -224 0 0
v -208 0 0
v -192 -16 0
v -208 -16 0
v -208 0 0
v -192 0 0
v -176 -16 0
v -192 -16 0
v -192 0 0
v -176 0 0
v -160 -16 0
v -176 -16 0
v -176 0 0
v -160 0 0
v -144 -16 0
v -160 -16 0
v -160 0 0
v -144 0 0
v -128 -16 0
v -144 -16 0
v -144 0 0
v -128 0 0
v -112 -16 0
v -128 -16 0
v -128 0 0
v -112 0 0
v -96 -16 0
v -112 -16 0
v -112 0 0
v -96 0 0
v -80 -16 0
v -96 -16 0
v -96 0 0
v -80 0 0
v -64 -16 0
v -80 -16 0
v -80 0 0
v -64 0 0
v -48 -16 0
v -64 -16 0
v -64 0 0
v -48 0 0
v -32 -16 0
v -48 -16 0
v -48 0 0
v -32 0 0
v -16 -16 0
v -32 -16 0
v -32 0 0
v -16 0 0
v 0 -16 0
v -16 -16 0
v -16 0 0
v 0 0 0
v -304 -32 0
v -320 -32 0
v -320 -16 0
v -304 -16 0
v -288 -32 0
v -304 -32 0
v -304 -16 0
v -288 -16 0
v -272 -32 0
v -288 -32 0
v -288 -16 0
v -272 -16 0
v -256 -32 0
v -272 -32 0
v -272 -16 0
v -256 -16 0
v -240 -32 0
v -256 -32 0
v -256 -16 0
v -240 -16 0
v -224 -32 0
v -240 -32 0
v -240 -16 0
v -224 -16 0
v -208 -32 0
v -224 -32 0
v -224 -16 0
v -208 -16 0
v -192 -32 0
v -208 -32 0
v -208 -16 0
v -192 -16 0
v -176 -32 0
v -192 -32 0
v -192 -16 0
v -176 -16 0
v -160 -32 0
v -176 -32 0
v -176 -16 0
v -160 -16 0
v -144 -32 0
v -160 -32 0
v -160 -16 0
v -144 -16 0
v -128 -32 0
v -144 -32 0
v -144 -16 0
v -128 -16 0
v -112 -32 0
v -128 -32 0
v -128 -16 0
v -112 -16 0
v -96 -32 0
v -112 -32 0
v -112 -16 0
v -96 -16 0
v -80 -32 0
v -96 -32 0
v -96 -16 0
v -80 -16 0
v -64 -32 0
v -80 -32 0
v -80 -16 0
v -64 -16 0
v -48 -32 0
v -64 -32 0
v -64 -16 0
v -48 -16 0
v -32 -32 0
v -48 -32 0
v -48 -16 0
v -32 -16 0
v -16 -32 0
v -32 -32 0
v -32 -16 0
v -16 -16 0
v 0 -32 0
v -16 -32 0
v -16 -16 0
v 0 -16 0
v -304 -48 0
v -320 -48 0
v -320 -32 0
v -304 -32 0
v -288 -48 0
v -304 -48 0
v -304 -32 0
v -288 -32 0
v -272 -48 0
v -288 -48 0
v -288 -32 0
v -272 -32 0
v -256 -48 0
v -272 -48 0
v -272 -32 0
v -256 -32 0
v -240 -48 0
v -256 -48 0
v -256 -32 0
v -240 -32 0
v -224 -48 0
v -240 -48 0
v -240 -32 0
v -224 -32 0
v -208 -48 0
v -224 -48 0
v -224 -32 0
v -208 -32 0
v -192 -48 0
v -208 -48 0
v -208 -32 0
v -192 -32 0
v -176 -48 0
v -192 -48 0
v -192 -32 0
v -176 -32 0
v -160 -48 0
v -176 -48 0
v -176 -32 0
v -160 -32 0
v -112 -48 0
v -128 -48 0
v -128 -32 0
v -112 -32 0
v -96 -48 0
v -112 -48 0
v -112 -32 0
v -96 -32 0
v -80 -48 0
v -96 -48 0
v -96 -32 0
v -80 -32 0
v -64 -48 0
v -80 -48 0
v -80 -32 0
v -64 -32 0
v -48 -48 0
v -64 -48 0
v -64 -32 0
v -48 -32 0
v -32 -48 0
v -48 -48 0
v -48 -32 0
v -32 -32 0
v -16 -48 0
v -32 -48 0
v -32 -32 0
v -16 -32 0
v 0 -48 0
v -16 -48 0
v -16 -32 0
v 0 -32 0
v -304 -64 0
v -320 -64 0
v -320 -48 0
v -304 -48 0
v -288 -64 0
v -304 -64 0
v -304 -48 0
v -288 -48 0
v -272 -64 0
v -288 -64 0
v -288 -48 0
v -272 -48 0
v -256 -64 0
v -272 -64 0
v -272 -48 0
v -256 -48 0
v -240 -64 0
v -256 -64 0
v -256 -48 0
v -240 -48 0
v -96 -64 0
v -112 -64 0
v -112 -48 0
v -96 -48 0
v -80 -64 0
v -96 -64 0
v -96 -48 0
v -80 -48 0
v -64 -64 0
v -80 -64 0
v -80 -48 0
v -64 -48 0
v -48 -64 0
v -64 -64 0
v -64 -48 0
v -48 -48 0
v -32 -64 0
v -48 -64 0
v -48 -48 0
v -32 -48 0
v -16 -64 0
v -32 -64 0
v -32 -48 0
v -16 -48 0
v 0 -64 0
v -16 -64 0
v -16 -48 0
v 0 -48 0
v -304 -80 0
v -320 -80 0
v -320 -64 0
v -304 -64 0
v -288 -80 0
v -304 -80 0
v -304 -64 0
v -288 -64 0
v -272 -80 0
v -288 -80 0
v -288 -64 0
v -272 -64 0
v -256 -80 0
v -272 -80 0
v -272 -64 0
v -256 -64 0
v -80 -80 0
v -96 -80 0
v -96 -64 0
v -80 -64 0
v -64 -80 0
v -80 -80 0
v -80 -64 0
v -64 -64 0
v -48 -80 0
v -64 -80 0
v -64 -64 0
v -48 -64 0
v -32 -80 0
v -48 -80 0
v -48 -64 0
v -32 -64 0
v -16 -80 0
v -32 -80 0
v -32 -64 0
v -16 -64 0
v 0 -80 0
v -16 -80 0
v -16 -64 0
v 0 -64 0
v -64 -96 0
v -80 -96 0
v -80 -80 0
v -64 -80 0
v -48 -96 0
v -64 -96 0
v -64 -80 0
v -48 -80 0
v -32 -96 0
v -48 -96 0
v -48 -80 0
v -32 -80 0
v -16 -96 0
v -32 -96 0
v -32 -80 0
v -16 -80 0
v 0 -96 0
v -16 -96 0
v -16 -80 0
v 0 -80 0
v -48 -112 0
v -64 -112 0
v -64 -96 0
v -48 -96 0
v -32 -112 0
v -48 -112 0
v -48 -96 0
v -32 -96 0
v -16 -112 0
v -32 -112 0
v -32 -96 0
v -16 -96 0
v 0 -112 0
v -16 -112 0
v -16 -96 0
v 0 -96 0
v -32 -128 0
v -48 -128 0
v -48 -112 0
v -32 -112 0
v -16 -128 0
v -32 -128 0
v -32 -112 0
v -16 -112 0
v 0 -128 0
v -16 -128 0
v -16 -112 0
v 0 -112 0
v -256 -144 0
v -272 -144 0
v -272 -128 0
v -256 -128 0
v -240 -144 0
v -256 -144 0
v -256 -128 0
v -240 -128 0
v -32 -144 0
v -48 -144 0
v -48 -128 0
v -32 -128 0
v -16 -144 0
v -32 -144 0
v -32 -128 0
v -16 -128 0
v 0 -144 0
v -16 -144 0
v -16 -128 0
v 0 -128 0
v -272 -160 0
v -288 -160 0
v -288 -144 0
v -272 -144 0
v -256 -160 0
v -272 -160 0
v -272 -144 0
v -256 -144 0
v -240 -160 0
v -256 -160 0
v -256 -144 0
v -240 -144 0
v -32 -160 0
v -48 -160 0
v -48 -144 0
v -32 -144 0
v -16 -160 0
v -32 -160 0
v -32 -144 0
v -16 -144 0
v 0 -160 0
v -16 -160 0
v -16 -144 0
v 0 -144 0
v -272 -176 0
v -288 -176 0
v -288 -160 0
v -272 -160 0
v -256 -176 0
v -272 -176 0
v -272 -160 0
v -256 -160 0
v -240 -176 0
v -256 -176 0
v -256 -160 0
v -240 -160 0
v -224 -176 0
v -240 -176 0
v -240 -160 0
v -224 -160 0
v -112 -176 0
v -128 -176 0
v -128 -160 0
v -112 -160 0
v -96 -176 0
v -112 -176 0
v -112 -160 0
v -96 -160 0
v -80 -176 0
v -96 -176 0
v -96 -160 0
v -80 -160 0
v -32 -176 0
v -48 -176 0
v -48 -160 0
v -32 -160 0
v -16 -176 0
v -32 -176 0
v -32 -160 0
v -16 -160 0
v 0 -176 0
v -16 -176 0
v -16 -160 0
v 0 -160 0
v -256 -192 0
v -272 -192 0
v -272 -176 0
v -256 -176 0
v -240 -192 0
v -256 -192 0
v -256 -176 0
v -240 -176 0
v -224 -192 0
v -240 -192 0
v -240 -176 0
v -224 -176 0
v -208 -192 0
v -224 -192 0
v -224 -176 0
v -208 -176 0
v -112 -192 0
v -128 -192 0
v -128 -176 0
v -112 -176 0
v -96 -192 0
v -112 -192 0
v -112 -176 0
v -96 -176 0
v -80 -192 0
v -96 -192 0
v -96 -176 0
v -80 -176 0
v -64 -192 0
v -80 -192 0
v -80 -176 0
v -64 -176 0
v -32 -192 0
v -48 -192 0
v -48 -176 0
v -32 -176 0
v -16 -192 0
v -32 -192 0
v -32 -176 0
v -16 -176 0
v 0 -192 0
v -16 -192 0
v -16 -176 0
v 0 -176 0
v -256 -208 0
v -272 -208 0
v -272 -192 0
v -256 -192 0
v -240 -208 0
v -256 -208 0
v -256 -192 0
v -240 -192 0
v -224 -208 0
v -240 -208 0
v -240 -192 0
v -224 -192 0
v -208 -208 0
v -224 -208 0
v -224 -192 0
v -208 -192 0
v -192 -208 0
v -208 -208 0
v -208 -192 0
v -192 -192 0
v -176 -208 0
v -192 -208 0
v -192 -192 0
v -176 -192 0
v -160 -208 0
v -176 -208 0
v -176 -192 0
v -160 -192 0
v -144 -208 0
v -160 -208 0
v -160 -192 0
v -144 -192 0
v -128 -208 0
v -144 -208 0
v -144 -192 0
v -128 -192 0
v -112 -208 0
v -128 -208 0
v -128 -192 0
v -112 -192 0
v -96 -208 0
v -112 -208 0
v -112 -192 0
v -96 -192 0
v -80 -208 0
v -96 -208 0
v -96 -192 0
v -80 -192 0
v -32 -208 0
v -48 -208 0
v -48 -192 0
v -32 -192 0
v -16 -208 0
v -32 -208 0
v -32 -192 0
v -16 -192 0
v 0 -208 0
v -16 -208 0
v -16 -192 0
v 0 -192 0
v -240 -224 0
v -256 -224 0
v -256 -208 0
v -240 -208 0
v -224 -224 0
v -240 -224 0
v -240 -208 0
v -224 -208 0
v -208 -224 0
v -224 -224 0
v -224 -208 0
v -208 -208 0
v -192 -224 0
v -208 -224 0
v -208 -208 0
v -192 -208 0
v -176 -224 0
v -192 -224 0
v -192 -208 0
v -176 -208 0
v -160 -224 0
v -176 -224 0
v -176 -208 0
v -160 -208 0
v -144 -224 0
v -160 -224 0
v -160 -208 0
v -144 -208 0
v -128 -224 0
v -144 -224 0
v -144 -208 0
v -128 -208 0
v -112 -224 0
v -128 -224 0
v -128 -208 0
v -112 -208 0
v -96 -224 0
v -112 -224 0
v -112 -208 0
v -96 -208 0
v -32 -224 0
v -48 -224 0
v -48 -208 0
v -32 -208 0
v -16 -224 0
v -32 -224 0
v -32 -208 0
v -16 -208 0
v 0 -224 0
v -16 -224 0
v -16 -208 0
v 0 -208 0
v -224 -240 0
v -240 -240 0
v -240 -224 0
v -224 -224 0
v -208 -240 0
v -224 -240 0
v -224 -224 0
v -208 -224 0
v -192 -240 0
v -208 -240 0
v -208 -224 0
v -192 -224 0
v -176 -240 0
v -192 -240 0
v -192 -224 0
v -176 -224 0
v -160 -240 0
v -176 -240 0
v -176 -224 0
v -160 -224 0
v -144 -240 0
v -160 -240 0
v -160 -224 0
v -144 -224 0
v -128 -240 0
v -144 -240 0
v -144 -224 0
v -128 -224 0
v -112 -240 0
v -128 -240 0
v -128 -224 0
v -112 -224 0
v -32 -240 0
v -48 -240 0
v -48 -224 0
v -32 -224 0
v -16 -240 0
v -32 -240 0
v -32 -224 0
v -16 -224 0
v 0 -240 0
v -16 -240 0
v -16 -224 0
v 0 -224 0
v -304 -256 0
v -320 -256 0
v -320 -240 0
v -304 -240 0
v -288 -256 0
v -304 -256 0
v -304 -240 0
v -288 -240 0
v -272 -256 0
v -288 -256 0
v -288 -240 0
v -272 -240 0
v -48 -256 0
v -64 -256 0
v -64 -240 0
v -48 -240 0
v -32 -256 0
v -48 -256 0
v -48 -240 0
v -32 -240 0
v -16 -256 0
v -32 -256 0
v -32 -240 0
v -16 -240 0
v 0 -256 0
v -16 -256 0
v -16 -240 0
v 0 -240 0
v -304 -272 0
v -320 -272 0
v -320 -256 0
v -304 -256 0
v -288 -272 0
v -304 -272 0
v -304 -256 0
v -288 -256 0
v -272 -272 0
v -288 -272 0
v -288 -256 0
v -272 -256 0
v -256 -272 0
v -272 -272 0
v -272 -256 0
v -256 -256 0
v -64 -272 0
v -80 -272 0
v -80 -256 0
v -64 -256 0
v -48 -272 0
v -64 -272 0
v -64 -256 0
v -48 -256 0
v -32 -272 0
v -48 -272 0
v -48 -256 0
v -32 -256 0
v -16 -272 0
v -32 -272 0
v -32 -256 0
v -16 -256 0
v 0 -272 0
v -16 -272 0
v -16 -256 0
v 0 -256 0
v -304 -288 0
v -320 -288 0
v -320 -272 0
v -304 -272 0
v -288 -288 0
v -304 -288 0
v -304 -272 0
v -288 -272 0
v -272 -288 0
v -288 -288 0
v -288 -272 0
v -272 -272 0
v -256 -288 0
v -272 -288 0
v -272 -272 0
v -256 -272 0
v -240 -288 0
v -256 -288 0
v -256 -272 0
v -240 -272 0
v -224 -288 0
v -240 -288 0
v -240 -272 0
v -224 -272 0
v -208 -288 0
v -224 -288 0
v -224 -272 0
v -208 -272 0
v -192 -288 0
v -208 -288 0
v -208 -272 0
v -192 -272 0
v -112 -288 0
v -128 -288 0
v -128 -272 0
v -112 -272 0
v -96 -288 0
v -112 -288 0
v -112 -272 0
v -96 -272 0
v -80 -288 0
v -96 -288 0
v -96 -272 0
v -80 -272 0
v -64 -288 0
v -80 -288 0
v -80 -272 0
v -64 -272 0
v -48 -288 0
v -64 -288 0
v -64 -272 0
v -48 -272 0
v -32 -288 0
v -48 -288 0
v -48 -272 0
v -32 -272 0
v -16 -288 0
v -32 -288 0
v -32 -272 0
v -16 -272 0
v 0 -288 0
v -16 -288 0
v -16 -272 0
v 0 -272 0
v -304 -304 0
v -320 -304 0
v -320 -288 0
v -304 -288 0
v -288 -304 0
v -304 -304 0
v -304 -288 0
v -288 -288 0
v -272 -304 0
v -288 -304 0
v -288 -288 0
v -272 -288 0
v -256 -304 0
v -272 -304 0
v -272 -288 0
v -256 -288 0
v -240 -304 0
v -256 -304 0
v -256 -288 0
v -240 -288 0
v -224 -304 0
v -240 -304 0
v -240 -288 0
v -224 -288 0
v -208 -304 0
v -224 -304 0
v -224 -288 0
v -208 -288 0
v -192 -304 0
v -208 -304 0
v -208 -288 0
v -192 -288 0
v -176 -304 0
v -192 -304 0
v -192 -288 0
v -176 -288 0
v -160 -304 0
v -176 -304 0
v -176 -288 0
v -160 -288 0
v -144 -304 0
v -160 -304 0
v -160 -288 0
v -144 -288 0
v -128 -304 0
v -144 -304 0
v -144 -288 0
v -128 -288 0
v -112 -304 0
v -128 -304 0
v -128 -288 0
v -112 -288 0
v -96 -304 0
v -112 -304 0
v -112 -288 0
v -96 -288 0
v -80 -304 0
v -96 -304 0
v -96 -288 0
v -80 -288 0
v -64 -304 0
v -80 -304 0
v -80 -288 0
v -64 -288 0
v -48 -304 0
v -64 -304 0
v -64 -288 0
v -48 -288 0
v -32 -304 0
v -48 -304 0
v -48 -288 0
v -32 -288 0
v -16 -304 0
v -32 -304 0
v -32 -288 0
v -16 -288 0
v 0 -304 0
v -16 -304 0
v -16 -288 0
v 0 -288 0
v -304 -320 0
v -320 -320 0
v -320 -304 0
v -304 -304 0
v -288 -320 0
v -304 -320 0
v -304 -304 0
v -288 -304 0
v -272 -320 0
v -288 -320 0
v -288 -304 0
v -272 -304 0
v -256 -320 0
v -272 -320 0
v -272 -304 0
v -256 -304 0
v -240 -320 0
v -256 -320 0
v -256 -304 0
v -240 -304 0
v -224 -320 0
v -240 -320 0
v -240 -304 0
v -224 -304 0
v -208 -320 0
v -224 -320 0
v -224 -304 0
v -208 -304 0
v -192 -320 0
v -208 -320 0
v -208 -304 0
v -192 -304 0
v -176 -320 0
v -192 -320 0
v -192 -304 0
v -176 -304 0
v -160 -320 0
v -176 -320 0
v -176 -304 0
v -160 -304 0
v -144 -320 0
v -160 -320 0
v -160 -304 0
v -144 -304 0
v -128 -320 0
v -144 -320 0
v -144 -304 0
v -128 -304 0
v -112 -320 0
v -128 -320 0
v -128 -304 0
v -112 -304 0
v -96 -320 0
v -112 -320 0
v -112 -304 0
v -96 -304 0
v -80 -320 0
v -96 -320 0
v -96 -304 0
v -80 -304 0
v -64 -320 0
v -80 -320 0
v -80 -304 0
v -64 -304 0
v -48 -320 0
v -64 -320 0
v -64 -304 0
v -48 -304 0
v -32 -320 0
v -48 -320 0
v -48 -304 0
v -32 -304 0
v -16 -320 0
v -32 -320 0
v -32 -304 0
v -16 -304 0
v 0 -320 0
v -16 -320 0
v -16 -304 0
v 0 -304 0

# Texture cooridinates (Count = 44)
vt 0.6310044 0.5016394
vt 0.6659389 0.5016394
vt 0.6659389 0.5540984
vt 0.6310044 0.5540984
vt 0.7052402 0.5016394
vt 0.7401747 0.5016394
vt 0.7401747 0.5540984
vt 0.7052402 0.5540984
vt 0.779476 0.5016394
vt 0.8144105 0.5016394
vt 0.8144105 0.5540984
vt 0.779476 0.5540984
vt 0.7052402 0.4459016
vt 0.7401747 0.4459016
vt 0.7401747 0.4983606
vt 0.7052402 0.4983606
vt 0.7052402 0.390164
vt 0.7401747 0.390164
vt 0.7401747 0.442623
vt 0.7052402 0.442623
vt 0.6681223 0.390164
vt 0.7030568 0.390164
vt 0.7030568 0.442623
vt 0.6681223 0.442623
vt 0.7423581 0.390164
vt 0.7772925 0.390164
vt 0.7772925 0.442623
vt 0.7423581 0.442623
vt 0.6310044 0.4459016
vt 0.6659389 0.4459016
vt 0.6659389 0.4983606
vt 0.6310044 0.4983606
vt 0.7423581 0.4459016
vt 0.7772925 0.4459016
vt 0.7772925 0.4983606
vt 0.7423581 0.4983606
vt 0.6681223 0.5016394
vt 0.7030568 0.5016394
vt 0.7030568 0.5540984
vt 0.6681223 0.5540984
vt 0.7423581 0.5016394
vt 0.7772925 0.5016394
vt 0.7772925 0.5540984
vt 0.7423581 0.5540984

# Normal
vn 0 0 -1

# Mesh description
g R1_mesh_0002

# Faces
f 1/1/1 2/2/1 3/3/1 4/4/1
f 5/5/1 6/6/1 7/7/1 8/8/1
f 9/5/1 10/6/1 11/7/1 12/8/1
f 13/5/1 14/6/1 15/7/1 16/8/1
f 17/5/1 18/6/1 19/7/1 20/8/1
f 21/5/1 22/6/1 23/7/1 24/8/1
f 25/5/1 26/6/1 27/7/1 28/8/1
f 29/5/1 30/6/1 31/7/1 32/8/1
f 33/5/1 34/6/1 35/7/1 36/8/1
f 37/5/1 38/6/1 39/7/1 40/8/1
f 41/5/1 42/6/1 43/7/1 44/8/1
f 45/5/1 46/6/1 47/7/1 48/8/1
f 49/5/1 50/6/1 51/7/1 52/8/1
f 53/5/1 54/6/1 55/7/1 56/8/1
f 57/5/1 58/6/1 59/7/1 60/8/1
f 61/5/1 62/6/1 63/7/1 64/8/1
f 65/5/1 66/6/1 67/7/1 68/8/1
f 69/5/1 70/6/1 71/7/1 72/8/1
f 73/5/1 74/6/1 75/7/1 76/8/1
f 77/1/1 78/2/1 79/3/1 80/4/1
f 81/9/1 82/10/1 83/11/1 84/12/1
f 85/13/1 86/14/1 87/15/1 88/16/1
f 89/13/1 90/14/1 91/15/1 92/16/1
f 93/13/1 94/14/1 95/15/1 96/16/1
f 97/13/1 98/14/1 99/15/1 100/16/1
f 101/13/1 102/14/1 103/15/1 104/16/1
f 105/13/1 106/14/1 107/15/1 108/16/1
f 109/13/1 110/14/1 111/15/1 112/16/1
f 113/13/1 114/14/1 115/15/1 116/16/1
f 117/17/1 118/18/1 119/19/1 120/20/1
f 121/17/1 122/18/1 123/19/1 124/20/1
f 125/17/1 126/18/1 127/19/1 128/20/1
f 129/17/1 130/18/1 131/19/1 132/20/1
f 133/13/1 134/14/1 135/15/1 136/16/1
f 137/13/1 138/14/1 139/15/1 140/16/1
f 141/13/1 142/14/1 143/15/1 144/16/1
f 145/13/1 146/14/1 147/15/1 148/16/1
f 149/13/1 150/14/1 151/15/1 152/16/1
f 153/13/1 154/14/1 155/15/1 156/16/1
f 157/9/1 158/10/1 159/11/1 160/12/1
f 161/9/1 162/10/1 163/11/1 164/12/1
f 165/13/1 166/14/1 167/15/1 168/16/1
f 169/13/1 170/14/1 171/15/1 172/16/1
f 173/13/1 174/14/1 175/15/1 176/16/1
f 177/17/1 178/18/1 179/19/1 180/20/1
f 181/17/1 182/18/1 183/19/1 184/20/1
f 185/17/1 186/18/1 187/19/1 188/20/1
f 189/17/1 190/18/1 191/19/1 192/20/1
f 193/17/1 194/18/1 195/19/1 196/20/1
f 197/21/1 198/22/1 199/23/1 200/24/1
f 201/25/1 202/26/1 203/27/1 204/28/1
f 205/17/1 206/18/1 207/19/1 208/20/1
f 209/13/1 210/14/1 211/15/1 212/16/1
f 213/13/1 214/14/1 215/15/1 216/16/1
f 217/13/1 218/14/1 219/15/1 220/16/1
f 221/13/1 222/14/1 223/15/1 224/16/1
f 225/13/1 226/14/1 227/15/1 228/16/1
f 229/9/1 230/10/1 231/11/1 232/12/1
f 233/9/1 234/10/1 235/11/1 236/12/1
f 237/13/1 238/14/1 239/15/1 240/16/1
f 241/13/1 242/14/1 243/15/1 244/16/1
f 245/17/1 246/18/1 247/19/1 248/20/1
f 249/21/1 250/22/1 251/23/1 252/24/1
f 253/25/1 254/26/1 255/27/1 256/28/1
f 257/17/1 258/18/1 259/19/1 260/20/1
f 261/13/1 262/14/1 263/15/1 264/16/1
f 265/13/1 266/14/1 267/15/1 268/16/1
f 269/13/1 270/14/1 271/15/1 272/16/1
f 273/13/1 274/14/1 275/15/1 276/16/1
f 277/9/1 278/10/1 279/11/1 280/12/1
f 281/29/1 282/30/1 283/31/1 284/32/1
f 285/17/1 286/18/1 287/19/1 288/20/1
f 289/17/1 290/18/1 291/19/1 292/20/1
f 293/21/1 294/22/1 295/23/1 296/24/1
f 297/25/1 298/26/1 299/27/1 300/28/1
f 301/17/1 302/18/1 303/19/1 304/20/1
f 305/13/1 306/14/1 307/15/1 308/16/1
f 309/13/1 310/14/1 311/15/1 312/16/1
f 313/13/1 314/14/1 315/15/1 316/16/1
f 317/9/1 318/10/1 319/11/1 320/12/1
f 321/25/1 322/26/1 323/27/1 324/28/1
f 325/17/1 326/18/1 327/19/1 328/20/1
f 329/13/1 330/14/1 331/15/1 332/16/1
f 333/13/1 334/14/1 335/15/1 336/16/1
f 337/9/1 338/10/1 339/11/1 340/12/1
f 341/25/1 342/26/1 343/27/1 344/28/1
f 345/17/1 346/18/1 347/19/1 348/20/1
f 349/13/1 350/14/1 351/15/1 352/16/1
f 353/9/1 354/10/1 355/11/1 356/12/1
f 357/33/1 358/34/1 359/35/1 360/36/1
f 361/13/1 362/14/1 363/15/1 364/16/1
f 365/9/1 366/10/1 367/11/1 368/12/1
f 369/5/1 370/6/1 371/7/1 372/8/1
f 373/5/1 374/6/1 375/7/1 376/8/1
f 377/33/1 378/34/1 379/35/1 380/36/1
f 381/13/1 382/14/1 383/15/1 384/16/1
f 385/9/1 386/10/1 387/11/1 388/12/1
f 389/33/1 390/34/1 391/35/1 392/36/1
f 393/13/1 394/14/1 395/15/1 396/16/1
f 397/13/1 398/14/1 399/15/1 400/16/1
f 401/33/1 402/34/1 403/35/1 404/36/1
f 405/13/1 406/14/1 407/15/1 408/16/1
f 409/9/1 410/10/1 411/11/1 412/12/1
f 413/25/1 414/26/1 415/27/1 416/28/1
f 417/17/1 418/18/1 419/19/1 420/20/1
f 421/13/1 422/14/1 423/15/1 424/16/1
f 425/5/1 426/6/1 427/7/1 428/8/1
f 429/5/1 430/6/1 431/7/1 432/8/1
f 433/13/1 434/14/1 435/15/1 436/16/1
f 437/13/1 438/14/1 439/15/1 440/16/1
f 441/33/1 442/34/1 443/35/1 444/36/1
f 445/13/1 446/14/1 447/15/1 448/16/1
f 449/9/1 450/10/1 451/11/1 452/12/1
f 453/33/1 454/34/1 455/35/1 456/36/1
f 457/13/1 458/14/1 459/15/1 460/16/1
f 461/13/1 462/14/1 463/15/1 464/16/1
f 465/5/1 466/6/1 467/7/1 468/8/1
f 469/13/1 470/14/1 471/15/1 472/16/1
f 473/13/1 474/14/1 475/15/1 476/16/1
f 477/17/1 478/18/1 479/19/1 480/20/1
f 481/21/1 482/22/1 483/23/1 484/24/1
f 485/33/1 486/34/1 487/35/1 488/36/1
f 489/13/1 490/14/1 491/15/1 492/16/1
f 493/9/1 494/10/1 495/11/1 496/12/1
f 497/25/1 498/26/1 499/27/1 500/28/1
f 501/17/1 502/18/1 503/19/1 504/20/1
f 505/13/1 506/14/1 507/15/1 508/16/1
f 509/13/1 510/14/1 511/15/1 512/16/1
f 513/5/1 514/6/1 515/7/1 516/8/1
f 517/5/1 518/6/1 519/7/1 520/8/1
f 521/5/1 522/6/1 523/7/1 524/8/1
f 525/37/1 526/38/1 527/39/1 528/40/1
f 529/5/1 530/6/1 531/7/1 532/8/1
f 533/13/1 534/14/1 535/15/1 536/16/1
f 537/17/1 538/18/1 539/19/1 540/20/1
f 541/21/1 542/22/1 543/23/1 544/24/1
f 545/33/1 546/34/1 547/35/1 548/36/1
f 549/13/1 550/14/1 551/15/1 552/16/1
f 553/9/1 554/10/1 555/11/1 556/12/1
f 557/25/1 558/26/1 559/27/1 560/28/1
f 561/17/1 562/18/1 563/19/1 564/20/1
f 565/13/1 566/14/1 567/15/1 568/16/1
f 569/13/1 570/14/1 571/15/1 572/16/1
f 573/13/1 574/14/1 575/15/1 576/16/1
f 577/13/1 578/14/1 579/15/1 580/16/1
f 581/13/1 582/14/1 583/15/1 584/16/1
f 585/13/1 586/14/1 587/15/1 588/16/1
f 589/17/1 590/18/1 591/19/1 592/20/1
f 593/21/1 594/22/1 595/23/1 596/24/1
f 597/33/1 598/34/1 599/35/1 600/36/1
f 601/13/1 602/14/1 603/15/1 604/16/1
f 605/9/1 606/10/1 607/11/1 608/12/1
f 609/25/1 610/26/1 611/27/1 612/28/1
f 613/17/1 614/18/1 615/19/1 616/20/1
f 617/17/1 618/18/1 619/19/1 620/20/1
f 621/17/1 622/18/1 623/19/1 624/20/1
f 625/17/1 626/18/1 627/19/1 628/20/1
f 629/17/1 630/18/1 631/19/1 632/20/1
f 633/17/1 634/18/1 635/19/1 636/20/1
f 637/21/1 638/22/1 639/23/1 640/24/1
f 641/33/1 642/34/1 643/35/1 644/36/1
f 645/13/1 646/14/1 647/15/1 648/16/1
f 649/9/1 650/10/1 651/11/1 652/12/1
f 653/1/1 654/2/1 655/3/1 656/4/1
f 657/5/1 658/6/1 659/7/1 660/8/1
f 661/37/1 662/38/1 663/39/1 664/40/1
f 665/41/1 666/42/1 667/43/1 668/44/1
f 669/5/1 670/6/1 671/7/1 672/8/1
f 673/13/1 674/14/1 675/15/1 676/16/1
f 677/9/1 678/10/1 679/11/1 680/12/1
f 681/9/1 682/10/1 683/11/1 684/12/1
f 685/13/1 686/14/1 687/15/1 688/16/1
f 689/5/1 690/6/1 691/7/1 692/8/1
f 693/37/1 694/38/1 695/39/1 696/40/1
f 697/41/1 698/42/1 699/43/1 700/44/1
f 701/5/1 702/6/1 703/7/1 704/8/1
f 705/13/1 706/14/1 707/15/1 708/16/1
f 709/13/1 710/14/1 711/15/1 712/16/1
f 713/9/1 714/10/1 715/11/1 716/12/1
f 717/9/1 718/10/1 719/11/1 720/12/1
f 721/13/1 722/14/1 723/15/1 724/16/1
f 725/13/1 726/14/1 727/15/1 728/16/1
f 729/5/1 730/6/1 731/7/1 732/8/1
f 733/5/1 734/6/1 735/7/1 736/8/1
f 737/5/1 738/6/1 739/7/1 740/8/1
f 741/5/1 742/6/1 743/7/1 744/8/1
f 745/37/1 746/38/1 747/39/1 748/40/1
f 749/41/1 750/42/1 751/43/1 752/44/1
f 753/5/1 754/6/1 755/7/1 756/8/1
f 757/5/1 758/6/1 759/7/1 760/8/1
f 761/5/1 762/6/1 763/7/1 764/8/1
f 765/13/1 766/14/1 767/15/1 768/16/1
f 769/13/1 770/14/1 771/15/1 772/16/1
f 773/13/1 774/14/1 775/15/1 776/16/1
f 777/9/1 778/10/1 779/11/1 780/12/1
f 781/9/1 782/10/1 783/11/1 784/12/1
f 785/13/1 786/14/1 787/15/1 788/16/1
f 789/13/1 790/14/1 791/15/1 792/16/1
f 793/13/1 794/14/1 795/15/1 796/16/1
f 797/13/1 798/14/1 799/15/1 800/16/1
f 801/13/1 802/14/1 803/15/1 804/16/1
f 805/13/1 806/14/1 807/15/1 808/16/1
f 809/5/1 810/6/1 811/7/1 812/8/1
f 813/5/1 814/6/1 815/7/1 816/8/1
f 817/5/1 818/6/1 819/7/1 820/8/1
f 821/5/1 822/6/1 823/7/1 824/8/1
f 825/5/1 826/6/1 827/7/1 828/8/1
f 829/5/1 830/6/1 831/7/1 832/8/1
f 833/13/1 834/14/1 835/15/1 836/16/1
f 837/13/1 838/14/1 839/15/1 840/16/1
f 841/13/1 842/14/1 843/15/1 844/16/1
f 845/13/1 846/14/1 847/15/1 848/16/1
f 849/13/1 850/14/1 851/15/1 852/16/1
f 853/13/1 854/14/1 855/15/1 856/16/1
f 857/9/1 858/10/1 859/11/1 860/12/1
f 861/29/1 862/30/1 863/31/1 864/32/1
f 865/17/1 866/18/1 867/19/1 868/20/1
f 869/17/1 870/18/1 871/19/1 872/20/1
f 873/17/1 874/18/1 875/19/1 876/20/1
f 877/17/1 878/18/1 879/19/1 880/20/1
f 881/17/1 882/18/1 883/19/1 884/20/1
f 885/17/1 886/18/1 887/19/1 888/20/1
f 889/17/1 890/18/1 891/19/1 892/20/1
f 893/17/1 894/18/1 895/19/1 896/20/1
f 897/17/1 898/18/1 899/19/1 900/20/1
f 901/17/1 902/18/1 903/19/1 904/20/1
f 905/17/1 906/18/1 907/19/1 908/20/1
f 909/17/1 910/18/1 911/19/1 912/20/1
f 913/17/1 914/18/1 915/19/1 916/20/1
f 917/17/1 918/18/1 919/19/1 920/20/1
f 921/17/1 922/18/1 923/19/1 924/20/1
f 925/17/1 926/18/1 927/19/1 928/20/1
f 929/17/1 930/18/1 931/19/1 932/20/1
f 933/17/1 934/18/1 935/19/1 936/20/1
f 937/29/1 938/30/1 939/31/1 940/32/1

