# Tiled2Unity generated file. Do not modify by hand.
# Wavefront file for 'house_top_mesh_0004.obj'

# Vertices (Count = 296)
v -256 -64 0
v -272 -64 0
v -272 -48 0
v -256 -48 0
v -240 -64 0
v -256 -64 0
v -256 -48 0
v -240 -48 0
v -208 -64 0
v -224 -64 0
v -224 -48 0
v -208 -48 0
v -192 -64 0
v -208 -64 0
v -208 -48 0
v -192 -48 0
v -256 -80 0
v -272 -80 0
v -272 -64 0
v -256 -64 0
v -240 -80 0
v -256 -80 0
v -256 -64 0
v -240 -64 0
v -208 -80 0
v -224 -80 0
v -224 -64 0
v -208 -64 0
v -192 -80 0
v -208 -80 0
v -208 -64 0
v -192 -64 0
v -256 -96 0
v -272 -96 0
v -272 -80 0
v -256 -80 0
v -240 -96 0
v -256 -96 0
v -256 -80 0
v -240 -80 0
v -208 -96 0
v -224 -96 0
v -224 -80 0
v -208 -80 0
v -192 -96 0
v -208 -96 0
v -208 -80 0
v -192 -80 0
v -208 -192 0
v -224 -192 0
v -224 -176 0
v -208 -176 0
v -192 -192 0
v -208 -192 0
v -208 -176 0
v -192 -176 0
v -176 -192 0
v -192 -192 0
v -192 -176 0
v -176 -176 0
v -160 -192 0
v -176 -192 0
v -176 -176 0
v -160 -176 0
v -144 -192 0
v -160 -192 0
v -160 -176 0
v -144 -176 0
v -128 -192 0
v -144 -192 0
v -144 -176 0
v -128 -176 0
v -112 -192 0
v -128 -192 0
v -128 -176 0
v -112 -176 0
v -96 -192 0
v -112 -192 0
v -112 -176 0
v -96 -176 0
v -208 -208 0
v -224 -208 0
v -224 -192 0
v -208 -192 0
v -192 -208 0
v -208 -208 0
v -208 -192 0
v -192 -192 0
v -176 -208 0
v -192 -208 0
v -192 -192 0
v -176 -192 0
v -160 -208 0
v -176 -208 0
v -176 -192 0
v -160 -192 0
v -144 -208 0
v -160 -208 0
v -160 -192 0
v -144 -192 0
v -128 -208 0
v -144 -208 0
v -144 -192 0
v -128 -192 0
v -112 -208 0
v -128 -208 0
v -128 -192 0
v -112 -192 0
v -96 -208 0
v -112 -208 0
v -112 -192 0
v -96 -192 0
v -208 -224 0
v -224 -224 0
v -224 -208 0
v -208 -208 0
v -192 -224 0
v -208 -224 0
v -208 -208 0
v -192 -208 0
v -176 -224 0
v -192 -224 0
v -192 -208 0
v -176 -208 0
v -160 -224 0
v -176 -224 0
v -176 -208 0
v -160 -208 0
v -144 -224 0
v -160 -224 0
v -160 -208 0
v -144 -208 0
v -128 -224 0
v -144 -224 0
v -144 -208 0
v -128 -208 0
v -112 -224 0
v -128 -224 0
v -128 -208 0
v -112 -208 0
v -96 -224 0
v -112 -224 0
v -112 -208 0
v -96 -208 0
v -208 -240 0
v -224 -240 0
v -224 -224 0
v -208 -224 0
v -192 -240 0
v -208 -240 0
v -208 -224 0
v -192 -224 0
v -176 -240 0
v -192 -240 0
v -192 -224 0
v -176 -224 0
v -160 -240 0
v -176 -240 0
v -176 -224 0
v -160 -224 0
v -144 -240 0
v -160 -240 0
v -160 -224 0
v -144 -224 0
v -128 -240 0
v -144 -240 0
v -144 -224 0
v -128 -224 0
v -112 -240 0
v -128 -240 0
v -128 -224 0
v -112 -224 0
v -96 -240 0
v -112 -240 0
v -112 -224 0
v -96 -224 0
v -208 -256 0
v -224 -256 0
v -224 -240 0
v -208 -240 0
v -192 -256 0
v -208 -256 0
v -208 -240 0
v -192 -240 0
v -176 -256 0
v -192 -256 0
v -192 -240 0
v -176 -240 0
v -160 -256 0
v -176 -256 0
v -176 -240 0
v -160 -240 0
v -144 -256 0
v -160 -256 0
v -160 -240 0
v -144 -240 0
v -128 -256 0
v -144 -256 0
v -144 -240 0
v -128 -240 0
v -112 -256 0
v -128 -256 0
v -128 -240 0
v -112 -240 0
v -96 -256 0
v -112 -256 0
v -112 -240 0
v -96 -240 0
v -288 -272 0
v -304 -272 0
v -304 -256 0
v -288 -256 0
v -272 -272 0
v -288 -272 0
v -288 -256 0
v -272 -256 0
v -256 -272 0
v -272 -272 0
v -272 -256 0
v -256 -256 0
v -208 -272 0
v -224 -272 0
v -224 -256 0
v -208 -256 0
v -192 -272 0
v -208 -272 0
v -208 -256 0
v -192 -256 0
v -176 -272 0
v -192 -272 0
v -192 -256 0
v -176 -256 0
v -160 -272 0
v -176 -272 0
v -176 -256 0
v -160 -256 0
v -144 -272 0
v -160 -272 0
v -160 -256 0
v -144 -256 0
v -128 -272 0
v -144 -272 0
v -144 -256 0
v -128 -256 0
v -112 -272 0
v -128 -272 0
v -128 -256 0
v -112 -256 0
v -96 -272 0
v -112 -272 0
v -112 -256 0
v -96 -256 0
v -288 -288 0
v -304 -288 0
v -304 -272 0
v -288 -272 0
v -272 -288 0
v -288 -288 0
v -288 -272 0
v -272 -272 0
v -256 -288 0
v -272 -288 0
v -272 -272 0
v -256 -272 0
v -208 -288 0
v -224 -288 0
v -224 -272 0
v -208 -272 0
v -192 -288 0
v -208 -288 0
v -208 -272 0
v -192 -272 0
v -176 -288 0
v -192 -288 0
v -192 -272 0
v -176 -272 0
v -160 -288 0
v -176 -288 0
v -176 -272 0
v -160 -272 0
v -144 -288 0
v -160 -288 0
v -160 -272 0
v -144 -272 0
v -128 -288 0
v -144 -288 0
v -144 -272 0
v -128 -272 0
v -112 -288 0
v -128 -288 0
v -128 -272 0
v -112 -272 0
v -96 -288 0
v -112 -288 0
v -112 -272 0
v -96 -272 0

# Texture cooridinates (Count = 92)
vt 0.2107438 0.3555133
vt 0.2272727 0.3555133
vt 0.2272727 0.3859316
vt 0.2107438 0.3859316
vt 0.1756198 0.3555133
vt 0.1921488 0.3555133
vt 0.1921488 0.3859316
vt 0.1756198 0.3859316
vt 0.2107438 0.2585551
vt 0.2272727 0.2585551
vt 0.2272727 0.2889734
vt 0.2107438 0.2889734
vt 0.1756198 0.2585551
vt 0.1921488 0.2585551
vt 0.1921488 0.2889734
vt 0.1756198 0.2889734
vt 0.2107438 0.3231939
vt 0.2272727 0.3231939
vt 0.2272727 0.3536122
vt 0.2107438 0.3536122
vt 0.1756198 0.3231939
vt 0.1921488 0.3231939
vt 0.1921488 0.3536122
vt 0.1756198 0.3536122
vt 0.2107438 0.2262357
vt 0.2272727 0.2262357
vt 0.2272727 0.256654
vt 0.2107438 0.256654
vt 0.1756198 0.2262357
vt 0.1921488 0.2262357
vt 0.1921488 0.256654
vt 0.1756198 0.256654
vt 0.2107438 0.2908745
vt 0.2272727 0.2908745
vt 0.2272727 0.3212928
vt 0.2107438 0.3212928
vt 0.1756198 0.2908745
vt 0.1921488 0.2908745
vt 0.1921488 0.3212928
vt 0.1756198 0.3212928
vt 0.2107438 0.1939163
vt 0.2272727 0.1939163
vt 0.2272727 0.2243346
vt 0.2107438 0.2243346
vt 0.1756198 0.1939163
vt 0.1921488 0.1939163
vt 0.1921488 0.2243346
vt 0.1756198 0.2243346
vt 0.2107438 0.4524715
vt 0.2272727 0.4524715
vt 0.2272727 0.4828897
vt 0.2107438 0.4828897
vt 0.1931818 0.4524715
vt 0.2097107 0.4524715
vt 0.2097107 0.4828897
vt 0.1931818 0.4828897
vt 0.1756198 0.4524715
vt 0.1921488 0.4524715
vt 0.1921488 0.4828897
vt 0.1756198 0.4828897
vt 0.2107438 0.4201521
vt 0.2272727 0.4201521
vt 0.2272727 0.4505703
vt 0.2107438 0.4505703
vt 0.1931818 0.4201521
vt 0.2097107 0.4201521
vt 0.2097107 0.4505703
vt 0.1931818 0.4505703
vt 0.1756198 0.4201521
vt 0.1921488 0.4201521
vt 0.1921488 0.4505703
vt 0.1756198 0.4505703
vt 0.1931818 0.3555133
vt 0.2097107 0.3555133
vt 0.2097107 0.3859316
vt 0.1931818 0.3859316
vt 0.1931818 0.2908745
vt 0.2097107 0.2908745
vt 0.2097107 0.3212928
vt 0.1931818 0.3212928
vt 0.2107438 0.3878327
vt 0.2272727 0.3878327
vt 0.2272727 0.418251
vt 0.2107438 0.418251
vt 0.1931818 0.3878327
vt 0.2097107 0.3878327
vt 0.2097107 0.418251
vt 0.1931818 0.418251
vt 0.1756198 0.3878327
vt 0.1921488 0.3878327
vt 0.1921488 0.418251
vt 0.1756198 0.418251

# Normal
vn 0 0 -1

# Mesh description
g house_top_mesh_0004

# Faces
f 1/1/1 2/2/1 3/3/1 4/4/1
f 5/5/1 6/6/1 7/7/1 8/8/1
f 9/9/1 10/10/1 11/11/1 12/12/1
f 13/13/1 14/14/1 15/15/1 16/16/1
f 17/17/1 18/18/1 19/19/1 20/20/1
f 21/21/1 22/22/1 23/23/1 24/24/1
f 25/25/1 26/26/1 27/27/1 28/28/1
f 29/29/1 30/30/1 31/31/1 32/32/1
f 33/33/1 34/34/1 35/35/1 36/36/1
f 37/37/1 38/38/1 39/39/1 40/40/1
f 41/41/1 42/42/1 43/43/1 44/44/1
f 45/45/1 46/46/1 47/47/1 48/48/1
f 49/49/1 50/50/1 51/51/1 52/52/1
f 53/53/1 54/54/1 55/55/1 56/56/1
f 57/53/1 58/54/1 59/55/1 60/56/1
f 61/53/1 62/54/1 63/55/1 64/56/1
f 65/53/1 66/54/1 67/55/1 68/56/1
f 69/53/1 70/54/1 71/55/1 72/56/1
f 73/53/1 74/54/1 75/55/1 76/56/1
f 77/57/1 78/58/1 79/59/1 80/60/1
f 81/61/1 82/62/1 83/63/1 84/64/1
f 85/65/1 86/66/1 87/67/1 88/68/1
f 89/65/1 90/66/1 91/67/1 92/68/1
f 93/65/1 94/66/1 95/67/1 96/68/1
f 97/65/1 98/66/1 99/67/1 100/68/1
f 101/65/1 102/66/1 103/67/1 104/68/1
f 105/65/1 106/66/1 107/67/1 108/68/1
f 109/69/1 110/70/1 111/71/1 112/72/1
f 113/61/1 114/62/1 115/63/1 116/64/1
f 117/65/1 118/66/1 119/67/1 120/68/1
f 121/65/1 122/66/1 123/67/1 124/68/1
f 125/65/1 126/66/1 127/67/1 128/68/1
f 129/65/1 130/66/1 131/67/1 132/68/1
f 133/65/1 134/66/1 135/67/1 136/68/1
f 137/65/1 138/66/1 139/67/1 140/68/1
f 141/69/1 142/70/1 143/71/1 144/72/1
f 145/61/1 146/62/1 147/63/1 148/64/1
f 149/65/1 150/66/1 151/67/1 152/68/1
f 153/65/1 154/66/1 155/67/1 156/68/1
f 157/65/1 158/66/1 159/67/1 160/68/1
f 161/65/1 162/66/1 163/67/1 164/68/1
f 165/65/1 166/66/1 167/67/1 168/68/1
f 169/65/1 170/66/1 171/67/1 172/68/1
f 173/69/1 174/70/1 175/71/1 176/72/1
f 177/61/1 178/62/1 179/63/1 180/64/1
f 181/65/1 182/66/1 183/67/1 184/68/1
f 185/65/1 186/66/1 187/67/1 188/68/1
f 189/65/1 190/66/1 191/67/1 192/68/1
f 193/65/1 194/66/1 195/67/1 196/68/1
f 197/65/1 198/66/1 199/67/1 200/68/1
f 201/65/1 202/66/1 203/67/1 204/68/1
f 205/69/1 206/70/1 207/71/1 208/72/1
f 209/1/1 210/2/1 211/3/1 212/4/1
f 213/73/1 214/74/1 215/75/1 216/76/1
f 217/5/1 218/6/1 219/7/1 220/8/1
f 221/61/1 222/62/1 223/63/1 224/64/1
f 225/65/1 226/66/1 227/67/1 228/68/1
f 229/65/1 230/66/1 231/67/1 232/68/1
f 233/65/1 234/66/1 235/67/1 236/68/1
f 237/65/1 238/66/1 239/67/1 240/68/1
f 241/65/1 242/66/1 243/67/1 244/68/1
f 245/65/1 246/66/1 247/67/1 248/68/1
f 249/69/1 250/70/1 251/71/1 252/72/1
f 253/33/1 254/34/1 255/35/1 256/36/1
f 257/77/1 258/78/1 259/79/1 260/80/1
f 261/37/1 262/38/1 263/39/1 264/40/1
f 265/81/1 266/82/1 267/83/1 268/84/1
f 269/85/1 270/86/1 271/87/1 272/88/1
f 273/85/1 274/86/1 275/87/1 276/88/1
f 277/85/1 278/86/1 279/87/1 280/88/1
f 281/85/1 282/86/1 283/87/1 284/88/1
f 285/85/1 286/86/1 287/87/1 288/88/1
f 289/85/1 290/86/1 291/87/1 292/88/1
f 293/89/1 294/90/1 295/91/1 296/92/1

