# Tiled2Unity generated file. Do not modify by hand.
# Wavefront file for 'house_top_mesh_0003.obj'

# Vertices (Count = 968)
v -336 -16 0
v -352 -16 0
v -352 0 0
v -336 0 0
v -320 -16 0
v -336 -16 0
v -336 0 0
v -320 0 0
v -304 -16 0
v -320 -16 0
v -320 0 0
v -304 0 0
v -288 -16 0
v -304 -16 0
v -304 0 0
v -288 0 0
v -272 -16 0
v -288 -16 0
v -288 0 0
v -272 0 0
v -256 -16 0
v -272 -16 0
v -272 0 0
v -256 0 0
v -240 -16 0
v -256 -16 0
v -256 0 0
v -240 0 0
v -224 -16 0
v -240 -16 0
v -240 0 0
v -224 0 0
v -208 -16 0
v -224 -16 0
v -224 0 0
v -208 0 0
v -192 -16 0
v -208 -16 0
v -208 0 0
v -192 0 0
v -176 -16 0
v -192 -16 0
v -192 0 0
v -176 0 0
v -160 -16 0
v -176 -16 0
v -176 0 0
v -160 0 0
v -144 -16 0
v -160 -16 0
v -160 0 0
v -144 0 0
v -128 -16 0
v -144 -16 0
v -144 0 0
v -128 0 0
v -112 -16 0
v -128 -16 0
v -128 0 0
v -112 0 0
v -96 -16 0
v -112 -16 0
v -112 0 0
v -96 0 0
v -80 -16 0
v -96 -16 0
v -96 0 0
v -80 0 0
v -64 -16 0
v -80 -16 0
v -80 0 0
v -64 0 0
v -48 -16 0
v -64 -16 0
v -64 0 0
v -48 0 0
v -32 -16 0
v -48 -16 0
v -48 0 0
v -32 0 0
v -16 -16 0
v -32 -16 0
v -32 0 0
v -16 0 0
v 0 -16 0
v -16 -16 0
v -16 0 0
v 0 0 0
v -336 -32 0
v -352 -32 0
v -352 -16 0
v -336 -16 0
v -320 -32 0
v -336 -32 0
v -336 -16 0
v -320 -16 0
v -304 -32 0
v -320 -32 0
v -320 -16 0
v -304 -16 0
v -288 -32 0
v -304 -32 0
v -304 -16 0
v -288 -16 0
v -272 -32 0
v -288 -32 0
v -288 -16 0
v -272 -16 0
v -256 -32 0
v -272 -32 0
v -272 -16 0
v -256 -16 0
v -240 -32 0
v -256 -32 0
v -256 -16 0
v -240 -16 0
v -224 -32 0
v -240 -32 0
v -240 -16 0
v -224 -16 0
v -208 -32 0
v -224 -32 0
v -224 -16 0
v -208 -16 0
v -192 -32 0
v -208 -32 0
v -208 -16 0
v -192 -16 0
v -176 -32 0
v -192 -32 0
v -192 -16 0
v -176 -16 0
v -160 -32 0
v -176 -32 0
v -176 -16 0
v -160 -16 0
v -144 -32 0
v -160 -32 0
v -160 -16 0
v -144 -16 0
v -128 -32 0
v -144 -32 0
v -144 -16 0
v -128 -16 0
v -112 -32 0
v -128 -32 0
v -128 -16 0
v -112 -16 0
v -96 -32 0
v -112 -32 0
v -112 -16 0
v -96 -16 0
v -80 -32 0
v -96 -32 0
v -96 -16 0
v -80 -16 0
v -64 -32 0
v -80 -32 0
v -80 -16 0
v -64 -16 0
v -48 -32 0
v -64 -32 0
v -64 -16 0
v -48 -16 0
v -32 -32 0
v -48 -32 0
v -48 -16 0
v -32 -16 0
v -16 -32 0
v -32 -32 0
v -32 -16 0
v -16 -16 0
v 0 -32 0
v -16 -32 0
v -16 -16 0
v 0 -16 0
v -336 -48 0
v -352 -48 0
v -352 -32 0
v -336 -32 0
v -320 -48 0
v -336 -48 0
v -336 -32 0
v -320 -32 0
v -304 -48 0
v -320 -48 0
v -320 -32 0
v -304 -32 0
v -288 -48 0
v -304 -48 0
v -304 -32 0
v -288 -32 0
v -272 -48 0
v -288 -48 0
v -288 -32 0
v -272 -32 0
v -256 -48 0
v -272 -48 0
v -272 -32 0
v -256 -32 0
v -240 -48 0
v -256 -48 0
v -256 -32 0
v -240 -32 0
v -224 -48 0
v -240 -48 0
v -240 -32 0
v -224 -32 0
v -208 -48 0
v -224 -48 0
v -224 -32 0
v -208 -32 0
v -192 -48 0
v -208 -48 0
v -208 -32 0
v -192 -32 0
v -176 -48 0
v -192 -48 0
v -192 -32 0
v -176 -32 0
v -160 -48 0
v -176 -48 0
v -176 -32 0
v -160 -32 0
v -144 -48 0
v -160 -48 0
v -160 -32 0
v -144 -32 0
v -128 -48 0
v -144 -48 0
v -144 -32 0
v -128 -32 0
v -112 -48 0
v -128 -48 0
v -128 -32 0
v -112 -32 0
v -96 -48 0
v -112 -48 0
v -112 -32 0
v -96 -32 0
v -80 -48 0
v -96 -48 0
v -96 -32 0
v -80 -32 0
v -64 -48 0
v -80 -48 0
v -80 -32 0
v -64 -32 0
v -48 -48 0
v -64 -48 0
v -64 -32 0
v -48 -32 0
v -32 -48 0
v -48 -48 0
v -48 -32 0
v -32 -32 0
v -16 -48 0
v -32 -48 0
v -32 -32 0
v -16 -32 0
v 0 -48 0
v -16 -48 0
v -16 -32 0
v 0 -32 0
v -336 -64 0
v -352 -64 0
v -352 -48 0
v -336 -48 0
v -224 -64 0
v -240 -64 0
v -240 -48 0
v -224 -48 0
v -112 -64 0
v -128 -64 0
v -128 -48 0
v -112 -48 0
v 0 -64 0
v -16 -64 0
v -16 -48 0
v 0 -48 0
v -336 -80 0
v -352 -80 0
v -352 -64 0
v -336 -64 0
v -224 -80 0
v -240 -80 0
v -240 -64 0
v -224 -64 0
v -112 -80 0
v -128 -80 0
v -128 -64 0
v -112 -64 0
v 0 -80 0
v -16 -80 0
v -16 -64 0
v 0 -64 0
v -336 -96 0
v -352 -96 0
v -352 -80 0
v -336 -80 0
v -224 -96 0
v -240 -96 0
v -240 -80 0
v -224 -80 0
v -112 -96 0
v -128 -96 0
v -128 -80 0
v -112 -80 0
v 0 -96 0
v -16 -96 0
v -16 -80 0
v 0 -80 0
v -336 -112 0
v -352 -112 0
v -352 -96 0
v -336 -96 0
v -320 -112 0
v -336 -112 0
v -336 -96 0
v -320 -96 0
v -288 -112 0
v -304 -112 0
v -304 -96 0
v -288 -96 0
v -272 -112 0
v -288 -112 0
v -288 -96 0
v -272 -96 0
v -256 -112 0
v -272 -112 0
v -272 -96 0
v -256 -96 0
v -240 -112 0
v -256 -112 0
v -256 -96 0
v -240 -96 0
v -224 -112 0
v -240 -112 0
v -240 -96 0
v -224 -96 0
v -208 -112 0
v -224 -112 0
v -224 -96 0
v -208 -96 0
v -192 -112 0
v -208 -112 0
v -208 -96 0
v -192 -96 0
v -176 -112 0
v -192 -112 0
v -192 -96 0
v -176 -96 0
v -160 -112 0
v -176 -112 0
v -176 -96 0
v -160 -96 0
v -128 -112 0
v -144 -112 0
v -144 -96 0
v -128 -96 0
v -112 -112 0
v -128 -112 0
v -128 -96 0
v -112 -96 0
v 0 -112 0
v -16 -112 0
v -16 -96 0
v 0 -96 0
v -336 -128 0
v -352 -128 0
v -352 -112 0
v -336 -112 0
v -320 -128 0
v -336 -128 0
v -336 -112 0
v -320 -112 0
v -288 -128 0
v -304 -128 0
v -304 -112 0
v -288 -112 0
v -272 -128 0
v -288 -128 0
v -288 -112 0
v -272 -112 0
v -256 -128 0
v -272 -128 0
v -272 -112 0
v -256 -112 0
v -240 -128 0
v -256 -128 0
v -256 -112 0
v -240 -112 0
v -224 -128 0
v -240 -128 0
v -240 -112 0
v -224 -112 0
v -208 -128 0
v -224 -128 0
v -224 -112 0
v -208 -112 0
v -192 -128 0
v -208 -128 0
v -208 -112 0
v -192 -112 0
v -176 -128 0
v -192 -128 0
v -192 -112 0
v -176 -112 0
v -160 -128 0
v -176 -128 0
v -176 -112 0
v -160 -112 0
v -128 -128 0
v -144 -128 0
v -144 -112 0
v -128 -112 0
v -112 -128 0
v -128 -128 0
v -128 -112 0
v -112 -112 0
v 0 -128 0
v -16 -128 0
v -16 -112 0
v 0 -112 0
v -336 -144 0
v -352 -144 0
v -352 -128 0
v -336 -128 0
v -320 -144 0
v -336 -144 0
v -336 -128 0
v -320 -128 0
v -288 -144 0
v -304 -144 0
v -304 -128 0
v -288 -128 0
v -272 -144 0
v -288 -144 0
v -288 -128 0
v -272 -128 0
v -256 -144 0
v -272 -144 0
v -272 -128 0
v -256 -128 0
v -240 -144 0
v -256 -144 0
v -256 -128 0
v -240 -128 0
v -224 -144 0
v -240 -144 0
v -240 -128 0
v -224 -128 0
v -208 -144 0
v -224 -144 0
v -224 -128 0
v -208 -128 0
v -192 -144 0
v -208 -144 0
v -208 -128 0
v -192 -128 0
v -176 -144 0
v -192 -144 0
v -192 -128 0
v -176 -128 0
v -160 -144 0
v -176 -144 0
v -176 -128 0
v -160 -128 0
v -128 -144 0
v -144 -144 0
v -144 -128 0
v -128 -128 0
v -112 -144 0
v -128 -144 0
v -128 -128 0
v -112 -128 0
v -64 -144 0
v -80 -144 0
v -80 -128 0
v -64 -128 0
v 0 -144 0
v -16 -144 0
v -16 -128 0
v 0 -128 0
v -336 -160 0
v -352 -160 0
v -352 -144 0
v -336 -144 0
v -64 -160 0
v -80 -160 0
v -80 -144 0
v -64 -144 0
v 0 -160 0
v -16 -160 0
v -16 -144 0
v 0 -144 0
v -336 -176 0
v -352 -176 0
v -352 -160 0
v -336 -160 0
v -64 -176 0
v -80 -176 0
v -80 -160 0
v -64 -160 0
v 0 -176 0
v -16 -176 0
v -16 -160 0
v 0 -160 0
v -336 -192 0
v -352 -192 0
v -352 -176 0
v -336 -176 0
v -320 -192 0
v -336 -192 0
v -336 -176 0
v -320 -176 0
v -288 -192 0
v -304 -192 0
v -304 -176 0
v -288 -176 0
v -272 -192 0
v -288 -192 0
v -288 -176 0
v -272 -176 0
v -256 -192 0
v -272 -192 0
v -272 -176 0
v -256 -176 0
v -240 -192 0
v -256 -192 0
v -256 -176 0
v -240 -176 0
v -64 -192 0
v -80 -192 0
v -80 -176 0
v -64 -176 0
v 0 -192 0
v -16 -192 0
v -16 -176 0
v 0 -176 0
v -336 -208 0
v -352 -208 0
v -352 -192 0
v -336 -192 0
v -320 -208 0
v -336 -208 0
v -336 -192 0
v -320 -192 0
v -288 -208 0
v -304 -208 0
v -304 -192 0
v -288 -192 0
v -272 -208 0
v -288 -208 0
v -288 -192 0
v -272 -192 0
v -256 -208 0
v -272 -208 0
v -272 -192 0
v -256 -192 0
v -240 -208 0
v -256 -208 0
v -256 -192 0
v -240 -192 0
v -64 -208 0
v -80 -208 0
v -80 -192 0
v -64 -192 0
v -48 -208 0
v -64 -208 0
v -64 -192 0
v -48 -192 0
v -32 -208 0
v -48 -208 0
v -48 -192 0
v -32 -192 0
v -16 -208 0
v -32 -208 0
v -32 -192 0
v -16 -192 0
v 0 -208 0
v -16 -208 0
v -16 -192 0
v 0 -192 0
v -336 -224 0
v -352 -224 0
v -352 -208 0
v -336 -208 0
v -320 -224 0
v -336 -224 0
v -336 -208 0
v -320 -208 0
v -288 -224 0
v -304 -224 0
v -304 -208 0
v -288 -208 0
v -272 -224 0
v -288 -224 0
v -288 -208 0
v -272 -208 0
v -256 -224 0
v -272 -224 0
v -272 -208 0
v -256 -208 0
v -240 -224 0
v -256 -224 0
v -256 -208 0
v -240 -208 0
v -64 -224 0
v -80 -224 0
v -80 -208 0
v -64 -208 0
v -48 -224 0
v -64 -224 0
v -64 -208 0
v -48 -208 0
v -32 -224 0
v -48 -224 0
v -48 -208 0
v -32 -208 0
v -16 -224 0
v -32 -224 0
v -32 -208 0
v -16 -208 0
v 0 -224 0
v -16 -224 0
v -16 -208 0
v 0 -208 0
v -336 -240 0
v -352 -240 0
v -352 -224 0
v -336 -224 0
v -240 -240 0
v -256 -240 0
v -256 -224 0
v -240 -224 0
v -64 -240 0
v -80 -240 0
v -80 -224 0
v -64 -224 0
v -48 -240 0
v -64 -240 0
v -64 -224 0
v -48 -224 0
v -32 -240 0
v -48 -240 0
v -48 -224 0
v -32 -224 0
v -16 -240 0
v -32 -240 0
v -32 -224 0
v -16 -224 0
v 0 -240 0
v -16 -240 0
v -16 -224 0
v 0 -224 0
v -336 -256 0
v -352 -256 0
v -352 -240 0
v -336 -240 0
v -240 -256 0
v -256 -256 0
v -256 -240 0
v -240 -240 0
v 0 -256 0
v -16 -256 0
v -16 -240 0
v 0 -240 0
v -336 -272 0
v -352 -272 0
v -352 -256 0
v -336 -256 0
v -240 -272 0
v -256 -272 0
v -256 -256 0
v -240 -256 0
v 0 -272 0
v -16 -272 0
v -16 -256 0
v 0 -256 0
v -336 -288 0
v -352 -288 0
v -352 -272 0
v -336 -272 0
v -240 -288 0
v -256 -288 0
v -256 -272 0
v -240 -272 0
v 0 -288 0
v -16 -288 0
v -16 -272 0
v 0 -272 0
v -336 -304 0
v -352 -304 0
v -352 -288 0
v -336 -288 0
v -320 -304 0
v -336 -304 0
v -336 -288 0
v -320 -288 0
v -304 -304 0
v -320 -304 0
v -320 -288 0
v -304 -288 0
v -288 -304 0
v -304 -304 0
v -304 -288 0
v -288 -288 0
v -272 -304 0
v -288 -304 0
v -288 -288 0
v -272 -288 0
v -256 -304 0
v -272 -304 0
v -272 -288 0
v -256 -288 0
v -240 -304 0
v -256 -304 0
v -256 -288 0
v -240 -288 0
v -80 -304 0
v -96 -304 0
v -96 -288 0
v -80 -288 0
v -64 -304 0
v -80 -304 0
v -80 -288 0
v -64 -288 0
v -48 -304 0
v -64 -304 0
v -64 -288 0
v -48 -288 0
v -32 -304 0
v -48 -304 0
v -48 -288 0
v -32 -288 0
v -16 -304 0
v -32 -304 0
v -32 -288 0
v -16 -288 0
v 0 -304 0
v -16 -304 0
v -16 -288 0
v 0 -288 0
v -336 -320 0
v -352 -320 0
v -352 -304 0
v -336 -304 0
v -320 -320 0
v -336 -320 0
v -336 -304 0
v -320 -304 0
v -304 -320 0
v -320 -320 0
v -320 -304 0
v -304 -304 0
v -288 -320 0
v -304 -320 0
v -304 -304 0
v -288 -304 0
v -272 -320 0
v -288 -320 0
v -288 -304 0
v -272 -304 0
v -256 -320 0
v -272 -320 0
v -272 -304 0
v -256 -304 0
v -240 -320 0
v -256 -320 0
v -256 -304 0
v -240 -304 0
v -224 -320 0
v -240 -320 0
v -240 -304 0
v -224 -304 0
v -208 -320 0
v -224 -320 0
v -224 -304 0
v -208 -304 0
v -192 -320 0
v -208 -320 0
v -208 -304 0
v -192 -304 0
v -176 -320 0
v -192 -320 0
v -192 -304 0
v -176 -304 0
v -160 -320 0
v -176 -320 0
v -176 -304 0
v -160 -304 0
v -144 -320 0
v -160 -320 0
v -160 -304 0
v -144 -304 0
v -128 -320 0
v -144 -320 0
v -144 -304 0
v -128 -304 0
v -112 -320 0
v -128 -320 0
v -128 -304 0
v -112 -304 0
v -96 -320 0
v -112 -320 0
v -112 -304 0
v -96 -304 0
v -80 -320 0
v -96 -320 0
v -96 -304 0
v -80 -304 0
v -64 -320 0
v -80 -320 0
v -80 -304 0
v -64 -304 0
v -48 -320 0
v -64 -320 0
v -64 -304 0
v -48 -304 0
v -32 -320 0
v -48 -320 0
v -48 -304 0
v -32 -304 0
v -16 -320 0
v -32 -320 0
v -32 -304 0
v -16 -304 0
v 0 -320 0
v -16 -320 0
v -16 -304 0
v 0 -304 0
v -336 -336 0
v -352 -336 0
v -352 -320 0
v -336 -320 0
v -320 -336 0
v -336 -336 0
v -336 -320 0
v -320 -320 0
v -304 -336 0
v -320 -336 0
v -320 -320 0
v -304 -320 0
v -288 -336 0
v -304 -336 0
v -304 -320 0
v -288 -320 0
v -272 -336 0
v -288 -336 0
v -288 -320 0
v -272 -320 0
v -256 -336 0
v -272 -336 0
v -272 -320 0
v -256 -320 0
v -240 -336 0
v -256 -336 0
v -256 -320 0
v -240 -320 0
v -224 -336 0
v -240 -336 0
v -240 -320 0
v -224 -320 0
v -208 -336 0
v -224 -336 0
v -224 -320 0
v -208 -320 0
v -192 -336 0
v -208 -336 0
v -208 -320 0
v -192 -320 0
v -176 -336 0
v -192 -336 0
v -192 -320 0
v -176 -320 0
v -160 -336 0
v -176 -336 0
v -176 -320 0
v -160 -320 0
v -144 -336 0
v -160 -336 0
v -160 -320 0
v -144 -320 0
v -128 -336 0
v -144 -336 0
v -144 -320 0
v -128 -320 0
v -112 -336 0
v -128 -336 0
v -128 -320 0
v -112 -320 0
v -96 -336 0
v -112 -336 0
v -112 -320 0
v -96 -320 0
v -80 -336 0
v -96 -336 0
v -96 -320 0
v -80 -320 0
v -64 -336 0
v -80 -336 0
v -80 -320 0
v -64 -320 0
v -48 -336 0
v -64 -336 0
v -64 -320 0
v -48 -320 0
v -32 -336 0
v -48 -336 0
v -48 -320 0
v -32 -320 0
v -16 -336 0
v -32 -336 0
v -32 -320 0
v -16 -320 0
v 0 -336 0
v -16 -336 0
v -16 -320 0
v 0 -320 0
v -256 -352 0
v -272 -352 0
v -272 -336 0
v -256 -336 0
v -240 -352 0
v -256 -352 0
v -256 -336 0
v -240 -336 0
v -224 -352 0
v -240 -352 0
v -240 -336 0
v -224 -336 0
v -208 -352 0
v -224 -352 0
v -224 -336 0
v -208 -336 0
v -192 -352 0
v -208 -352 0
v -208 -336 0
v -192 -336 0
v -176 -352 0
v -192 -352 0
v -192 -336 0
v -176 -336 0
v -160 -352 0
v -176 -352 0
v -176 -336 0
v -160 -336 0
v -144 -352 0
v -160 -352 0
v -160 -336 0
v -144 -336 0
v -128 -352 0
v -144 -352 0
v -144 -336 0
v -128 -336 0
v -112 -352 0
v -128 -352 0
v -128 -336 0
v -112 -336 0
v -96 -352 0
v -112 -352 0
v -112 -336 0
v -96 -336 0
v -80 -352 0
v -96 -352 0
v -96 -336 0
v -80 -336 0

# Texture cooridinates (Count = 84)
vt 0.2985537 0.5817491
vt 0.3150826 0.5817491
vt 0.3150826 0.6121673
vt 0.2985537 0.6121673
vt 0.2458678 0.5817491
vt 0.2623967 0.5817491
vt 0.2623967 0.6121673
vt 0.2458678 0.6121673
vt 0.3336777 0.5494297
vt 0.3502066 0.5494297
vt 0.3502066 0.5798479
vt 0.3336777 0.5798479
vt 0.2809917 0.5817491
vt 0.2975207 0.5817491
vt 0.2975207 0.6121673
vt 0.2809917 0.6121673
vt 0.2634298 0.5494297
vt 0.2799587 0.5494297
vt 0.2799587 0.5798479
vt 0.2634298 0.5798479
vt 0.3336777 0.2908745
vt 0.3502066 0.2908745
vt 0.3502066 0.3212928
vt 0.3336777 0.3212928
vt 0.3161157 0.2908745
vt 0.3326446 0.2908745
vt 0.3326446 0.3212928
vt 0.3161157 0.3212928
vt 0.2985537 0.2908745
vt 0.3150826 0.2908745
vt 0.3150826 0.3212928
vt 0.2985537 0.3212928
vt 0.3336777 0.2262357
vt 0.3502066 0.2262357
vt 0.3502066 0.256654
vt 0.3336777 0.256654
vt 0.3161157 0.2262357
vt 0.3326446 0.2262357
vt 0.3326446 0.256654
vt 0.3161157 0.256654
vt 0.2985537 0.2262357
vt 0.3150826 0.2262357
vt 0.3150826 0.256654
vt 0.2985537 0.256654
vt 0.3161157 0.2585551
vt 0.3326446 0.2585551
vt 0.3326446 0.2889734
vt 0.3161157 0.2889734
vt 0.2985537 0.2585551
vt 0.3150826 0.2585551
vt 0.3150826 0.2889734
vt 0.2985537 0.2889734
vt 0.3161157 0.5494297
vt 0.3326446 0.5494297
vt 0.3326446 0.5798479
vt 0.3161157 0.5798479
vt 0.2283058 0.5817491
vt 0.2448347 0.5817491
vt 0.2448347 0.6121673
vt 0.2283058 0.6121673
vt 0.2634298 0.5817491
vt 0.2799587 0.5817491
vt 0.2799587 0.6121673
vt 0.2634298 0.6121673
vt 0.3336777 0.5817491
vt 0.3502066 0.5817491
vt 0.3502066 0.6121673
vt 0.3336777 0.6121673
vt 0.2809917 0.5494297
vt 0.2975207 0.5494297
vt 0.2975207 0.5798479
vt 0.2809917 0.5798479
vt 0.2283058 0.5494297
vt 0.2448347 0.5494297
vt 0.2448347 0.5798479
vt 0.2283058 0.5798479
vt 0.2985537 0.5494297
vt 0.3150826 0.5494297
vt 0.3150826 0.5798479
vt 0.2985537 0.5798479
vt 0.3161157 0.5817491
vt 0.3326446 0.5817491
vt 0.3326446 0.6121673
vt 0.3161157 0.6121673

# Normal
vn 0 0 -1

# Mesh description
g house_top_mesh_0003

# Faces
f 1/1/1 2/2/1 3/3/1 4/4/1
f 5/5/1 6/6/1 7/7/1 8/8/1
f 9/5/1 10/6/1 11/7/1 12/8/1
f 13/5/1 14/6/1 15/7/1 16/8/1
f 17/5/1 18/6/1 19/7/1 20/8/1
f 21/5/1 22/6/1 23/7/1 24/8/1
f 25/5/1 26/6/1 27/7/1 28/8/1
f 29/9/1 30/10/1 31/11/1 32/12/1
f 33/5/1 34/6/1 35/7/1 36/8/1
f 37/5/1 38/6/1 39/7/1 40/8/1
f 41/5/1 42/6/1 43/7/1 44/8/1
f 45/5/1 46/6/1 47/7/1 48/8/1
f 49/5/1 50/6/1 51/7/1 52/8/1
f 53/5/1 54/6/1 55/7/1 56/8/1
f 57/9/1 58/10/1 59/11/1 60/12/1
f 61/5/1 62/6/1 63/7/1 64/8/1
f 65/5/1 66/6/1 67/7/1 68/8/1
f 69/5/1 70/6/1 71/7/1 72/8/1
f 73/5/1 74/6/1 75/7/1 76/8/1
f 77/5/1 78/6/1 79/7/1 80/8/1
f 81/5/1 82/6/1 83/7/1 84/8/1
f 85/13/1 86/14/1 87/15/1 88/16/1
f 89/17/1 90/18/1 91/19/1 92/20/1
f 93/21/1 94/22/1 95/23/1 96/24/1
f 97/25/1 98/26/1 99/27/1 100/28/1
f 101/25/1 102/26/1 103/27/1 104/28/1
f 105/25/1 106/26/1 107/27/1 108/28/1
f 109/25/1 110/26/1 111/27/1 112/28/1
f 113/29/1 114/30/1 115/31/1 116/32/1
f 117/17/1 118/18/1 119/19/1 120/20/1
f 121/25/1 122/26/1 123/27/1 124/28/1
f 125/25/1 126/26/1 127/27/1 128/28/1
f 129/25/1 130/26/1 131/27/1 132/28/1
f 133/25/1 134/26/1 135/27/1 136/28/1
f 137/25/1 138/26/1 139/27/1 140/28/1
f 141/25/1 142/26/1 143/27/1 144/28/1
f 145/17/1 146/18/1 147/19/1 148/20/1
f 149/25/1 150/26/1 151/27/1 152/28/1
f 153/25/1 154/26/1 155/27/1 156/28/1
f 157/25/1 158/26/1 159/27/1 160/28/1
f 161/25/1 162/26/1 163/27/1 164/28/1
f 165/25/1 166/26/1 167/27/1 168/28/1
f 169/29/1 170/30/1 171/31/1 172/32/1
f 173/17/1 174/18/1 175/19/1 176/20/1
f 177/17/1 178/18/1 179/19/1 180/20/1
f 181/33/1 182/34/1 183/35/1 184/36/1
f 185/37/1 186/38/1 187/39/1 188/40/1
f 189/37/1 190/38/1 191/39/1 192/40/1
f 193/37/1 194/38/1 195/39/1 196/40/1
f 197/37/1 198/38/1 199/39/1 200/40/1
f 201/41/1 202/42/1 203/43/1 204/44/1
f 205/17/1 206/18/1 207/19/1 208/20/1
f 209/45/1 210/46/1 211/47/1 212/48/1
f 213/45/1 214/46/1 215/47/1 216/48/1
f 217/45/1 218/46/1 219/47/1 220/48/1
f 221/45/1 222/46/1 223/47/1 224/48/1
f 225/45/1 226/46/1 227/47/1 228/48/1
f 229/45/1 230/46/1 231/47/1 232/48/1
f 233/17/1 234/18/1 235/19/1 236/20/1
f 237/45/1 238/46/1 239/47/1 240/48/1
f 241/45/1 242/46/1 243/47/1 244/48/1
f 245/45/1 246/46/1 247/47/1 248/48/1
f 249/45/1 250/46/1 251/47/1 252/48/1
f 253/45/1 254/46/1 255/47/1 256/48/1
f 257/49/1 258/50/1 259/51/1 260/52/1
f 261/17/1 262/18/1 263/19/1 264/20/1
f 265/17/1 266/18/1 267/19/1 268/20/1
f 269/17/1 270/18/1 271/19/1 272/20/1
f 273/17/1 274/18/1 275/19/1 276/20/1
f 277/17/1 278/18/1 279/19/1 280/20/1
f 281/17/1 282/18/1 283/19/1 284/20/1
f 285/17/1 286/18/1 287/19/1 288/20/1
f 289/17/1 290/18/1 291/19/1 292/20/1
f 293/17/1 294/18/1 295/19/1 296/20/1
f 297/17/1 298/18/1 299/19/1 300/20/1
f 301/17/1 302/18/1 303/19/1 304/20/1
f 305/17/1 306/18/1 307/19/1 308/20/1
f 309/17/1 310/18/1 311/19/1 312/20/1
f 313/53/1 314/54/1 315/55/1 316/56/1
f 317/57/1 318/58/1 319/59/1 320/60/1
f 321/61/1 322/62/1 323/63/1 324/64/1
f 325/5/1 326/6/1 327/7/1 328/8/1
f 329/5/1 330/6/1 331/7/1 332/8/1
f 333/5/1 334/6/1 335/7/1 336/8/1
f 337/65/1 338/66/1 339/67/1 340/68/1
f 341/5/1 342/6/1 343/7/1 344/8/1
f 345/5/1 346/6/1 347/7/1 348/8/1
f 349/5/1 350/6/1 351/7/1 352/8/1
f 353/57/1 354/58/1 355/59/1 356/60/1
f 357/61/1 358/62/1 359/63/1 360/64/1
f 361/69/1 362/70/1 363/71/1 364/72/1
f 365/17/1 366/18/1 367/19/1 368/20/1
f 369/17/1 370/18/1 371/19/1 372/20/1
f 373/29/1 374/30/1 375/31/1 376/32/1
f 377/21/1 378/22/1 379/23/1 380/24/1
f 381/25/1 382/26/1 383/27/1 384/28/1
f 385/25/1 386/26/1 387/27/1 388/28/1
f 389/25/1 390/26/1 391/27/1 392/28/1
f 393/25/1 394/26/1 395/27/1 396/28/1
f 397/25/1 398/26/1 399/27/1 400/28/1
f 401/25/1 402/26/1 403/27/1 404/28/1
f 405/25/1 406/26/1 407/27/1 408/28/1
f 409/29/1 410/30/1 411/31/1 412/32/1
f 413/21/1 414/22/1 415/23/1 416/24/1
f 417/29/1 418/30/1 419/31/1 420/32/1
f 421/17/1 422/18/1 423/19/1 424/20/1
f 425/17/1 426/18/1 427/19/1 428/20/1
f 429/41/1 430/42/1 431/43/1 432/44/1
f 433/33/1 434/34/1 435/35/1 436/36/1
f 437/37/1 438/38/1 439/39/1 440/40/1
f 441/37/1 442/38/1 443/39/1 444/40/1
f 445/37/1 446/38/1 447/39/1 448/40/1
f 449/37/1 450/38/1 451/39/1 452/40/1
f 453/37/1 454/38/1 455/39/1 456/40/1
f 457/37/1 458/38/1 459/39/1 460/40/1
f 461/37/1 462/38/1 463/39/1 464/40/1
f 465/41/1 466/42/1 467/43/1 468/44/1
f 469/33/1 470/34/1 471/35/1 472/36/1
f 473/41/1 474/42/1 475/43/1 476/44/1
f 477/73/1 478/74/1 479/75/1 480/76/1
f 481/17/1 482/18/1 483/19/1 484/20/1
f 485/17/1 486/18/1 487/19/1 488/20/1
f 489/17/1 490/18/1 491/19/1 492/20/1
f 493/17/1 494/18/1 495/19/1 496/20/1
f 497/17/1 498/18/1 499/19/1 500/20/1
f 501/17/1 502/18/1 503/19/1 504/20/1
f 505/17/1 506/18/1 507/19/1 508/20/1
f 509/53/1 510/54/1 511/55/1 512/56/1
f 513/57/1 514/58/1 515/59/1 516/60/1
f 517/61/1 518/62/1 519/63/1 520/64/1
f 521/5/1 522/6/1 523/7/1 524/8/1
f 525/5/1 526/6/1 527/7/1 528/8/1
f 529/13/1 530/14/1 531/15/1 532/16/1
f 533/17/1 534/18/1 535/19/1 536/20/1
f 537/17/1 538/18/1 539/19/1 540/20/1
f 541/17/1 542/18/1 543/19/1 544/20/1
f 545/29/1 546/30/1 547/31/1 548/32/1
f 549/21/1 550/22/1 551/23/1 552/24/1
f 553/25/1 554/26/1 555/27/1 556/28/1
f 557/25/1 558/26/1 559/27/1 560/28/1
f 561/17/1 562/18/1 563/19/1 564/20/1
f 565/77/1 566/78/1 567/79/1 568/80/1
f 569/5/1 570/6/1 571/7/1 572/8/1
f 573/5/1 574/6/1 575/7/1 576/8/1
f 577/5/1 578/6/1 579/7/1 580/8/1
f 581/17/1 582/18/1 583/19/1 584/20/1
f 585/17/1 586/18/1 587/19/1 588/20/1
f 589/41/1 590/42/1 591/43/1 592/44/1
f 593/33/1 594/34/1 595/35/1 596/36/1
f 597/37/1 598/38/1 599/39/1 600/40/1
f 601/37/1 602/38/1 603/39/1 604/40/1
f 605/17/1 606/18/1 607/19/1 608/20/1
f 609/21/1 610/22/1 611/23/1 612/24/1
f 613/25/1 614/26/1 615/27/1 616/28/1
f 617/25/1 618/26/1 619/27/1 620/28/1
f 621/29/1 622/30/1 623/31/1 624/32/1
f 625/17/1 626/18/1 627/19/1 628/20/1
f 629/17/1 630/18/1 631/19/1 632/20/1
f 633/17/1 634/18/1 635/19/1 636/20/1
f 637/33/1 638/34/1 639/35/1 640/36/1
f 641/37/1 642/38/1 643/39/1 644/40/1
f 645/37/1 646/38/1 647/39/1 648/40/1
f 649/41/1 650/42/1 651/43/1 652/44/1
f 653/17/1 654/18/1 655/19/1 656/20/1
f 657/17/1 658/18/1 659/19/1 660/20/1
f 661/17/1 662/18/1 663/19/1 664/20/1
f 665/17/1 666/18/1 667/19/1 668/20/1
f 669/17/1 670/18/1 671/19/1 672/20/1
f 673/17/1 674/18/1 675/19/1 676/20/1
f 677/17/1 678/18/1 679/19/1 680/20/1
f 681/17/1 682/18/1 683/19/1 684/20/1
f 685/17/1 686/18/1 687/19/1 688/20/1
f 689/17/1 690/18/1 691/19/1 692/20/1
f 693/77/1 694/78/1 695/79/1 696/80/1
f 697/5/1 698/6/1 699/7/1 700/8/1
f 701/5/1 702/6/1 703/7/1 704/8/1
f 705/5/1 706/6/1 707/7/1 708/8/1
f 709/5/1 710/6/1 711/7/1 712/8/1
f 713/9/1 714/10/1 715/11/1 716/12/1
f 717/81/1 718/82/1 719/83/1 720/84/1
f 721/1/1 722/2/1 723/3/1 724/4/1
f 725/5/1 726/6/1 727/7/1 728/8/1
f 729/5/1 730/6/1 731/7/1 732/8/1
f 733/5/1 734/6/1 735/7/1 736/8/1
f 737/5/1 738/6/1 739/7/1 740/8/1
f 741/69/1 742/70/1 743/71/1 744/72/1
f 745/21/1 746/22/1 747/23/1 748/24/1
f 749/25/1 750/26/1 751/27/1 752/28/1
f 753/25/1 754/26/1 755/27/1 756/28/1
f 757/25/1 758/26/1 759/27/1 760/28/1
f 761/29/1 762/30/1 763/31/1 764/32/1
f 765/77/1 766/78/1 767/79/1 768/80/1
f 769/65/1 770/66/1 771/67/1 772/68/1
f 773/5/1 774/6/1 775/7/1 776/8/1
f 777/5/1 778/6/1 779/7/1 780/8/1
f 781/5/1 782/6/1 783/7/1 784/8/1
f 785/5/1 786/6/1 787/7/1 788/8/1
f 789/5/1 790/6/1 791/7/1 792/8/1
f 793/5/1 794/6/1 795/7/1 796/8/1
f 797/5/1 798/6/1 799/7/1 800/8/1
f 801/5/1 802/6/1 803/7/1 804/8/1
f 805/5/1 806/6/1 807/7/1 808/8/1
f 809/69/1 810/70/1 811/71/1 812/72/1
f 813/21/1 814/22/1 815/23/1 816/24/1
f 817/25/1 818/26/1 819/27/1 820/28/1
f 821/25/1 822/26/1 823/27/1 824/28/1
f 825/25/1 826/26/1 827/27/1 828/28/1
f 829/29/1 830/30/1 831/31/1 832/32/1
f 833/33/1 834/34/1 835/35/1 836/36/1
f 837/37/1 838/38/1 839/39/1 840/40/1
f 841/37/1 842/38/1 843/39/1 844/40/1
f 845/37/1 846/38/1 847/39/1 848/40/1
f 849/41/1 850/42/1 851/43/1 852/44/1
f 853/21/1 854/22/1 855/23/1 856/24/1
f 857/25/1 858/26/1 859/27/1 860/28/1
f 861/25/1 862/26/1 863/27/1 864/28/1
f 865/25/1 866/26/1 867/27/1 868/28/1
f 869/25/1 870/26/1 871/27/1 872/28/1
f 873/25/1 874/26/1 875/27/1 876/28/1
f 877/25/1 878/26/1 879/27/1 880/28/1
f 881/25/1 882/26/1 883/27/1 884/28/1
f 885/25/1 886/26/1 887/27/1 888/28/1
f 889/25/1 890/26/1 891/27/1 892/28/1
f 893/25/1 894/26/1 895/27/1 896/28/1
f 897/29/1 898/30/1 899/31/1 900/32/1
f 901/33/1 902/34/1 903/35/1 904/36/1
f 905/37/1 906/38/1 907/39/1 908/40/1
f 909/37/1 910/38/1 911/39/1 912/40/1
f 913/37/1 914/38/1 915/39/1 916/40/1
f 917/41/1 918/42/1 919/43/1 920/44/1
f 921/33/1 922/34/1 923/35/1 924/36/1
f 925/37/1 926/38/1 927/39/1 928/40/1
f 929/37/1 930/38/1 931/39/1 932/40/1
f 933/37/1 934/38/1 935/39/1 936/40/1
f 937/37/1 938/38/1 939/39/1 940/40/1
f 941/37/1 942/38/1 943/39/1 944/40/1
f 945/37/1 946/38/1 947/39/1 948/40/1
f 949/37/1 950/38/1 951/39/1 952/40/1
f 953/37/1 954/38/1 955/39/1 956/40/1
f 957/37/1 958/38/1 959/39/1 960/40/1
f 961/37/1 962/38/1 963/39/1 964/40/1
f 965/41/1 966/42/1 967/43/1 968/44/1

