# Tiled2Unity generated file. Do not modify by hand.
# Wavefront file for 'house_top_mesh_0007.obj'

# Vertices (Count = 32)
v -320 -96 0
v -336 -96 0
v -336 -80 0
v -320 -80 0
v -128 -96 0
v -144 -96 0
v -144 -80 0
v -128 -80 0
v -80 -160 0
v -96 -160 0
v -96 -144 0
v -80 -144 0
v -224 -208 0
v -240 -208 0
v -240 -192 0
v -224 -192 0
v -192 -208 0
v -208 -208 0
v -208 -192 0
v -192 -192 0
v -80 -208 0
v -96 -208 0
v -96 -192 0
v -80 -192 0
v -320 -240 0
v -336 -240 0
v -336 -224 0
v -320 -224 0
v -224 -272 0
v -240 -272 0
v -240 -256 0
v -224 -256 0

# Texture cooridinates (Count = 12)
vt 0.7423581 0.6131147
vt 0.7772925 0.6131147
vt 0.7772925 0.6655738
vt 0.7423581 0.6655738
vt 0.7423581 0.557377
vt 0.7772925 0.557377
vt 0.7772925 0.6098361
vt 0.7423581 0.6098361
vt 0.6310044 0.6131147
vt 0.6659389 0.6131147
vt 0.6659389 0.6655738
vt 0.6310044 0.6655738

# Normal
vn 0 0 -1

# Mesh description
g house_top_mesh_0007

# Faces
f 1/1/1 2/2/1 3/3/1 4/4/1
f 5/5/1 6/6/1 7/7/1 8/8/1
f 9/5/1 10/6/1 11/7/1 12/8/1
f 13/1/1 14/2/1 15/3/1 16/4/1
f 17/9/1 18/10/1 19/11/1 20/12/1
f 21/5/1 22/6/1 23/7/1 24/8/1
f 25/1/1 26/2/1 27/3/1 28/4/1
f 29/1/1 30/2/1 31/3/1 32/4/1

