# Tiled2Unity generated file. Do not modify by hand.
# Wavefront file for 'village_house7_mesh_0005.obj'

# Vertices (Count = 16)
v -32 -112 0
v -48 -112 0
v -48 -96 0
v -32 -96 0
v -16 -112 0
v -32 -112 0
v -32 -96 0
v -16 -96 0
v -160 -144 0
v -176 -144 0
v -176 -128 0
v -160 -128 0
v -96 -144 0
v -112 -144 0
v -112 -128 0
v -96 -128 0

# Texture cooridinates (Count = 12)
vt 0.2458678 0.743346
vt 0.2623967 0.743346
vt 0.2623967 0.7737643
vt 0.2458678 0.7737643
vt 0.2283058 0.743346
vt 0.2448347 0.743346
vt 0.2448347 0.7737643
vt 0.2283058 0.7737643
vt 0.7727273 0.9695817
vt 0.7892562 0.9695817
vt 0.7892562 1
vt 0.7727273 1

# Normal
vn 0 0 -1

# Mesh description
g village_house7_mesh_0005

# Faces
f 1/1/1 2/2/1 3/3/1 4/4/1
f 5/5/1 6/6/1 7/7/1 8/8/1
f 9/9/1 10/10/1 11/11/1 12/12/1
f 13/9/1 14/10/1 15/11/1 16/12/1

