# Tiled2Unity generated file. Do not modify by hand.
# Wavefront file for 'RT_mesh_0002.obj'

# Vertices (Count = 688)
v -304 -16 0
v -320 -16 0
v -320 0 0
v -304 0 0
v -288 -16 0
v -304 -16 0
v -304 0 0
v -288 0 0
v -272 -16 0
v -288 -16 0
v -288 0 0
v -272 0 0
v -256 -16 0
v -272 -16 0
v -272 0 0
v -256 0 0
v -240 -16 0
v -256 -16 0
v -256 0 0
v -240 0 0
v -224 -16 0
v -240 -16 0
v -240 0 0
v -224 0 0
v -80 -16 0
v -96 -16 0
v -96 0 0
v -80 0 0
v -64 -16 0
v -80 -16 0
v -80 0 0
v -64 0 0
v -48 -16 0
v -64 -16 0
v -64 0 0
v -48 0 0
v -32 -16 0
v -48 -16 0
v -48 0 0
v -32 0 0
v -16 -16 0
v -32 -16 0
v -32 0 0
v -16 0 0
v 0 -16 0
v -16 -16 0
v -16 0 0
v 0 0 0
v -304 -32 0
v -320 -32 0
v -320 -16 0
v -304 -16 0
v -288 -32 0
v -304 -32 0
v -304 -16 0
v -288 -16 0
v -272 -32 0
v -288 -32 0
v -288 -16 0
v -272 -16 0
v -256 -32 0
v -272 -32 0
v -272 -16 0
v -256 -16 0
v -240 -32 0
v -256 -32 0
v -256 -16 0
v -240 -16 0
v -224 -32 0
v -240 -32 0
v -240 -16 0
v -224 -16 0
v -80 -32 0
v -96 -32 0
v -96 -16 0
v -80 -16 0
v -64 -32 0
v -80 -32 0
v -80 -16 0
v -64 -16 0
v -48 -32 0
v -64 -32 0
v -64 -16 0
v -48 -16 0
v -32 -32 0
v -48 -32 0
v -48 -16 0
v -32 -16 0
v -16 -32 0
v -32 -32 0
v -32 -16 0
v -16 -16 0
v 0 -32 0
v -16 -32 0
v -16 -16 0
v 0 -16 0
v -304 -48 0
v -320 -48 0
v -320 -32 0
v -304 -32 0
v -288 -48 0
v -304 -48 0
v -304 -32 0
v -288 -32 0
v -272 -48 0
v -288 -48 0
v -288 -32 0
v -272 -32 0
v -256 -48 0
v -272 -48 0
v -272 -32 0
v -256 -32 0
v -240 -48 0
v -256 -48 0
v -256 -32 0
v -240 -32 0
v -224 -48 0
v -240 -48 0
v -240 -32 0
v -224 -32 0
v -80 -48 0
v -96 -48 0
v -96 -32 0
v -80 -32 0
v -64 -48 0
v -80 -48 0
v -80 -32 0
v -64 -32 0
v -48 -48 0
v -64 -48 0
v -64 -32 0
v -48 -32 0
v -32 -48 0
v -48 -48 0
v -48 -32 0
v -32 -32 0
v -16 -48 0
v -32 -48 0
v -32 -32 0
v -16 -32 0
v 0 -48 0
v -16 -48 0
v -16 -32 0
v 0 -32 0
v -304 -64 0
v -320 -64 0
v -320 -48 0
v -304 -48 0
v -288 -64 0
v -304 -64 0
v -304 -48 0
v -288 -48 0
v -272 -64 0
v -288 -64 0
v -288 -48 0
v -272 -48 0
v -256 -64 0
v -272 -64 0
v -272 -48 0
v -256 -48 0
v -240 -64 0
v -256 -64 0
v -256 -48 0
v -240 -48 0
v -64 -64 0
v -80 -64 0
v -80 -48 0
v -64 -48 0
v -48 -64 0
v -64 -64 0
v -64 -48 0
v -48 -48 0
v -32 -64 0
v -48 -64 0
v -48 -48 0
v -32 -48 0
v -16 -64 0
v -32 -64 0
v -32 -48 0
v -16 -48 0
v 0 -64 0
v -16 -64 0
v -16 -48 0
v 0 -48 0
v -304 -80 0
v -320 -80 0
v -320 -64 0
v -304 -64 0
v -288 -80 0
v -304 -80 0
v -304 -64 0
v -288 -64 0
v -272 -80 0
v -288 -80 0
v -288 -64 0
v -272 -64 0
v -256 -80 0
v -272 -80 0
v -272 -64 0
v -256 -64 0
v -64 -80 0
v -80 -80 0
v -80 -64 0
v -64 -64 0
v -48 -80 0
v -64 -80 0
v -64 -64 0
v -48 -64 0
v -32 -80 0
v -48 -80 0
v -48 -64 0
v -32 -64 0
v -16 -80 0
v -32 -80 0
v -32 -64 0
v -16 -64 0
v 0 -80 0
v -16 -80 0
v -16 -64 0
v 0 -64 0
v -48 -96 0
v -64 -96 0
v -64 -80 0
v -48 -80 0
v -32 -96 0
v -48 -96 0
v -48 -80 0
v -32 -80 0
v -16 -96 0
v -32 -96 0
v -32 -80 0
v -16 -80 0
v 0 -96 0
v -16 -96 0
v -16 -80 0
v 0 -80 0
v -32 -112 0
v -48 -112 0
v -48 -96 0
v -32 -96 0
v -16 -112 0
v -32 -112 0
v -32 -96 0
v -16 -96 0
v 0 -112 0
v -16 -112 0
v -16 -96 0
v 0 -96 0
v -32 -128 0
v -48 -128 0
v -48 -112 0
v -32 -112 0
v -16 -128 0
v -32 -128 0
v -32 -112 0
v -16 -112 0
v 0 -128 0
v -16 -128 0
v -16 -112 0
v 0 -112 0
v -32 -144 0
v -48 -144 0
v -48 -128 0
v -32 -128 0
v -16 -144 0
v -32 -144 0
v -32 -128 0
v -16 -128 0
v 0 -144 0
v -16 -144 0
v -16 -128 0
v 0 -128 0
v -32 -160 0
v -48 -160 0
v -48 -144 0
v -32 -144 0
v -16 -160 0
v -32 -160 0
v -32 -144 0
v -16 -144 0
v 0 -160 0
v -16 -160 0
v -16 -144 0
v 0 -144 0
v -32 -176 0
v -48 -176 0
v -48 -160 0
v -32 -160 0
v -16 -176 0
v -32 -176 0
v -32 -160 0
v -16 -160 0
v 0 -176 0
v -16 -176 0
v -16 -160 0
v 0 -160 0
v -32 -192 0
v -48 -192 0
v -48 -176 0
v -32 -176 0
v -16 -192 0
v -32 -192 0
v -32 -176 0
v -16 -176 0
v 0 -192 0
v -16 -192 0
v -16 -176 0
v 0 -176 0
v -32 -208 0
v -48 -208 0
v -48 -192 0
v -32 -192 0
v -16 -208 0
v -32 -208 0
v -32 -192 0
v -16 -192 0
v 0 -208 0
v -16 -208 0
v -16 -192 0
v 0 -192 0
v -48 -224 0
v -64 -224 0
v -64 -208 0
v -48 -208 0
v -32 -224 0
v -48 -224 0
v -48 -208 0
v -32 -208 0
v -16 -224 0
v -32 -224 0
v -32 -208 0
v -16 -208 0
v 0 -224 0
v -16 -224 0
v -16 -208 0
v 0 -208 0
v -48 -240 0
v -64 -240 0
v -64 -224 0
v -48 -224 0
v -32 -240 0
v -48 -240 0
v -48 -224 0
v -32 -224 0
v -16 -240 0
v -32 -240 0
v -32 -224 0
v -16 -224 0
v 0 -240 0
v -16 -240 0
v -16 -224 0
v 0 -224 0
v -304 -256 0
v -320 -256 0
v -320 -240 0
v -304 -240 0
v -288 -256 0
v -304 -256 0
v -304 -240 0
v -288 -240 0
v -272 -256 0
v -288 -256 0
v -288 -240 0
v -272 -240 0
v -256 -256 0
v -272 -256 0
v -272 -240 0
v -256 -240 0
v -80 -256 0
v -96 -256 0
v -96 -240 0
v -80 -240 0
v -64 -256 0
v -80 -256 0
v -80 -240 0
v -64 -240 0
v -48 -256 0
v -64 -256 0
v -64 -240 0
v -48 -240 0
v -32 -256 0
v -48 -256 0
v -48 -240 0
v -32 -240 0
v -16 -256 0
v -32 -256 0
v -32 -240 0
v -16 -240 0
v 0 -256 0
v -16 -256 0
v -16 -240 0
v 0 -240 0
v -304 -272 0
v -320 -272 0
v -320 -256 0
v -304 -256 0
v -288 -272 0
v -304 -272 0
v -304 -256 0
v -288 -256 0
v -272 -272 0
v -288 -272 0
v -288 -256 0
v -272 -256 0
v -256 -272 0
v -272 -272 0
v -272 -256 0
v -256 -256 0
v -240 -272 0
v -256 -272 0
v -256 -256 0
v -240 -256 0
v -128 -272 0
v -144 -272 0
v -144 -256 0
v -128 -256 0
v -112 -272 0
v -128 -272 0
v -128 -256 0
v -112 -256 0
v -96 -272 0
v -112 -272 0
v -112 -256 0
v -96 -256 0
v -80 -272 0
v -96 -272 0
v -96 -256 0
v -80 -256 0
v -64 -272 0
v -80 -272 0
v -80 -256 0
v -64 -256 0
v -48 -272 0
v -64 -272 0
v -64 -256 0
v -48 -256 0
v -32 -272 0
v -48 -272 0
v -48 -256 0
v -32 -256 0
v -16 -272 0
v -32 -272 0
v -32 -256 0
v -16 -256 0
v 0 -272 0
v -16 -272 0
v -16 -256 0
v 0 -256 0
v -304 -288 0
v -320 -288 0
v -320 -272 0
v -304 -272 0
v -288 -288 0
v -304 -288 0
v -304 -272 0
v -288 -272 0
v -272 -288 0
v -288 -288 0
v -288 -272 0
v -272 -272 0
v -256 -288 0
v -272 -288 0
v -272 -272 0
v -256 -272 0
v -240 -288 0
v -256 -288 0
v -256 -272 0
v -240 -272 0
v -224 -288 0
v -240 -288 0
v -240 -272 0
v -224 -272 0
v -208 -288 0
v -224 -288 0
v -224 -272 0
v -208 -272 0
v -192 -288 0
v -208 -288 0
v -208 -272 0
v -192 -272 0
v -176 -288 0
v -192 -288 0
v -192 -272 0
v -176 -272 0
v -160 -288 0
v -176 -288 0
v -176 -272 0
v -160 -272 0
v -144 -288 0
v -160 -288 0
v -160 -272 0
v -144 -272 0
v -128 -288 0
v -144 -288 0
v -144 -272 0
v -128 -272 0
v -112 -288 0
v -128 -288 0
v -128 -272 0
v -112 -272 0
v -96 -288 0
v -112 -288 0
v -112 -272 0
v -96 -272 0
v -80 -288 0
v -96 -288 0
v -96 -272 0
v -80 -272 0
v -64 -288 0
v -80 -288 0
v -80 -272 0
v -64 -272 0
v -48 -288 0
v -64 -288 0
v -64 -272 0
v -48 -272 0
v -32 -288 0
v -48 -288 0
v -48 -272 0
v -32 -272 0
v -16 -288 0
v -32 -288 0
v -32 -272 0
v -16 -272 0
v 0 -288 0
v -16 -288 0
v -16 -272 0
v 0 -272 0
v -304 -304 0
v -320 -304 0
v -320 -288 0
v -304 -288 0
v -288 -304 0
v -304 -304 0
v -304 -288 0
v -288 -288 0
v -272 -304 0
v -288 -304 0
v -288 -288 0
v -272 -288 0
v -256 -304 0
v -272 -304 0
v -272 -288 0
v -256 -288 0
v -240 -304 0
v -256 -304 0
v -256 -288 0
v -240 -288 0
v -224 -304 0
v -240 -304 0
v -240 -288 0
v -224 -288 0
v -208 -304 0
v -224 -304 0
v -224 -288 0
v -208 -288 0
v -192 -304 0
v -208 -304 0
v -208 -288 0
v -192 -288 0
v -176 -304 0
v -192 -304 0
v -192 -288 0
v -176 -288 0
v -160 -304 0
v -176 -304 0
v -176 -288 0
v -160 -288 0
v -144 -304 0
v -160 -304 0
v -160 -288 0
v -144 -288 0
v -128 -304 0
v -144 -304 0
v -144 -288 0
v -128 -288 0
v -112 -304 0
v -128 -304 0
v -128 -288 0
v -112 -288 0
v -96 -304 0
v -112 -304 0
v -112 -288 0
v -96 -288 0
v -80 -304 0
v -96 -304 0
v -96 -288 0
v -80 -288 0
v -64 -304 0
v -80 -304 0
v -80 -288 0
v -64 -288 0
v -48 -304 0
v -64 -304 0
v -64 -288 0
v -48 -288 0
v -32 -304 0
v -48 -304 0
v -48 -288 0
v -32 -288 0
v -16 -304 0
v -32 -304 0
v -32 -288 0
v -16 -288 0
v 0 -304 0
v -16 -304 0
v -16 -288 0
v 0 -288 0
v -304 -320 0
v -320 -320 0
v -320 -304 0
v -304 -304 0
v -288 -320 0
v -304 -320 0
v -304 -304 0
v -288 -304 0
v -272 -320 0
v -288 -320 0
v -288 -304 0
v -272 -304 0
v -256 -320 0
v -272 -320 0
v -272 -304 0
v -256 -304 0
v -240 -320 0
v -256 -320 0
v -256 -304 0
v -240 -304 0
v -224 -320 0
v -240 -320 0
v -240 -304 0
v -224 -304 0
v -208 -320 0
v -224 -320 0
v -224 -304 0
v -208 -304 0
v -192 -320 0
v -208 -320 0
v -208 -304 0
v -192 -304 0
v -176 -320 0
v -192 -320 0
v -192 -304 0
v -176 -304 0
v -160 -320 0
v -176 -320 0
v -176 -304 0
v -160 -304 0
v -144 -320 0
v -160 -320 0
v -160 -304 0
v -144 -304 0
v -128 -320 0
v -144 -320 0
v -144 -304 0
v -128 -304 0
v -112 -320 0
v -128 -320 0
v -128 -304 0
v -112 -304 0
v -96 -320 0
v -112 -320 0
v -112 -304 0
v -96 -304 0
v -80 -320 0
v -96 -320 0
v -96 -304 0
v -80 -304 0
v -64 -320 0
v -80 -320 0
v -80 -304 0
v -64 -304 0
v -48 -320 0
v -64 -320 0
v -64 -304 0
v -48 -304 0
v -32 -320 0
v -48 -320 0
v -48 -304 0
v -32 -304 0
v -16 -320 0
v -32 -320 0
v -32 -304 0
v -16 -304 0
v 0 -320 0
v -16 -320 0
v -16 -304 0
v 0 -304 0

# Texture cooridinates (Count = 48)
vt 0.6310044 0.5016394
vt 0.6659389 0.5016394
vt 0.6659389 0.5540984
vt 0.6310044 0.5540984
vt 0.7052402 0.5016394
vt 0.7401747 0.5016394
vt 0.7401747 0.5540984
vt 0.7052402 0.5540984
vt 0.6681223 0.5016394
vt 0.7030568 0.5016394
vt 0.7030568 0.5540984
vt 0.6681223 0.5540984
vt 0.7423581 0.5016394
vt 0.7772925 0.5016394
vt 0.7772925 0.5540984
vt 0.7423581 0.5540984
vt 0.779476 0.5016394
vt 0.8144105 0.5016394
vt 0.8144105 0.5540984
vt 0.779476 0.5540984
vt 0.7052402 0.4459016
vt 0.7401747 0.4459016
vt 0.7401747 0.4983606
vt 0.7052402 0.4983606
vt 0.6681223 0.4459016
vt 0.7030568 0.4459016
vt 0.7030568 0.4983606
vt 0.6681223 0.4983606
vt 0.7423581 0.4459016
vt 0.7772925 0.4459016
vt 0.7772925 0.4983606
vt 0.7423581 0.4983606
vt 0.7052402 0.390164
vt 0.7401747 0.390164
vt 0.7401747 0.442623
vt 0.7052402 0.442623
vt 0.6681223 0.390164
vt 0.7030568 0.390164
vt 0.7030568 0.442623
vt 0.6681223 0.442623
vt 0.7423581 0.390164
vt 0.7772925 0.390164
vt 0.7772925 0.442623
vt 0.7423581 0.442623
vt 0.6310044 0.4459016
vt 0.6659389 0.4459016
vt 0.6659389 0.4983606
vt 0.6310044 0.4983606

# Normal
vn 0 0 -1

# Mesh description
g RT_mesh_0002

# Faces
f 1/1/1 2/2/1 3/3/1 4/4/1
f 5/5/1 6/6/1 7/7/1 8/8/1
f 9/5/1 10/6/1 11/7/1 12/8/1
f 13/5/1 14/6/1 15/7/1 16/8/1
f 17/5/1 18/6/1 19/7/1 20/8/1
f 21/9/1 22/10/1 23/11/1 24/12/1
f 25/13/1 26/14/1 27/15/1 28/16/1
f 29/5/1 30/6/1 31/7/1 32/8/1
f 33/5/1 34/6/1 35/7/1 36/8/1
f 37/5/1 38/6/1 39/7/1 40/8/1
f 41/5/1 42/6/1 43/7/1 44/8/1
f 45/1/1 46/2/1 47/3/1 48/4/1
f 49/17/1 50/18/1 51/19/1 52/20/1
f 53/21/1 54/22/1 55/23/1 56/24/1
f 57/21/1 58/22/1 59/23/1 60/24/1
f 61/21/1 62/22/1 63/23/1 64/24/1
f 65/21/1 66/22/1 67/23/1 68/24/1
f 69/25/1 70/26/1 71/27/1 72/28/1
f 73/29/1 74/30/1 75/31/1 76/32/1
f 77/21/1 78/22/1 79/23/1 80/24/1
f 81/21/1 82/22/1 83/23/1 84/24/1
f 85/21/1 86/22/1 87/23/1 88/24/1
f 89/21/1 90/22/1 91/23/1 92/24/1
f 93/17/1 94/18/1 95/19/1 96/20/1
f 97/17/1 98/18/1 99/19/1 100/20/1
f 101/21/1 102/22/1 103/23/1 104/24/1
f 105/21/1 106/22/1 107/23/1 108/24/1
f 109/21/1 110/22/1 111/23/1 112/24/1
f 113/33/1 114/34/1 115/35/1 116/36/1
f 117/37/1 118/38/1 119/39/1 120/40/1
f 121/41/1 122/42/1 123/43/1 124/44/1
f 125/33/1 126/34/1 127/35/1 128/36/1
f 129/21/1 130/22/1 131/23/1 132/24/1
f 133/21/1 134/22/1 135/23/1 136/24/1
f 137/21/1 138/22/1 139/23/1 140/24/1
f 141/17/1 142/18/1 143/19/1 144/20/1
f 145/17/1 146/18/1 147/19/1 148/20/1
f 149/21/1 150/22/1 151/23/1 152/24/1
f 153/21/1 154/22/1 155/23/1 156/24/1
f 157/33/1 158/34/1 159/35/1 160/36/1
f 161/37/1 162/38/1 163/39/1 164/40/1
f 165/29/1 166/30/1 167/31/1 168/32/1
f 169/21/1 170/22/1 171/23/1 172/24/1
f 173/21/1 174/22/1 175/23/1 176/24/1
f 177/21/1 178/22/1 179/23/1 180/24/1
f 181/17/1 182/18/1 183/19/1 184/20/1
f 185/45/1 186/46/1 187/47/1 188/48/1
f 189/33/1 190/34/1 191/35/1 192/36/1
f 193/33/1 194/34/1 195/35/1 196/36/1
f 197/37/1 198/38/1 199/39/1 200/40/1
f 201/41/1 202/42/1 203/43/1 204/44/1
f 205/33/1 206/34/1 207/35/1 208/36/1
f 209/21/1 210/22/1 211/23/1 212/24/1
f 213/21/1 214/22/1 215/23/1 216/24/1
f 217/17/1 218/18/1 219/19/1 220/20/1
f 221/41/1 222/42/1 223/43/1 224/44/1
f 225/33/1 226/34/1 227/35/1 228/36/1
f 229/21/1 230/22/1 231/23/1 232/24/1
f 233/17/1 234/18/1 235/19/1 236/20/1
f 237/29/1 238/30/1 239/31/1 240/32/1
f 241/21/1 242/22/1 243/23/1 244/24/1
f 245/17/1 246/18/1 247/19/1 248/20/1
f 249/29/1 250/30/1 251/31/1 252/32/1
f 253/21/1 254/22/1 255/23/1 256/24/1
f 257/17/1 258/18/1 259/19/1 260/20/1
f 261/29/1 262/30/1 263/31/1 264/32/1
f 265/21/1 266/22/1 267/23/1 268/24/1
f 269/17/1 270/18/1 271/19/1 272/20/1
f 273/29/1 274/30/1 275/31/1 276/32/1
f 277/21/1 278/22/1 279/23/1 280/24/1
f 281/17/1 282/18/1 283/19/1 284/20/1
f 285/29/1 286/30/1 287/31/1 288/32/1
f 289/21/1 290/22/1 291/23/1 292/24/1
f 293/17/1 294/18/1 295/19/1 296/20/1
f 297/29/1 298/30/1 299/31/1 300/32/1
f 301/21/1 302/22/1 303/23/1 304/24/1
f 305/17/1 306/18/1 307/19/1 308/20/1
f 309/29/1 310/30/1 311/31/1 312/32/1
f 313/21/1 314/22/1 315/23/1 316/24/1
f 317/17/1 318/18/1 319/19/1 320/20/1
f 321/13/1 322/14/1 323/15/1 324/16/1
f 325/5/1 326/6/1 327/7/1 328/8/1
f 329/21/1 330/22/1 331/23/1 332/24/1
f 333/17/1 334/18/1 335/19/1 336/20/1
f 337/29/1 338/30/1 339/31/1 340/32/1
f 341/21/1 342/22/1 343/23/1 344/24/1
f 345/21/1 346/22/1 347/23/1 348/24/1
f 349/17/1 350/18/1 351/19/1 352/20/1
f 353/1/1 354/2/1 355/3/1 356/4/1
f 357/5/1 358/6/1 359/7/1 360/8/1
f 361/5/1 362/6/1 363/7/1 364/8/1
f 365/9/1 366/10/1 367/11/1 368/12/1
f 369/13/1 370/14/1 371/15/1 372/16/1
f 373/5/1 374/6/1 375/7/1 376/8/1
f 377/5/1 378/6/1 379/7/1 380/8/1
f 381/21/1 382/22/1 383/23/1 384/24/1
f 385/21/1 386/22/1 387/23/1 388/24/1
f 389/17/1 390/18/1 391/19/1 392/20/1
f 393/17/1 394/18/1 395/19/1 396/20/1
f 397/21/1 398/22/1 399/23/1 400/24/1
f 401/21/1 402/22/1 403/23/1 404/24/1
f 405/5/1 406/6/1 407/7/1 408/8/1
f 409/9/1 410/10/1 411/11/1 412/12/1
f 413/13/1 414/14/1 415/15/1 416/16/1
f 417/5/1 418/6/1 419/7/1 420/8/1
f 421/5/1 422/6/1 423/7/1 424/8/1
f 425/5/1 426/6/1 427/7/1 428/8/1
f 429/21/1 430/22/1 431/23/1 432/24/1
f 433/21/1 434/22/1 435/23/1 436/24/1
f 437/21/1 438/22/1 439/23/1 440/24/1
f 441/21/1 442/22/1 443/23/1 444/24/1
f 445/17/1 446/18/1 447/19/1 448/20/1
f 449/17/1 450/18/1 451/19/1 452/20/1
f 453/21/1 454/22/1 455/23/1 456/24/1
f 457/21/1 458/22/1 459/23/1 460/24/1
f 461/21/1 462/22/1 463/23/1 464/24/1
f 465/21/1 466/22/1 467/23/1 468/24/1
f 469/1/1 470/2/1 471/3/1 472/4/1
f 473/1/1 474/2/1 475/3/1 476/4/1
f 477/5/1 478/6/1 479/7/1 480/8/1
f 481/5/1 482/6/1 483/7/1 484/8/1
f 485/1/1 486/2/1 487/3/1 488/4/1
f 489/1/1 490/2/1 491/3/1 492/4/1
f 493/5/1 494/6/1 495/7/1 496/8/1
f 497/21/1 498/22/1 499/23/1 500/24/1
f 501/21/1 502/22/1 503/23/1 504/24/1
f 505/21/1 506/22/1 507/23/1 508/24/1
f 509/21/1 510/22/1 511/23/1 512/24/1
f 513/21/1 514/22/1 515/23/1 516/24/1
f 517/21/1 518/22/1 519/23/1 520/24/1
f 521/21/1 522/22/1 523/23/1 524/24/1
f 525/17/1 526/18/1 527/19/1 528/20/1
f 529/17/1 530/18/1 531/19/1 532/20/1
f 533/21/1 534/22/1 535/23/1 536/24/1
f 537/21/1 538/22/1 539/23/1 540/24/1
f 541/21/1 542/22/1 543/23/1 544/24/1
f 545/21/1 546/22/1 547/23/1 548/24/1
f 549/21/1 550/22/1 551/23/1 552/24/1
f 553/21/1 554/22/1 555/23/1 556/24/1
f 557/21/1 558/22/1 559/23/1 560/24/1
f 561/21/1 562/22/1 563/23/1 564/24/1
f 565/21/1 566/22/1 567/23/1 568/24/1
f 569/21/1 570/22/1 571/23/1 572/24/1
f 573/21/1 574/22/1 575/23/1 576/24/1
f 577/21/1 578/22/1 579/23/1 580/24/1
f 581/21/1 582/22/1 583/23/1 584/24/1
f 585/21/1 586/22/1 587/23/1 588/24/1
f 589/21/1 590/22/1 591/23/1 592/24/1
f 593/21/1 594/22/1 595/23/1 596/24/1
f 597/21/1 598/22/1 599/23/1 600/24/1
f 601/21/1 602/22/1 603/23/1 604/24/1
f 605/17/1 606/18/1 607/19/1 608/20/1
f 609/45/1 610/46/1 611/47/1 612/48/1
f 613/33/1 614/34/1 615/35/1 616/36/1
f 617/33/1 618/34/1 619/35/1 620/36/1
f 621/33/1 622/34/1 623/35/1 624/36/1
f 625/33/1 626/34/1 627/35/1 628/36/1
f 629/33/1 630/34/1 631/35/1 632/36/1
f 633/33/1 634/34/1 635/35/1 636/36/1
f 637/33/1 638/34/1 639/35/1 640/36/1
f 641/33/1 642/34/1 643/35/1 644/36/1
f 645/33/1 646/34/1 647/35/1 648/36/1
f 649/33/1 650/34/1 651/35/1 652/36/1
f 653/33/1 654/34/1 655/35/1 656/36/1
f 657/33/1 658/34/1 659/35/1 660/36/1
f 661/33/1 662/34/1 663/35/1 664/36/1
f 665/33/1 666/34/1 667/35/1 668/36/1
f 669/33/1 670/34/1 671/35/1 672/36/1
f 673/33/1 674/34/1 675/35/1 676/36/1
f 677/33/1 678/34/1 679/35/1 680/36/1
f 681/33/1 682/34/1 683/35/1 684/36/1
f 685/45/1 686/46/1 687/47/1 688/48/1

