# Tiled2Unity generated file. Do not modify by hand.
# Wavefront file for 'village_house_mesh_0003.obj'

# Vertices (Count = 52)
v -176 -48 0
v -192 -48 0
v -192 -32 0
v -176 -32 0
v -96 -96 0
v -112 -96 0
v -112 -80 0
v -96 -80 0
v -80 -96 0
v -96 -96 0
v -96 -80 0
v -80 -80 0
v -64 -96 0
v -80 -96 0
v -80 -80 0
v -64 -80 0
v -48 -96 0
v -64 -96 0
v -64 -80 0
v -48 -80 0
v -96 -112 0
v -112 -112 0
v -112 -96 0
v -96 -96 0
v -80 -112 0
v -96 -112 0
v -96 -96 0
v -80 -96 0
v -64 -112 0
v -80 -112 0
v -80 -96 0
v -64 -96 0
v -48 -112 0
v -64 -112 0
v -64 -96 0
v -48 -96 0
v -96 -128 0
v -112 -128 0
v -112 -112 0
v -96 -112 0
v -80 -128 0
v -96 -128 0
v -96 -112 0
v -80 -112 0
v -64 -128 0
v -80 -128 0
v -80 -112 0
v -64 -112 0
v -48 -128 0
v -64 -128 0
v -64 -112 0
v -48 -112 0

# Texture cooridinates (Count = 40)
vt 0.2283058 0.9695817
vt 0.2448347 0.9695817
vt 0.2448347 1
vt 0.2283058 1
vt 0.2107438 0.3555133
vt 0.2272727 0.3555133
vt 0.2272727 0.3859316
vt 0.2107438 0.3859316
vt 0.1931818 0.3555133
vt 0.2097107 0.3555133
vt 0.2097107 0.3859316
vt 0.1931818 0.3859316
vt 0.1756198 0.3555133
vt 0.1921488 0.3555133
vt 0.1921488 0.3859316
vt 0.1756198 0.3859316
vt 0.2107438 0.3231939
vt 0.2272727 0.3231939
vt 0.2272727 0.3536122
vt 0.2107438 0.3536122
vt 0.1931818 0.3231939
vt 0.2097107 0.3231939
vt 0.2097107 0.3536122
vt 0.1931818 0.3536122
vt 0.1756198 0.3231939
vt 0.1921488 0.3231939
vt 0.1921488 0.3536122
vt 0.1756198 0.3536122
vt 0.2107438 0.2908745
vt 0.2272727 0.2908745
vt 0.2272727 0.3212928
vt 0.2107438 0.3212928
vt 0.1931818 0.2908745
vt 0.2097107 0.2908745
vt 0.2097107 0.3212928
vt 0.1931818 0.3212928
vt 0.1756198 0.2908745
vt 0.1921488 0.2908745
vt 0.1921488 0.3212928
vt 0.1756198 0.3212928

# Normal
vn 0 0 -1

# Mesh description
g village_house_mesh_0003

# Faces
f 1/1/1 2/2/1 3/3/1 4/4/1
f 5/5/1 6/6/1 7/7/1 8/8/1
f 9/9/1 10/10/1 11/11/1 12/12/1
f 13/9/1 14/10/1 15/11/1 16/12/1
f 17/13/1 18/14/1 19/15/1 20/16/1
f 21/17/1 22/18/1 23/19/1 24/20/1
f 25/21/1 26/22/1 27/23/1 28/24/1
f 29/21/1 30/22/1 31/23/1 32/24/1
f 33/25/1 34/26/1 35/27/1 36/28/1
f 37/29/1 38/30/1 39/31/1 40/32/1
f 41/33/1 42/34/1 43/35/1 44/36/1
f 45/33/1 46/34/1 47/35/1 48/36/1
f 49/37/1 50/38/1 51/39/1 52/40/1

