# Tiled2Unity generated file. Do not modify by hand.
# Wavefront file for 'village_house_mesh_0007.obj'

# Vertices (Count = 16)
v -144 -48 0
v -160 -48 0
v -160 -32 0
v -144 -32 0
v -128 -48 0
v -144 -48 0
v -144 -32 0
v -128 -32 0
v -144 -64 0
v -160 -64 0
v -160 -48 0
v -144 -48 0
v -128 -64 0
v -144 -64 0
v -144 -48 0
v -128 -48 0

# Texture cooridinates (Count = 16)
vt 0.1484716 0
vt 0.1834061 0
vt 0.1834061 0.052459
vt 0.1484716 0.052459
vt 0.2598253 0
vt 0.2947598 0
vt 0.2947598 0.052459
vt 0.2598253 0.052459
vt 0.2227074 0
vt 0.2576419 0
vt 0.2576419 0.052459
vt 0.2227074 0.052459
vt 0.1855895 0
vt 0.220524 0
vt 0.220524 0.052459
vt 0.1855895 0.052459

# Normal
vn 0 0 -1

# Mesh description
g village_house_mesh_0007

# Faces
f 1/1/1 2/2/1 3/3/1 4/4/1
f 5/5/1 6/6/1 7/7/1 8/8/1
f 9/9/1 10/10/1 11/11/1 12/12/1
f 13/13/1 14/14/1 15/15/1 16/16/1

