# Tiled2Unity generated file. Do not modify by hand.
# Wavefront file for 'village_house_mesh_0005.obj'

# Vertices (Count = 44)
v -112 -32 0
v -128 -32 0
v -128 -16 0
v -112 -16 0
v -304 -48 0
v -320 -48 0
v -320 -32 0
v -304 -32 0
v -288 -48 0
v -304 -48 0
v -304 -32 0
v -288 -32 0
v -272 -48 0
v -288 -48 0
v -288 -32 0
v -272 -32 0
v -304 -64 0
v -320 -64 0
v -320 -48 0
v -304 -48 0
v -288 -64 0
v -304 -64 0
v -304 -48 0
v -288 -48 0
v -272 -64 0
v -288 -64 0
v -288 -48 0
v -272 -48 0
v -256 -64 0
v -272 -64 0
v -272 -48 0
v -256 -48 0
v -304 -80 0
v -320 -80 0
v -320 -64 0
v -304 -64 0
v -304 -112 0
v -320 -112 0
v -320 -96 0
v -304 -96 0
v -240 -112 0
v -256 -112 0
v -256 -96 0
v -240 -96 0

# Texture cooridinates (Count = 36)
vt 0.4566116 0.7110266
vt 0.4731405 0.7110266
vt 0.4731405 0.7414448
vt 0.4566116 0.7414448
vt 0.5268595 0.8726236
vt 0.5433884 0.8726236
vt 0.5433884 0.9030418
vt 0.5268595 0.9030418
vt 0.4917355 0.8726236
vt 0.5082645 0.8726236
vt 0.5082645 0.9030418
vt 0.4917355 0.9030418
vt 0.5268595 0.8403042
vt 0.5433884 0.8403042
vt 0.5433884 0.8707224
vt 0.5268595 0.8707224
vt 0.4917355 0.8403042
vt 0.5082645 0.8403042
vt 0.5082645 0.8707224
vt 0.4917355 0.8707224
vt 0.4214876 0.8079848
vt 0.4380165 0.8079848
vt 0.4380165 0.838403
vt 0.4214876 0.838403
vt 0.3512397 0.8726236
vt 0.3677686 0.8726236
vt 0.3677686 0.9030418
vt 0.3512397 0.9030418
vt 0.4039256 0.904943
vt 0.4204545 0.904943
vt 0.4204545 0.9353612
vt 0.4039256 0.9353612
vt 0.3863636 0.7756654
vt 0.4028926 0.7756654
vt 0.4028926 0.8060837
vt 0.3863636 0.8060837

# Normal
vn 0 0 -1

# Mesh description
g village_house_mesh_0005

# Faces
f 1/1/1 2/2/1 3/3/1 4/4/1
f 5/5/1 6/6/1 7/7/1 8/8/1
f 9/9/1 10/10/1 11/11/1 12/12/1
f 13/9/1 14/10/1 15/11/1 16/12/1
f 17/13/1 18/14/1 19/15/1 20/16/1
f 21/17/1 22/18/1 23/19/1 24/20/1
f 25/17/1 26/18/1 27/19/1 28/20/1
f 29/21/1 30/22/1 31/23/1 32/24/1
f 33/25/1 34/26/1 35/27/1 36/28/1
f 37/29/1 38/30/1 39/31/1 40/32/1
f 41/33/1 42/34/1 43/35/1 44/36/1

