# Tiled2Unity generated file. Do not modify by hand.
# Wavefront file for 'village_house_mesh_0006.obj'

# Vertices (Count = 76)
v -128 -32 0
v -144 -32 0
v -144 -16 0
v -128 -16 0
v -48 -32 0
v -64 -32 0
v -64 -16 0
v -48 -16 0
v -112 -48 0
v -128 -48 0
v -128 -32 0
v -112 -32 0
v -96 -48 0
v -112 -48 0
v -112 -32 0
v -96 -32 0
v -80 -48 0
v -96 -48 0
v -96 -32 0
v -80 -32 0
v -192 -64 0
v -208 -64 0
v -208 -48 0
v -192 -48 0
v -112 -64 0
v -128 -64 0
v -128 -48 0
v -112 -48 0
v -96 -64 0
v -112 -64 0
v -112 -48 0
v -96 -48 0
v -80 -64 0
v -96 -64 0
v -96 -48 0
v -80 -48 0
v -64 -64 0
v -80 -64 0
v -80 -48 0
v -64 -48 0
v -48 -64 0
v -64 -64 0
v -64 -48 0
v -48 -48 0
v -192 -128 0
v -208 -128 0
v -208 -112 0
v -192 -112 0
v -256 -144 0
v -272 -144 0
v -272 -128 0
v -256 -128 0
v -192 -144 0
v -208 -144 0
v -208 -128 0
v -192 -128 0
v -176 -144 0
v -192 -144 0
v -192 -128 0
v -176 -128 0
v -160 -144 0
v -176 -144 0
v -176 -128 0
v -160 -128 0
v -144 -144 0
v -160 -144 0
v -160 -128 0
v -144 -128 0
v -160 -176 0
v -176 -176 0
v -176 -160 0
v -160 -160 0
v -48 -176 0
v -64 -176 0
v -64 -160 0
v -48 -160 0

# Texture cooridinates (Count = 44)
vt 0.7376033 0.9695817
vt 0.7541322 0.9695817
vt 0.7541322 1
vt 0.7376033 1
vt 0.8605372 0.5171102
vt 0.8770661 0.5171102
vt 0.8770661 0.5475285
vt 0.8605372 0.5475285
vt 0.8429752 0.5171102
vt 0.8595041 0.5171102
vt 0.8595041 0.5475285
vt 0.8429752 0.5475285
vt 0.8078513 0.5817491
vt 0.8243802 0.5817491
vt 0.8243802 0.6121673
vt 0.8078513 0.6121673
vt 0.9307851 0.2585551
vt 0.947314 0.2585551
vt 0.947314 0.2889734
vt 0.9307851 0.2889734
vt 0.8605372 0.5817491
vt 0.8770661 0.5817491
vt 0.8770661 0.6121673
vt 0.8605372 0.6121673
vt 0.8429752 0.5817491
vt 0.8595041 0.5817491
vt 0.8595041 0.6121673
vt 0.8429752 0.6121673
vt 0.8078513 0.5171102
vt 0.8243802 0.5171102
vt 0.8243802 0.5475285
vt 0.8078513 0.5475285
vt 0.4741735 0.904943
vt 0.4907025 0.904943
vt 0.4907025 0.9353612
vt 0.4741735 0.9353612
vt 0.4390496 0.904943
vt 0.4555785 0.904943
vt 0.4555785 0.9353612
vt 0.4390496 0.9353612
vt 0.6146694 0.6140684
vt 0.6311983 0.6140684
vt 0.6311983 0.6444867
vt 0.6146694 0.6444867

# Normal
vn 0 0 -1

# Mesh description
g village_house_mesh_0006

# Faces
f 1/1/1 2/2/1 3/3/1 4/4/1
f 5/1/1 6/2/1 7/3/1 8/4/1
f 9/5/1 10/6/1 11/7/1 12/8/1
f 13/9/1 14/10/1 15/11/1 16/12/1
f 17/13/1 18/14/1 19/15/1 20/16/1
f 21/17/1 22/18/1 23/19/1 24/20/1
f 25/21/1 26/22/1 27/23/1 28/24/1
f 29/25/1 30/26/1 31/27/1 32/28/1
f 33/29/1 34/30/1 35/31/1 36/32/1
f 37/33/1 38/34/1 39/35/1 40/36/1
f 41/37/1 42/38/1 43/39/1 44/40/1
f 45/41/1 46/42/1 47/43/1 48/44/1
f 49/1/1 50/2/1 51/3/1 52/4/1
f 53/41/1 54/42/1 55/43/1 56/44/1
f 57/41/1 58/42/1 59/43/1 60/44/1
f 61/41/1 62/42/1 63/43/1 64/44/1
f 65/41/1 66/42/1 67/43/1 68/44/1
f 69/1/1 70/2/1 71/3/1 72/4/1
f 73/1/1 74/2/1 75/3/1 76/4/1

