# Tiled2Unity generated file. Do not modify by hand.
# Wavefront file for 'village_mesh_0015.obj'

# Vertices (Count = 448)
v -160 -320 0
v -176 -320 0
v -176 -304 0
v -160 -304 0
v -144 -320 0
v -160 -320 0
v -160 -304 0
v -144 -304 0
v -128 -320 0
v -144 -320 0
v -144 -304 0
v -128 -304 0
v -240 -336 0
v -256 -336 0
v -256 -320 0
v -240 -320 0
v -224 -336 0
v -240 -336 0
v -240 -320 0
v -224 -320 0
v -208 -336 0
v -224 -336 0
v -224 -320 0
v -208 -320 0
v -160 -336 0
v -176 -336 0
v -176 -320 0
v -160 -320 0
v -144 -336 0
v -160 -336 0
v -160 -320 0
v -144 -320 0
v -128 -336 0
v -144 -336 0
v -144 -320 0
v -128 -320 0
v -240 -352 0
v -256 -352 0
v -256 -336 0
v -240 -336 0
v -224 -352 0
v -240 -352 0
v -240 -336 0
v -224 -336 0
v -208 -352 0
v -224 -352 0
v -224 -336 0
v -208 -336 0
v -160 -352 0
v -176 -352 0
v -176 -336 0
v -160 -336 0
v -144 -352 0
v -160 -352 0
v -160 -336 0
v -144 -336 0
v -128 -352 0
v -144 -352 0
v -144 -336 0
v -128 -336 0
v -256 -368 0
v -272 -368 0
v -272 -352 0
v -256 -352 0
v -240 -368 0
v -256 -368 0
v -256 -352 0
v -240 -352 0
v -224 -368 0
v -240 -368 0
v -240 -352 0
v -224 -352 0
v -208 -368 0
v -224 -368 0
v -224 -352 0
v -208 -352 0
v -192 -368 0
v -208 -368 0
v -208 -352 0
v -192 -352 0
v -176 -368 0
v -192 -368 0
v -192 -352 0
v -176 -352 0
v -160 -368 0
v -176 -368 0
v -176 -352 0
v -160 -352 0
v -144 -368 0
v -160 -368 0
v -160 -352 0
v -144 -352 0
v -128 -368 0
v -144 -368 0
v -144 -352 0
v -128 -352 0
v -112 -368 0
v -128 -368 0
v -128 -352 0
v -112 -352 0
v -256 -384 0
v -272 -384 0
v -272 -368 0
v -256 -368 0
v -240 -384 0
v -256 -384 0
v -256 -368 0
v -240 -368 0
v -224 -384 0
v -240 -384 0
v -240 -368 0
v -224 -368 0
v -192 -384 0
v -208 -384 0
v -208 -368 0
v -192 -368 0
v -176 -384 0
v -192 -384 0
v -192 -368 0
v -176 -368 0
v -160 -384 0
v -176 -384 0
v -176 -368 0
v -160 -368 0
v -144 -384 0
v -160 -384 0
v -160 -368 0
v -144 -368 0
v -128 -384 0
v -144 -384 0
v -144 -368 0
v -128 -368 0
v -112 -384 0
v -128 -384 0
v -128 -368 0
v -112 -368 0
v -256 -400 0
v -272 -400 0
v -272 -384 0
v -256 -384 0
v -240 -400 0
v -256 -400 0
v -256 -384 0
v -240 -384 0
v -224 -400 0
v -240 -400 0
v -240 -384 0
v -224 -384 0
v -192 -400 0
v -208 -400 0
v -208 -384 0
v -192 -384 0
v -176 -400 0
v -192 -400 0
v -192 -384 0
v -176 -384 0
v -160 -400 0
v -176 -400 0
v -176 -384 0
v -160 -384 0
v -144 -400 0
v -160 -400 0
v -160 -384 0
v -144 -384 0
v -128 -400 0
v -144 -400 0
v -144 -384 0
v -128 -384 0
v -112 -400 0
v -128 -400 0
v -128 -384 0
v -112 -384 0
v -304 -416 0
v -320 -416 0
v -320 -400 0
v -304 -400 0
v -288 -416 0
v -304 -416 0
v -304 -400 0
v -288 -400 0
v -272 -416 0
v -288 -416 0
v -288 -400 0
v -272 -400 0
v -256 -416 0
v -272 -416 0
v -272 -400 0
v -256 -400 0
v -240 -416 0
v -256 -416 0
v -256 -400 0
v -240 -400 0
v -224 -416 0
v -240 -416 0
v -240 -400 0
v -224 -400 0
v -208 -416 0
v -224 -416 0
v -224 -400 0
v -208 -400 0
v -192 -416 0
v -208 -416 0
v -208 -400 0
v -192 -400 0
v -176 -416 0
v -192 -416 0
v -192 -400 0
v -176 -400 0
v -160 -416 0
v -176 -416 0
v -176 -400 0
v -160 -400 0
v -144 -416 0
v -160 -416 0
v -160 -400 0
v -144 -400 0
v -128 -416 0
v -144 -416 0
v -144 -400 0
v -128 -400 0
v -112 -416 0
v -128 -416 0
v -128 -400 0
v -112 -400 0
v -304 -432 0
v -320 -432 0
v -320 -416 0
v -304 -416 0
v -288 -432 0
v -304 -432 0
v -304 -416 0
v -288 -416 0
v -272 -432 0
v -288 -432 0
v -288 -416 0
v -272 -416 0
v -208 -432 0
v -224 -432 0
v -224 -416 0
v -208 -416 0
v -192 -432 0
v -208 -432 0
v -208 -416 0
v -192 -416 0
v -176 -432 0
v -192 -432 0
v -192 -416 0
v -176 -416 0
v -160 -432 0
v -176 -432 0
v -176 -416 0
v -160 -416 0
v -144 -432 0
v -160 -432 0
v -160 -416 0
v -144 -416 0
v -128 -432 0
v -144 -432 0
v -144 -416 0
v -128 -416 0
v -304 -448 0
v -320 -448 0
v -320 -432 0
v -304 -432 0
v -288 -448 0
v -304 -448 0
v -304 -432 0
v -288 -432 0
v -272 -448 0
v -288 -448 0
v -288 -432 0
v -272 -432 0
v -256 -448 0
v -272 -448 0
v -272 -432 0
v -256 -432 0
v -240 -448 0
v -256 -448 0
v -256 -432 0
v -240 -432 0
v -224 -448 0
v -240 -448 0
v -240 -432 0
v -224 -432 0
v -208 -448 0
v -224 -448 0
v -224 -432 0
v -208 -432 0
v -192 -448 0
v -208 -448 0
v -208 -432 0
v -192 -432 0
v -176 -448 0
v -192 -448 0
v -192 -432 0
v -176 -432 0
v -160 -448 0
v -176 -448 0
v -176 -432 0
v -160 -432 0
v -144 -448 0
v -160 -448 0
v -160 -432 0
v -144 -432 0
v -128 -448 0
v -144 -448 0
v -144 -432 0
v -128 -432 0
v -256 -464 0
v -272 -464 0
v -272 -448 0
v -256 -448 0
v -240 -464 0
v -256 -464 0
v -256 -448 0
v -240 -448 0
v -224 -464 0
v -240 -464 0
v -240 -448 0
v -224 -448 0
v -208 -464 0
v -224 -464 0
v -224 -448 0
v -208 -448 0
v -192 -464 0
v -208 -464 0
v -208 -448 0
v -192 -448 0
v -176 -464 0
v -192 -464 0
v -192 -448 0
v -176 -448 0
v -368 -480 0
v -384 -480 0
v -384 -464 0
v -368 -464 0
v -352 -480 0
v -368 -480 0
v -368 -464 0
v -352 -464 0
v -336 -480 0
v -352 -480 0
v -352 -464 0
v -336 -464 0
v -320 -480 0
v -336 -480 0
v -336 -464 0
v -320 -464 0
v -304 -480 0
v -320 -480 0
v -320 -464 0
v -304 -464 0
v -288 -480 0
v -304 -480 0
v -304 -464 0
v -288 -464 0
v -256 -480 0
v -272 -480 0
v -272 -464 0
v -256 -464 0
v -240 -480 0
v -256 -480 0
v -256 -464 0
v -240 -464 0
v -224 -480 0
v -240 -480 0
v -240 -464 0
v -224 -464 0
v -208 -480 0
v -224 -480 0
v -224 -464 0
v -208 -464 0
v -192 -480 0
v -208 -480 0
v -208 -464 0
v -192 -464 0
v -176 -480 0
v -192 -480 0
v -192 -464 0
v -176 -464 0
v -368 -496 0
v -384 -496 0
v -384 -480 0
v -368 -480 0
v -352 -496 0
v -368 -496 0
v -368 -480 0
v -352 -480 0
v -336 -496 0
v -352 -496 0
v -352 -480 0
v -336 -480 0
v -320 -496 0
v -336 -496 0
v -336 -480 0
v -320 -480 0
v -304 -496 0
v -320 -496 0
v -320 -480 0
v -304 -480 0
v -288 -496 0
v -304 -496 0
v -304 -480 0
v -288 -480 0
v -208 -496 0
v -224 -496 0
v -224 -480 0
v -208 -480 0
v -192 -496 0
v -208 -496 0
v -208 -480 0
v -192 -480 0
v -176 -496 0
v -192 -496 0
v -192 -480 0
v -176 -480 0
v -368 -512 0
v -384 -512 0
v -384 -496 0
v -368 -496 0
v -352 -512 0
v -368 -512 0
v -368 -496 0
v -352 -496 0
v -336 -512 0
v -352 -512 0
v -352 -496 0
v -336 -496 0
v -320 -512 0
v -336 -512 0
v -336 -496 0
v -320 -496 0
v -304 -512 0
v -320 -512 0
v -320 -496 0
v -304 -496 0
v -288 -512 0
v -304 -512 0
v -304 -496 0
v -288 -496 0
v -352 -528 0
v -368 -528 0
v -368 -512 0
v -352 -512 0
v -336 -528 0
v -352 -528 0
v -352 -512 0
v -336 -512 0

# Texture cooridinates (Count = 80)
vt 0.7423581 0.5016394
vt 0.7772925 0.5016394
vt 0.7772925 0.5540984
vt 0.7423581 0.5540984
vt 0.7052402 0.5016394
vt 0.7401747 0.5016394
vt 0.7401747 0.5540984
vt 0.7052402 0.5540984
vt 0.6681223 0.5016394
vt 0.7030568 0.5016394
vt 0.7030568 0.5540984
vt 0.6681223 0.5540984
vt 0.7423581 0.3344262
vt 0.7772925 0.3344262
vt 0.7772925 0.3868852
vt 0.7423581 0.3868852
vt 0.7052402 0.3344262
vt 0.7401747 0.3344262
vt 0.7401747 0.3868852
vt 0.7052402 0.3868852
vt 0.6681223 0.3344262
vt 0.7030568 0.3344262
vt 0.7030568 0.3868852
vt 0.6681223 0.3868852
vt 0.7423581 0.4459016
vt 0.7772925 0.4459016
vt 0.7772925 0.4983606
vt 0.7423581 0.4983606
vt 0.7052402 0.4459016
vt 0.7401747 0.4459016
vt 0.7401747 0.4983606
vt 0.7052402 0.4983606
vt 0.7423581 0.2786885
vt 0.7772925 0.2786885
vt 0.7772925 0.3311476
vt 0.7423581 0.3311476
vt 0.7052402 0.2786885
vt 0.7401747 0.2786885
vt 0.7401747 0.3311476
vt 0.7052402 0.3311476
vt 0.6681223 0.2786885
vt 0.7030568 0.2786885
vt 0.7030568 0.3311476
vt 0.6681223 0.3311476
vt 0.7423581 0.390164
vt 0.7772925 0.390164
vt 0.7772925 0.442623
vt 0.7423581 0.442623
vt 0.7052402 0.390164
vt 0.7401747 0.390164
vt 0.7401747 0.442623
vt 0.7052402 0.442623
vt 0.6681223 0.390164
vt 0.7030568 0.390164
vt 0.7030568 0.442623
vt 0.6681223 0.442623
vt 0.8165939 0.3344262
vt 0.8515284 0.3344262
vt 0.8515284 0.3868852
vt 0.8165939 0.3868852
vt 0.7423581 0.2229508
vt 0.7772925 0.2229508
vt 0.7772925 0.2754098
vt 0.7423581 0.2754098
vt 0.7052402 0.2229508
vt 0.7401747 0.2229508
vt 0.7401747 0.2754098
vt 0.7052402 0.2754098
vt 0.6681223 0.2229508
vt 0.7030568 0.2229508
vt 0.7030568 0.2754098
vt 0.6681223 0.2754098
vt 0.6681223 0.4459016
vt 0.7030568 0.4459016
vt 0.7030568 0.4983606
vt 0.6681223 0.4983606
vt 0.6310044 0.3344262
vt 0.6659389 0.3344262
vt 0.6659389 0.3868852
vt 0.6310044 0.3868852

# Normal
vn 0 0 -1

# Mesh description
g village_mesh_0015

# Faces
f 1/1/1 2/2/1 3/3/1 4/4/1
f 5/5/1 6/6/1 7/7/1 8/8/1
f 9/9/1 10/10/1 11/11/1 12/12/1
f 13/13/1 14/14/1 15/15/1 16/16/1
f 17/17/1 18/18/1 19/19/1 20/20/1
f 21/21/1 22/22/1 23/23/1 24/24/1
f 25/25/1 26/26/1 27/27/1 28/28/1
f 29/29/1 30/30/1 31/31/1 32/32/1
f 33/9/1 34/10/1 35/11/1 36/12/1
f 37/33/1 38/34/1 39/35/1 40/36/1
f 41/37/1 42/38/1 43/39/1 44/40/1
f 45/41/1 46/42/1 47/43/1 48/44/1
f 49/45/1 50/46/1 51/47/1 52/48/1
f 53/49/1 54/50/1 55/51/1 56/52/1
f 57/53/1 58/54/1 59/55/1 60/56/1
f 61/57/1 62/58/1 63/59/1 64/60/1
f 65/61/1 66/62/1 67/63/1 68/64/1
f 69/65/1 70/66/1 71/67/1 72/68/1
f 73/69/1 74/70/1 75/71/1 76/72/1
f 77/1/1 78/2/1 79/3/1 80/4/1
f 81/5/1 82/6/1 83/7/1 84/8/1
f 85/9/1 86/10/1 87/11/1 88/12/1
f 89/13/1 90/14/1 91/15/1 92/16/1
f 93/17/1 94/18/1 95/19/1 96/20/1
f 97/21/1 98/22/1 99/23/1 100/24/1
f 101/13/1 102/14/1 103/15/1 104/16/1
f 105/17/1 106/18/1 107/19/1 108/20/1
f 109/21/1 110/22/1 111/23/1 112/24/1
f 113/25/1 114/26/1 115/27/1 116/28/1
f 117/29/1 118/30/1 119/31/1 120/32/1
f 121/73/1 122/74/1 123/75/1 124/76/1
f 125/33/1 126/34/1 127/35/1 128/36/1
f 129/37/1 130/38/1 131/39/1 132/40/1
f 133/41/1 134/42/1 135/43/1 136/44/1
f 137/33/1 138/34/1 139/35/1 140/36/1
f 141/37/1 142/38/1 143/39/1 144/40/1
f 145/41/1 146/42/1 147/43/1 148/44/1
f 149/45/1 150/46/1 151/47/1 152/48/1
f 153/49/1 154/50/1 155/51/1 156/52/1
f 157/53/1 158/54/1 159/55/1 160/56/1
f 161/61/1 162/62/1 163/63/1 164/64/1
f 165/65/1 166/66/1 167/67/1 168/68/1
f 169/69/1 170/70/1 171/71/1 172/72/1
f 173/13/1 174/14/1 175/15/1 176/16/1
f 177/17/1 178/18/1 179/19/1 180/20/1
f 181/21/1 182/22/1 183/23/1 184/24/1
f 185/61/1 186/62/1 187/63/1 188/64/1
f 189/65/1 190/66/1 191/67/1 192/68/1
f 193/69/1 194/70/1 195/71/1 196/72/1
f 197/1/1 198/2/1 199/3/1 200/4/1
f 201/5/1 202/6/1 203/7/1 204/8/1
f 205/9/1 206/10/1 207/11/1 208/12/1
f 209/13/1 210/14/1 211/15/1 212/16/1
f 213/17/1 214/18/1 215/19/1 216/20/1
f 217/21/1 218/22/1 219/23/1 220/24/1
f 221/53/1 222/54/1 223/55/1 224/56/1
f 225/33/1 226/34/1 227/35/1 228/36/1
f 229/37/1 230/38/1 231/39/1 232/40/1
f 233/41/1 234/42/1 235/43/1 236/44/1
f 237/25/1 238/26/1 239/27/1 240/28/1
f 241/29/1 242/30/1 243/31/1 244/32/1
f 245/73/1 246/74/1 247/75/1 248/76/1
f 249/33/1 250/34/1 251/35/1 252/36/1
f 253/37/1 254/38/1 255/39/1 256/40/1
f 257/41/1 258/42/1 259/43/1 260/44/1
f 261/61/1 262/62/1 263/63/1 264/64/1
f 265/65/1 266/66/1 267/67/1 268/68/1
f 269/69/1 270/70/1 271/71/1 272/72/1
f 273/13/1 274/14/1 275/15/1 276/16/1
f 277/17/1 278/18/1 279/19/1 280/20/1
f 281/21/1 282/22/1 283/23/1 284/24/1
f 285/45/1 286/46/1 287/47/1 288/48/1
f 289/49/1 290/50/1 291/51/1 292/52/1
f 293/53/1 294/54/1 295/55/1 296/56/1
f 297/61/1 298/62/1 299/63/1 300/64/1
f 301/65/1 302/66/1 303/67/1 304/68/1
f 305/69/1 306/70/1 307/71/1 308/72/1
f 309/33/1 310/34/1 311/35/1 312/36/1
f 313/37/1 314/38/1 315/39/1 316/40/1
f 317/41/1 318/42/1 319/43/1 320/44/1
f 321/13/1 322/14/1 323/15/1 324/16/1
f 325/17/1 326/18/1 327/19/1 328/20/1
f 329/21/1 330/22/1 331/23/1 332/24/1
f 333/13/1 334/14/1 335/15/1 336/16/1
f 337/17/1 338/18/1 339/19/1 340/20/1
f 341/21/1 342/22/1 343/23/1 344/24/1
f 345/13/1 346/14/1 347/15/1 348/16/1
f 349/17/1 350/18/1 351/19/1 352/20/1
f 353/21/1 354/22/1 355/23/1 356/24/1
f 357/61/1 358/62/1 359/63/1 360/64/1
f 361/65/1 362/66/1 363/67/1 364/68/1
f 365/69/1 366/70/1 367/71/1 368/72/1
f 369/33/1 370/34/1 371/35/1 372/36/1
f 373/37/1 374/38/1 375/39/1 376/40/1
f 377/41/1 378/42/1 379/43/1 380/44/1
f 381/33/1 382/34/1 383/35/1 384/36/1
f 385/37/1 386/38/1 387/39/1 388/40/1
f 389/41/1 390/42/1 391/43/1 392/44/1
f 393/33/1 394/34/1 395/35/1 396/36/1
f 397/37/1 398/38/1 399/39/1 400/40/1
f 401/41/1 402/42/1 403/43/1 404/44/1
f 405/61/1 406/62/1 407/63/1 408/64/1
f 409/65/1 410/66/1 411/67/1 412/68/1
f 413/69/1 414/70/1 415/71/1 416/72/1
f 417/61/1 418/62/1 419/63/1 420/64/1
f 421/65/1 422/66/1 423/67/1 424/68/1
f 425/77/1 426/78/1 427/79/1 428/80/1
f 429/61/1 430/62/1 431/63/1 432/64/1
f 433/65/1 434/66/1 435/67/1 436/68/1
f 437/69/1 438/70/1 439/71/1 440/72/1
f 441/49/1 442/50/1 443/51/1 444/52/1
f 445/37/1 446/38/1 447/39/1 448/40/1

