# Tiled2Unity generated file. Do not modify by hand.
# Wavefront file for 'village_mesh_0008.obj'

# Vertices (Count = 224)
v -176 -96 0
v -192 -96 0
v -192 -80 0
v -176 -80 0
v -640 -112 0
v -656 -112 0
v -656 -96 0
v -640 -96 0
v -624 -112 0
v -640 -112 0
v -640 -96 0
v -624 -96 0
v -608 -112 0
v -624 -112 0
v -624 -96 0
v -608 -96 0
v -592 -112 0
v -608 -112 0
v -608 -96 0
v -592 -96 0
v -320 -112 0
v -336 -112 0
v -336 -96 0
v -320 -96 0
v -176 -112 0
v -192 -112 0
v -192 -96 0
v -176 -96 0
v -736 -128 0
v -752 -128 0
v -752 -112 0
v -736 -112 0
v -720 -128 0
v -736 -128 0
v -736 -112 0
v -720 -112 0
v -704 -128 0
v -720 -128 0
v -720 -112 0
v -704 -112 0
v -320 -128 0
v -336 -128 0
v -336 -112 0
v -320 -112 0
v -176 -128 0
v -192 -128 0
v -192 -112 0
v -176 -112 0
v -320 -144 0
v -336 -144 0
v -336 -128 0
v -320 -128 0
v -176 -144 0
v -192 -144 0
v -192 -128 0
v -176 -128 0
v -160 -144 0
v -176 -144 0
v -176 -128 0
v -160 -128 0
v -320 -160 0
v -336 -160 0
v -336 -144 0
v -320 -144 0
v -320 -176 0
v -336 -176 0
v -336 -160 0
v -320 -160 0
v -144 -176 0
v -160 -176 0
v -160 -160 0
v -144 -160 0
v -320 -192 0
v -336 -192 0
v -336 -176 0
v -320 -176 0
v -144 -192 0
v -160 -192 0
v -160 -176 0
v -144 -176 0
v -320 -208 0
v -336 -208 0
v -336 -192 0
v -320 -192 0
v -144 -208 0
v -160 -208 0
v -160 -192 0
v -144 -192 0
v -320 -224 0
v -336 -224 0
v -336 -208 0
v -320 -208 0
v -144 -224 0
v -160 -224 0
v -160 -208 0
v -144 -208 0
v -320 -240 0
v -336 -240 0
v -336 -224 0
v -320 -224 0
v -144 -240 0
v -160 -240 0
v -160 -224 0
v -144 -224 0
v -320 -256 0
v -336 -256 0
v -336 -240 0
v -320 -240 0
v -304 -256 0
v -320 -256 0
v -320 -240 0
v -304 -240 0
v -288 -256 0
v -304 -256 0
v -304 -240 0
v -288 -240 0
v -176 -256 0
v -192 -256 0
v -192 -240 0
v -176 -240 0
v -160 -256 0
v -176 -256 0
v -176 -240 0
v -160 -240 0
v -144 -256 0
v -160 -256 0
v -160 -240 0
v -144 -240 0
v -736 -384 0
v -752 -384 0
v -752 -368 0
v -736 -368 0
v -720 -384 0
v -736 -384 0
v -736 -368 0
v -720 -368 0
v -704 -384 0
v -720 -384 0
v -720 -368 0
v -704 -368 0
v -688 -384 0
v -704 -384 0
v -704 -368 0
v -688 -368 0
v -672 -384 0
v -688 -384 0
v -688 -368 0
v -672 -368 0
v -736 -400 0
v -752 -400 0
v -752 -384 0
v -736 -384 0
v -432 -400 0
v -448 -400 0
v -448 -384 0
v -432 -384 0
v -416 -400 0
v -432 -400 0
v -432 -384 0
v -416 -384 0
v -400 -400 0
v -416 -400 0
v -416 -384 0
v -400 -384 0
v -384 -400 0
v -400 -400 0
v -400 -384 0
v -384 -384 0
v -736 -416 0
v -752 -416 0
v -752 -400 0
v -736 -400 0
v -384 -416 0
v -400 -416 0
v -400 -400 0
v -384 -400 0
v -736 -432 0
v -752 -432 0
v -752 -416 0
v -736 -416 0
v -384 -432 0
v -400 -432 0
v -400 -416 0
v -384 -416 0
v -736 -448 0
v -752 -448 0
v -752 -432 0
v -736 -432 0
v -384 -448 0
v -400 -448 0
v -400 -432 0
v -384 -432 0
v -736 -464 0
v -752 -464 0
v -752 -448 0
v -736 -448 0
v -432 -464 0
v -448 -464 0
v -448 -448 0
v -432 -448 0
v -400 -464 0
v -416 -464 0
v -416 -448 0
v -400 -448 0
v -384 -464 0
v -400 -464 0
v -400 -448 0
v -384 -448 0
v -736 -480 0
v -752 -480 0
v -752 -464 0
v -736 -464 0
v -720 -480 0
v -736 -480 0
v -736 -464 0
v -720 -464 0
v -704 -480 0
v -720 -480 0
v -720 -464 0
v -704 -464 0
v -688 -480 0
v -704 -480 0
v -704 -464 0
v -688 -464 0

# Texture cooridinates (Count = 12)
vt 0.8254132 0.2262357
vt 0.8419421 0.2262357
vt 0.8419421 0.256654
vt 0.8254132 0.256654
vt 0.8956612 0.2262357
vt 0.9121901 0.2262357
vt 0.9121901 0.256654
vt 0.8956612 0.256654
vt 0.8780992 0.2262357
vt 0.8946281 0.2262357
vt 0.8946281 0.256654
vt 0.8780992 0.256654

# Normal
vn 0 0 -1

# Mesh description
g village_mesh_0008

# Faces
f 1/1/1 2/2/1 3/3/1 4/4/1
f 5/1/1 6/2/1 7/3/1 8/4/1
f 9/1/1 10/2/1 11/3/1 12/4/1
f 13/1/1 14/2/1 15/3/1 16/4/1
f 17/1/1 18/2/1 19/3/1 20/4/1
f 21/1/1 22/2/1 23/3/1 24/4/1
f 25/5/1 26/6/1 27/7/1 28/8/1
f 29/1/1 30/2/1 31/3/1 32/4/1
f 33/1/1 34/2/1 35/3/1 36/4/1
f 37/1/1 38/2/1 39/3/1 40/4/1
f 41/9/1 42/10/1 43/11/1 44/12/1
f 45/5/1 46/6/1 47/7/1 48/8/1
f 49/9/1 50/10/1 51/11/1 52/12/1
f 53/5/1 54/6/1 55/7/1 56/8/1
f 57/1/1 58/2/1 59/3/1 60/4/1
f 61/9/1 62/10/1 63/11/1 64/12/1
f 65/9/1 66/10/1 67/11/1 68/12/1
f 69/5/1 70/6/1 71/7/1 72/8/1
f 73/9/1 74/10/1 75/11/1 76/12/1
f 77/5/1 78/6/1 79/7/1 80/8/1
f 81/9/1 82/10/1 83/11/1 84/12/1
f 85/5/1 86/6/1 87/7/1 88/8/1
f 89/9/1 90/10/1 91/11/1 92/12/1
f 93/5/1 94/6/1 95/7/1 96/8/1
f 97/9/1 98/10/1 99/11/1 100/12/1
f 101/5/1 102/6/1 103/7/1 104/8/1
f 105/1/1 106/2/1 107/3/1 108/4/1
f 109/1/1 110/2/1 111/3/1 112/4/1
f 113/1/1 114/2/1 115/3/1 116/4/1
f 117/1/1 118/2/1 119/3/1 120/4/1
f 121/1/1 122/2/1 123/3/1 124/4/1
f 125/1/1 126/2/1 127/3/1 128/4/1
f 129/1/1 130/2/1 131/3/1 132/4/1
f 133/1/1 134/2/1 135/3/1 136/4/1
f 137/1/1 138/2/1 139/3/1 140/4/1
f 141/1/1 142/2/1 143/3/1 144/4/1
f 145/1/1 146/2/1 147/3/1 148/4/1
f 149/9/1 150/10/1 151/11/1 152/12/1
f 153/1/1 154/2/1 155/3/1 156/4/1
f 157/1/1 158/2/1 159/3/1 160/4/1
f 161/1/1 162/2/1 163/3/1 164/4/1
f 165/1/1 166/2/1 167/3/1 168/4/1
f 169/9/1 170/10/1 171/11/1 172/12/1
f 173/5/1 174/6/1 175/7/1 176/8/1
f 177/9/1 178/10/1 179/11/1 180/12/1
f 181/5/1 182/6/1 183/7/1 184/8/1
f 185/9/1 186/10/1 187/11/1 188/12/1
f 189/5/1 190/6/1 191/7/1 192/8/1
f 193/9/1 194/10/1 195/11/1 196/12/1
f 197/1/1 198/2/1 199/3/1 200/4/1
f 201/1/1 202/2/1 203/3/1 204/4/1
f 205/1/1 206/2/1 207/3/1 208/4/1
f 209/1/1 210/2/1 211/3/1 212/4/1
f 213/1/1 214/2/1 215/3/1 216/4/1
f 217/1/1 218/2/1 219/3/1 220/4/1
f 221/1/1 222/2/1 223/3/1 224/4/1

