# Tiled2Unity generated file. Do not modify by hand.
# Wavefront file for 'village_mesh_0014.obj'

# Vertices (Count = 48)
v -720 -400 0
v -736 -400 0
v -736 -384 0
v -720 -384 0
v -432 -400 0
v -448 -400 0
v -448 -384 0
v -432 -384 0
v -384 -400 0
v -400 -400 0
v -400 -384 0
v -384 -384 0
v -720 -416 0
v -736 -416 0
v -736 -400 0
v -720 -400 0
v -432 -416 0
v -448 -416 0
v -448 -400 0
v -432 -400 0
v -416 -416 0
v -432 -416 0
v -432 -400 0
v -416 -400 0
v -384 -416 0
v -400 -416 0
v -400 -400 0
v -384 -400 0
v -416 -432 0
v -432 -432 0
v -432 -416 0
v -416 -416 0
v -400 -432 0
v -416 -432 0
v -416 -416 0
v -400 -416 0
v -720 -448 0
v -736 -448 0
v -736 -432 0
v -720 -432 0
v -400 -448 0
v -416 -448 0
v -416 -432 0
v -400 -432 0
v -720 -464 0
v -736 -464 0
v -736 -448 0
v -720 -448 0

# Texture cooridinates (Count = 16)
vt 0.4039256 0.6463878
vt 0.4204545 0.6463878
vt 0.4204545 0.6768061
vt 0.4039256 0.6768061
vt 0.4039256 0.6140684
vt 0.4204545 0.6140684
vt 0.4204545 0.6444867
vt 0.4039256 0.6444867
vt 0.2634298 0.6463878
vt 0.2799587 0.6463878
vt 0.2799587 0.6768061
vt 0.2634298 0.6768061
vt 0.2634298 0.6140684
vt 0.2799587 0.6140684
vt 0.2799587 0.6444867
vt 0.2634298 0.6444867

# Normal
vn 0 0 -1

# Mesh description
g village_mesh_0014

# Faces
f 1/1/1 2/2/1 3/3/1 4/4/1
f 5/1/1 6/2/1 7/3/1 8/4/1
f 9/1/1 10/2/1 11/3/1 12/4/1
f 13/5/1 14/6/1 15/7/1 16/8/1
f 17/5/1 18/6/1 19/7/1 20/8/1
f 21/9/1 22/10/1 23/11/1 24/12/1
f 25/5/1 26/6/1 27/7/1 28/8/1
f 29/13/1 30/14/1 31/15/1 32/16/1
f 33/1/1 34/2/1 35/3/1 36/4/1
f 37/1/1 38/2/1 39/3/1 40/4/1
f 41/5/1 42/6/1 43/7/1 44/8/1
f 45/5/1 46/6/1 47/7/1 48/8/1

