# Tiled2Unity generated file. Do not modify by hand.
# Wavefront file for 'village_mesh_0012.obj'

# Vertices (Count = 132)
v -208 -64 0
v -224 -64 0
v -224 -48 0
v -208 -48 0
v -528 -96 0
v -544 -96 0
v -544 -80 0
v -528 -80 0
v -288 -112 0
v -304 -112 0
v -304 -96 0
v -288 -96 0
v -528 -128 0
v -544 -128 0
v -544 -112 0
v -528 -112 0
v -256 -128 0
v -272 -128 0
v -272 -112 0
v -256 -112 0
v -208 -128 0
v -224 -128 0
v -224 -112 0
v -208 -112 0
v -544 -144 0
v -560 -144 0
v -560 -128 0
v -544 -128 0
v -496 -144 0
v -512 -144 0
v -512 -128 0
v -496 -128 0
v -464 -144 0
v -480 -144 0
v -480 -128 0
v -464 -128 0
v -256 -144 0
v -272 -144 0
v -272 -128 0
v -256 -128 0
v -208 -144 0
v -224 -144 0
v -224 -128 0
v -208 -128 0
v -656 -160 0
v -672 -160 0
v -672 -144 0
v -656 -144 0
v -448 -160 0
v -464 -160 0
v -464 -144 0
v -448 -144 0
v -240 -160 0
v -256 -160 0
v -256 -144 0
v -240 -144 0
v -224 -160 0
v -240 -160 0
v -240 -144 0
v -224 -144 0
v -672 -176 0
v -688 -176 0
v -688 -160 0
v -672 -160 0
v -736 -256 0
v -752 -256 0
v -752 -240 0
v -736 -240 0
v -432 -256 0
v -448 -256 0
v -448 -240 0
v -432 -240 0
v -496 -272 0
v -512 -272 0
v -512 -256 0
v -496 -256 0
v -672 -288 0
v -688 -288 0
v -688 -272 0
v -672 -272 0
v -640 -288 0
v -656 -288 0
v -656 -272 0
v -640 -272 0
v -736 -304 0
v -752 -304 0
v -752 -288 0
v -736 -288 0
v -464 -304 0
v -480 -304 0
v -480 -288 0
v -464 -288 0
v -720 -320 0
v -736 -320 0
v -736 -304 0
v -720 -304 0
v -448 -320 0
v -464 -320 0
v -464 -304 0
v -448 -304 0
v -464 -400 0
v -480 -400 0
v -480 -384 0
v -464 -384 0
v -672 -448 0
v -688 -448 0
v -688 -432 0
v -672 -432 0
v -640 -448 0
v -656 -448 0
v -656 -432 0
v -640 -432 0
v -496 -448 0
v -512 -448 0
v -512 -432 0
v -496 -432 0
v -464 -448 0
v -480 -448 0
v -480 -432 0
v -464 -432 0
v -624 -464 0
v -640 -464 0
v -640 -448 0
v -624 -448 0
v -480 -464 0
v -496 -464 0
v -496 -448 0
v -480 -448 0
v -416 -464 0
v -432 -464 0
v -432 -448 0
v -416 -448 0

# Texture cooridinates (Count = 60)
vt 0.2634298 0.3555133
vt 0.2799587 0.3555133
vt 0.2799587 0.3859316
vt 0.2634298 0.3859316
vt 0.7376033 0.9372624
vt 0.7541322 0.9372624
vt 0.7541322 0.9676806
vt 0.7376033 0.9676806
vt 0.8254132 0.9695817
vt 0.8419421 0.9695817
vt 0.8419421 1
vt 0.8254132 1
vt 0.8956612 0.7756654
vt 0.9121901 0.7756654
vt 0.9121901 0.8060837
vt 0.8956612 0.8060837
vt 0.5619835 0.9695817
vt 0.5785124 0.9695817
vt 0.5785124 1
vt 0.5619835 1
vt 0.7376033 0.9695817
vt 0.7541322 0.9695817
vt 0.7541322 1
vt 0.7376033 1
vt 0.5444215 0.7756654
vt 0.5609504 0.7756654
vt 0.5609504 0.8060837
vt 0.5444215 0.8060837
vt 0.5268595 0.7756654
vt 0.5433884 0.7756654
vt 0.5433884 0.8060837
vt 0.5268595 0.8060837
vt 0.5795454 0.9695817
vt 0.5960744 0.9695817
vt 0.5960744 1
vt 0.5795454 1
vt 0.2634298 0.3231939
vt 0.2799587 0.3231939
vt 0.2799587 0.3536122
vt 0.2634298 0.3536122
vt 0.8429752 0.9695817
vt 0.8595041 0.9695817
vt 0.8595041 1
vt 0.8429752 1
vt 0.8078513 0.9695817
vt 0.8243802 0.9695817
vt 0.8243802 1
vt 0.8078513 1
vt 0.7727273 0.9695817
vt 0.7892562 0.9695817
vt 0.7892562 1
vt 0.7727273 1
vt 0.5795454 0.9372624
vt 0.5960744 0.9372624
vt 0.5960744 0.9676806
vt 0.5795454 0.9676806
vt 0.8078513 0.2262357
vt 0.8243802 0.2262357
vt 0.8243802 0.256654
vt 0.8078513 0.256654

# Normal
vn 0 0 -1

# Mesh description
g village_mesh_0012

# Faces
f 1/1/1 2/2/1 3/3/1 4/4/1
f 5/1/1 6/2/1 7/3/1 8/4/1
f 9/5/1 10/6/1 11/7/1 12/8/1
f 13/9/1 14/10/1 15/11/1 16/12/1
f 17/13/1 18/14/1 19/15/1 20/16/1
f 21/13/1 22/14/1 23/15/1 24/16/1
f 25/17/1 26/18/1 27/19/1 28/20/1
f 29/9/1 30/10/1 31/11/1 32/12/1
f 33/9/1 34/10/1 35/11/1 36/12/1
f 37/21/1 38/22/1 39/23/1 40/24/1
f 41/21/1 42/22/1 43/23/1 44/24/1
f 45/9/1 46/10/1 47/11/1 48/12/1
f 49/17/1 50/18/1 51/19/1 52/20/1
f 53/25/1 54/26/1 55/27/1 56/28/1
f 57/29/1 58/30/1 59/31/1 60/32/1
f 61/33/1 62/34/1 63/35/1 64/36/1
f 65/37/1 66/38/1 67/39/1 68/40/1
f 69/1/1 70/2/1 71/3/1 72/4/1
f 73/41/1 74/42/1 75/43/1 76/44/1
f 77/45/1 78/46/1 79/47/1 80/48/1
f 81/45/1 82/46/1 83/47/1 84/48/1
f 85/9/1 86/10/1 87/11/1 88/12/1
f 89/41/1 90/42/1 91/43/1 92/44/1
f 93/33/1 94/34/1 95/35/1 96/36/1
f 97/17/1 98/18/1 99/19/1 100/20/1
f 101/1/1 102/2/1 103/3/1 104/4/1
f 105/49/1 106/50/1 107/51/1 108/52/1
f 109/49/1 110/50/1 111/51/1 112/52/1
f 113/49/1 114/50/1 115/51/1 116/52/1
f 117/49/1 118/50/1 119/51/1 120/52/1
f 121/53/1 122/54/1 123/55/1 124/56/1
f 125/17/1 126/18/1 127/19/1 128/20/1
f 129/57/1 130/58/1 131/59/1 132/60/1

