# Tiled2Unity generated file. Do not modify by hand.
# Wavefront file for 'suburbs_mesh_0003.obj'

# Vertices (Count = 536)
v -464 -16 0
v -480 -16 0
v -480 0 0
v -464 0 0
v -448 -16 0
v -464 -16 0
v -464 0 0
v -448 0 0
v -432 -16 0
v -448 -16 0
v -448 0 0
v -432 0 0
v -416 -16 0
v -432 -16 0
v -432 0 0
v -416 0 0
v -400 -16 0
v -416 -16 0
v -416 0 0
v -400 0 0
v -384 -16 0
v -400 -16 0
v -400 0 0
v -384 0 0
v -368 -16 0
v -384 -16 0
v -384 0 0
v -368 0 0
v -352 -16 0
v -368 -16 0
v -368 0 0
v -352 0 0
v -336 -16 0
v -352 -16 0
v -352 0 0
v -336 0 0
v -320 -16 0
v -336 -16 0
v -336 0 0
v -320 0 0
v -304 -16 0
v -320 -16 0
v -320 0 0
v -304 0 0
v -288 -16 0
v -304 -16 0
v -304 0 0
v -288 0 0
v -240 -16 0
v -256 -16 0
v -256 0 0
v -240 0 0
v -224 -16 0
v -240 -16 0
v -240 0 0
v -224 0 0
v -208 -16 0
v -224 -16 0
v -224 0 0
v -208 0 0
v -192 -16 0
v -208 -16 0
v -208 0 0
v -192 0 0
v -176 -16 0
v -192 -16 0
v -192 0 0
v -176 0 0
v -160 -16 0
v -176 -16 0
v -176 0 0
v -160 0 0
v -144 -16 0
v -160 -16 0
v -160 0 0
v -144 0 0
v -128 -16 0
v -144 -16 0
v -144 0 0
v -128 0 0
v -112 -16 0
v -128 -16 0
v -128 0 0
v -112 0 0
v -96 -16 0
v -112 -16 0
v -112 0 0
v -96 0 0
v -80 -16 0
v -96 -16 0
v -96 0 0
v -80 0 0
v -64 -16 0
v -80 -16 0
v -80 0 0
v -64 0 0
v -48 -16 0
v -64 -16 0
v -64 0 0
v -48 0 0
v -32 -16 0
v -48 -16 0
v -48 0 0
v -32 0 0
v -16 -16 0
v -32 -16 0
v -32 0 0
v -16 0 0
v 0 -16 0
v -16 -16 0
v -16 0 0
v 0 0 0
v -464 -32 0
v -480 -32 0
v -480 -16 0
v -464 -16 0
v -448 -32 0
v -464 -32 0
v -464 -16 0
v -448 -16 0
v -432 -32 0
v -448 -32 0
v -448 -16 0
v -432 -16 0
v -416 -32 0
v -432 -32 0
v -432 -16 0
v -416 -16 0
v -400 -32 0
v -416 -32 0
v -416 -16 0
v -400 -16 0
v -384 -32 0
v -400 -32 0
v -400 -16 0
v -384 -16 0
v -368 -32 0
v -384 -32 0
v -384 -16 0
v -368 -16 0
v -352 -32 0
v -368 -32 0
v -368 -16 0
v -352 -16 0
v -336 -32 0
v -352 -32 0
v -352 -16 0
v -336 -16 0
v -320 -32 0
v -336 -32 0
v -336 -16 0
v -320 -16 0
v -304 -32 0
v -320 -32 0
v -320 -16 0
v -304 -16 0
v -288 -32 0
v -304 -32 0
v -304 -16 0
v -288 -16 0
v -240 -32 0
v -256 -32 0
v -256 -16 0
v -240 -16 0
v -224 -32 0
v -240 -32 0
v -240 -16 0
v -224 -16 0
v -208 -32 0
v -224 -32 0
v -224 -16 0
v -208 -16 0
v -192 -32 0
v -208 -32 0
v -208 -16 0
v -192 -16 0
v -176 -32 0
v -192 -32 0
v -192 -16 0
v -176 -16 0
v -160 -32 0
v -176 -32 0
v -176 -16 0
v -160 -16 0
v -144 -32 0
v -160 -32 0
v -160 -16 0
v -144 -16 0
v -128 -32 0
v -144 -32 0
v -144 -16 0
v -128 -16 0
v -112 -32 0
v -128 -32 0
v -128 -16 0
v -112 -16 0
v -96 -32 0
v -112 -32 0
v -112 -16 0
v -96 -16 0
v -80 -32 0
v -96 -32 0
v -96 -16 0
v -80 -16 0
v -64 -32 0
v -80 -32 0
v -80 -16 0
v -64 -16 0
v -48 -32 0
v -64 -32 0
v -64 -16 0
v -48 -16 0
v -32 -32 0
v -48 -32 0
v -48 -16 0
v -32 -16 0
v -16 -32 0
v -32 -32 0
v -32 -16 0
v -16 -16 0
v 0 -32 0
v -16 -32 0
v -16 -16 0
v 0 -16 0
v -464 -48 0
v -480 -48 0
v -480 -32 0
v -464 -32 0
v -448 -48 0
v -464 -48 0
v -464 -32 0
v -448 -32 0
v -432 -48 0
v -448 -48 0
v -448 -32 0
v -432 -32 0
v -416 -48 0
v -432 -48 0
v -432 -32 0
v -416 -32 0
v -400 -48 0
v -416 -48 0
v -416 -32 0
v -400 -32 0
v -384 -48 0
v -400 -48 0
v -400 -32 0
v -384 -32 0
v -368 -48 0
v -384 -48 0
v -384 -32 0
v -368 -32 0
v -352 -48 0
v -368 -48 0
v -368 -32 0
v -352 -32 0
v -336 -48 0
v -352 -48 0
v -352 -32 0
v -336 -32 0
v -320 -48 0
v -336 -48 0
v -336 -32 0
v -320 -32 0
v -304 -48 0
v -320 -48 0
v -320 -32 0
v -304 -32 0
v -288 -48 0
v -304 -48 0
v -304 -32 0
v -288 -32 0
v -240 -48 0
v -256 -48 0
v -256 -32 0
v -240 -32 0
v -224 -48 0
v -240 -48 0
v -240 -32 0
v -224 -32 0
v -208 -48 0
v -224 -48 0
v -224 -32 0
v -208 -32 0
v -192 -48 0
v -208 -48 0
v -208 -32 0
v -192 -32 0
v -176 -48 0
v -192 -48 0
v -192 -32 0
v -176 -32 0
v -160 -48 0
v -176 -48 0
v -176 -32 0
v -160 -32 0
v -144 -48 0
v -160 -48 0
v -160 -32 0
v -144 -32 0
v -128 -48 0
v -144 -48 0
v -144 -32 0
v -128 -32 0
v -112 -48 0
v -128 -48 0
v -128 -32 0
v -112 -32 0
v -96 -48 0
v -112 -48 0
v -112 -32 0
v -96 -32 0
v -80 -48 0
v -96 -48 0
v -96 -32 0
v -80 -32 0
v -64 -48 0
v -80 -48 0
v -80 -32 0
v -64 -32 0
v -48 -48 0
v -64 -48 0
v -64 -32 0
v -48 -32 0
v -32 -48 0
v -48 -48 0
v -48 -32 0
v -32 -32 0
v -16 -48 0
v -32 -48 0
v -32 -32 0
v -16 -32 0
v -464 -64 0
v -480 -64 0
v -480 -48 0
v -464 -48 0
v -448 -64 0
v -464 -64 0
v -464 -48 0
v -448 -48 0
v -432 -64 0
v -448 -64 0
v -448 -48 0
v -432 -48 0
v -416 -64 0
v -432 -64 0
v -432 -48 0
v -416 -48 0
v -400 -64 0
v -416 -64 0
v -416 -48 0
v -400 -48 0
v -384 -64 0
v -400 -64 0
v -400 -48 0
v -384 -48 0
v -368 -64 0
v -384 -64 0
v -384 -48 0
v -368 -48 0
v -352 -64 0
v -368 -64 0
v -368 -48 0
v -352 -48 0
v -336 -64 0
v -352 -64 0
v -352 -48 0
v -336 -48 0
v -320 -64 0
v -336 -64 0
v -336 -48 0
v -320 -48 0
v -304 -64 0
v -320 -64 0
v -320 -48 0
v -304 -48 0
v -288 -64 0
v -304 -64 0
v -304 -48 0
v -288 -48 0
v -240 -64 0
v -256 -64 0
v -256 -48 0
v -240 -48 0
v -224 -64 0
v -240 -64 0
v -240 -48 0
v -224 -48 0
v -208 -64 0
v -224 -64 0
v -224 -48 0
v -208 -48 0
v -192 -64 0
v -208 -64 0
v -208 -48 0
v -192 -48 0
v -176 -64 0
v -192 -64 0
v -192 -48 0
v -176 -48 0
v -160 -64 0
v -176 -64 0
v -176 -48 0
v -160 -48 0
v -144 -64 0
v -160 -64 0
v -160 -48 0
v -144 -48 0
v -128 -64 0
v -144 -64 0
v -144 -48 0
v -128 -48 0
v -112 -64 0
v -128 -64 0
v -128 -48 0
v -112 -48 0
v -96 -64 0
v -112 -64 0
v -112 -48 0
v -96 -48 0
v -80 -64 0
v -96 -64 0
v -96 -48 0
v -80 -48 0
v -464 -80 0
v -480 -80 0
v -480 -64 0
v -464 -64 0
v -448 -80 0
v -464 -80 0
v -464 -64 0
v -448 -64 0
v -432 -80 0
v -448 -80 0
v -448 -64 0
v -432 -64 0
v -416 -80 0
v -432 -80 0
v -432 -64 0
v -416 -64 0
v -400 -80 0
v -416 -80 0
v -416 -64 0
v -400 -64 0
v -384 -80 0
v -400 -80 0
v -400 -64 0
v -384 -64 0
v -368 -80 0
v -384 -80 0
v -384 -64 0
v -368 -64 0
v -352 -80 0
v -368 -80 0
v -368 -64 0
v -352 -64 0
v -336 -80 0
v -352 -80 0
v -352 -64 0
v -336 -64 0
v -320 -80 0
v -336 -80 0
v -336 -64 0
v -320 -64 0
v -304 -80 0
v -320 -80 0
v -320 -64 0
v -304 -64 0
v -224 -80 0
v -240 -80 0
v -240 -64 0
v -224 -64 0
v -208 -80 0
v -224 -80 0
v -224 -64 0
v -208 -64 0
v -192 -80 0
v -208 -80 0
v -208 -64 0
v -192 -64 0
v -176 -80 0
v -192 -80 0
v -192 -64 0
v -176 -64 0
v -160 -80 0
v -176 -80 0
v -176 -64 0
v -160 -64 0
v -144 -80 0
v -160 -80 0
v -160 -64 0
v -144 -64 0
v -128 -80 0
v -144 -80 0
v -144 -64 0
v -128 -64 0
v -112 -80 0
v -128 -80 0
v -128 -64 0
v -112 -64 0
v -96 -80 0
v -112 -80 0
v -112 -64 0
v -96 -64 0
v -464 -96 0
v -480 -96 0
v -480 -80 0
v -464 -80 0
v -448 -96 0
v -464 -96 0
v -464 -80 0
v -448 -80 0
v -432 -96 0
v -448 -96 0
v -448 -80 0
v -432 -80 0
v -416 -96 0
v -432 -96 0
v -432 -80 0
v -416 -80 0
v -400 -96 0
v -416 -96 0
v -416 -80 0
v -400 -80 0
v -384 -96 0
v -400 -96 0
v -400 -80 0
v -384 -80 0
v -368 -96 0
v -384 -96 0
v -384 -80 0
v -368 -80 0
v -352 -96 0
v -368 -96 0
v -368 -80 0
v -352 -80 0

# Texture cooridinates (Count = 48)
vt 0.6310044 0.5016394
vt 0.6659389 0.5016394
vt 0.6659389 0.5540984
vt 0.6310044 0.5540984
vt 0.7052402 0.5016394
vt 0.7401747 0.5016394
vt 0.7401747 0.5540984
vt 0.7052402 0.5540984
vt 0.6681223 0.5016394
vt 0.7030568 0.5016394
vt 0.7030568 0.5540984
vt 0.6681223 0.5540984
vt 0.7423581 0.5016394
vt 0.7772925 0.5016394
vt 0.7772925 0.5540984
vt 0.7423581 0.5540984
vt 0.779476 0.5016394
vt 0.8144105 0.5016394
vt 0.8144105 0.5540984
vt 0.779476 0.5540984
vt 0.7052402 0.4459016
vt 0.7401747 0.4459016
vt 0.7401747 0.4983606
vt 0.7052402 0.4983606
vt 0.6681223 0.4459016
vt 0.7030568 0.4459016
vt 0.7030568 0.4983606
vt 0.6681223 0.4983606
vt 0.7423581 0.4459016
vt 0.7772925 0.4459016
vt 0.7772925 0.4983606
vt 0.7423581 0.4983606
vt 0.7052402 0.390164
vt 0.7401747 0.390164
vt 0.7401747 0.442623
vt 0.7052402 0.442623
vt 0.6310044 0.4459016
vt 0.6659389 0.4459016
vt 0.6659389 0.4983606
vt 0.6310044 0.4983606
vt 0.6681223 0.390164
vt 0.7030568 0.390164
vt 0.7030568 0.442623
vt 0.6681223 0.442623
vt 0.7423581 0.390164
vt 0.7772925 0.390164
vt 0.7772925 0.442623
vt 0.7423581 0.442623

# Normal
vn 0 0 -1

# Mesh description
g suburbs_mesh_0003

# Faces
f 1/1/1 2/2/1 3/3/1 4/4/1
f 5/5/1 6/6/1 7/7/1 8/8/1
f 9/5/1 10/6/1 11/7/1 12/8/1
f 13/5/1 14/6/1 15/7/1 16/8/1
f 17/5/1 18/6/1 19/7/1 20/8/1
f 21/5/1 22/6/1 23/7/1 24/8/1
f 25/5/1 26/6/1 27/7/1 28/8/1
f 29/5/1 30/6/1 31/7/1 32/8/1
f 33/5/1 34/6/1 35/7/1 36/8/1
f 37/5/1 38/6/1 39/7/1 40/8/1
f 41/5/1 42/6/1 43/7/1 44/8/1
f 45/9/1 46/10/1 47/11/1 48/12/1
f 49/13/1 50/14/1 51/15/1 52/16/1
f 53/5/1 54/6/1 55/7/1 56/8/1
f 57/5/1 58/6/1 59/7/1 60/8/1
f 61/5/1 62/6/1 63/7/1 64/8/1
f 65/5/1 66/6/1 67/7/1 68/8/1
f 69/5/1 70/6/1 71/7/1 72/8/1
f 73/5/1 74/6/1 75/7/1 76/8/1
f 77/5/1 78/6/1 79/7/1 80/8/1
f 81/5/1 82/6/1 83/7/1 84/8/1
f 85/5/1 86/6/1 87/7/1 88/8/1
f 89/5/1 90/6/1 91/7/1 92/8/1
f 93/5/1 94/6/1 95/7/1 96/8/1
f 97/5/1 98/6/1 99/7/1 100/8/1
f 101/5/1 102/6/1 103/7/1 104/8/1
f 105/5/1 106/6/1 107/7/1 108/8/1
f 109/1/1 110/2/1 111/3/1 112/4/1
f 113/17/1 114/18/1 115/19/1 116/20/1
f 117/21/1 118/22/1 119/23/1 120/24/1
f 121/21/1 122/22/1 123/23/1 124/24/1
f 125/21/1 126/22/1 127/23/1 128/24/1
f 129/21/1 130/22/1 131/23/1 132/24/1
f 133/21/1 134/22/1 135/23/1 136/24/1
f 137/21/1 138/22/1 139/23/1 140/24/1
f 141/21/1 142/22/1 143/23/1 144/24/1
f 145/21/1 146/22/1 147/23/1 148/24/1
f 149/21/1 150/22/1 151/23/1 152/24/1
f 153/21/1 154/22/1 155/23/1 156/24/1
f 157/25/1 158/26/1 159/27/1 160/28/1
f 161/29/1 162/30/1 163/31/1 164/32/1
f 165/21/1 166/22/1 167/23/1 168/24/1
f 169/21/1 170/22/1 171/23/1 172/24/1
f 173/21/1 174/22/1 175/23/1 176/24/1
f 177/21/1 178/22/1 179/23/1 180/24/1
f 181/21/1 182/22/1 183/23/1 184/24/1
f 185/21/1 186/22/1 187/23/1 188/24/1
f 189/21/1 190/22/1 191/23/1 192/24/1
f 193/21/1 194/22/1 195/23/1 196/24/1
f 197/21/1 198/22/1 199/23/1 200/24/1
f 201/21/1 202/22/1 203/23/1 204/24/1
f 205/21/1 206/22/1 207/23/1 208/24/1
f 209/21/1 210/22/1 211/23/1 212/24/1
f 213/21/1 214/22/1 215/23/1 216/24/1
f 217/33/1 218/34/1 219/35/1 220/36/1
f 221/37/1 222/38/1 223/39/1 224/40/1
f 225/17/1 226/18/1 227/19/1 228/20/1
f 229/21/1 230/22/1 231/23/1 232/24/1
f 233/21/1 234/22/1 235/23/1 236/24/1
f 237/21/1 238/22/1 239/23/1 240/24/1
f 241/21/1 242/22/1 243/23/1 244/24/1
f 245/21/1 246/22/1 247/23/1 248/24/1
f 249/21/1 250/22/1 251/23/1 252/24/1
f 253/21/1 254/22/1 255/23/1 256/24/1
f 257/21/1 258/22/1 259/23/1 260/24/1
f 261/21/1 262/22/1 263/23/1 264/24/1
f 265/21/1 266/22/1 267/23/1 268/24/1
f 269/25/1 270/26/1 271/27/1 272/28/1
f 273/29/1 274/30/1 275/31/1 276/32/1
f 277/21/1 278/22/1 279/23/1 280/24/1
f 281/21/1 282/22/1 283/23/1 284/24/1
f 285/21/1 286/22/1 287/23/1 288/24/1
f 289/21/1 290/22/1 291/23/1 292/24/1
f 293/21/1 294/22/1 295/23/1 296/24/1
f 297/21/1 298/22/1 299/23/1 300/24/1
f 301/21/1 302/22/1 303/23/1 304/24/1
f 305/21/1 306/22/1 307/23/1 308/24/1
f 309/21/1 310/22/1 311/23/1 312/24/1
f 313/33/1 314/34/1 315/35/1 316/36/1
f 317/33/1 318/34/1 319/35/1 320/36/1
f 321/33/1 322/34/1 323/35/1 324/36/1
f 325/33/1 326/34/1 327/35/1 328/36/1
f 329/41/1 330/42/1 331/43/1 332/44/1
f 333/17/1 334/18/1 335/19/1 336/20/1
f 337/21/1 338/22/1 339/23/1 340/24/1
f 341/21/1 342/22/1 343/23/1 344/24/1
f 345/21/1 346/22/1 347/23/1 348/24/1
f 349/21/1 350/22/1 351/23/1 352/24/1
f 353/21/1 354/22/1 355/23/1 356/24/1
f 357/21/1 358/22/1 359/23/1 360/24/1
f 361/21/1 362/22/1 363/23/1 364/24/1
f 365/21/1 366/22/1 367/23/1 368/24/1
f 369/21/1 370/22/1 371/23/1 372/24/1
f 373/33/1 374/34/1 375/35/1 376/36/1
f 377/41/1 378/42/1 379/43/1 380/44/1
f 381/45/1 382/46/1 383/47/1 384/48/1
f 385/33/1 386/34/1 387/35/1 388/36/1
f 389/21/1 390/22/1 391/23/1 392/24/1
f 393/21/1 394/22/1 395/23/1 396/24/1
f 397/21/1 398/22/1 399/23/1 400/24/1
f 401/21/1 402/22/1 403/23/1 404/24/1
f 405/21/1 406/22/1 407/23/1 408/24/1
f 409/21/1 410/22/1 411/23/1 412/24/1
f 413/21/1 414/22/1 415/23/1 416/24/1
f 417/33/1 418/34/1 419/35/1 420/36/1
f 421/41/1 422/42/1 423/43/1 424/44/1
f 425/37/1 426/38/1 427/39/1 428/40/1
f 429/21/1 430/22/1 431/23/1 432/24/1
f 433/21/1 434/22/1 435/23/1 436/24/1
f 437/21/1 438/22/1 439/23/1 440/24/1
f 441/21/1 442/22/1 443/23/1 444/24/1
f 445/21/1 446/22/1 447/23/1 448/24/1
f 449/21/1 450/22/1 451/23/1 452/24/1
f 453/33/1 454/34/1 455/35/1 456/36/1
f 457/33/1 458/34/1 459/35/1 460/36/1
f 461/33/1 462/34/1 463/35/1 464/36/1
f 465/41/1 466/42/1 467/43/1 468/44/1
f 469/45/1 470/46/1 471/47/1 472/48/1
f 473/33/1 474/34/1 475/35/1 476/36/1
f 477/33/1 478/34/1 479/35/1 480/36/1
f 481/33/1 482/34/1 483/35/1 484/36/1
f 485/33/1 486/34/1 487/35/1 488/36/1
f 489/33/1 490/34/1 491/35/1 492/36/1
f 493/33/1 494/34/1 495/35/1 496/36/1
f 497/33/1 498/34/1 499/35/1 500/36/1
f 501/41/1 502/42/1 503/43/1 504/44/1
f 505/45/1 506/46/1 507/47/1 508/48/1
f 509/33/1 510/34/1 511/35/1 512/36/1
f 513/33/1 514/34/1 515/35/1 516/36/1
f 517/33/1 518/34/1 519/35/1 520/36/1
f 521/33/1 522/34/1 523/35/1 524/36/1
f 525/33/1 526/34/1 527/35/1 528/36/1
f 529/33/1 530/34/1 531/35/1 532/36/1
f 533/41/1 534/42/1 535/43/1 536/44/1

