# Tiled2Unity generated file. Do not modify by hand.
# Wavefront file for 'suburbs_mesh_0002.obj'

# Vertices (Count = 928)
v -288 -64 0
v -304 -64 0
v -304 -48 0
v -288 -48 0
v -272 -64 0
v -288 -64 0
v -288 -48 0
v -272 -48 0
v -256 -64 0
v -272 -64 0
v -272 -48 0
v -256 -48 0
v -240 -64 0
v -256 -64 0
v -256 -48 0
v -240 -48 0
v -288 -80 0
v -304 -80 0
v -304 -64 0
v -288 -64 0
v -272 -80 0
v -288 -80 0
v -288 -64 0
v -272 -64 0
v -256 -80 0
v -272 -80 0
v -272 -64 0
v -256 -64 0
v -240 -80 0
v -256 -80 0
v -256 -64 0
v -240 -64 0
v -288 -96 0
v -304 -96 0
v -304 -80 0
v -288 -80 0
v -272 -96 0
v -288 -96 0
v -288 -80 0
v -272 -80 0
v -256 -96 0
v -272 -96 0
v -272 -80 0
v -256 -80 0
v -240 -96 0
v -256 -96 0
v -256 -80 0
v -240 -80 0
v -288 -112 0
v -304 -112 0
v -304 -96 0
v -288 -96 0
v -272 -112 0
v -288 -112 0
v -288 -96 0
v -272 -96 0
v -256 -112 0
v -272 -112 0
v -272 -96 0
v -256 -96 0
v -240 -112 0
v -256 -112 0
v -256 -96 0
v -240 -96 0
v -288 -128 0
v -304 -128 0
v -304 -112 0
v -288 -112 0
v -272 -128 0
v -288 -128 0
v -288 -112 0
v -272 -112 0
v -256 -128 0
v -272 -128 0
v -272 -112 0
v -256 -112 0
v -240 -128 0
v -256 -128 0
v -256 -112 0
v -240 -112 0
v -224 -128 0
v -240 -128 0
v -240 -112 0
v -224 -112 0
v -272 -144 0
v -288 -144 0
v -288 -128 0
v -272 -128 0
v -256 -144 0
v -272 -144 0
v -272 -128 0
v -256 -128 0
v -240 -144 0
v -256 -144 0
v -256 -128 0
v -240 -128 0
v -224 -144 0
v -240 -144 0
v -240 -128 0
v -224 -128 0
v -208 -144 0
v -224 -144 0
v -224 -128 0
v -208 -128 0
v -272 -160 0
v -288 -160 0
v -288 -144 0
v -272 -144 0
v -256 -160 0
v -272 -160 0
v -272 -144 0
v -256 -144 0
v -240 -160 0
v -256 -160 0
v -256 -144 0
v -240 -144 0
v -224 -160 0
v -240 -160 0
v -240 -144 0
v -224 -144 0
v -208 -160 0
v -224 -160 0
v -224 -144 0
v -208 -144 0
v -272 -176 0
v -288 -176 0
v -288 -160 0
v -272 -160 0
v -256 -176 0
v -272 -176 0
v -272 -160 0
v -256 -160 0
v -240 -176 0
v -256 -176 0
v -256 -160 0
v -240 -160 0
v -224 -176 0
v -240 -176 0
v -240 -160 0
v -224 -160 0
v -208 -176 0
v -224 -176 0
v -224 -160 0
v -208 -160 0
v -272 -192 0
v -288 -192 0
v -288 -176 0
v -272 -176 0
v -256 -192 0
v -272 -192 0
v -272 -176 0
v -256 -176 0
v -240 -192 0
v -256 -192 0
v -256 -176 0
v -240 -176 0
v -224 -192 0
v -240 -192 0
v -240 -176 0
v -224 -176 0
v -208 -192 0
v -224 -192 0
v -224 -176 0
v -208 -176 0
v -272 -208 0
v -288 -208 0
v -288 -192 0
v -272 -192 0
v -256 -208 0
v -272 -208 0
v -272 -192 0
v -256 -192 0
v -240 -208 0
v -256 -208 0
v -256 -192 0
v -240 -192 0
v -224 -208 0
v -240 -208 0
v -240 -192 0
v -224 -192 0
v -208 -208 0
v -224 -208 0
v -224 -192 0
v -208 -192 0
v -272 -224 0
v -288 -224 0
v -288 -208 0
v -272 -208 0
v -256 -224 0
v -272 -224 0
v -272 -208 0
v -256 -208 0
v -240 -224 0
v -256 -224 0
v -256 -208 0
v -240 -208 0
v -224 -224 0
v -240 -224 0
v -240 -208 0
v -224 -208 0
v -208 -224 0
v -224 -224 0
v -224 -208 0
v -208 -208 0
v -272 -240 0
v -288 -240 0
v -288 -224 0
v -272 -224 0
v -256 -240 0
v -272 -240 0
v -272 -224 0
v -256 -224 0
v -240 -240 0
v -256 -240 0
v -256 -224 0
v -240 -224 0
v -224 -240 0
v -240 -240 0
v -240 -224 0
v -224 -224 0
v -208 -240 0
v -224 -240 0
v -224 -224 0
v -208 -224 0
v -192 -240 0
v -208 -240 0
v -208 -224 0
v -192 -224 0
v -176 -240 0
v -192 -240 0
v -192 -224 0
v -176 -224 0
v -160 -240 0
v -176 -240 0
v -176 -224 0
v -160 -224 0
v -144 -240 0
v -160 -240 0
v -160 -224 0
v -144 -224 0
v -128 -240 0
v -144 -240 0
v -144 -224 0
v -128 -224 0
v -112 -240 0
v -128 -240 0
v -128 -224 0
v -112 -224 0
v -96 -240 0
v -112 -240 0
v -112 -224 0
v -96 -224 0
v -80 -240 0
v -96 -240 0
v -96 -224 0
v -80 -224 0
v -64 -240 0
v -80 -240 0
v -80 -224 0
v -64 -224 0
v -48 -240 0
v -64 -240 0
v -64 -224 0
v -48 -224 0
v -32 -240 0
v -48 -240 0
v -48 -224 0
v -32 -224 0
v -16 -240 0
v -32 -240 0
v -32 -224 0
v -16 -224 0
v 0 -240 0
v -16 -240 0
v -16 -224 0
v 0 -224 0
v -272 -256 0
v -288 -256 0
v -288 -240 0
v -272 -240 0
v -256 -256 0
v -272 -256 0
v -272 -240 0
v -256 -240 0
v -240 -256 0
v -256 -256 0
v -256 -240 0
v -240 -240 0
v -224 -256 0
v -240 -256 0
v -240 -240 0
v -224 -240 0
v -208 -256 0
v -224 -256 0
v -224 -240 0
v -208 -240 0
v -192 -256 0
v -208 -256 0
v -208 -240 0
v -192 -240 0
v -176 -256 0
v -192 -256 0
v -192 -240 0
v -176 -240 0
v -160 -256 0
v -176 -256 0
v -176 -240 0
v -160 -240 0
v -144 -256 0
v -160 -256 0
v -160 -240 0
v -144 -240 0
v -128 -256 0
v -144 -256 0
v -144 -240 0
v -128 -240 0
v -112 -256 0
v -128 -256 0
v -128 -240 0
v -112 -240 0
v -96 -256 0
v -112 -256 0
v -112 -240 0
v -96 -240 0
v -80 -256 0
v -96 -256 0
v -96 -240 0
v -80 -240 0
v -64 -256 0
v -80 -256 0
v -80 -240 0
v -64 -240 0
v -48 -256 0
v -64 -256 0
v -64 -240 0
v -48 -240 0
v -32 -256 0
v -48 -256 0
v -48 -240 0
v -32 -240 0
v -16 -256 0
v -32 -256 0
v -32 -240 0
v -16 -240 0
v 0 -256 0
v -16 -256 0
v -16 -240 0
v 0 -240 0
v -320 -272 0
v -336 -272 0
v -336 -256 0
v -320 -256 0
v -304 -272 0
v -320 -272 0
v -320 -256 0
v -304 -256 0
v -288 -272 0
v -304 -272 0
v -304 -256 0
v -288 -256 0
v -272 -272 0
v -288 -272 0
v -288 -256 0
v -272 -256 0
v -256 -272 0
v -272 -272 0
v -272 -256 0
v -256 -256 0
v -240 -272 0
v -256 -272 0
v -256 -256 0
v -240 -256 0
v -224 -272 0
v -240 -272 0
v -240 -256 0
v -224 -256 0
v -208 -272 0
v -224 -272 0
v -224 -256 0
v -208 -256 0
v -192 -272 0
v -208 -272 0
v -208 -256 0
v -192 -256 0
v -176 -272 0
v -192 -272 0
v -192 -256 0
v -176 -256 0
v -160 -272 0
v -176 -272 0
v -176 -256 0
v -160 -256 0
v -144 -272 0
v -160 -272 0
v -160 -256 0
v -144 -256 0
v -128 -272 0
v -144 -272 0
v -144 -256 0
v -128 -256 0
v -112 -272 0
v -128 -272 0
v -128 -256 0
v -112 -256 0
v -96 -272 0
v -112 -272 0
v -112 -256 0
v -96 -256 0
v -80 -272 0
v -96 -272 0
v -96 -256 0
v -80 -256 0
v -64 -272 0
v -80 -272 0
v -80 -256 0
v -64 -256 0
v -48 -272 0
v -64 -272 0
v -64 -256 0
v -48 -256 0
v -32 -272 0
v -48 -272 0
v -48 -256 0
v -32 -256 0
v -16 -272 0
v -32 -272 0
v -32 -256 0
v -16 -256 0
v 0 -272 0
v -16 -272 0
v -16 -256 0
v 0 -256 0
v -464 -288 0
v -480 -288 0
v -480 -272 0
v -464 -272 0
v -448 -288 0
v -464 -288 0
v -464 -272 0
v -448 -272 0
v -432 -288 0
v -448 -288 0
v -448 -272 0
v -432 -272 0
v -416 -288 0
v -432 -288 0
v -432 -272 0
v -416 -272 0
v -400 -288 0
v -416 -288 0
v -416 -272 0
v -400 -272 0
v -384 -288 0
v -400 -288 0
v -400 -272 0
v -384 -272 0
v -368 -288 0
v -384 -288 0
v -384 -272 0
v -368 -272 0
v -352 -288 0
v -368 -288 0
v -368 -272 0
v -352 -272 0
v -336 -288 0
v -352 -288 0
v -352 -272 0
v -336 -272 0
v -320 -288 0
v -336 -288 0
v -336 -272 0
v -320 -272 0
v -304 -288 0
v -320 -288 0
v -320 -272 0
v -304 -272 0
v -288 -288 0
v -304 -288 0
v -304 -272 0
v -288 -272 0
v -272 -288 0
v -288 -288 0
v -288 -272 0
v -272 -272 0
v -256 -288 0
v -272 -288 0
v -272 -272 0
v -256 -272 0
v -240 -288 0
v -256 -288 0
v -256 -272 0
v -240 -272 0
v -224 -288 0
v -240 -288 0
v -240 -272 0
v -224 -272 0
v -208 -288 0
v -224 -288 0
v -224 -272 0
v -208 -272 0
v -192 -288 0
v -208 -288 0
v -208 -272 0
v -192 -272 0
v -176 -288 0
v -192 -288 0
v -192 -272 0
v -176 -272 0
v -160 -288 0
v -176 -288 0
v -176 -272 0
v -160 -272 0
v -144 -288 0
v -160 -288 0
v -160 -272 0
v -144 -272 0
v -128 -288 0
v -144 -288 0
v -144 -272 0
v -128 -272 0
v -112 -288 0
v -128 -288 0
v -128 -272 0
v -112 -272 0
v -96 -288 0
v -112 -288 0
v -112 -272 0
v -96 -272 0
v -80 -288 0
v -96 -288 0
v -96 -272 0
v -80 -272 0
v -64 -288 0
v -80 -288 0
v -80 -272 0
v -64 -272 0
v -48 -288 0
v -64 -288 0
v -64 -272 0
v -48 -272 0
v -32 -288 0
v -48 -288 0
v -48 -272 0
v -32 -272 0
v -16 -288 0
v -32 -288 0
v -32 -272 0
v -16 -272 0
v 0 -288 0
v -16 -288 0
v -16 -272 0
v 0 -272 0
v -464 -304 0
v -480 -304 0
v -480 -288 0
v -464 -288 0
v -448 -304 0
v -464 -304 0
v -464 -288 0
v -448 -288 0
v -432 -304 0
v -448 -304 0
v -448 -288 0
v -432 -288 0
v -416 -304 0
v -432 -304 0
v -432 -288 0
v -416 -288 0
v -400 -304 0
v -416 -304 0
v -416 -288 0
v -400 -288 0
v -384 -304 0
v -400 -304 0
v -400 -288 0
v -384 -288 0
v -368 -304 0
v -384 -304 0
v -384 -288 0
v -368 -288 0
v -352 -304 0
v -368 -304 0
v -368 -288 0
v -352 -288 0
v -336 -304 0
v -352 -304 0
v -352 -288 0
v -336 -288 0
v -320 -304 0
v -336 -304 0
v -336 -288 0
v -320 -288 0
v -304 -304 0
v -320 -304 0
v -320 -288 0
v -304 -288 0
v -288 -304 0
v -304 -304 0
v -304 -288 0
v -288 -288 0
v -272 -304 0
v -288 -304 0
v -288 -288 0
v -272 -288 0
v -256 -304 0
v -272 -304 0
v -272 -288 0
v -256 -288 0
v -240 -304 0
v -256 -304 0
v -256 -288 0
v -240 -288 0
v -224 -304 0
v -240 -304 0
v -240 -288 0
v -224 -288 0
v -208 -304 0
v -224 -304 0
v -224 -288 0
v -208 -288 0
v -192 -304 0
v -208 -304 0
v -208 -288 0
v -192 -288 0
v -176 -304 0
v -192 -304 0
v -192 -288 0
v -176 -288 0
v -160 -304 0
v -176 -304 0
v -176 -288 0
v -160 -288 0
v -144 -304 0
v -160 -304 0
v -160 -288 0
v -144 -288 0
v -128 -304 0
v -144 -304 0
v -144 -288 0
v -128 -288 0
v -112 -304 0
v -128 -304 0
v -128 -288 0
v -112 -288 0
v -96 -304 0
v -112 -304 0
v -112 -288 0
v -96 -288 0
v -464 -320 0
v -480 -320 0
v -480 -304 0
v -464 -304 0
v -448 -320 0
v -464 -320 0
v -464 -304 0
v -448 -304 0
v -432 -320 0
v -448 -320 0
v -448 -304 0
v -432 -304 0
v -416 -320 0
v -432 -320 0
v -432 -304 0
v -416 -304 0
v -400 -320 0
v -416 -320 0
v -416 -304 0
v -400 -304 0
v -384 -320 0
v -400 -320 0
v -400 -304 0
v -384 -304 0
v -368 -320 0
v -384 -320 0
v -384 -304 0
v -368 -304 0
v -352 -320 0
v -368 -320 0
v -368 -304 0
v -352 -304 0
v -336 -320 0
v -352 -320 0
v -352 -304 0
v -336 -304 0
v -320 -320 0
v -336 -320 0
v -336 -304 0
v -320 -304 0
v -304 -320 0
v -320 -320 0
v -320 -304 0
v -304 -304 0
v -288 -320 0
v -304 -320 0
v -304 -304 0
v -288 -304 0
v -272 -320 0
v -288 -320 0
v -288 -304 0
v -272 -304 0
v -256 -320 0
v -272 -320 0
v -272 -304 0
v -256 -304 0
v -240 -320 0
v -256 -320 0
v -256 -304 0
v -240 -304 0
v -224 -320 0
v -240 -320 0
v -240 -304 0
v -224 -304 0
v -208 -320 0
v -224 -320 0
v -224 -304 0
v -208 -304 0
v -464 -336 0
v -480 -336 0
v -480 -320 0
v -464 -320 0
v -448 -336 0
v -464 -336 0
v -464 -320 0
v -448 -320 0
v -432 -336 0
v -448 -336 0
v -448 -320 0
v -432 -320 0
v -416 -336 0
v -432 -336 0
v -432 -320 0
v -416 -320 0
v -400 -336 0
v -416 -336 0
v -416 -320 0
v -400 -320 0
v -384 -336 0
v -400 -336 0
v -400 -320 0
v -384 -320 0
v -368 -336 0
v -384 -336 0
v -384 -320 0
v -368 -320 0
v -352 -336 0
v -368 -336 0
v -368 -320 0
v -352 -320 0
v -336 -336 0
v -352 -336 0
v -352 -320 0
v -336 -320 0
v -320 -336 0
v -336 -336 0
v -336 -320 0
v -320 -320 0
v -304 -336 0
v -320 -336 0
v -320 -320 0
v -304 -320 0
v -288 -336 0
v -304 -336 0
v -304 -320 0
v -288 -320 0
v -272 -336 0
v -288 -336 0
v -288 -320 0
v -272 -320 0
v -256 -336 0
v -272 -336 0
v -272 -320 0
v -256 -320 0
v -240 -336 0
v -256 -336 0
v -256 -320 0
v -240 -320 0
v -224 -336 0
v -240 -336 0
v -240 -320 0
v -224 -320 0
v -208 -336 0
v -224 -336 0
v -224 -320 0
v -208 -320 0
v -256 -352 0
v -272 -352 0
v -272 -336 0
v -256 -336 0
v -240 -352 0
v -256 -352 0
v -256 -336 0
v -240 -336 0
v -224 -352 0
v -240 -352 0
v -240 -336 0
v -224 -336 0
v -208 -352 0
v -224 -352 0
v -224 -336 0
v -208 -336 0
v -256 -368 0
v -272 -368 0
v -272 -352 0
v -256 -352 0
v -240 -368 0
v -256 -368 0
v -256 -352 0
v -240 -352 0
v -224 -368 0
v -240 -368 0
v -240 -352 0
v -224 -352 0
v -208 -368 0
v -224 -368 0
v -224 -352 0
v -208 -352 0
v -256 -384 0
v -272 -384 0
v -272 -368 0
v -256 -368 0
v -240 -384 0
v -256 -384 0
v -256 -368 0
v -240 -368 0
v -224 -384 0
v -240 -384 0
v -240 -368 0
v -224 -368 0
v -208 -384 0
v -224 -384 0
v -224 -368 0
v -208 -368 0
v -256 -400 0
v -272 -400 0
v -272 -384 0
v -256 -384 0
v -240 -400 0
v -256 -400 0
v -256 -384 0
v -240 -384 0
v -224 -400 0
v -240 -400 0
v -240 -384 0
v -224 -384 0
v -208 -400 0
v -224 -400 0
v -224 -384 0
v -208 -384 0
v -256 -416 0
v -272 -416 0
v -272 -400 0
v -256 -400 0
v -240 -416 0
v -256 -416 0
v -256 -400 0
v -240 -400 0
v -224 -416 0
v -240 -416 0
v -240 -400 0
v -224 -400 0
v -208 -416 0
v -224 -416 0
v -224 -400 0
v -208 -400 0
v -256 -432 0
v -272 -432 0
v -272 -416 0
v -256 -416 0
v -240 -432 0
v -256 -432 0
v -256 -416 0
v -240 -416 0
v -224 -432 0
v -240 -432 0
v -240 -416 0
v -224 -416 0
v -208 -432 0
v -224 -432 0
v -224 -416 0
v -208 -416 0
v -256 -448 0
v -272 -448 0
v -272 -432 0
v -256 -432 0
v -240 -448 0
v -256 -448 0
v -256 -432 0
v -240 -432 0
v -224 -448 0
v -240 -448 0
v -240 -432 0
v -224 -432 0
v -208 -448 0
v -224 -448 0
v -224 -432 0
v -208 -432 0
v -256 -464 0
v -272 -464 0
v -272 -448 0
v -256 -448 0
v -240 -464 0
v -256 -464 0
v -256 -448 0
v -240 -448 0
v -224 -464 0
v -240 -464 0
v -240 -448 0
v -224 -448 0
v -208 -464 0
v -224 -464 0
v -224 -448 0
v -208 -448 0
v -256 -480 0
v -272 -480 0
v -272 -464 0
v -256 -464 0
v -240 -480 0
v -256 -480 0
v -256 -464 0
v -240 -464 0
v -224 -480 0
v -240 -480 0
v -240 -464 0
v -224 -464 0
v -208 -480 0
v -224 -480 0
v -224 -464 0
v -208 -464 0

# Texture cooridinates (Count = 68)
vt 0.1580579 0.6787072
vt 0.1745868 0.6787072
vt 0.1745868 0.7091255
vt 0.1580579 0.7091255
vt 0.1404959 0.6787072
vt 0.1570248 0.6787072
vt 0.1570248 0.7091255
vt 0.1404959 0.7091255
vt 0.1229339 0.6787072
vt 0.1394628 0.6787072
vt 0.1394628 0.7091255
vt 0.1229339 0.7091255
vt 0.1580579 0.6463878
vt 0.1745868 0.6463878
vt 0.1745868 0.6768061
vt 0.1580579 0.6768061
vt 0.1404959 0.6463878
vt 0.1570248 0.6463878
vt 0.1570248 0.6768061
vt 0.1404959 0.6768061
vt 0.1229339 0.6463878
vt 0.1394628 0.6463878
vt 0.1394628 0.6768061
vt 0.1229339 0.6768061
vt 0.1580579 0.6140684
vt 0.1745868 0.6140684
vt 0.1745868 0.6444867
vt 0.1580579 0.6444867
vt 0.08780992 0.6787072
vt 0.1043388 0.6787072
vt 0.1043388 0.7091255
vt 0.08780992 0.7091255
vt 0.1053719 0.6463878
vt 0.1219008 0.6463878
vt 0.1219008 0.6768061
vt 0.1053719 0.6768061
vt 0.08780992 0.6463878
vt 0.1043388 0.6463878
vt 0.1043388 0.6768061
vt 0.08780992 0.6768061
vt 0.1053719 0.6787072
vt 0.1219008 0.6787072
vt 0.1219008 0.7091255
vt 0.1053719 0.7091255
vt 0.1404959 0.6140684
vt 0.1570248 0.6140684
vt 0.1570248 0.6444867
vt 0.1404959 0.6444867
vt 0.1229339 0.6140684
vt 0.1394628 0.6140684
vt 0.1394628 0.6444867
vt 0.1229339 0.6444867
vt 0.1229339 0.8726236
vt 0.1394628 0.8726236
vt 0.1394628 0.9030418
vt 0.1229339 0.9030418
vt 0.1053719 0.8726236
vt 0.1219008 0.8726236
vt 0.1219008 0.9030418
vt 0.1053719 0.9030418
vt 0.1229339 0.904943
vt 0.1394628 0.904943
vt 0.1394628 0.9353612
vt 0.1229339 0.9353612
vt 0.1053719 0.904943
vt 0.1219008 0.904943
vt 0.1219008 0.9353612
vt 0.1053719 0.9353612

# Normal
vn 0 0 -1

# Mesh description
g suburbs_mesh_0002

# Faces
f 1/1/1 2/2/1 3/3/1 4/4/1
f 5/5/1 6/6/1 7/7/1 8/8/1
f 9/5/1 10/6/1 11/7/1 12/8/1
f 13/9/1 14/10/1 15/11/1 16/12/1
f 17/13/1 18/14/1 19/15/1 20/16/1
f 21/17/1 22/18/1 23/19/1 24/20/1
f 25/17/1 26/18/1 27/19/1 28/20/1
f 29/21/1 30/22/1 31/23/1 32/24/1
f 33/13/1 34/14/1 35/15/1 36/16/1
f 37/17/1 38/18/1 39/19/1 40/20/1
f 41/17/1 42/18/1 43/19/1 44/20/1
f 45/21/1 46/22/1 47/23/1 48/24/1
f 49/13/1 50/14/1 51/15/1 52/16/1
f 53/17/1 54/18/1 55/19/1 56/20/1
f 57/17/1 58/18/1 59/19/1 60/20/1
f 61/21/1 62/22/1 63/23/1 64/24/1
f 65/25/1 66/26/1 67/27/1 68/28/1
f 69/29/1 70/30/1 71/31/1 72/32/1
f 73/17/1 74/18/1 75/19/1 76/20/1
f 77/33/1 78/34/1 79/35/1 80/36/1
f 81/9/1 82/10/1 83/11/1 84/12/1
f 85/13/1 86/14/1 87/15/1 88/16/1
f 89/17/1 90/18/1 91/19/1 92/20/1
f 93/17/1 94/18/1 95/19/1 96/20/1
f 97/33/1 98/34/1 99/35/1 100/36/1
f 101/9/1 102/10/1 103/11/1 104/12/1
f 105/13/1 106/14/1 107/15/1 108/16/1
f 109/17/1 110/18/1 111/19/1 112/20/1
f 113/17/1 114/18/1 115/19/1 116/20/1
f 117/17/1 118/18/1 119/19/1 120/20/1
f 121/21/1 122/22/1 123/23/1 124/24/1
f 125/13/1 126/14/1 127/15/1 128/16/1
f 129/17/1 130/18/1 131/19/1 132/20/1
f 133/17/1 134/18/1 135/19/1 136/20/1
f 137/17/1 138/18/1 139/19/1 140/20/1
f 141/21/1 142/22/1 143/23/1 144/24/1
f 145/13/1 146/14/1 147/15/1 148/16/1
f 149/17/1 150/18/1 151/19/1 152/20/1
f 153/17/1 154/18/1 155/19/1 156/20/1
f 157/17/1 158/18/1 159/19/1 160/20/1
f 161/21/1 162/22/1 163/23/1 164/24/1
f 165/13/1 166/14/1 167/15/1 168/16/1
f 169/17/1 170/18/1 171/19/1 172/20/1
f 173/17/1 174/18/1 175/19/1 176/20/1
f 177/17/1 178/18/1 179/19/1 180/20/1
f 181/21/1 182/22/1 183/23/1 184/24/1
f 185/13/1 186/14/1 187/15/1 188/16/1
f 189/17/1 190/18/1 191/19/1 192/20/1
f 193/17/1 194/18/1 195/19/1 196/20/1
f 197/17/1 198/18/1 199/19/1 200/20/1
f 201/21/1 202/22/1 203/23/1 204/24/1
f 205/13/1 206/14/1 207/15/1 208/16/1
f 209/17/1 210/18/1 211/19/1 212/20/1
f 213/17/1 214/18/1 215/19/1 216/20/1
f 217/17/1 218/18/1 219/19/1 220/20/1
f 221/33/1 222/34/1 223/35/1 224/36/1
f 225/5/1 226/6/1 227/7/1 228/8/1
f 229/5/1 230/6/1 231/7/1 232/8/1
f 233/5/1 234/6/1 235/7/1 236/8/1
f 237/5/1 238/6/1 239/7/1 240/8/1
f 241/5/1 242/6/1 243/7/1 244/8/1
f 245/5/1 246/6/1 247/7/1 248/8/1
f 249/5/1 250/6/1 251/7/1 252/8/1
f 253/5/1 254/6/1 255/7/1 256/8/1
f 257/5/1 258/6/1 259/7/1 260/8/1
f 261/5/1 262/6/1 263/7/1 264/8/1
f 265/5/1 266/6/1 267/7/1 268/8/1
f 269/5/1 270/6/1 271/7/1 272/8/1
f 273/5/1 274/6/1 275/7/1 276/8/1
f 277/13/1 278/14/1 279/15/1 280/16/1
f 281/17/1 282/18/1 283/19/1 284/20/1
f 285/17/1 286/18/1 287/19/1 288/20/1
f 289/17/1 290/18/1 291/19/1 292/20/1
f 293/17/1 294/18/1 295/19/1 296/20/1
f 297/17/1 298/18/1 299/19/1 300/20/1
f 301/17/1 302/18/1 303/19/1 304/20/1
f 305/17/1 306/18/1 307/19/1 308/20/1
f 309/17/1 310/18/1 311/19/1 312/20/1
f 313/17/1 314/18/1 315/19/1 316/20/1
f 317/17/1 318/18/1 319/19/1 320/20/1
f 321/17/1 322/18/1 323/19/1 324/20/1
f 325/17/1 326/18/1 327/19/1 328/20/1
f 329/17/1 330/18/1 331/19/1 332/20/1
f 333/17/1 334/18/1 335/19/1 336/20/1
f 337/17/1 338/18/1 339/19/1 340/20/1
f 341/17/1 342/18/1 343/19/1 344/20/1
f 345/17/1 346/18/1 347/19/1 348/20/1
f 349/1/1 350/2/1 351/3/1 352/4/1
f 353/5/1 354/6/1 355/7/1 356/8/1
f 357/5/1 358/6/1 359/7/1 360/8/1
f 361/37/1 362/38/1 363/39/1 364/40/1
f 365/17/1 366/18/1 367/19/1 368/20/1
f 369/17/1 370/18/1 371/19/1 372/20/1
f 373/17/1 374/18/1 375/19/1 376/20/1
f 377/17/1 378/18/1 379/19/1 380/20/1
f 381/17/1 382/18/1 383/19/1 384/20/1
f 385/17/1 386/18/1 387/19/1 388/20/1
f 389/17/1 390/18/1 391/19/1 392/20/1
f 393/17/1 394/18/1 395/19/1 396/20/1
f 397/17/1 398/18/1 399/19/1 400/20/1
f 401/17/1 402/18/1 403/19/1 404/20/1
f 405/17/1 406/18/1 407/19/1 408/20/1
f 409/17/1 410/18/1 411/19/1 412/20/1
f 413/17/1 414/18/1 415/19/1 416/20/1
f 417/17/1 418/18/1 419/19/1 420/20/1
f 421/17/1 422/18/1 423/19/1 424/20/1
f 425/17/1 426/18/1 427/19/1 428/20/1
f 429/17/1 430/18/1 431/19/1 432/20/1
f 433/5/1 434/6/1 435/7/1 436/8/1
f 437/5/1 438/6/1 439/7/1 440/8/1
f 441/5/1 442/6/1 443/7/1 444/8/1
f 445/5/1 446/6/1 447/7/1 448/8/1
f 449/5/1 450/6/1 451/7/1 452/8/1
f 453/5/1 454/6/1 455/7/1 456/8/1
f 457/5/1 458/6/1 459/7/1 460/8/1
f 461/5/1 462/6/1 463/7/1 464/8/1
f 465/5/1 466/6/1 467/7/1 468/8/1
f 469/37/1 470/38/1 471/39/1 472/40/1
f 473/17/1 474/18/1 475/19/1 476/20/1
f 477/17/1 478/18/1 479/19/1 480/20/1
f 481/17/1 482/18/1 483/19/1 484/20/1
f 485/17/1 486/18/1 487/19/1 488/20/1
f 489/17/1 490/18/1 491/19/1 492/20/1
f 493/17/1 494/18/1 495/19/1 496/20/1
f 497/17/1 498/18/1 499/19/1 500/20/1
f 501/17/1 502/18/1 503/19/1 504/20/1
f 505/17/1 506/18/1 507/19/1 508/20/1
f 509/17/1 510/18/1 511/19/1 512/20/1
f 513/17/1 514/18/1 515/19/1 516/20/1
f 517/17/1 518/18/1 519/19/1 520/20/1
f 521/17/1 522/18/1 523/19/1 524/20/1
f 525/41/1 526/42/1 527/43/1 528/44/1
f 529/45/1 530/46/1 531/47/1 532/48/1
f 533/45/1 534/46/1 535/47/1 536/48/1
f 537/45/1 538/46/1 539/47/1 540/48/1
f 541/45/1 542/46/1 543/47/1 544/48/1
f 545/45/1 546/46/1 547/47/1 548/48/1
f 549/45/1 550/46/1 551/47/1 552/48/1
f 553/17/1 554/18/1 555/19/1 556/20/1
f 557/17/1 558/18/1 559/19/1 560/20/1
f 561/17/1 562/18/1 563/19/1 564/20/1
f 565/17/1 566/18/1 567/19/1 568/20/1
f 569/17/1 570/18/1 571/19/1 572/20/1
f 573/17/1 574/18/1 575/19/1 576/20/1
f 577/17/1 578/18/1 579/19/1 580/20/1
f 581/17/1 582/18/1 583/19/1 584/20/1
f 585/17/1 586/18/1 587/19/1 588/20/1
f 589/17/1 590/18/1 591/19/1 592/20/1
f 593/17/1 594/18/1 595/19/1 596/20/1
f 597/17/1 598/18/1 599/19/1 600/20/1
f 601/17/1 602/18/1 603/19/1 604/20/1
f 605/17/1 606/18/1 607/19/1 608/20/1
f 609/17/1 610/18/1 611/19/1 612/20/1
f 613/17/1 614/18/1 615/19/1 616/20/1
f 617/41/1 618/42/1 619/43/1 620/44/1
f 621/45/1 622/46/1 623/47/1 624/48/1
f 625/45/1 626/46/1 627/47/1 628/48/1
f 629/45/1 630/46/1 631/47/1 632/48/1
f 633/45/1 634/46/1 635/47/1 636/48/1
f 637/45/1 638/46/1 639/47/1 640/48/1
f 641/45/1 642/46/1 643/47/1 644/48/1
f 645/49/1 646/50/1 647/51/1 648/52/1
f 649/17/1 650/18/1 651/19/1 652/20/1
f 653/17/1 654/18/1 655/19/1 656/20/1
f 657/17/1 658/18/1 659/19/1 660/20/1
f 661/17/1 662/18/1 663/19/1 664/20/1
f 665/17/1 666/18/1 667/19/1 668/20/1
f 669/17/1 670/18/1 671/19/1 672/20/1
f 673/17/1 674/18/1 675/19/1 676/20/1
f 677/17/1 678/18/1 679/19/1 680/20/1
f 681/17/1 682/18/1 683/19/1 684/20/1
f 685/17/1 686/18/1 687/19/1 688/20/1
f 689/17/1 690/18/1 691/19/1 692/20/1
f 693/17/1 694/18/1 695/19/1 696/20/1
f 697/17/1 698/18/1 699/19/1 700/20/1
f 701/17/1 702/18/1 703/19/1 704/20/1
f 705/17/1 706/18/1 707/19/1 708/20/1
f 709/17/1 710/18/1 711/19/1 712/20/1
f 713/21/1 714/22/1 715/23/1 716/24/1
f 717/45/1 718/46/1 719/47/1 720/48/1
f 721/45/1 722/46/1 723/47/1 724/48/1
f 725/45/1 726/46/1 727/47/1 728/48/1
f 729/45/1 730/46/1 731/47/1 732/48/1
f 733/45/1 734/46/1 735/47/1 736/48/1
f 737/45/1 738/46/1 739/47/1 740/48/1
f 741/45/1 742/46/1 743/47/1 744/48/1
f 745/45/1 746/46/1 747/47/1 748/48/1
f 749/45/1 750/46/1 751/47/1 752/48/1
f 753/45/1 754/46/1 755/47/1 756/48/1
f 757/45/1 758/46/1 759/47/1 760/48/1
f 761/45/1 762/46/1 763/47/1 764/48/1
f 765/45/1 766/46/1 767/47/1 768/48/1
f 769/29/1 770/30/1 771/31/1 772/32/1
f 773/17/1 774/18/1 775/19/1 776/20/1
f 777/17/1 778/18/1 779/19/1 780/20/1
f 781/21/1 782/22/1 783/23/1 784/24/1
f 785/13/1 786/14/1 787/15/1 788/16/1
f 789/17/1 790/18/1 791/19/1 792/20/1
f 793/17/1 794/18/1 795/19/1 796/20/1
f 797/21/1 798/22/1 799/23/1 800/24/1
f 801/13/1 802/14/1 803/15/1 804/16/1
f 805/17/1 806/18/1 807/19/1 808/20/1
f 809/17/1 810/18/1 811/19/1 812/20/1
f 813/21/1 814/22/1 815/23/1 816/24/1
f 817/13/1 818/14/1 819/15/1 820/16/1
f 821/17/1 822/18/1 823/19/1 824/20/1
f 825/17/1 826/18/1 827/19/1 828/20/1
f 829/21/1 830/22/1 831/23/1 832/24/1
f 833/25/1 834/26/1 835/27/1 836/28/1
f 837/45/1 838/46/1 839/47/1 840/48/1
f 841/45/1 842/46/1 843/47/1 844/48/1
f 845/49/1 846/50/1 847/51/1 848/52/1
f 849/53/1 850/54/1 851/55/1 852/56/1
f 853/57/1 854/58/1 855/59/1 856/60/1
f 857/57/1 858/58/1 859/59/1 860/60/1
f 861/61/1 862/62/1 863/63/1 864/64/1
f 865/61/1 866/62/1 867/63/1 868/64/1
f 869/57/1 870/58/1 871/59/1 872/60/1
f 873/57/1 874/58/1 875/59/1 876/60/1
f 877/61/1 878/62/1 879/63/1 880/64/1
f 881/53/1 882/54/1 883/55/1 884/56/1
f 885/57/1 886/58/1 887/59/1 888/60/1
f 889/65/1 890/66/1 891/67/1 892/68/1
f 893/53/1 894/54/1 895/55/1 896/56/1
f 897/53/1 898/54/1 899/55/1 900/56/1
f 901/65/1 902/66/1 903/67/1 904/68/1
f 905/65/1 906/66/1 907/67/1 908/68/1
f 909/61/1 910/62/1 911/63/1 912/64/1
f 913/53/1 914/54/1 915/55/1 916/56/1
f 917/65/1 918/66/1 919/67/1 920/68/1
f 921/65/1 922/66/1 923/67/1 924/68/1
f 925/61/1 926/62/1 927/63/1 928/64/1

