# Tiled2Unity generated file. Do not modify by hand.
# Wavefront file for 'village_house5_mesh_0004.obj'

# Vertices (Count = 68)
v -128 -48 0
v -144 -48 0
v -144 -32 0
v -128 -32 0
v -176 -64 0
v -192 -64 0
v -192 -48 0
v -176 -48 0
v -160 -64 0
v -176 -64 0
v -176 -48 0
v -160 -48 0
v -128 -64 0
v -144 -64 0
v -144 -48 0
v -128 -48 0
v -80 -80 0
v -96 -80 0
v -96 -64 0
v -80 -64 0
v -64 -80 0
v -80 -80 0
v -80 -64 0
v -64 -64 0
v -48 -80 0
v -64 -80 0
v -64 -64 0
v -48 -64 0
v -80 -96 0
v -96 -96 0
v -96 -80 0
v -80 -80 0
v -64 -96 0
v -80 -96 0
v -80 -80 0
v -64 -80 0
v -48 -96 0
v -64 -96 0
v -64 -80 0
v -48 -80 0
v -32 -96 0
v -48 -96 0
v -48 -80 0
v -32 -80 0
v -176 -128 0
v -192 -128 0
v -192 -112 0
v -176 -112 0
v -128 -160 0
v -144 -160 0
v -144 -144 0
v -128 -144 0
v -80 -160 0
v -96 -160 0
v -96 -144 0
v -80 -144 0
v -32 -160 0
v -48 -160 0
v -48 -144 0
v -32 -144 0
v -128 -176 0
v -144 -176 0
v -144 -160 0
v -128 -160 0
v -176 -208 0
v -192 -208 0
v -192 -192 0
v -176 -192 0

# Texture cooridinates (Count = 60)
vt 0.7551653 0.5817491
vt 0.7716942 0.5817491
vt 0.7716942 0.6121673
vt 0.7551653 0.6121673
vt 0.4390496 0.904943
vt 0.4555785 0.904943
vt 0.4555785 0.9353612
vt 0.4390496 0.9353612
vt 0.4741735 0.904943
vt 0.4907025 0.904943
vt 0.4907025 0.9353612
vt 0.4741735 0.9353612
vt 0.7727273 0.5171102
vt 0.7892562 0.5171102
vt 0.7892562 0.5475285
vt 0.7727273 0.5475285
vt 0.4566116 0.8079848
vt 0.4731405 0.8079848
vt 0.4731405 0.838403
vt 0.4566116 0.838403
vt 0.4917355 0.8726236
vt 0.5082645 0.8726236
vt 0.5082645 0.9030418
vt 0.4917355 0.9030418
vt 0.5268595 0.8726236
vt 0.5433884 0.8726236
vt 0.5433884 0.9030418
vt 0.5268595 0.9030418
vt 0.4566116 0.7756654
vt 0.4731405 0.7756654
vt 0.4731405 0.8060837
vt 0.4566116 0.8060837
vt 0.4917355 0.8403042
vt 0.5082645 0.8403042
vt 0.5082645 0.8707224
vt 0.4917355 0.8707224
vt 0.5268595 0.8403042
vt 0.5433884 0.8403042
vt 0.5433884 0.8707224
vt 0.5268595 0.8707224
vt 0.4039256 0.7756654
vt 0.4204545 0.7756654
vt 0.4204545 0.8060837
vt 0.4039256 0.8060837
vt 0.4566116 0.9695817
vt 0.4731405 0.9695817
vt 0.4731405 1
vt 0.4566116 1
vt 0.4214876 0.904943
vt 0.4380165 0.904943
vt 0.4380165 0.9353612
vt 0.4214876 0.9353612
vt 0.8078513 0.9695817
vt 0.8243802 0.9695817
vt 0.8243802 1
vt 0.8078513 1
vt 0.8254132 0.9695817
vt 0.8419421 0.9695817
vt 0.8419421 1
vt 0.8254132 1

# Normal
vn 0 0 -1

# Mesh description
g village_house5_mesh_0004

# Faces
f 1/1/1 2/2/1 3/3/1 4/4/1
f 5/5/1 6/6/1 7/7/1 8/8/1
f 9/9/1 10/10/1 11/11/1 12/12/1
f 13/13/1 14/14/1 15/15/1 16/16/1
f 17/17/1 18/18/1 19/19/1 20/20/1
f 21/21/1 22/22/1 23/23/1 24/24/1
f 25/25/1 26/26/1 27/27/1 28/28/1
f 29/29/1 30/30/1 31/31/1 32/32/1
f 33/33/1 34/34/1 35/35/1 36/36/1
f 37/37/1 38/38/1 39/39/1 40/40/1
f 41/41/1 42/42/1 43/43/1 44/44/1
f 45/45/1 46/46/1 47/47/1 48/48/1
f 49/49/1 50/50/1 51/51/1 52/52/1
f 53/53/1 54/54/1 55/55/1 56/56/1
f 57/53/1 58/54/1 59/55/1 60/56/1
f 61/49/1 62/50/1 63/51/1 64/52/1
f 65/57/1 66/58/1 67/59/1 68/60/1

