# Tiled2Unity generated file. Do not modify by hand.
# Wavefront file for 'village_house5_mesh_0005.obj'

# Vertices (Count = 24)
v -144 -48 0
v -160 -48 0
v -160 -32 0
v -144 -32 0
v -144 -64 0
v -160 -64 0
v -160 -48 0
v -144 -48 0
v -176 -80 0
v -192 -80 0
v -192 -64 0
v -176 -64 0
v -176 -96 0
v -192 -96 0
v -192 -80 0
v -176 -80 0
v -176 -112 0
v -192 -112 0
v -192 -96 0
v -176 -96 0
v -128 -128 0
v -144 -128 0
v -144 -112 0
v -128 -112 0

# Texture cooridinates (Count = 24)
vt 0.7423581 0
vt 0.7772925 0
vt 0.7772925 0.052459
vt 0.7423581 0.052459
vt 0.779476 0
vt 0.8144105 0
vt 0.8144105 0.052459
vt 0.779476 0.052459
vt 0.779476 0.7245902
vt 0.8144105 0.7245902
vt 0.8144105 0.7770492
vt 0.779476 0.7770492
vt 0.5196506 0.05573773
vt 0.5545852 0.05573773
vt 0.5545852 0.1081967
vt 0.5196506 0.1081967
vt 0.5196506 0
vt 0.5545852 0
vt 0.5545852 0.052459
vt 0.5196506 0.052459
vt 0.5938864 0.947541
vt 0.628821 0.947541
vt 0.628821 1
vt 0.5938864 1

# Normal
vn 0 0 -1

# Mesh description
g village_house5_mesh_0005

# Faces
f 1/1/1 2/2/1 3/3/1 4/4/1
f 5/5/1 6/6/1 7/7/1 8/8/1
f 9/9/1 10/10/1 11/11/1 12/12/1
f 13/13/1 14/14/1 15/15/1 16/16/1
f 17/17/1 18/18/1 19/19/1 20/20/1
f 21/21/1 22/22/1 23/23/1 24/24/1

