# Tiled2Unity generated file. Do not modify by hand.
# Wavefront file for 'village_house5_mesh_0003.obj'

# Vertices (Count = 40)
v -16 -96 0
v -32 -96 0
v -32 -80 0
v -16 -80 0
v -16 -112 0
v -32 -112 0
v -32 -96 0
v -16 -96 0
v -96 -128 0
v -112 -128 0
v -112 -112 0
v -96 -112 0
v -80 -128 0
v -96 -128 0
v -96 -112 0
v -80 -112 0
v -64 -128 0
v -80 -128 0
v -80 -112 0
v -64 -112 0
v -176 -144 0
v -192 -144 0
v -192 -128 0
v -176 -128 0
v -160 -144 0
v -176 -144 0
v -176 -128 0
v -160 -128 0
v -176 -160 0
v -192 -160 0
v -192 -144 0
v -176 -144 0
v -160 -160 0
v -176 -160 0
v -176 -144 0
v -160 -144 0
v -176 -176 0
v -192 -176 0
v -192 -160 0
v -176 -160 0

# Texture cooridinates (Count = 32)
vt 0.3340611 0.6131147
vt 0.3689956 0.6131147
vt 0.3689956 0.6655738
vt 0.3340611 0.6655738
vt 0.371179 0.7803279
vt 0.4061135 0.7803279
vt 0.4061135 0.8327869
vt 0.371179 0.8327869
vt 0.1113537 0.7245902
vt 0.1462882 0.7245902
vt 0.1462882 0.7770492
vt 0.1113537 0.7770492
vt 0.2598253 0.7245902
vt 0.2947598 0.7245902
vt 0.2947598 0.7770492
vt 0.2598253 0.7770492
vt 0.0742358 0.7245902
vt 0.1091703 0.7245902
vt 0.1091703 0.7770492
vt 0.0742358 0.7770492
vt 0.2227074 0.947541
vt 0.2576419 0.947541
vt 0.2576419 1
vt 0.2227074 1
vt 0.2227074 0.8918033
vt 0.2576419 0.8918033
vt 0.2576419 0.9442623
vt 0.2227074 0.9442623
vt 0.0371179 0.7245902
vt 0.0720524 0.7245902
vt 0.0720524 0.7770492
vt 0.0371179 0.7770492

# Normal
vn 0 0 -1

# Mesh description
g village_house5_mesh_0003

# Faces
f 1/1/1 2/2/1 3/3/1 4/4/1
f 5/5/1 6/6/1 7/7/1 8/8/1
f 9/9/1 10/10/1 11/11/1 12/12/1
f 13/13/1 14/14/1 15/15/1 16/16/1
f 17/17/1 18/18/1 19/19/1 20/20/1
f 21/21/1 22/22/1 23/23/1 24/24/1
f 25/17/1 26/18/1 27/19/1 28/20/1
f 29/25/1 30/26/1 31/27/1 32/28/1
f 33/17/1 34/18/1 35/19/1 36/20/1
f 37/29/1 38/30/1 39/31/1 40/32/1

