# Tiled2Unity generated file. Do not modify by hand.
# Wavefront file for 'testhome_mesh_0003.obj'

# Vertices (Count = 92)
v -112 -64 0
v -128 -64 0
v -128 -48 0
v -112 -48 0
v -96 -64 0
v -112 -64 0
v -112 -48 0
v -96 -48 0
v -80 -64 0
v -96 -64 0
v -96 -48 0
v -80 -48 0
v -48 -64 0
v -64 -64 0
v -64 -48 0
v -48 -48 0
v -32 -64 0
v -48 -64 0
v -48 -48 0
v -32 -48 0
v -16 -64 0
v -32 -64 0
v -32 -48 0
v -16 -48 0
v -160 -80 0
v -176 -80 0
v -176 -64 0
v -160 -64 0
v -112 -80 0
v -128 -80 0
v -128 -64 0
v -112 -64 0
v -96 -80 0
v -112 -80 0
v -112 -64 0
v -96 -64 0
v -80 -80 0
v -96 -80 0
v -96 -64 0
v -80 -64 0
v -48 -80 0
v -64 -80 0
v -64 -64 0
v -48 -64 0
v -32 -80 0
v -48 -80 0
v -48 -64 0
v -32 -64 0
v -16 -80 0
v -32 -80 0
v -32 -64 0
v -16 -64 0
v -160 -112 0
v -176 -112 0
v -176 -96 0
v -160 -96 0
v -80 -112 0
v -96 -112 0
v -96 -96 0
v -80 -96 0
v -64 -112 0
v -80 -112 0
v -80 -96 0
v -64 -96 0
v -48 -112 0
v -64 -112 0
v -64 -96 0
v -48 -96 0
v -32 -112 0
v -48 -112 0
v -48 -96 0
v -32 -96 0
v -160 -128 0
v -176 -128 0
v -176 -112 0
v -160 -112 0
v -80 -128 0
v -96 -128 0
v -96 -112 0
v -80 -112 0
v -64 -128 0
v -80 -128 0
v -80 -112 0
v -64 -112 0
v -48 -128 0
v -64 -128 0
v -64 -112 0
v -48 -112 0
v -32 -128 0
v -48 -128 0
v -48 -112 0
v -32 -112 0

# Texture cooridinates (Count = 76)
vt 0.5268595 0.8726236
vt 0.5433884 0.8726236
vt 0.5433884 0.9030418
vt 0.5268595 0.9030418
vt 0.4917355 0.8726236
vt 0.5082645 0.8726236
vt 0.5082645 0.9030418
vt 0.4917355 0.9030418
vt 0.2107438 0.7756654
vt 0.2272727 0.7756654
vt 0.2272727 0.8060837
vt 0.2107438 0.8060837
vt 0.2107438 0.8403042
vt 0.2272727 0.8403042
vt 0.2272727 0.8707224
vt 0.2107438 0.8707224
vt 0.2107438 0.8079848
vt 0.2272727 0.8079848
vt 0.2272727 0.838403
vt 0.2107438 0.838403
vt 0.2634298 0.9372624
vt 0.2799587 0.9372624
vt 0.2799587 0.9676806
vt 0.2634298 0.9676806
vt 0.5268595 0.8403042
vt 0.5433884 0.8403042
vt 0.5433884 0.8707224
vt 0.5268595 0.8707224
vt 0.4917355 0.8403042
vt 0.5082645 0.8403042
vt 0.5082645 0.8707224
vt 0.4917355 0.8707224
vt 0.2283058 0.7756654
vt 0.2448347 0.7756654
vt 0.2448347 0.8060837
vt 0.2283058 0.8060837
vt 0.2283058 0.8403042
vt 0.2448347 0.8403042
vt 0.2448347 0.8707224
vt 0.2283058 0.8707224
vt 0.2283058 0.8079848
vt 0.2448347 0.8079848
vt 0.2448347 0.838403
vt 0.2283058 0.838403
vt 0.4390496 0.743346
vt 0.4555785 0.743346
vt 0.4555785 0.7737643
vt 0.4390496 0.7737643
vt 0.3863636 0.8403042
vt 0.4028926 0.8403042
vt 0.4028926 0.8707224
vt 0.3863636 0.8707224
vt 0.3512397 0.7756654
vt 0.3677686 0.7756654
vt 0.3677686 0.8060837
vt 0.3512397 0.8060837
vt 0.3336777 0.7756654
vt 0.3502066 0.7756654
vt 0.3502066 0.8060837
vt 0.3336777 0.8060837
vt 0.3688017 0.8403042
vt 0.3853306 0.8403042
vt 0.3853306 0.8707224
vt 0.3688017 0.8707224
vt 0.4390496 0.7110266
vt 0.4555785 0.7110266
vt 0.4555785 0.7414448
vt 0.4390496 0.7414448
vt 0.3863636 0.8079848
vt 0.4028926 0.8079848
vt 0.4028926 0.838403
vt 0.3863636 0.838403
vt 0.3688017 0.8079848
vt 0.3853306 0.8079848
vt 0.3853306 0.838403
vt 0.3688017 0.838403

# Normal
vn 0 0 -1

# Mesh description
g testhome_mesh_0003

# Faces
f 1/1/1 2/2/1 3/3/1 4/4/1
f 5/5/1 6/6/1 7/7/1 8/8/1
f 9/5/1 10/6/1 11/7/1 12/8/1
f 13/9/1 14/10/1 15/11/1 16/12/1
f 17/13/1 18/14/1 19/15/1 20/16/1
f 21/17/1 22/18/1 23/19/1 24/20/1
f 25/21/1 26/22/1 27/23/1 28/24/1
f 29/25/1 30/26/1 31/27/1 32/28/1
f 33/29/1 34/30/1 35/31/1 36/32/1
f 37/29/1 38/30/1 39/31/1 40/32/1
f 41/33/1 42/34/1 43/35/1 44/36/1
f 45/37/1 46/38/1 47/39/1 48/40/1
f 49/41/1 50/42/1 51/43/1 52/44/1
f 53/45/1 54/46/1 55/47/1 56/48/1
f 57/49/1 58/50/1 59/51/1 60/52/1
f 61/53/1 62/54/1 63/55/1 64/56/1
f 65/57/1 66/58/1 67/59/1 68/60/1
f 69/61/1 70/62/1 71/63/1 72/64/1
f 73/65/1 74/66/1 75/67/1 76/68/1
f 77/69/1 78/70/1 79/71/1 80/72/1
f 81/53/1 82/54/1 83/55/1 84/56/1
f 85/57/1 86/58/1 87/59/1 88/60/1
f 89/73/1 90/74/1 91/75/1 92/76/1

