# Tiled2Unity generated file. Do not modify by hand.
# Wavefront file for 'village_house2_mesh_0004.obj'

# Vertices (Count = 72)
v -192 -48 0
v -208 -48 0
v -208 -32 0
v -192 -32 0
v -176 -48 0
v -192 -48 0
v -192 -32 0
v -176 -32 0
v -160 -48 0
v -176 -48 0
v -176 -32 0
v -160 -32 0
v -192 -64 0
v -208 -64 0
v -208 -48 0
v -192 -48 0
v -176 -64 0
v -192 -64 0
v -192 -48 0
v -176 -48 0
v -160 -64 0
v -176 -64 0
v -176 -48 0
v -160 -48 0
v -80 -64 0
v -96 -64 0
v -96 -48 0
v -80 -48 0
v -64 -64 0
v -80 -64 0
v -80 -48 0
v -64 -48 0
v -48 -64 0
v -64 -64 0
v -64 -48 0
v -48 -48 0
v -32 -64 0
v -48 -64 0
v -48 -48 0
v -32 -48 0
v -16 -64 0
v -32 -64 0
v -32 -48 0
v -16 -48 0
v -64 -80 0
v -80 -80 0
v -80 -64 0
v -64 -64 0
v -48 -80 0
v -64 -80 0
v -64 -64 0
v -48 -64 0
v -32 -80 0
v -48 -80 0
v -48 -64 0
v -32 -64 0
v -128 -128 0
v -144 -128 0
v -144 -112 0
v -128 -112 0
v -112 -128 0
v -128 -128 0
v -128 -112 0
v -112 -112 0
v -96 -128 0
v -112 -128 0
v -112 -112 0
v -96 -112 0
v -80 -128 0
v -96 -128 0
v -96 -112 0
v -80 -112 0

# Texture cooridinates (Count = 60)
vt 0.2598253 0.1114754
vt 0.2947598 0.1114754
vt 0.2947598 0.1639344
vt 0.2598253 0.1639344
vt 0.1484716 0.1114754
vt 0.1834061 0.1114754
vt 0.1834061 0.1639344
vt 0.1484716 0.1639344
vt 0.7423581 0
vt 0.7772925 0
vt 0.7772925 0.052459
vt 0.7423581 0.052459
vt 0.1855895 0
vt 0.220524 0
vt 0.220524 0.052459
vt 0.1855895 0.052459
vt 0.779476 0
vt 0.8144105 0
vt 0.8144105 0.052459
vt 0.779476 0.052459
vt 0.1113537 0.7245902
vt 0.1462882 0.7245902
vt 0.1462882 0.7770492
vt 0.1113537 0.7770492
vt 0.6681223 0.5016394
vt 0.7030568 0.5016394
vt 0.7030568 0.5540984
vt 0.6681223 0.5540984
vt 0.6310044 0.5016394
vt 0.6659389 0.5016394
vt 0.6659389 0.5540984
vt 0.6310044 0.5540984
vt 0.5938864 0.5016394
vt 0.628821 0.5016394
vt 0.628821 0.5540984
vt 0.5938864 0.5540984
vt 0.0742358 0.7245902
vt 0.1091703 0.7245902
vt 0.1091703 0.7770492
vt 0.0742358 0.7770492
vt 0.0371179 0.7803279
vt 0.0720524 0.7803279
vt 0.0720524 0.8327869
vt 0.0371179 0.8327869
vt 0.2598253 0.7245902
vt 0.2947598 0.7245902
vt 0.2947598 0.7770492
vt 0.2598253 0.7770492
vt 0.0742358 0.6688524
vt 0.1091703 0.6688524
vt 0.1091703 0.7213115
vt 0.0742358 0.7213115
vt 0.371179 0.947541
vt 0.4061135 0.947541
vt 0.4061135 1
vt 0.371179 1
vt 0.3340611 0.7803279
vt 0.3689956 0.7803279
vt 0.3689956 0.8327869
vt 0.3340611 0.8327869

# Normal
vn 0 0 -1

# Mesh description
g village_house2_mesh_0004

# Faces
f 1/1/1 2/2/1 3/3/1 4/4/1
f 5/5/1 6/6/1 7/7/1 8/8/1
f 9/9/1 10/10/1 11/11/1 12/12/1
f 13/13/1 14/14/1 15/15/1 16/16/1
f 17/13/1 18/14/1 19/15/1 20/16/1
f 21/17/1 22/18/1 23/19/1 24/20/1
f 25/21/1 26/22/1 27/23/1 28/24/1
f 29/25/1 30/26/1 31/27/1 32/28/1
f 33/29/1 34/30/1 35/31/1 36/32/1
f 37/33/1 38/34/1 39/35/1 40/36/1
f 41/37/1 42/38/1 43/39/1 44/40/1
f 45/41/1 46/42/1 47/43/1 48/44/1
f 49/41/1 50/42/1 51/43/1 52/44/1
f 53/41/1 54/42/1 55/43/1 56/44/1
f 57/45/1 58/46/1 59/47/1 60/48/1
f 61/49/1 62/50/1 63/51/1 64/52/1
f 65/53/1 66/54/1 67/55/1 68/56/1
f 69/57/1 70/58/1 71/59/1 72/60/1

