# Tiled2Unity generated file. Do not modify by hand.
# Wavefront file for 'village_house2_mesh_0002.obj'

# Vertices (Count = 436)
v -256 -16 0
v -272 -16 0
v -272 0 0
v -256 0 0
v -240 -16 0
v -256 -16 0
v -256 0 0
v -240 0 0
v -224 -16 0
v -240 -16 0
v -240 0 0
v -224 0 0
v -208 -16 0
v -224 -16 0
v -224 0 0
v -208 0 0
v -192 -16 0
v -208 -16 0
v -208 0 0
v -192 0 0
v -176 -16 0
v -192 -16 0
v -192 0 0
v -176 0 0
v -160 -16 0
v -176 -16 0
v -176 0 0
v -160 0 0
v -144 -16 0
v -160 -16 0
v -160 0 0
v -144 0 0
v -128 -16 0
v -144 -16 0
v -144 0 0
v -128 0 0
v -112 -16 0
v -128 -16 0
v -128 0 0
v -112 0 0
v -96 -16 0
v -112 -16 0
v -112 0 0
v -96 0 0
v -80 -16 0
v -96 -16 0
v -96 0 0
v -80 0 0
v -64 -16 0
v -80 -16 0
v -80 0 0
v -64 0 0
v -48 -16 0
v -64 -16 0
v -64 0 0
v -48 0 0
v -32 -16 0
v -48 -16 0
v -48 0 0
v -32 0 0
v -16 -16 0
v -32 -16 0
v -32 0 0
v -16 0 0
v 0 -16 0
v -16 -16 0
v -16 0 0
v 0 0 0
v -256 -32 0
v -272 -32 0
v -272 -16 0
v -256 -16 0
v -240 -32 0
v -256 -32 0
v -256 -16 0
v -240 -16 0
v -224 -32 0
v -240 -32 0
v -240 -16 0
v -224 -16 0
v -208 -32 0
v -224 -32 0
v -224 -16 0
v -208 -16 0
v -192 -32 0
v -208 -32 0
v -208 -16 0
v -192 -16 0
v -176 -32 0
v -192 -32 0
v -192 -16 0
v -176 -16 0
v -160 -32 0
v -176 -32 0
v -176 -16 0
v -160 -16 0
v -144 -32 0
v -160 -32 0
v -160 -16 0
v -144 -16 0
v -128 -32 0
v -144 -32 0
v -144 -16 0
v -128 -16 0
v -112 -32 0
v -128 -32 0
v -128 -16 0
v -112 -16 0
v -96 -32 0
v -112 -32 0
v -112 -16 0
v -96 -16 0
v -80 -32 0
v -96 -32 0
v -96 -16 0
v -80 -16 0
v -64 -32 0
v -80 -32 0
v -80 -16 0
v -64 -16 0
v -48 -32 0
v -64 -32 0
v -64 -16 0
v -48 -16 0
v -32 -32 0
v -48 -32 0
v -48 -16 0
v -32 -16 0
v -16 -32 0
v -32 -32 0
v -32 -16 0
v -16 -16 0
v 0 -32 0
v -16 -32 0
v -16 -16 0
v 0 -16 0
v -256 -48 0
v -272 -48 0
v -272 -32 0
v -256 -32 0
v -240 -48 0
v -256 -48 0
v -256 -32 0
v -240 -32 0
v -224 -48 0
v -240 -48 0
v -240 -32 0
v -224 -32 0
v -208 -48 0
v -224 -48 0
v -224 -32 0
v -208 -32 0
v -192 -48 0
v -208 -48 0
v -208 -32 0
v -192 -32 0
v -176 -48 0
v -192 -48 0
v -192 -32 0
v -176 -32 0
v -160 -48 0
v -176 -48 0
v -176 -32 0
v -160 -32 0
v -144 -48 0
v -160 -48 0
v -160 -32 0
v -144 -32 0
v -128 -48 0
v -144 -48 0
v -144 -32 0
v -128 -32 0
v -112 -48 0
v -128 -48 0
v -128 -32 0
v -112 -32 0
v -96 -48 0
v -112 -48 0
v -112 -32 0
v -96 -32 0
v -80 -48 0
v -96 -48 0
v -96 -32 0
v -80 -32 0
v -64 -48 0
v -80 -48 0
v -80 -32 0
v -64 -32 0
v -48 -48 0
v -64 -48 0
v -64 -32 0
v -48 -32 0
v -32 -48 0
v -48 -48 0
v -48 -32 0
v -32 -32 0
v -16 -48 0
v -32 -48 0
v -32 -32 0
v -16 -32 0
v 0 -48 0
v -16 -48 0
v -16 -32 0
v 0 -32 0
v -256 -64 0
v -272 -64 0
v -272 -48 0
v -256 -48 0
v -144 -64 0
v -160 -64 0
v -160 -48 0
v -144 -48 0
v 0 -64 0
v -16 -64 0
v -16 -48 0
v 0 -48 0
v -256 -80 0
v -272 -80 0
v -272 -64 0
v -256 -64 0
v 0 -80 0
v -16 -80 0
v -16 -64 0
v 0 -64 0
v -256 -96 0
v -272 -96 0
v -272 -80 0
v -256 -80 0
v -144 -96 0
v -160 -96 0
v -160 -80 0
v -144 -80 0
v 0 -96 0
v -16 -96 0
v -16 -80 0
v 0 -80 0
v -256 -112 0
v -272 -112 0
v -272 -96 0
v -256 -96 0
v -240 -112 0
v -256 -112 0
v -256 -96 0
v -240 -96 0
v -208 -112 0
v -224 -112 0
v -224 -96 0
v -208 -96 0
v -192 -112 0
v -208 -112 0
v -208 -96 0
v -192 -96 0
v -176 -112 0
v -192 -112 0
v -192 -96 0
v -176 -96 0
v -160 -112 0
v -176 -112 0
v -176 -96 0
v -160 -96 0
v -144 -112 0
v -160 -112 0
v -160 -96 0
v -144 -96 0
v 0 -112 0
v -16 -112 0
v -16 -96 0
v 0 -96 0
v -256 -128 0
v -272 -128 0
v -272 -112 0
v -256 -112 0
v -240 -128 0
v -256 -128 0
v -256 -112 0
v -240 -112 0
v -208 -128 0
v -224 -128 0
v -224 -112 0
v -208 -112 0
v -192 -128 0
v -208 -128 0
v -208 -112 0
v -192 -112 0
v -176 -128 0
v -192 -128 0
v -192 -112 0
v -176 -112 0
v -160 -128 0
v -176 -128 0
v -176 -112 0
v -160 -112 0
v -144 -128 0
v -160 -128 0
v -160 -112 0
v -144 -112 0
v -64 -128 0
v -80 -128 0
v -80 -112 0
v -64 -112 0
v 0 -128 0
v -16 -128 0
v -16 -112 0
v 0 -112 0
v -256 -144 0
v -272 -144 0
v -272 -128 0
v -256 -128 0
v -240 -144 0
v -256 -144 0
v -256 -128 0
v -240 -128 0
v -208 -144 0
v -224 -144 0
v -224 -128 0
v -208 -128 0
v -192 -144 0
v -208 -144 0
v -208 -128 0
v -192 -128 0
v -176 -144 0
v -192 -144 0
v -192 -128 0
v -176 -128 0
v -160 -144 0
v -176 -144 0
v -176 -128 0
v -160 -128 0
v -144 -144 0
v -160 -144 0
v -160 -128 0
v -144 -128 0
v -128 -144 0
v -144 -144 0
v -144 -128 0
v -128 -128 0
v -112 -144 0
v -128 -144 0
v -128 -128 0
v -112 -128 0
v -96 -144 0
v -112 -144 0
v -112 -128 0
v -96 -128 0
v -80 -144 0
v -96 -144 0
v -96 -128 0
v -80 -128 0
v -64 -144 0
v -80 -144 0
v -80 -128 0
v -64 -128 0
v -48 -144 0
v -64 -144 0
v -64 -128 0
v -48 -128 0
v -16 -144 0
v -32 -144 0
v -32 -128 0
v -16 -128 0
v 0 -144 0
v -16 -144 0
v -16 -128 0
v 0 -128 0
v -144 -160 0
v -160 -160 0
v -160 -144 0
v -144 -144 0
v -128 -160 0
v -144 -160 0
v -144 -144 0
v -128 -144 0
v -112 -160 0
v -128 -160 0
v -128 -144 0
v -112 -144 0
v -96 -160 0
v -112 -160 0
v -112 -144 0
v -96 -144 0
v -80 -160 0
v -96 -160 0
v -96 -144 0
v -80 -144 0
v -64 -160 0
v -80 -160 0
v -80 -144 0
v -64 -144 0
v -48 -160 0
v -64 -160 0
v -64 -144 0
v -48 -144 0
v -16 -160 0
v -32 -160 0
v -32 -144 0
v -16 -144 0
v 0 -160 0
v -16 -160 0
v -16 -144 0
v 0 -144 0
v -144 -176 0
v -160 -176 0
v -160 -160 0
v -144 -160 0
v -128 -176 0
v -144 -176 0
v -144 -160 0
v -128 -160 0
v -112 -176 0
v -128 -176 0
v -128 -160 0
v -112 -160 0
v -96 -176 0
v -112 -176 0
v -112 -160 0
v -96 -160 0
v -80 -176 0
v -96 -176 0
v -96 -160 0
v -80 -160 0
v -64 -176 0
v -80 -176 0
v -80 -160 0
v -64 -160 0
v -48 -176 0
v -64 -176 0
v -64 -160 0
v -48 -160 0
v -16 -176 0
v -32 -176 0
v -32 -160 0
v -16 -160 0
v 0 -176 0
v -16 -176 0
v -16 -160 0
v 0 -160 0

# Texture cooridinates (Count = 84)
vt 0.2985537 0.5817491
vt 0.3150826 0.5817491
vt 0.3150826 0.6121673
vt 0.2985537 0.6121673
vt 0.2458678 0.5817491
vt 0.2623967 0.5817491
vt 0.2623967 0.6121673
vt 0.2458678 0.6121673
vt 0.3336777 0.5494297
vt 0.3502066 0.5494297
vt 0.3502066 0.5798479
vt 0.3336777 0.5798479
vt 0.2809917 0.5817491
vt 0.2975207 0.5817491
vt 0.2975207 0.6121673
vt 0.2809917 0.6121673
vt 0.2634298 0.5494297
vt 0.2799587 0.5494297
vt 0.2799587 0.5798479
vt 0.2634298 0.5798479
vt 0.3336777 0.2908745
vt 0.3502066 0.2908745
vt 0.3502066 0.3212928
vt 0.3336777 0.3212928
vt 0.1053719 0.904943
vt 0.1219008 0.904943
vt 0.1219008 0.9353612
vt 0.1053719 0.9353612
vt 0.3161157 0.2908745
vt 0.3326446 0.2908745
vt 0.3326446 0.3212928
vt 0.3161157 0.3212928
vt 0.2985537 0.2908745
vt 0.3150826 0.2908745
vt 0.3150826 0.3212928
vt 0.2985537 0.3212928
vt 0.2283058 0.5171102
vt 0.2448347 0.5171102
vt 0.2448347 0.5475285
vt 0.2283058 0.5475285
vt 0.3161157 0.2262357
vt 0.3326446 0.2262357
vt 0.3326446 0.256654
vt 0.3161157 0.256654
vt 0.2985537 0.2262357
vt 0.3150826 0.2262357
vt 0.3150826 0.256654
vt 0.2985537 0.256654
vt 0.2458678 0.1939163
vt 0.2623967 0.1939163
vt 0.2623967 0.2243346
vt 0.2458678 0.2243346
vt 0.3336777 0.2262357
vt 0.3502066 0.2262357
vt 0.3502066 0.256654
vt 0.3336777 0.256654
vt 0.2283058 0.5494297
vt 0.2448347 0.5494297
vt 0.2448347 0.5798479
vt 0.2283058 0.5798479
vt 0.2985537 0.5494297
vt 0.3150826 0.5494297
vt 0.3150826 0.5798479
vt 0.2985537 0.5798479
vt 0.2283058 0.5817491
vt 0.2448347 0.5817491
vt 0.2448347 0.6121673
vt 0.2283058 0.6121673
vt 0.2634298 0.5817491
vt 0.2799587 0.5817491
vt 0.2799587 0.6121673
vt 0.2634298 0.6121673
vt 0.3161157 0.5817491
vt 0.3326446 0.5817491
vt 0.3326446 0.6121673
vt 0.3161157 0.6121673
vt 0.3336777 0.5817491
vt 0.3502066 0.5817491
vt 0.3502066 0.6121673
vt 0.3336777 0.6121673
vt 0.2809917 0.5494297
vt 0.2975207 0.5494297
vt 0.2975207 0.5798479
vt 0.2809917 0.5798479

# Normal
vn 0 0 -1

# Mesh description
g village_house2_mesh_0002

# Faces
f 1/1/1 2/2/1 3/3/1 4/4/1
f 5/5/1 6/6/1 7/7/1 8/8/1
f 9/5/1 10/6/1 11/7/1 12/8/1
f 13/5/1 14/6/1 15/7/1 16/8/1
f 17/5/1 18/6/1 19/7/1 20/8/1
f 21/5/1 22/6/1 23/7/1 24/8/1
f 25/5/1 26/6/1 27/7/1 28/8/1
f 29/9/1 30/10/1 31/11/1 32/12/1
f 33/5/1 34/6/1 35/7/1 36/8/1
f 37/5/1 38/6/1 39/7/1 40/8/1
f 41/5/1 42/6/1 43/7/1 44/8/1
f 45/5/1 46/6/1 47/7/1 48/8/1
f 49/5/1 50/6/1 51/7/1 52/8/1
f 53/5/1 54/6/1 55/7/1 56/8/1
f 57/5/1 58/6/1 59/7/1 60/8/1
f 61/5/1 62/6/1 63/7/1 64/8/1
f 65/13/1 66/14/1 67/15/1 68/16/1
f 69/17/1 70/18/1 71/19/1 72/20/1
f 73/21/1 74/22/1 75/23/1 76/24/1
f 77/25/1 78/26/1 79/27/1 80/28/1
f 81/29/1 82/30/1 83/31/1 84/32/1
f 85/29/1 86/30/1 87/31/1 88/32/1
f 89/29/1 90/30/1 91/31/1 92/32/1
f 93/33/1 94/34/1 95/35/1 96/36/1
f 97/37/1 98/38/1 99/39/1 100/40/1
f 101/21/1 102/22/1 103/23/1 104/24/1
f 105/29/1 106/30/1 107/31/1 108/32/1
f 109/29/1 110/30/1 111/31/1 112/32/1
f 113/29/1 114/30/1 115/31/1 116/32/1
f 117/29/1 118/30/1 119/31/1 120/32/1
f 121/29/1 122/30/1 123/31/1 124/32/1
f 125/29/1 126/30/1 127/31/1 128/32/1
f 129/33/1 130/34/1 131/35/1 132/36/1
f 133/17/1 134/18/1 135/19/1 136/20/1
f 137/17/1 138/18/1 139/19/1 140/20/1
f 141/25/1 142/26/1 143/27/1 144/28/1
f 145/25/1 146/26/1 147/27/1 148/28/1
f 149/25/1 150/26/1 151/27/1 152/28/1
f 153/41/1 154/42/1 155/43/1 156/44/1
f 157/41/1 158/42/1 159/43/1 160/44/1
f 161/45/1 162/46/1 163/47/1 164/48/1
f 165/49/1 166/50/1 167/51/1 168/52/1
f 169/53/1 170/54/1 171/55/1 172/56/1
f 173/41/1 174/42/1 175/43/1 176/44/1
f 177/41/1 178/42/1 179/43/1 180/44/1
f 181/41/1 182/42/1 183/43/1 184/44/1
f 185/41/1 186/42/1 187/43/1 188/44/1
f 189/41/1 190/42/1 191/43/1 192/44/1
f 193/41/1 194/42/1 195/43/1 196/44/1
f 197/45/1 198/46/1 199/47/1 200/48/1
f 201/17/1 202/18/1 203/19/1 204/20/1
f 205/17/1 206/18/1 207/19/1 208/20/1
f 209/49/1 210/50/1 211/51/1 212/52/1
f 213/17/1 214/18/1 215/19/1 216/20/1
f 217/17/1 218/18/1 219/19/1 220/20/1
f 221/17/1 222/18/1 223/19/1 224/20/1
f 225/17/1 226/18/1 227/19/1 228/20/1
f 229/57/1 230/58/1 231/59/1 232/60/1
f 233/17/1 234/18/1 235/19/1 236/20/1
f 237/61/1 238/62/1 239/63/1 240/64/1
f 241/65/1 242/66/1 243/67/1 244/68/1
f 245/69/1 246/70/1 247/71/1 248/72/1
f 249/5/1 250/6/1 251/7/1 252/8/1
f 253/5/1 254/6/1 255/7/1 256/8/1
f 257/5/1 258/6/1 259/7/1 260/8/1
f 261/73/1 262/74/1 263/75/1 264/76/1
f 265/17/1 266/18/1 267/19/1 268/20/1
f 269/21/1 270/22/1 271/23/1 272/24/1
f 273/33/1 274/34/1 275/35/1 276/36/1
f 277/21/1 278/22/1 279/23/1 280/24/1
f 281/29/1 282/30/1 283/31/1 284/32/1
f 285/29/1 286/30/1 287/31/1 288/32/1
f 289/33/1 290/34/1 291/35/1 292/36/1
f 293/17/1 294/18/1 295/19/1 296/20/1
f 297/57/1 298/58/1 299/59/1 300/60/1
f 301/17/1 302/18/1 303/19/1 304/20/1
f 305/53/1 306/54/1 307/55/1 308/56/1
f 309/45/1 310/46/1 311/47/1 312/48/1
f 313/53/1 314/54/1 315/55/1 316/56/1
f 317/41/1 318/42/1 319/43/1 320/44/1
f 321/41/1 322/42/1 323/43/1 324/44/1
f 325/45/1 326/46/1 327/47/1 328/48/1
f 329/61/1 330/62/1 331/63/1 332/64/1
f 333/5/1 334/6/1 335/7/1 336/8/1
f 337/5/1 338/6/1 339/7/1 340/8/1
f 341/5/1 342/6/1 343/7/1 344/8/1
f 345/5/1 346/6/1 347/7/1 348/8/1
f 349/77/1 350/78/1 351/79/1 352/80/1
f 353/65/1 354/66/1 355/67/1 356/68/1
f 357/69/1 358/70/1 359/71/1 360/72/1
f 361/81/1 362/82/1 363/83/1 364/84/1
f 365/21/1 366/22/1 367/23/1 368/24/1
f 369/29/1 370/30/1 371/31/1 372/32/1
f 373/29/1 374/30/1 375/31/1 376/32/1
f 377/29/1 378/30/1 379/31/1 380/32/1
f 381/29/1 382/30/1 383/31/1 384/32/1
f 385/29/1 386/30/1 387/31/1 388/32/1
f 389/33/1 390/34/1 391/35/1 392/36/1
f 393/21/1 394/22/1 395/23/1 396/24/1
f 397/33/1 398/34/1 399/35/1 400/36/1
f 401/53/1 402/54/1 403/55/1 404/56/1
f 405/41/1 406/42/1 407/43/1 408/44/1
f 409/41/1 410/42/1 411/43/1 412/44/1
f 413/41/1 414/42/1 415/43/1 416/44/1
f 417/41/1 418/42/1 419/43/1 420/44/1
f 421/41/1 422/42/1 423/43/1 424/44/1
f 425/45/1 426/46/1 427/47/1 428/48/1
f 429/53/1 430/54/1 431/55/1 432/56/1
f 433/45/1 434/46/1 435/47/1 436/48/1

