# Tiled2Unity generated file. Do not modify by hand.
# Wavefront file for 'village_house2_mesh_0003.obj'

# Vertices (Count = 76)
v -96 -32 0
v -112 -32 0
v -112 -16 0
v -96 -16 0
v -48 -32 0
v -64 -32 0
v -64 -16 0
v -48 -16 0
v -224 -48 0
v -240 -48 0
v -240 -32 0
v -224 -32 0
v -128 -48 0
v -144 -48 0
v -144 -32 0
v -128 -32 0
v -112 -48 0
v -128 -48 0
v -128 -32 0
v -112 -32 0
v -96 -48 0
v -112 -48 0
v -112 -32 0
v -96 -32 0
v -240 -64 0
v -256 -64 0
v -256 -48 0
v -240 -48 0
v -208 -64 0
v -224 -64 0
v -224 -48 0
v -208 -48 0
v -128 -64 0
v -144 -64 0
v -144 -48 0
v -128 -48 0
v -112 -64 0
v -128 -64 0
v -128 -48 0
v -112 -48 0
v -96 -64 0
v -112 -64 0
v -112 -48 0
v -96 -48 0
v -192 -96 0
v -208 -96 0
v -208 -80 0
v -192 -80 0
v -176 -96 0
v -192 -96 0
v -192 -80 0
v -176 -80 0
v -160 -96 0
v -176 -96 0
v -176 -80 0
v -160 -80 0
v -128 -96 0
v -144 -96 0
v -144 -80 0
v -128 -80 0
v -128 -112 0
v -144 -112 0
v -144 -96 0
v -128 -96 0
v -176 -128 0
v -192 -128 0
v -192 -112 0
v -176 -112 0
v -128 -160 0
v -144 -160 0
v -144 -144 0
v -128 -144 0
v -80 -160 0
v -96 -160 0
v -96 -144 0
v -80 -144 0

# Texture cooridinates (Count = 52)
vt 0.8254132 0.9695817
vt 0.8419421 0.9695817
vt 0.8419421 1
vt 0.8254132 1
vt 0.9659091 0.743346
vt 0.982438 0.743346
vt 0.982438 0.7737643
vt 0.9659091 0.7737643
vt 0.8605372 0.5817491
vt 0.8770661 0.5817491
vt 0.8770661 0.6121673
vt 0.8605372 0.6121673
vt 0.8429752 0.5171102
vt 0.8595041 0.5171102
vt 0.8595041 0.5475285
vt 0.8429752 0.5475285
vt 0.8078513 0.5817491
vt 0.8243802 0.5817491
vt 0.8243802 0.6121673
vt 0.8078513 0.6121673
vt 0.9307851 0.2585551
vt 0.947314 0.2585551
vt 0.947314 0.2889734
vt 0.9307851 0.2889734
vt 0.4741735 0.9695817
vt 0.4907025 0.9695817
vt 0.4907025 1
vt 0.4741735 1
vt 0.8605372 0.5171102
vt 0.8770661 0.5171102
vt 0.8770661 0.5475285
vt 0.8605372 0.5475285
vt 0.8078513 0.5171102
vt 0.8243802 0.5171102
vt 0.8243802 0.5475285
vt 0.8078513 0.5475285
vt 0.4039256 0.9695817
vt 0.4204545 0.9695817
vt 0.4204545 1
vt 0.4039256 1
vt 0.4390496 0.904943
vt 0.4555785 0.904943
vt 0.4555785 0.9353612
vt 0.4390496 0.9353612
vt 0.4741735 0.904943
vt 0.4907025 0.904943
vt 0.4907025 0.9353612
vt 0.4741735 0.9353612
vt 0.4039256 0.904943
vt 0.4204545 0.904943
vt 0.4204545 0.9353612
vt 0.4039256 0.9353612

# Normal
vn 0 0 -1

# Mesh description
g village_house2_mesh_0003

# Faces
f 1/1/1 2/2/1 3/3/1 4/4/1
f 5/1/1 6/2/1 7/3/1 8/4/1
f 9/5/1 10/6/1 11/7/1 12/8/1
f 13/9/1 14/10/1 15/11/1 16/12/1
f 17/13/1 18/14/1 19/15/1 20/16/1
f 21/17/1 22/18/1 23/19/1 24/20/1
f 25/21/1 26/22/1 27/23/1 28/24/1
f 29/25/1 30/26/1 31/27/1 32/28/1
f 33/29/1 34/30/1 35/31/1 36/32/1
f 37/13/1 38/14/1 39/15/1 40/16/1
f 41/33/1 42/34/1 43/35/1 44/36/1
f 45/37/1 46/38/1 47/39/1 48/40/1
f 49/41/1 50/42/1 51/43/1 52/44/1
f 53/45/1 54/46/1 55/47/1 56/48/1
f 57/49/1 58/50/1 59/51/1 60/52/1
f 61/49/1 62/50/1 63/51/1 64/52/1
f 65/1/1 66/2/1 67/3/1 68/4/1
f 69/1/1 70/2/1 71/3/1 72/4/1
f 73/1/1 74/2/1 75/3/1 76/4/1

