# Tiled2Unity generated file. Do not modify by hand.
# Wavefront file for 'boss_I_mesh_0003.obj'

# Vertices (Count = 532)
v -624 -16 0
v -640 -16 0
v -640 0 0
v -624 0 0
v 0 -16 0
v -16 -16 0
v -16 0 0
v 0 0 0
v -624 -32 0
v -640 -32 0
v -640 -16 0
v -624 -16 0
v 0 -32 0
v -16 -32 0
v -16 -16 0
v 0 -16 0
v -624 -48 0
v -640 -48 0
v -640 -32 0
v -624 -32 0
v -384 -48 0
v -400 -48 0
v -400 -32 0
v -384 -32 0
v -368 -48 0
v -384 -48 0
v -384 -32 0
v -368 -32 0
v -288 -48 0
v -304 -48 0
v -304 -32 0
v -288 -32 0
v -272 -48 0
v -288 -48 0
v -288 -32 0
v -272 -32 0
v -256 -48 0
v -272 -48 0
v -272 -32 0
v -256 -32 0
v -240 -48 0
v -256 -48 0
v -256 -32 0
v -240 -32 0
v 0 -48 0
v -16 -48 0
v -16 -32 0
v 0 -32 0
v -624 -64 0
v -640 -64 0
v -640 -48 0
v -624 -48 0
v -512 -64 0
v -528 -64 0
v -528 -48 0
v -512 -48 0
v -224 -64 0
v -240 -64 0
v -240 -48 0
v -224 -48 0
v -176 -64 0
v -192 -64 0
v -192 -48 0
v -176 -48 0
v 0 -64 0
v -16 -64 0
v -16 -48 0
v 0 -48 0
v -624 -80 0
v -640 -80 0
v -640 -64 0
v -624 -64 0
v -544 -80 0
v -560 -80 0
v -560 -64 0
v -544 -64 0
v -160 -80 0
v -176 -80 0
v -176 -64 0
v -160 -64 0
v 0 -80 0
v -16 -80 0
v -16 -64 0
v 0 -64 0
v -624 -96 0
v -640 -96 0
v -640 -80 0
v -624 -80 0
v -592 -96 0
v -608 -96 0
v -608 -80 0
v -592 -80 0
v -128 -96 0
v -144 -96 0
v -144 -80 0
v -128 -80 0
v 0 -96 0
v -16 -96 0
v -16 -80 0
v 0 -80 0
v -624 -112 0
v -640 -112 0
v -640 -96 0
v -624 -96 0
v -112 -112 0
v -128 -112 0
v -128 -96 0
v -112 -96 0
v 0 -112 0
v -16 -112 0
v -16 -96 0
v 0 -96 0
v -624 -128 0
v -640 -128 0
v -640 -112 0
v -624 -112 0
v 0 -128 0
v -16 -128 0
v -16 -112 0
v 0 -112 0
v -624 -144 0
v -640 -144 0
v -640 -128 0
v -624 -128 0
v -96 -144 0
v -112 -144 0
v -112 -128 0
v -96 -128 0
v 0 -144 0
v -16 -144 0
v -16 -128 0
v 0 -128 0
v -624 -160 0
v -640 -160 0
v -640 -144 0
v -624 -144 0
v -80 -160 0
v -96 -160 0
v -96 -144 0
v -80 -144 0
v 0 -160 0
v -16 -160 0
v -16 -144 0
v 0 -144 0
v -624 -176 0
v -640 -176 0
v -640 -160 0
v -624 -160 0
v -576 -176 0
v -592 -176 0
v -592 -160 0
v -576 -160 0
v -336 -176 0
v -352 -176 0
v -352 -160 0
v -336 -160 0
v -272 -176 0
v -288 -176 0
v -288 -160 0
v -272 -160 0
v -192 -176 0
v -208 -176 0
v -208 -160 0
v -192 -160 0
v -64 -176 0
v -80 -176 0
v -80 -160 0
v -64 -160 0
v 0 -176 0
v -16 -176 0
v -16 -160 0
v 0 -160 0
v -624 -192 0
v -640 -192 0
v -640 -176 0
v -624 -176 0
v -240 -192 0
v -256 -192 0
v -256 -176 0
v -240 -176 0
v -192 -192 0
v -208 -192 0
v -208 -176 0
v -192 -176 0
v -48 -192 0
v -64 -192 0
v -64 -176 0
v -48 -176 0
v 0 -192 0
v -16 -192 0
v -16 -176 0
v 0 -176 0
v -624 -208 0
v -640 -208 0
v -640 -192 0
v -624 -192 0
v 0 -208 0
v -16 -208 0
v -16 -192 0
v 0 -192 0
v -624 -224 0
v -640 -224 0
v -640 -208 0
v -624 -208 0
v 0 -224 0
v -16 -224 0
v -16 -208 0
v 0 -208 0
v -624 -240 0
v -640 -240 0
v -640 -224 0
v -624 -224 0
v -32 -240 0
v -48 -240 0
v -48 -224 0
v -32 -224 0
v 0 -240 0
v -16 -240 0
v -16 -224 0
v 0 -224 0
v -624 -256 0
v -640 -256 0
v -640 -240 0
v -624 -240 0
v 0 -256 0
v -16 -256 0
v -16 -240 0
v 0 -240 0
v -624 -272 0
v -640 -272 0
v -640 -256 0
v -624 -256 0
v -576 -272 0
v -592 -272 0
v -592 -256 0
v -576 -256 0
v -624 -288 0
v -640 -288 0
v -640 -272 0
v -624 -272 0
v -592 -288 0
v -608 -288 0
v -608 -272 0
v -592 -272 0
v -272 -288 0
v -288 -288 0
v -288 -272 0
v -272 -272 0
v -624 -304 0
v -640 -304 0
v -640 -288 0
v -624 -288 0
v -624 -320 0
v -640 -320 0
v -640 -304 0
v -624 -304 0
v -624 -336 0
v -640 -336 0
v -640 -320 0
v -624 -320 0
v -592 -336 0
v -608 -336 0
v -608 -320 0
v -592 -320 0
v -304 -336 0
v -320 -336 0
v -320 -320 0
v -304 -320 0
v -624 -352 0
v -640 -352 0
v -640 -336 0
v -624 -336 0
v -288 -352 0
v -304 -352 0
v -304 -336 0
v -288 -336 0
v -240 -352 0
v -256 -352 0
v -256 -336 0
v -240 -336 0
v 0 -352 0
v -16 -352 0
v -16 -336 0
v 0 -336 0
v -624 -368 0
v -640 -368 0
v -640 -352 0
v -624 -352 0
v -224 -368 0
v -240 -368 0
v -240 -352 0
v -224 -352 0
v 0 -368 0
v -16 -368 0
v -16 -352 0
v 0 -352 0
v -624 -384 0
v -640 -384 0
v -640 -368 0
v -624 -368 0
v 0 -384 0
v -16 -384 0
v -16 -368 0
v 0 -368 0
v -624 -400 0
v -640 -400 0
v -640 -384 0
v -624 -384 0
v 0 -400 0
v -16 -400 0
v -16 -384 0
v 0 -384 0
v -624 -416 0
v -640 -416 0
v -640 -400 0
v -624 -400 0
v -592 -416 0
v -608 -416 0
v -608 -400 0
v -592 -400 0
v 0 -416 0
v -16 -416 0
v -16 -400 0
v 0 -400 0
v -624 -432 0
v -640 -432 0
v -640 -416 0
v -624 -416 0
v 0 -432 0
v -16 -432 0
v -16 -416 0
v 0 -416 0
v -624 -448 0
v -640 -448 0
v -640 -432 0
v -624 -432 0
v 0 -448 0
v -16 -448 0
v -16 -432 0
v 0 -432 0
v -624 -464 0
v -640 -464 0
v -640 -448 0
v -624 -448 0
v -592 -464 0
v -608 -464 0
v -608 -448 0
v -592 -448 0
v -144 -464 0
v -160 -464 0
v -160 -448 0
v -144 -448 0
v -128 -464 0
v -144 -464 0
v -144 -448 0
v -128 -448 0
v 0 -464 0
v -16 -464 0
v -16 -448 0
v 0 -448 0
v -624 -480 0
v -640 -480 0
v -640 -464 0
v -624 -464 0
v -576 -480 0
v -592 -480 0
v -592 -464 0
v -576 -464 0
v -160 -480 0
v -176 -480 0
v -176 -464 0
v -160 -464 0
v -144 -480 0
v -160 -480 0
v -160 -464 0
v -144 -464 0
v -128 -480 0
v -144 -480 0
v -144 -464 0
v -128 -464 0
v 0 -480 0
v -16 -480 0
v -16 -464 0
v 0 -464 0
v -624 -496 0
v -640 -496 0
v -640 -480 0
v -624 -480 0
v -400 -496 0
v -416 -496 0
v -416 -480 0
v -400 -480 0
v -288 -496 0
v -304 -496 0
v -304 -480 0
v -288 -480 0
v -224 -496 0
v -240 -496 0
v -240 -480 0
v -224 -480 0
v -128 -496 0
v -144 -496 0
v -144 -480 0
v -128 -480 0
v 0 -496 0
v -16 -496 0
v -16 -480 0
v 0 -480 0
v -624 -512 0
v -640 -512 0
v -640 -496 0
v -624 -496 0
v -128 -512 0
v -144 -512 0
v -144 -496 0
v -128 -496 0
v -32 -512 0
v -48 -512 0
v -48 -496 0
v -32 -496 0
v 0 -512 0
v -16 -512 0
v -16 -496 0
v 0 -496 0
v -624 -528 0
v -640 -528 0
v -640 -512 0
v -624 -512 0
v -560 -528 0
v -576 -528 0
v -576 -512 0
v -560 -512 0
v 0 -528 0
v -16 -528 0
v -16 -512 0
v 0 -512 0
v -624 -544 0
v -640 -544 0
v -640 -528 0
v -624 -528 0
v -544 -544 0
v -560 -544 0
v -560 -528 0
v -544 -528 0
v 0 -544 0
v -16 -544 0
v -16 -528 0
v 0 -528 0
v -624 -560 0
v -640 -560 0
v -640 -544 0
v -624 -544 0
v 0 -560 0
v -16 -560 0
v -16 -544 0
v 0 -544 0
v -624 -576 0
v -640 -576 0
v -640 -560 0
v -624 -560 0
v -528 -576 0
v -544 -576 0
v -544 -560 0
v -528 -560 0
v -48 -576 0
v -64 -576 0
v -64 -560 0
v -48 -560 0
v 0 -576 0
v -16 -576 0
v -16 -560 0
v 0 -560 0
v -624 -592 0
v -640 -592 0
v -640 -576 0
v -624 -576 0
v -512 -592 0
v -528 -592 0
v -528 -576 0
v -512 -576 0
v 0 -592 0
v -16 -592 0
v -16 -576 0
v 0 -576 0
v -624 -608 0
v -640 -608 0
v -640 -592 0
v -624 -592 0
v -496 -608 0
v -512 -608 0
v -512 -592 0
v -496 -592 0
v -64 -608 0
v -80 -608 0
v -80 -592 0
v -64 -592 0
v 0 -608 0
v -16 -608 0
v -16 -592 0
v 0 -592 0
v -624 -624 0
v -640 -624 0
v -640 -608 0
v -624 -608 0
v -432 -624 0
v -448 -624 0
v -448 -608 0
v -432 -608 0
v -416 -624 0
v -432 -624 0
v -432 -608 0
v -416 -608 0
v -208 -624 0
v -224 -624 0
v -224 -608 0
v -208 -608 0
v -176 -624 0
v -192 -624 0
v -192 -608 0
v -176 -608 0
v 0 -624 0
v -16 -624 0
v -16 -608 0
v 0 -608 0
v -624 -640 0
v -640 -640 0
v -640 -624 0
v -624 -624 0
v 0 -640 0
v -16 -640 0
v -16 -624 0
v 0 -624 0

# Texture cooridinates (Count = 36)
vt 0.7423581 0.5016394
vt 0.7772925 0.5016394
vt 0.7772925 0.5540984
vt 0.7423581 0.5540984
vt 0.6681223 0.5016394
vt 0.7030568 0.5016394
vt 0.7030568 0.5540984
vt 0.6681223 0.5540984
vt 0.7423581 0.4459016
vt 0.7772925 0.4459016
vt 0.7772925 0.4983606
vt 0.7423581 0.4983606
vt 0.6681223 0.4459016
vt 0.7030568 0.4459016
vt 0.7030568 0.4983606
vt 0.6681223 0.4983606
vt 0.7052402 0.390164
vt 0.7401747 0.390164
vt 0.7401747 0.442623
vt 0.7052402 0.442623
vt 0.7423581 0.390164
vt 0.7772925 0.390164
vt 0.7772925 0.442623
vt 0.7423581 0.442623
vt 0.6681223 0.390164
vt 0.7030568 0.390164
vt 0.7030568 0.442623
vt 0.6681223 0.442623
vt 0.7052402 0.5016394
vt 0.7401747 0.5016394
vt 0.7401747 0.5540984
vt 0.7052402 0.5540984
vt 0.7052402 0.4459016
vt 0.7401747 0.4459016
vt 0.7401747 0.4983606
vt 0.7052402 0.4983606

# Normal
vn 0 0 -1

# Mesh description
g boss_I_mesh_0003

# Faces
f 1/1/1 2/2/1 3/3/1 4/4/1
f 5/5/1 6/6/1 7/7/1 8/8/1
f 9/9/1 10/10/1 11/11/1 12/12/1
f 13/13/1 14/14/1 15/15/1 16/16/1
f 17/9/1 18/10/1 19/11/1 20/12/1
f 21/13/1 22/14/1 23/15/1 24/16/1
f 25/9/1 26/10/1 27/11/1 28/12/1
f 29/13/1 30/14/1 31/15/1 32/16/1
f 33/17/1 34/18/1 35/19/1 36/20/1
f 37/17/1 38/18/1 39/19/1 40/20/1
f 41/9/1 42/10/1 43/11/1 44/12/1
f 45/13/1 46/14/1 47/15/1 48/16/1
f 49/9/1 50/10/1 51/11/1 52/12/1
f 53/13/1 54/14/1 55/15/1 56/16/1
f 57/17/1 58/18/1 59/19/1 60/20/1
f 61/9/1 62/10/1 63/11/1 64/12/1
f 65/13/1 66/14/1 67/15/1 68/16/1
f 69/9/1 70/10/1 71/11/1 72/12/1
f 73/13/1 74/14/1 75/15/1 76/16/1
f 77/9/1 78/10/1 79/11/1 80/12/1
f 81/13/1 82/14/1 83/15/1 84/16/1
f 85/9/1 86/10/1 87/11/1 88/12/1
f 89/13/1 90/14/1 91/15/1 92/16/1
f 93/9/1 94/10/1 95/11/1 96/12/1
f 97/13/1 98/14/1 99/15/1 100/16/1
f 101/9/1 102/10/1 103/11/1 104/12/1
f 105/9/1 106/10/1 107/11/1 108/12/1
f 109/13/1 110/14/1 111/15/1 112/16/1
f 113/21/1 114/22/1 115/23/1 116/24/1
f 117/13/1 118/14/1 119/15/1 120/16/1
f 121/1/1 122/2/1 123/3/1 124/4/1
f 125/9/1 126/10/1 127/11/1 128/12/1
f 129/13/1 130/14/1 131/15/1 132/16/1
f 133/9/1 134/10/1 135/11/1 136/12/1
f 137/9/1 138/10/1 139/11/1 140/12/1
f 141/13/1 142/14/1 143/15/1 144/16/1
f 145/9/1 146/10/1 147/11/1 148/12/1
f 149/13/1 150/14/1 151/15/1 152/16/1
f 153/5/1 154/6/1 155/7/1 156/8/1
f 157/9/1 158/10/1 159/11/1 160/12/1
f 161/13/1 162/14/1 163/15/1 164/16/1
f 165/9/1 166/10/1 167/11/1 168/12/1
f 169/13/1 170/14/1 171/15/1 172/16/1
f 173/9/1 174/10/1 175/11/1 176/12/1
f 177/9/1 178/10/1 179/11/1 180/12/1
f 181/13/1 182/14/1 183/15/1 184/16/1
f 185/9/1 186/10/1 187/11/1 188/12/1
f 189/13/1 190/14/1 191/15/1 192/16/1
f 193/9/1 194/10/1 195/11/1 196/12/1
f 197/13/1 198/14/1 199/15/1 200/16/1
f 201/9/1 202/10/1 203/11/1 204/12/1
f 205/13/1 206/14/1 207/15/1 208/16/1
f 209/9/1 210/10/1 211/11/1 212/12/1
f 213/9/1 214/10/1 215/11/1 216/12/1
f 217/13/1 218/14/1 219/15/1 220/16/1
f 221/9/1 222/10/1 223/11/1 224/12/1
f 225/25/1 226/26/1 227/27/1 228/28/1
f 229/9/1 230/10/1 231/11/1 232/12/1
f 233/13/1 234/14/1 235/15/1 236/16/1
f 237/9/1 238/10/1 239/11/1 240/12/1
f 241/13/1 242/14/1 243/15/1 244/16/1
f 245/13/1 246/14/1 247/15/1 248/16/1
f 249/9/1 250/10/1 251/11/1 252/12/1
f 253/9/1 254/10/1 255/11/1 256/12/1
f 257/9/1 258/10/1 259/11/1 260/12/1
f 261/13/1 262/14/1 263/15/1 264/16/1
f 265/9/1 266/10/1 267/11/1 268/12/1
f 269/9/1 270/10/1 271/11/1 272/12/1
f 273/9/1 274/10/1 275/11/1 276/12/1
f 277/13/1 278/14/1 279/15/1 280/16/1
f 281/5/1 282/6/1 283/7/1 284/8/1
f 285/9/1 286/10/1 287/11/1 288/12/1
f 289/13/1 290/14/1 291/15/1 292/16/1
f 293/13/1 294/14/1 295/15/1 296/16/1
f 297/9/1 298/10/1 299/11/1 300/12/1
f 301/13/1 302/14/1 303/15/1 304/16/1
f 305/9/1 306/10/1 307/11/1 308/12/1
f 309/13/1 310/14/1 311/15/1 312/16/1
f 313/9/1 314/10/1 315/11/1 316/12/1
f 317/13/1 318/14/1 319/15/1 320/16/1
f 321/13/1 322/14/1 323/15/1 324/16/1
f 325/21/1 326/22/1 327/23/1 328/24/1
f 329/13/1 330/14/1 331/15/1 332/16/1
f 333/1/1 334/2/1 335/3/1 336/4/1
f 337/13/1 338/14/1 339/15/1 340/16/1
f 341/9/1 342/10/1 343/11/1 344/12/1
f 345/13/1 346/14/1 347/15/1 348/16/1
f 349/29/1 350/30/1 351/31/1 352/32/1
f 353/5/1 354/6/1 355/7/1 356/8/1
f 357/13/1 358/14/1 359/15/1 360/16/1
f 361/9/1 362/10/1 363/11/1 364/12/1
f 365/13/1 366/14/1 367/15/1 368/16/1
f 369/9/1 370/10/1 371/11/1 372/12/1
f 373/33/1 374/34/1 375/35/1 376/36/1
f 377/13/1 378/14/1 379/15/1 380/16/1
f 381/13/1 382/14/1 383/15/1 384/16/1
f 385/9/1 386/10/1 387/11/1 388/12/1
f 389/9/1 390/10/1 391/11/1 392/12/1
f 393/5/1 394/6/1 395/7/1 396/8/1
f 397/9/1 398/10/1 399/11/1 400/12/1
f 401/13/1 402/14/1 403/15/1 404/16/1
f 405/13/1 406/14/1 407/15/1 408/16/1
f 409/9/1 410/10/1 411/11/1 412/12/1
f 413/25/1 414/26/1 415/27/1 416/28/1
f 417/9/1 418/10/1 419/11/1 420/12/1
f 421/13/1 422/14/1 423/15/1 424/16/1
f 425/9/1 426/10/1 427/11/1 428/12/1
f 429/13/1 430/14/1 431/15/1 432/16/1
f 433/13/1 434/14/1 435/15/1 436/16/1
f 437/9/1 438/10/1 439/11/1 440/12/1
f 441/13/1 442/14/1 443/15/1 444/16/1
f 445/13/1 446/14/1 447/15/1 448/16/1
f 449/9/1 450/10/1 451/11/1 452/12/1
f 453/13/1 454/14/1 455/15/1 456/16/1
f 457/9/1 458/10/1 459/11/1 460/12/1
f 461/13/1 462/14/1 463/15/1 464/16/1
f 465/9/1 466/10/1 467/11/1 468/12/1
f 469/13/1 470/14/1 471/15/1 472/16/1
f 473/9/1 474/10/1 475/11/1 476/12/1
f 477/13/1 478/14/1 479/15/1 480/16/1
f 481/13/1 482/14/1 483/15/1 484/16/1
f 485/9/1 486/10/1 487/11/1 488/12/1
f 489/13/1 490/14/1 491/15/1 492/16/1
f 493/9/1 494/10/1 495/11/1 496/12/1
f 497/13/1 498/14/1 499/15/1 500/16/1
f 501/9/1 502/10/1 503/11/1 504/12/1
f 505/13/1 506/14/1 507/15/1 508/16/1
f 509/9/1 510/10/1 511/11/1 512/12/1
f 513/13/1 514/14/1 515/15/1 516/16/1
f 517/9/1 518/10/1 519/11/1 520/12/1
f 521/13/1 522/14/1 523/15/1 524/16/1
f 525/21/1 526/22/1 527/23/1 528/24/1
f 529/25/1 530/26/1 531/27/1 532/28/1

