# Tiled2Unity generated file. Do not modify by hand.
# Wavefront file for 'boss_C_mesh_0003.obj'

# Vertices (Count = 532)
v -624 -16 0
v -640 -16 0
v -640 0 0
v -624 0 0
v 0 -16 0
v -16 -16 0
v -16 0 0
v 0 0 0
v -624 -32 0
v -640 -32 0
v -640 -16 0
v -624 -16 0
v 0 -32 0
v -16 -32 0
v -16 -16 0
v 0 -16 0
v -624 -48 0
v -640 -48 0
v -640 -32 0
v -624 -32 0
v -352 -48 0
v -368 -48 0
v -368 -32 0
v -352 -32 0
v -144 -48 0
v -160 -48 0
v -160 -32 0
v -144 -32 0
v 0 -48 0
v -16 -48 0
v -16 -32 0
v 0 -32 0
v -624 -64 0
v -640 -64 0
v -640 -48 0
v -624 -48 0
v -416 -64 0
v -432 -64 0
v -432 -48 0
v -416 -48 0
v -96 -64 0
v -112 -64 0
v -112 -48 0
v -96 -48 0
v 0 -64 0
v -16 -64 0
v -16 -48 0
v 0 -48 0
v -624 -80 0
v -640 -80 0
v -640 -64 0
v -624 -64 0
v -496 -80 0
v -512 -80 0
v -512 -64 0
v -496 -64 0
v -80 -80 0
v -96 -80 0
v -96 -64 0
v -80 -64 0
v 0 -80 0
v -16 -80 0
v -16 -64 0
v 0 -64 0
v -624 -96 0
v -640 -96 0
v -640 -80 0
v -624 -80 0
v -544 -96 0
v -560 -96 0
v -560 -80 0
v -544 -80 0
v 0 -96 0
v -16 -96 0
v -16 -80 0
v 0 -80 0
v -624 -112 0
v -640 -112 0
v -640 -96 0
v -624 -96 0
v -560 -112 0
v -576 -112 0
v -576 -96 0
v -560 -96 0
v 0 -112 0
v -16 -112 0
v -16 -96 0
v 0 -96 0
v -624 -128 0
v -640 -128 0
v -640 -112 0
v -624 -112 0
v -64 -128 0
v -80 -128 0
v -80 -112 0
v -64 -112 0
v 0 -128 0
v -16 -128 0
v -16 -112 0
v 0 -112 0
v -624 -144 0
v -640 -144 0
v -640 -128 0
v -624 -128 0
v -576 -144 0
v -592 -144 0
v -592 -128 0
v -576 -128 0
v -48 -144 0
v -64 -144 0
v -64 -128 0
v -48 -128 0
v 0 -144 0
v -16 -144 0
v -16 -128 0
v 0 -128 0
v -624 -160 0
v -640 -160 0
v -640 -144 0
v -624 -144 0
v -288 -160 0
v -304 -160 0
v -304 -144 0
v -288 -144 0
v -224 -160 0
v -240 -160 0
v -240 -144 0
v -224 -144 0
v 0 -160 0
v -16 -160 0
v -16 -144 0
v 0 -144 0
v -624 -176 0
v -640 -176 0
v -640 -160 0
v -624 -160 0
v -416 -176 0
v -432 -176 0
v -432 -160 0
v -416 -160 0
v -384 -176 0
v -400 -176 0
v -400 -160 0
v -384 -160 0
v -368 -176 0
v -384 -176 0
v -384 -160 0
v -368 -160 0
v -208 -176 0
v -224 -176 0
v -224 -160 0
v -208 -160 0
v -32 -176 0
v -48 -176 0
v -48 -160 0
v -32 -160 0
v 0 -176 0
v -16 -176 0
v -16 -160 0
v 0 -160 0
v -624 -192 0
v -640 -192 0
v -640 -176 0
v -624 -176 0
v -256 -192 0
v -272 -192 0
v -272 -176 0
v -256 -176 0
v -192 -192 0
v -208 -192 0
v -208 -176 0
v -192 -176 0
v 0 -192 0
v -16 -192 0
v -16 -176 0
v 0 -176 0
v -624 -208 0
v -640 -208 0
v -640 -192 0
v -624 -192 0
v -240 -208 0
v -256 -208 0
v -256 -192 0
v -240 -192 0
v -176 -208 0
v -192 -208 0
v -192 -192 0
v -176 -192 0
v 0 -208 0
v -16 -208 0
v -16 -192 0
v 0 -192 0
v -624 -224 0
v -640 -224 0
v -640 -208 0
v -624 -208 0
v -224 -224 0
v -240 -224 0
v -240 -208 0
v -224 -208 0
v -32 -224 0
v -48 -224 0
v -48 -208 0
v -32 -208 0
v 0 -224 0
v -16 -224 0
v -16 -208 0
v 0 -208 0
v -624 -240 0
v -640 -240 0
v -640 -224 0
v -624 -224 0
v -160 -240 0
v -176 -240 0
v -176 -224 0
v -160 -224 0
v 0 -240 0
v -16 -240 0
v -16 -224 0
v 0 -224 0
v -624 -256 0
v -640 -256 0
v -640 -240 0
v -624 -240 0
v -208 -256 0
v -224 -256 0
v -224 -240 0
v -208 -240 0
v 0 -256 0
v -16 -256 0
v -16 -240 0
v 0 -240 0
v -624 -272 0
v -640 -272 0
v -640 -256 0
v -624 -256 0
v -48 -272 0
v -64 -272 0
v -64 -256 0
v -48 -256 0
v 0 -272 0
v -16 -272 0
v -16 -256 0
v 0 -256 0
v -624 -288 0
v -640 -288 0
v -640 -272 0
v -624 -272 0
v -592 -288 0
v -608 -288 0
v -608 -272 0
v -592 -272 0
v -192 -288 0
v -208 -288 0
v -208 -272 0
v -192 -272 0
v 0 -288 0
v -16 -288 0
v -16 -272 0
v 0 -272 0
v -624 -304 0
v -640 -304 0
v -640 -288 0
v -624 -288 0
v -592 -304 0
v -608 -304 0
v -608 -288 0
v -592 -288 0
v 0 -304 0
v -16 -304 0
v -16 -288 0
v 0 -288 0
v -624 -320 0
v -640 -320 0
v -640 -304 0
v -624 -304 0
v 0 -320 0
v -16 -320 0
v -16 -304 0
v 0 -304 0
v -624 -336 0
v -640 -336 0
v -640 -320 0
v -624 -320 0
v -48 -336 0
v -64 -336 0
v -64 -320 0
v -48 -320 0
v 0 -336 0
v -16 -336 0
v -16 -320 0
v 0 -320 0
v -624 -352 0
v -640 -352 0
v -640 -336 0
v -624 -336 0
v -32 -352 0
v -48 -352 0
v -48 -336 0
v -32 -336 0
v 0 -352 0
v -16 -352 0
v -16 -336 0
v 0 -336 0
v -624 -368 0
v -640 -368 0
v -640 -352 0
v -624 -352 0
v 0 -368 0
v -16 -368 0
v -16 -352 0
v 0 -352 0
v -624 -384 0
v -640 -384 0
v -640 -368 0
v -624 -368 0
v -592 -384 0
v -608 -384 0
v -608 -368 0
v -592 -368 0
v 0 -384 0
v -16 -384 0
v -16 -368 0
v 0 -368 0
v -624 -400 0
v -640 -400 0
v -640 -384 0
v -624 -384 0
v 0 -400 0
v -16 -400 0
v -16 -384 0
v 0 -384 0
v -624 -416 0
v -640 -416 0
v -640 -400 0
v -624 -400 0
v -592 -416 0
v -608 -416 0
v -608 -400 0
v -592 -400 0
v 0 -416 0
v -16 -416 0
v -16 -400 0
v 0 -400 0
v -624 -432 0
v -640 -432 0
v -640 -416 0
v -624 -416 0
v 0 -432 0
v -16 -432 0
v -16 -416 0
v 0 -416 0
v -624 -448 0
v -640 -448 0
v -640 -432 0
v -624 -432 0
v -192 -448 0
v -208 -448 0
v -208 -432 0
v -192 -432 0
v 0 -448 0
v -16 -448 0
v -16 -432 0
v 0 -432 0
v -624 -464 0
v -640 -464 0
v -640 -448 0
v -624 -448 0
v -576 -464 0
v -592 -464 0
v -592 -448 0
v -576 -448 0
v -224 -464 0
v -240 -464 0
v -240 -448 0
v -224 -448 0
v 0 -464 0
v -16 -464 0
v -16 -448 0
v 0 -448 0
v -624 -480 0
v -640 -480 0
v -640 -464 0
v -624 -464 0
v -576 -480 0
v -592 -480 0
v -592 -464 0
v -576 -464 0
v -416 -480 0
v -432 -480 0
v -432 -464 0
v -416 -464 0
v -240 -480 0
v -256 -480 0
v -256 -464 0
v -240 -464 0
v -160 -480 0
v -176 -480 0
v -176 -464 0
v -160 -464 0
v 0 -480 0
v -16 -480 0
v -16 -464 0
v 0 -464 0
v -624 -496 0
v -640 -496 0
v -640 -480 0
v -624 -480 0
v -384 -496 0
v -400 -496 0
v -400 -480 0
v -384 -480 0
v -256 -496 0
v -272 -496 0
v -272 -480 0
v -256 -480 0
v -176 -496 0
v -192 -496 0
v -192 -480 0
v -176 -480 0
v 0 -496 0
v -16 -496 0
v -16 -480 0
v 0 -480 0
v -624 -512 0
v -640 -512 0
v -640 -496 0
v -624 -496 0
v -432 -512 0
v -448 -512 0
v -448 -496 0
v -432 -496 0
v -336 -512 0
v -352 -512 0
v -352 -496 0
v -336 -496 0
v 0 -512 0
v -16 -512 0
v -16 -496 0
v 0 -496 0
v -624 -528 0
v -640 -528 0
v -640 -512 0
v -624 -512 0
v 0 -528 0
v -16 -528 0
v -16 -512 0
v 0 -512 0
v -624 -544 0
v -640 -544 0
v -640 -528 0
v -624 -528 0
v -560 -544 0
v -576 -544 0
v -576 -528 0
v -560 -528 0
v -624 -560 0
v -640 -560 0
v -640 -544 0
v -624 -544 0
v 0 -560 0
v -16 -560 0
v -16 -544 0
v 0 -544 0
v -624 -576 0
v -640 -576 0
v -640 -560 0
v -624 -560 0
v -544 -576 0
v -560 -576 0
v -560 -560 0
v -544 -560 0
v -32 -576 0
v -48 -576 0
v -48 -560 0
v -32 -560 0
v 0 -576 0
v -16 -576 0
v -16 -560 0
v 0 -560 0
v -624 -592 0
v -640 -592 0
v -640 -576 0
v -624 -576 0
v -528 -592 0
v -544 -592 0
v -544 -576 0
v -528 -576 0
v 0 -592 0
v -16 -592 0
v -16 -576 0
v 0 -576 0
v -624 -608 0
v -640 -608 0
v -640 -592 0
v -624 -592 0
v -512 -608 0
v -528 -608 0
v -528 -592 0
v -512 -592 0
v -48 -608 0
v -64 -608 0
v -64 -592 0
v -48 -592 0
v 0 -608 0
v -16 -608 0
v -16 -592 0
v 0 -592 0
v -624 -624 0
v -640 -624 0
v -640 -608 0
v -624 -608 0
v -464 -624 0
v -480 -624 0
v -480 -608 0
v -464 -608 0
v -144 -624 0
v -160 -624 0
v -160 -608 0
v -144 -608 0
v 0 -624 0
v -16 -624 0
v -16 -608 0
v 0 -608 0
v -624 -640 0
v -640 -640 0
v -640 -624 0
v -624 -624 0
v 0 -640 0
v -16 -640 0
v -16 -624 0
v 0 -624 0

# Texture cooridinates (Count = 24)
vt 0.7423581 0.5016394
vt 0.7772925 0.5016394
vt 0.7772925 0.5540984
vt 0.7423581 0.5540984
vt 0.6681223 0.5016394
vt 0.7030568 0.5016394
vt 0.7030568 0.5540984
vt 0.6681223 0.5540984
vt 0.7423581 0.4459016
vt 0.7772925 0.4459016
vt 0.7772925 0.4983606
vt 0.7423581 0.4983606
vt 0.6681223 0.4459016
vt 0.7030568 0.4459016
vt 0.7030568 0.4983606
vt 0.6681223 0.4983606
vt 0.6681223 0.390164
vt 0.7030568 0.390164
vt 0.7030568 0.442623
vt 0.6681223 0.442623
vt 0.7423581 0.390164
vt 0.7772925 0.390164
vt 0.7772925 0.442623
vt 0.7423581 0.442623

# Normal
vn 0 0 -1

# Mesh description
g boss_C_mesh_0003

# Faces
f 1/1/1 2/2/1 3/3/1 4/4/1
f 5/5/1 6/6/1 7/7/1 8/8/1
f 9/9/1 10/10/1 11/11/1 12/12/1
f 13/13/1 14/14/1 15/15/1 16/16/1
f 17/9/1 18/10/1 19/11/1 20/12/1
f 21/13/1 22/14/1 23/15/1 24/16/1
f 25/9/1 26/10/1 27/11/1 28/12/1
f 29/13/1 30/14/1 31/15/1 32/16/1
f 33/9/1 34/10/1 35/11/1 36/12/1
f 37/13/1 38/14/1 39/15/1 40/16/1
f 41/9/1 42/10/1 43/11/1 44/12/1
f 45/13/1 46/14/1 47/15/1 48/16/1
f 49/9/1 50/10/1 51/11/1 52/12/1
f 53/13/1 54/14/1 55/15/1 56/16/1
f 57/9/1 58/10/1 59/11/1 60/12/1
f 61/13/1 62/14/1 63/15/1 64/16/1
f 65/9/1 66/10/1 67/11/1 68/12/1
f 69/13/1 70/14/1 71/15/1 72/16/1
f 73/13/1 74/14/1 75/15/1 76/16/1
f 77/9/1 78/10/1 79/11/1 80/12/1
f 81/13/1 82/14/1 83/15/1 84/16/1
f 85/13/1 86/14/1 87/15/1 88/16/1
f 89/9/1 90/10/1 91/11/1 92/12/1
f 93/9/1 94/10/1 95/11/1 96/12/1
f 97/13/1 98/14/1 99/15/1 100/16/1
f 101/9/1 102/10/1 103/11/1 104/12/1
f 105/13/1 106/14/1 107/15/1 108/16/1
f 109/9/1 110/10/1 111/11/1 112/12/1
f 113/13/1 114/14/1 115/15/1 116/16/1
f 117/9/1 118/10/1 119/11/1 120/12/1
f 121/9/1 122/10/1 123/11/1 124/12/1
f 125/13/1 126/14/1 127/15/1 128/16/1
f 129/13/1 130/14/1 131/15/1 132/16/1
f 133/9/1 134/10/1 135/11/1 136/12/1
f 137/9/1 138/10/1 139/11/1 140/12/1
f 141/13/1 142/14/1 143/15/1 144/16/1
f 145/9/1 146/10/1 147/11/1 148/12/1
f 149/13/1 150/14/1 151/15/1 152/16/1
f 153/9/1 154/10/1 155/11/1 156/12/1
f 157/13/1 158/14/1 159/15/1 160/16/1
f 161/9/1 162/10/1 163/11/1 164/12/1
f 165/9/1 166/10/1 167/11/1 168/12/1
f 169/13/1 170/14/1 171/15/1 172/16/1
f 173/13/1 174/14/1 175/15/1 176/16/1
f 177/9/1 178/10/1 179/11/1 180/12/1
f 181/9/1 182/10/1 183/11/1 184/12/1
f 185/13/1 186/14/1 187/15/1 188/16/1
f 189/13/1 190/14/1 191/15/1 192/16/1
f 193/9/1 194/10/1 195/11/1 196/12/1
f 197/9/1 198/10/1 199/11/1 200/12/1
f 201/9/1 202/10/1 203/11/1 204/12/1
f 205/13/1 206/14/1 207/15/1 208/16/1
f 209/9/1 210/10/1 211/11/1 212/12/1
f 213/13/1 214/14/1 215/15/1 216/16/1
f 217/13/1 218/14/1 219/15/1 220/16/1
f 221/9/1 222/10/1 223/11/1 224/12/1
f 225/9/1 226/10/1 227/11/1 228/12/1
f 229/13/1 230/14/1 231/15/1 232/16/1
f 233/9/1 234/10/1 235/11/1 236/12/1
f 237/9/1 238/10/1 239/11/1 240/12/1
f 241/13/1 242/14/1 243/15/1 244/16/1
f 245/9/1 246/10/1 247/11/1 248/12/1
f 249/13/1 250/14/1 251/15/1 252/16/1
f 253/9/1 254/10/1 255/11/1 256/12/1
f 257/13/1 258/14/1 259/15/1 260/16/1
f 261/9/1 262/10/1 263/11/1 264/12/1
f 265/13/1 266/14/1 267/15/1 268/16/1
f 269/13/1 270/14/1 271/15/1 272/16/1
f 273/9/1 274/10/1 275/11/1 276/12/1
f 277/13/1 278/14/1 279/15/1 280/16/1
f 281/9/1 282/10/1 283/11/1 284/12/1
f 285/9/1 286/10/1 287/11/1 288/12/1
f 289/13/1 290/14/1 291/15/1 292/16/1
f 293/9/1 294/10/1 295/11/1 296/12/1
f 297/9/1 298/10/1 299/11/1 300/12/1
f 301/13/1 302/14/1 303/15/1 304/16/1
f 305/9/1 306/10/1 307/11/1 308/12/1
f 309/13/1 310/14/1 311/15/1 312/16/1
f 313/9/1 314/10/1 315/11/1 316/12/1
f 317/13/1 318/14/1 319/15/1 320/16/1
f 321/13/1 322/14/1 323/15/1 324/16/1
f 325/9/1 326/10/1 327/11/1 328/12/1
f 329/13/1 330/14/1 331/15/1 332/16/1
f 333/9/1 334/10/1 335/11/1 336/12/1
f 337/13/1 338/14/1 339/15/1 340/16/1
f 341/13/1 342/14/1 343/15/1 344/16/1
f 345/9/1 346/10/1 347/11/1 348/12/1
f 349/17/1 350/18/1 351/19/1 352/20/1
f 353/9/1 354/10/1 355/11/1 356/12/1
f 357/9/1 358/10/1 359/11/1 360/12/1
f 361/5/1 362/6/1 363/7/1 364/8/1
f 365/9/1 366/10/1 367/11/1 368/12/1
f 369/13/1 370/14/1 371/15/1 372/16/1
f 373/9/1 374/10/1 375/11/1 376/12/1
f 377/13/1 378/14/1 379/15/1 380/16/1
f 381/9/1 382/10/1 383/11/1 384/12/1
f 385/13/1 386/14/1 387/15/1 388/16/1
f 389/13/1 390/14/1 391/15/1 392/16/1
f 393/9/1 394/10/1 395/11/1 396/12/1
f 397/13/1 398/14/1 399/15/1 400/16/1
f 401/13/1 402/14/1 403/15/1 404/16/1
f 405/9/1 406/10/1 407/11/1 408/12/1
f 409/13/1 410/14/1 411/15/1 412/16/1
f 413/9/1 414/10/1 415/11/1 416/12/1
f 417/13/1 418/14/1 419/15/1 420/16/1
f 421/13/1 422/14/1 423/15/1 424/16/1
f 425/9/1 426/10/1 427/11/1 428/12/1
f 429/9/1 430/10/1 431/11/1 432/12/1
f 433/13/1 434/14/1 435/15/1 436/16/1
f 437/13/1 438/14/1 439/15/1 440/16/1
f 441/9/1 442/10/1 443/11/1 444/12/1
f 445/17/1 446/18/1 447/19/1 448/20/1
f 449/9/1 450/10/1 451/11/1 452/12/1
f 453/13/1 454/14/1 455/15/1 456/16/1
f 457/9/1 458/10/1 459/11/1 460/12/1
f 461/5/1 462/6/1 463/7/1 464/8/1
f 465/9/1 466/10/1 467/11/1 468/12/1
f 469/13/1 470/14/1 471/15/1 472/16/1
f 473/9/1 474/10/1 475/11/1 476/12/1
f 477/13/1 478/14/1 479/15/1 480/16/1
f 481/9/1 482/10/1 483/11/1 484/12/1
f 485/13/1 486/14/1 487/15/1 488/16/1
f 489/13/1 490/14/1 491/15/1 492/16/1
f 493/9/1 494/10/1 495/11/1 496/12/1
f 497/13/1 498/14/1 499/15/1 500/16/1
f 501/9/1 502/10/1 503/11/1 504/12/1
f 505/13/1 506/14/1 507/15/1 508/16/1
f 509/9/1 510/10/1 511/11/1 512/12/1
f 513/13/1 514/14/1 515/15/1 516/16/1
f 517/9/1 518/10/1 519/11/1 520/12/1
f 521/13/1 522/14/1 523/15/1 524/16/1
f 525/21/1 526/22/1 527/23/1 528/24/1
f 529/17/1 530/18/1 531/19/1 532/20/1

